<?xml version="1.0" standalone="no"?>
<!DOCTYPE svg PUBLIC "-//W3C//DTD SVG 1.1//EN" "http://www.w3.org/Graphics/SVG/1.1/DTD/svg11.dtd" >
<svg xmlns="http://www.w3.org/2000/svg" xmlns:xlink="http://www.w3.org/1999/xlink" version="1.1">
<metadata>
Created by FontForge 20190801 at Wed Feb  7 19:57:38 2018
 By www-data
(c) 2018 MCKL, Inc. All rights reserved.
</metadata>
<defs>
<font id="ogilvyserifregularitalic" horiz-adv-x="500" >
  <font-face 
    font-family="ogilvyserifregularitalic"
    font-weight="400"
    font-stretch="normal"
    units-per-em="1000"
    panose-1="2 2 5 3 6 4 3 13 1 3"
    ascent="800"
    descent="-200"
    x-height="471"
    cap-height="700"
    bbox="-247 -267 1547.06 970"
    underline-thickness="50"
    underline-position="-125"
    unicode-range="U+000D-FB06"
  />
<missing-glyph horiz-adv-x="514" 
d="M61 750h394v-850h-394v850z" />
    <glyph glyph-name="fi" unicode="fi" horiz-adv-x="556" 
d="M80 -38q-36 -94 -85 -139t-112 -45q-43 0 -71 19t-28 48q0 21 13.5 34.5t32.5 13.5q20 0 29.5 -11t13.5 -29q9 -37 35 -37q14 0 27.5 8.5t24.5 33.5q8 19 20.5 58.5t29.5 85.5l154 415h-79l7 16l89 28l30 82q39 104 95 152.5t125 48.5q27 0 49.5 -6.5t39.5 -17.5
t26.5 -25.5t9.5 -29.5q0 -20 -11.5 -32.5t-28.5 -12.5q-16 0 -27.5 9.5t-22.5 32.5t-24 33t-33 10q-43 0 -77 -63q-18 -34 -28 -75.5t-31 -97.5l-2 -5l172 1q37 0 62.5 2t51.5 10l-173 -406q-4 -13 7 -13q13 0 42.5 14.5t87.5 58.5l4 -3q-51 -73 -97 -106.5t-94 -33.5
q-35 0 -46 18.5t2 49.5l145 339q8 20 -13 20l-169 1z" />
    <glyph glyph-name="fl" unicode="fl" horiz-adv-x="557" 
d="M92 433l89 28l30 81q39 105 98 153.5t134 48.5q74 0 116 -47l99 49l-268 -675q-6 -13 7 -13t42.5 14.5t87.5 58.5l4 -3q-51 -73 -97 -106.5t-94 -33.5q-35 0 -45.5 18.5t1.5 49.5l143 359l-186 1l-173 -454q-35 -94 -84.5 -139t-112.5 -45q-43 0 -70.5 19t-28.5 48
q0 21 13.5 34.5t32.5 13.5q20 0 29.5 -11t13.5 -29q9 -37 35 -37q14 0 27.5 8.5t24.5 33.5q8 19 20.5 58.5t29.5 85.5l154 415h-79zM271 463l187 2l49 122q11 28 11 50t-10 37t-28 23t-43 8q-31 0 -59 -16t-46 -50q-9 -17 -15.5 -34.5t-12.5 -38.5t-13 -45t-18 -53z" />
    <glyph glyph-name="f_b" unicode="fb" horiz-adv-x="799" 
d="M92 433l89 28l30 81q39 105 98 153.5t134 48.5q73 0 115 -47l98 49l-177 -447q30 49 56.5 82.5t51.5 54.5t49 30t50 9q43 0 71 -31.5t28 -91.5q0 -71 -28 -136.5t-75.5 -116t-109.5 -81t-129 -30.5q-42 0 -73 10.5t-55 26.5q-13 9 -15.5 24t7.5 40l130 326l-184 1
l-173 -454q-35 -94 -84.5 -139t-112.5 -45q-43 0 -70.5 19t-28.5 48q0 21 13.5 34.5t32.5 13.5q20 0 29.5 -11t13.5 -29q9 -37 35 -37q14 0 27.5 8.5t24.5 33.5q8 19 20.5 58.5t29.5 85.5l154 415h-79zM271 463l185 2l49 122q22 56 1 87t-69 31q-31 0 -59 -16t-46 -50
q-9 -17 -15.5 -34.5t-12.5 -38.5t-13 -45t-18 -53zM394 86q-22 -56 52 -56q46 0 91 30.5t80 77t57 102.5t22 108q0 35 -13.5 52t-36.5 17q-16 0 -33.5 -8.5t-41 -31.5t-55.5 -65.5t-76 -109.5z" />
    <glyph glyph-name="f_f_b" unicode="ffb" horiz-adv-x="1070" 
d="M80 -38q-35 -94 -84.5 -139t-112.5 -45q-43 0 -70.5 19t-28.5 48q0 21 13.5 34.5t32.5 13.5q20 0 29.5 -11t13.5 -29q9 -37 35 -37q14 0 27.5 8.5t24.5 33.5q8 19 20.5 58.5t29.5 85.5l154 415h-79l7 16l89 28l30 82q39 104 96.5 152.5t126.5 48.5q50 0 85 -19.5
t43 -46.5q63 66 152 66q36 0 66 -12t50 -34l98 48l-176 -444q29 48 55.5 81.5t51 53.5t49 29t50.5 9q43 0 71 -31.5t28 -91.5q0 -71 -28.5 -136.5t-75.5 -116t-109 -81t-129 -30.5q-42 0 -73.5 10.5t-54.5 26.5q-14 9 -16 24t8 40l129 326l-185 1l-172 -454
q-38 -97 -85.5 -140.5t-102.5 -43.5q-37 0 -60.5 17.5t-24.5 43.5q0 17 12 29t29 12q27 0 39 -28q8 -17 15.5 -25.5t18.5 -8.5q23 0 39 40q8 19 20.5 58.5t29.5 85.5l154 414h-182zM271 463l182 1l29 78q17 45 36 77q-25 4 -44 42q-11 23 -26 33.5t-35 10.5q-47 0 -81 -66
q-9 -16 -15.5 -33.5t-12.5 -38t-13 -45t-18 -53.5zM542 464l186 1l48 122q22 56 1.5 87t-69.5 31q-32 0 -60 -16.5t-45 -49.5q-9 -17 -15.5 -34.5t-12.5 -38.5t-13.5 -45t-18.5 -53zM666 86q-22 -56 51 -56q46 0 91.5 30.5t80.5 77t57 102.5t22 108q0 35 -14 52t-36 17
q-16 0 -33.5 -8.5t-41 -31.5t-55.5 -65.5t-76 -109.5z" />
    <glyph glyph-name="f_f" unicode="ff" horiz-adv-x="584" 
d="M80 -38q-36 -94 -85 -139t-112 -45q-43 0 -71 19t-28 48q0 21 13.5 34.5t32.5 13.5q20 0 29.5 -11t13.5 -29q9 -37 35 -37q14 0 27.5 8.5t24.5 33.5q8 19 20.5 58.5t29.5 85.5l154 415h-79l7 16l89 28l30 82q39 104 96.5 152.5t126.5 48.5q49 0 83 -18.5t44 -44.5
q58 63 138 63q23 0 43.5 -6.5t36 -17t24.5 -24.5t9 -29q0 -20 -11.5 -32.5t-28.5 -12.5t-27.5 9.5t-20.5 29.5q-12 23 -25 32.5t-31 9.5q-17 0 -31.5 -10t-28.5 -35q-15 -29 -27 -75t-35 -109l-4 -10l110 1l-20 -50h-108l-173 -453q-37 -97 -85 -140.5t-103 -43.5
q-37 0 -61 17.5t-24 43.5q0 17 12 29t29 12q27 0 39 -28q8 -17 15.5 -25.5t18.5 -8.5q23 0 39 40q8 19 20.5 58.5t29.5 85.5l154 414h-182zM271 463l182 1l32 87q8 19 15.5 36t16.5 33q-25 3 -43 41q-11 23 -26 33.5t-35 10.5q-47 0 -81 -66q-9 -16 -15.5 -33.5t-12.5 -38
t-13 -45t-18 -53.5z" />
    <glyph glyph-name="f_h" unicode="fh" horiz-adv-x="822" 
d="M273 0l165 415l-185 1l-173 -454q-35 -94 -84.5 -139t-112.5 -45q-43 0 -70.5 19t-28.5 48q0 21 13.5 34.5t32.5 13.5q20 0 29.5 -11t13.5 -29q9 -37 35 -37q14 0 27.5 8.5t24.5 33.5q8 19 20.5 58.5t29.5 85.5l154 415h-79l7 16l89 28l30 81q39 105 98 153.5t134 48.5
q73 0 115 -47l99 49l-192 -484q42 59 78 100t67.5 66.5t59.5 37t56 11.5q44 0 60.5 -32.5t-8.5 -85.5l-135 -288q-6 -13 7 -13t42.5 14.5t87.5 58.5l5 -3q-51 -73 -97.5 -106.5t-96.5 -33.5q-35 0 -47 18.5t1 46.5l144 306q21 47 -18 47q-15 0 -33 -9t-45 -33t-65 -66.5
t-93 -109.5l-74 -188h-88zM271 463l187 2l48 122q22 56 1 87t-70 31q-31 0 -59 -16t-46 -50q-9 -17 -15.5 -34.5t-12.5 -38.5t-13 -45t-18 -53z" />
    <glyph glyph-name="f_f_h" unicode="ffh" horiz-adv-x="1093" 
d="M80 -38q-35 -94 -84.5 -139t-112.5 -45q-43 0 -70.5 19t-28.5 48q0 21 13.5 34.5t32.5 13.5q20 0 29.5 -11t13.5 -29q9 -37 35 -37q14 0 27.5 8.5t24.5 33.5q8 19 20.5 58.5t29.5 85.5l154 415h-79l7 16l89 28l30 82q39 104 96.5 152.5t126.5 48.5q50 0 85 -19.5
t43 -46.5q63 66 152 66q73 0 115 -47l99 49l-192 -484q42 59 78 100t67.5 66.5t59.5 37t56 11.5q44 0 60.5 -32.5t-8.5 -85.5l-135 -288q-6 -13 7 -13t42.5 14.5t87.5 58.5l5 -3q-51 -73 -97.5 -106.5t-96.5 -33.5q-35 0 -47 18.5t1 46.5l144 306q21 47 -18 47q-15 0 -33 -9
t-45 -33t-65 -66.5t-93 -109.5l-74 -188h-89l165 415l-185 1l-172 -454q-38 -97 -85.5 -140.5t-102.5 -43.5q-37 0 -60.5 17.5t-24.5 43.5q0 17 12 29t29 12q27 0 39 -28q8 -17 15.5 -25.5t18.5 -8.5q23 0 39 40q8 19 20.5 58.5t29.5 85.5l154 414h-182zM271 463l182 1
l29 78q17 45 36 77q-25 4 -44 42q-11 23 -26 33.5t-35 10.5q-47 0 -81 -66q-9 -16 -15.5 -33.5t-12.5 -38t-13 -45t-18 -53.5zM542 464l186 1l48 122q22 56 1.5 87t-69.5 31q-32 0 -60 -16.5t-45 -49.5q-9 -17 -15.5 -34.5t-12.5 -38.5t-13.5 -45t-18.5 -53z" />
    <glyph glyph-name="f_f_i" unicode="ffi" horiz-adv-x="827" 
d="M80 -38q-35 -94 -84.5 -139t-112.5 -45q-43 0 -70.5 19t-28.5 48q0 21 13.5 34.5t32.5 13.5q20 0 29.5 -11t13.5 -29q9 -37 35 -37q14 0 27.5 8.5t24.5 33.5q8 19 20.5 58.5t29.5 85.5l154 415h-79l7 16l89 28l30 82q39 104 96.5 152.5t126.5 48.5q49 0 84 -19t43 -45
q61 64 141 64q54 0 89 -24t36 -55q0 -20 -11.5 -32.5t-29.5 -12.5q-16 0 -27.5 9.5t-22.5 32.5t-24 33t-32 10q-45 0 -77 -63q-9 -17 -15.5 -35.5t-12.5 -39.5t-13.5 -45.5t-18.5 -52.5l-2 -5l173 1q37 0 62.5 2t50.5 10l-172 -406q-6 -13 7 -13t42.5 14.5t87.5 58.5l4 -3
q-51 -73 -97.5 -106.5t-94.5 -33.5q-35 0 -46 18.5t2 49.5l145 339q8 20 -13 20l-169 1l-172 -454q-38 -97 -85.5 -140.5t-102.5 -43.5q-37 0 -60.5 17.5t-24.5 43.5q0 17 12 29t29 12q27 0 39 -28q8 -17 15.5 -25.5t18.5 -8.5q23 0 39 40q8 19 20.5 58.5t29.5 85.5l154 414
h-182zM271 463l182 1l29 79q8 22 17 40.5t18 35.5q-23 4 -43 42q-11 23 -26 33.5t-35 10.5q-47 0 -81 -66q-9 -16 -15.5 -33.5t-12.5 -38t-13 -45t-18 -53.5z" />
    <glyph glyph-name="f_dotlessi" unicode="f&#x131;" horiz-adv-x="551" 
d="M80 -38q-36 -94 -85 -139t-112 -45q-43 0 -71 19t-28 48q0 21 13.5 34.5t32.5 13.5q20 0 29.5 -11t13.5 -29q9 -37 35 -37q14 0 27.5 8.5t24.5 33.5q8 19 20.5 58.5t29.5 85.5l154 415h-79l7 16l89 28l30 82q39 104 95 152.5t125 48.5q27 0 49.5 -6.5t39.5 -17.5
t26.5 -25.5t9.5 -29.5q0 -20 -11.5 -32.5t-28.5 -12.5q-16 0 -27.5 9.5t-22.5 32.5t-24 33t-33 10q-43 0 -77 -63q-18 -34 -28 -75.5t-31 -97.5l-2 -5l172 1q37 0 62.5 2t51.5 10l-173 -406q-4 -13 7 -13q13 0 42.5 14.5t87.5 58.5l4 -3q-51 -73 -97 -106.5t-94 -33.5
q-35 0 -46 18.5t2 49.5l145 339q8 20 -13 20l-169 1z" />
    <glyph glyph-name="f_j" unicode="fj" horiz-adv-x="545" 
d="M80 -38q-36 -94 -85 -139t-112 -45q-43 0 -71 19t-28 48q0 21 13.5 34.5t32.5 13.5q20 0 29.5 -11t13.5 -29q9 -37 35 -37q14 0 27.5 8.5t24.5 33.5q8 19 20.5 58.5t29.5 85.5l154 415h-79l7 16l89 28l30 82q39 104 95 152.5t125 48.5q27 0 49.5 -6.5t39.5 -17.5
t26.5 -25.5t9.5 -29.5q0 -20 -11.5 -32.5t-28.5 -12.5q-16 0 -27.5 9.5t-22.5 32.5t-24 33t-33 10q-43 0 -77 -63q-18 -34 -28 -75t-31 -98l-2 -5l165 1q37 0 62.5 2t50.5 10l-197 -515q-37 -96 -85.5 -140t-108.5 -44q-38 0 -61.5 16t-23.5 39q0 17 12 28.5t29 11.5
q14 0 24 -7t18 -15q10 -9 18.5 -17t19.5 -8q12 0 22 10t21 36q6 14 13.5 37t15.5 48.5t16 50.5t16 44l131 343q8 20 -13 20l-163 1z" />
    <glyph glyph-name="f_f_j" unicode="ffj" horiz-adv-x="815" 
d="M80 -38q-35 -94 -84.5 -139t-112.5 -45q-43 0 -70.5 19t-28.5 48q0 21 13.5 34.5t32.5 13.5q20 0 29.5 -11t13.5 -29q9 -37 35 -37q14 0 27.5 8.5t24.5 33.5q8 19 20.5 58.5t29.5 85.5l154 415h-79l7 16l89 28l30 82q39 104 96.5 152.5t126.5 48.5q49 0 84 -19t43 -45
q61 64 141 64q54 0 89 -24t36 -55q0 -20 -11.5 -32.5t-29.5 -12.5q-16 0 -27.5 9.5t-22.5 32.5t-24 33t-32 10q-45 0 -77 -63q-9 -17 -15.5 -35.5t-12.5 -39.5t-13.5 -45.5t-18.5 -52.5l-2 -5l166 1q37 0 62 2t51 10l-198 -515q-37 -96 -85.5 -140t-108.5 -44
q-37 0 -60.5 16t-23.5 39q0 17 11.5 28.5t29.5 11.5q14 0 23.5 -6.5t17.5 -14.5q10 -9 18.5 -17.5t19.5 -8.5q12 0 22 10t21 36q6 14 13.5 37t16 48.5t16.5 50.5t15 44l132 343q8 20 -13 20l-164 1l-172 -454q-38 -97 -85.5 -140.5t-102.5 -43.5q-37 0 -60.5 17.5
t-24.5 43.5q0 17 12 29t29 12q27 0 39 -28q8 -17 15.5 -25.5t18.5 -8.5q23 0 39 40q8 19 20.5 58.5t29.5 85.5l154 414h-182zM271 463l182 1l29 79q8 22 17 40.5t18 35.5q-23 4 -43 42q-11 23 -26 33.5t-35 10.5q-47 0 -81 -66q-9 -16 -15.5 -33.5t-12.5 -38t-13 -45
t-18 -53.5z" />
    <glyph glyph-name="f_k" unicode="fk" horiz-adv-x="772" 
d="M273 0l165 415l-185 1l-173 -454q-35 -94 -84.5 -139t-112.5 -45q-43 0 -70.5 19t-28.5 48q0 21 13.5 34.5t32.5 13.5q20 0 29.5 -11t13.5 -29q9 -37 35 -37q14 0 27.5 8.5t24.5 33.5q8 19 20.5 58.5t29.5 85.5l154 415h-79l7 16l89 28l30 81q39 105 98 153.5t134 48.5
q73 0 115 -47l99 49l-197 -496q52 58 92 100.5t72.5 70t60.5 40.5t57 13q34 0 49 -16t15 -35t-11.5 -31.5t-30.5 -12.5q-11 0 -18.5 4.5t-15.5 9.5t-16 9t-19 4q-12 0 -25.5 -5.5t-33 -21t-47 -42t-66.5 -68.5l57 -125q14 -30 24.5 -49t18.5 -29.5t15 -14t15 -3.5q12 0 28 9
t49 36l5 -3q-58 -104 -123 -104q-17 0 -31 6t-26.5 20t-26 38.5t-29.5 61.5l-48 114l-90 -226h-88zM271 463l187 2l48 122q22 56 1 87t-70 31q-31 0 -59 -16t-46 -50q-9 -17 -15.5 -34.5t-12.5 -38.5t-13 -45t-18 -53z" />
    <glyph glyph-name="f_f_k" unicode="ffk" horiz-adv-x="1041" 
d="M80 -38q-35 -94 -84.5 -139t-112.5 -45q-43 0 -70.5 19t-28.5 48q0 21 13.5 34.5t32.5 13.5q20 0 29.5 -11t13.5 -29q9 -37 35 -37q14 0 27.5 8.5t24.5 33.5q8 19 20.5 58.5t29.5 85.5l154 415h-79l7 16l89 28l30 82q39 104 96.5 152.5t126.5 48.5q50 0 85 -19.5
t43 -46.5q63 66 152 66q73 0 115 -47l99 49l-196 -494q52 58 91.5 100t72 69t60 40t56.5 13q34 0 49 -16t15 -35t-11.5 -31.5t-30.5 -12.5q-11 0 -18.5 4.5t-15.5 9.5t-16 9t-19 4q-12 0 -25.5 -5.5t-33 -21t-47 -42t-66.5 -68.5l57 -125q14 -30 24.5 -49t18.5 -29.5t15 -14
t15 -3.5q12 0 28 9t49 36l5 -3q-58 -104 -123 -104q-17 0 -31 6t-26.5 20t-26 38.5t-29.5 61.5l-48 113l-89 -225h-89l165 415l-185 1l-172 -454q-38 -97 -85.5 -140.5t-102.5 -43.5q-37 0 -60.5 17.5t-24.5 43.5q0 17 12 29t29 12q27 0 39 -28q8 -17 15.5 -25.5t18.5 -8.5
q23 0 39 40q8 19 20.5 58.5t29.5 85.5l154 414h-182zM271 463l182 1l29 78q17 45 36 77q-25 4 -44 42q-11 23 -26 33.5t-35 10.5q-47 0 -81 -66q-9 -16 -15.5 -33.5t-12.5 -38t-13 -45t-18 -53.5zM542 464l186 1l48 122q22 56 1.5 87t-69.5 31q-32 0 -60 -16.5t-45 -49.5
q-9 -17 -15.5 -34.5t-12.5 -38.5t-13.5 -45t-18.5 -53z" />
    <glyph glyph-name="f_f_l" unicode="ffl" horiz-adv-x="828" 
d="M80 -38q-35 -94 -84.5 -139t-112.5 -45q-43 0 -70.5 19t-28.5 48q0 21 13.5 34.5t32.5 13.5q20 0 29.5 -11t13.5 -29q9 -37 35 -37q14 0 27.5 8.5t24.5 33.5q8 19 20.5 58.5t29.5 85.5l154 415h-79l7 16l89 28l30 82q39 104 96.5 152.5t126.5 48.5q50 0 85 -19.5
t43 -46.5q63 66 152 66q74 0 116 -47l99 49l-268 -675q-6 -13 7 -13t42.5 14.5t87.5 58.5l4 -3q-51 -73 -97.5 -106.5t-94.5 -33.5q-35 0 -45.5 18.5t1.5 49.5l143 359l-186 1l-172 -454q-38 -97 -85.5 -140.5t-102.5 -43.5q-37 0 -60.5 17.5t-24.5 43.5q0 17 12 29t29 12
q27 0 39 -28q8 -17 15.5 -25.5t18.5 -8.5q23 0 39 40q8 19 20.5 58.5t29.5 85.5l154 414h-182zM271 463l182 1l29 78q17 45 36 77q-25 4 -44 42q-11 23 -26 33.5t-35 10.5q-47 0 -81 -66q-9 -16 -15.5 -33.5t-12.5 -38t-13 -45t-18 -53.5zM542 464l187 1l48 122
q22 56 1.5 87t-70.5 31q-32 0 -60 -16.5t-45 -49.5q-9 -17 -15.5 -34.5t-12.5 -38.5t-13.5 -45t-18.5 -53z" />
    <glyph glyph-name=".notdef" horiz-adv-x="514" 
d="M61 750h394v-850h-394v850z" />
    <glyph glyph-name=".null" horiz-adv-x="0" 
 />
    <glyph glyph-name="nonmarkingreturn" horiz-adv-x="333" 
 />
    <glyph glyph-name="NULL" horiz-adv-x="181" 
 />
    <glyph glyph-name="NULL" horiz-adv-x="181" 
 />
    <glyph glyph-name="CR" unicode="&#xd;" horiz-adv-x="181" 
 />
    <glyph glyph-name="space" unicode=" " horiz-adv-x="181" 
 />
    <glyph glyph-name="exclam" unicode="!" horiz-adv-x="249" 
d="M94 187q27 74 46 142t33.5 126.5t26 106.5t22.5 82q13 39 33.5 54.5t45.5 15.5q32 0 41.5 -23t-5.5 -61q-13 -33 -36.5 -79t-52.5 -103t-61 -123t-61 -138h-32zM60 -8q-23 0 -38.5 14.5t-15.5 37.5q0 29 19.5 47.5t45.5 18.5q23 0 38.5 -14.5t15.5 -37.5
q0 -29 -19.5 -47.5t-45.5 -18.5z" />
    <glyph glyph-name="quotedbl" unicode="&#x22;" horiz-adv-x="391" 
d="M304 740q26 0 36.5 -17t-0.5 -45q-5 -12 -14 -28.5t-25 -42t-40.5 -63t-60.5 -91.5h-8q9 58 15.5 98t12 67t10 43.5t9.5 28.5q9 23 25.5 36.5t39.5 13.5zM475 740q26 0 36.5 -17t-0.5 -45q-5 -12 -14 -28.5t-25 -42t-40.5 -63t-60.5 -91.5h-8q9 58 15.5 98t12 67t10 43.5
t9.5 28.5q9 23 25.5 36.5t39.5 13.5z" />
    <glyph glyph-name="numbersign" unicode="#" horiz-adv-x="595" 
d="M110 174h-97l31 81h108l101 190h-135l31 82h147l93 177h49l-93 -177h189l93 177h50l-93 -177h95l-31 -82h-107l-101 -190h135l-31 -81h-146l-94 -178h-50l94 178h-189l-94 -178h-49zM390 255l101 190h-189l-101 -190h189z" />
    <glyph glyph-name="dollar" unicode="$" horiz-adv-x="558" 
d="M166 -3q-69 17 -110 57.5t-42 89.5q0 23 12.5 38.5t35.5 15.5q20 0 33 -14t19 -49q5 -33 23 -56t47 -35l108 280l-54 41q-38 29 -55 63t-17 76q0 47 19 85.5t51 65.5t74 42t87 15q22 0 43 -3l33 85h42l-36 -95q56 -17 91.5 -55t35.5 -84q0 -25 -12.5 -39t-31.5 -14
q-20 0 -33 14.5t-18 52.5q-6 54 -50 79l-98 -254l62 -45q39 -29 55 -63.5t16 -76.5q0 -53 -20 -95t-54 -71t-79 -44.5t-96 -15.5q-11 0 -21 0.5t-21 1.5l-36 -94h-42zM329 421l94 244q-14 3 -30 3q-30 0 -56 -10.5t-45 -28.5t-30 -42t-11 -50q0 -32 14 -55.5t45 -46.5z
M326 302l-104 -268q6 -1 12 -1.5t13 -0.5q34 0 63.5 11.5t51 32t33.5 48.5t12 60q0 57 -55 98z" />
    <glyph glyph-name="percent" unicode="%" horiz-adv-x="862" 
d="M252 321q-54 0 -86 31t-32 97q0 40 16 86t44 84t67 63.5t84 25.5q53 0 85 -31t32 -97q0 -41 -16 -86.5t-44 -83.5t-66.5 -63.5t-83.5 -25.5zM255 348q24 0 48 26t42.5 64.5t30.5 83.5t12 83q0 42 -12.5 59t-33.5 17q-24 0 -48 -25t-43 -63.5t-30.5 -85t-11.5 -88.5
q0 -38 12 -54.5t34 -16.5zM726 706h59l-564 -712h-58zM611 -8q-54 0 -86 31t-32 97q0 40 16 86t44 84t67 63.5t84 25.5q53 0 85 -31t32 -97q0 -41 -16 -86.5t-44 -83.5t-66.5 -63.5t-83.5 -25.5zM614 19q24 0 48 26t42.5 64.5t30.5 83.5t12 83q0 42 -12.5 59t-33.5 17
q-24 0 -48 -25t-43 -63.5t-30.5 -85t-11.5 -88.5q0 -38 12 -54.5t34 -16.5z" />
    <glyph glyph-name="ampersand" unicode="&#x26;" horiz-adv-x="760" 
d="M183 -14q-38 0 -69 11.5t-52.5 31.5t-33 48t-11.5 61q0 78 59 144.5t188 115.5q-11 34 -16.5 63t-5.5 53q0 48 17.5 85.5t46 63t66 38.5t76.5 13q66 0 104.5 -31t38.5 -84q0 -60 -52.5 -114.5t-167.5 -98.5q17 -46 38 -95.5t43 -94.5q27 30 57 66q37 45 64.5 75.5t50 49
t42.5 26.5t43 8q36 0 59.5 -18t23.5 -46q0 -26 -13.5 -41.5t-32.5 -15.5q-17 0 -29.5 7.5t-21.5 30.5q-4 11 -10.5 14.5t-14.5 3.5q-7 0 -15.5 -4.5t-22.5 -18t-35.5 -37.5t-54.5 -64q-36 -44 -69 -78q18 -33 33.5 -54.5t30.5 -34t31 -17.5t35 -5q46 0 90 36l4 -3
q-59 -90 -159 -90q-48 0 -80 25t-58 70q-59 -51 -110 -73t-107 -22zM336 543q0 -29 3.5 -54t14.5 -58q84 29 124 74.5t40 95.5q0 35 -20 56t-52 21q-23 0 -43 -10.5t-35 -28.5t-23.5 -43t-8.5 -53zM116 155q0 -49 28 -77.5t76 -28.5q38 0 75 16.5t83 57.5q-25 50 -48 103
t-50 125q-81 -29 -122.5 -82.5t-41.5 -113.5z" />
    <glyph glyph-name="quotesingle" unicode="'" horiz-adv-x="220" 
d="M304 740q26 0 36.5 -17t-0.5 -45q-5 -12 -14 -28.5t-25 -42t-40.5 -63t-60.5 -91.5h-8q9 58 15.5 98t12 67t10 43.5t9.5 28.5q9 23 25.5 36.5t39.5 13.5z" />
    <glyph glyph-name="parenleft" unicode="(" horiz-adv-x="368" 
d="M93 373q36 90 87.5 158.5t113.5 117.5t130.5 79t137.5 42l2 -8q-116 -43 -212.5 -146.5t-158.5 -265.5q-29 -78 -42.5 -147t-13.5 -123q0 -65 16.5 -117.5t64.5 -94.5l-6 -8q-77 46 -120 120.5t-43 174.5q0 46 10 102t34 116z" />
    <glyph glyph-name="parenright" unicode=")" horiz-adv-x="368" 
d="M344 257q-36 -90 -87.5 -158.5t-113.5 -117.5t-130.5 -79t-137.5 -42l-2 8q116 43 212.5 146.5t158.5 265.5q29 78 42.5 147t13.5 123q0 65 -16.5 117.5t-64.5 94.5l6 8q77 -46 120 -120.5t43 -174.5q0 -46 -10 -102t-34 -116z" />
    <glyph glyph-name="asterisk" unicode="*" horiz-adv-x="475" 
d="M203 461q-19 -2 -32 7t-15 27q-3 19 7 31.5t29 15.5q8 1 18.5 0.5t26.5 -2.5t39 -6.5t57 -10.5l1 -6q-31 -15 -52.5 -25.5t-36 -17t-24.5 -9.5t-18 -4zM280 337q-17 7 -22.5 21.5t1.5 31.5q3 7 8 16t15 21.5t25 31t38 44.5l5 -2q-2 -35 -4 -58.5t-3.5 -39.5t-3.5 -26
t-5 -18q-7 -17 -21.5 -23.5t-32.5 1.5zM340 539q-29 19 -48.5 32.5t-32.5 23t-21 16t-13 13.5q-11 15 -9 31t16 27q15 12 30.5 9.5t27.5 -16.5q5 -6 10 -15.5t11 -24.5t14 -37l20 -55zM480 364q-15 -12 -30 -9t-27 17q-5 7 -10 16t-11 23.5t-14.5 36.5t-20.5 55l5 4
q29 -19 48.5 -32t33 -22.5t21 -16t12.5 -13.5q25 -33 -7 -59zM362 545q3 35 4.5 58.5t3.5 40t4 26.5t5 18q7 17 21 23.5t32 -1.5q17 -7 23 -21.5t-1 -31.5q-3 -8 -8.5 -16.5t-15.5 -21.5t-25.5 -31t-37.5 -45zM520 505q-8 -1 -18 -0.5t-26 2.5t-39.5 6t-57.5 10l-1 6
q31 15 52.5 25.5t36.5 17.5t24.5 10t17.5 4q19 2 31.5 -7t15.5 -28q2 -18 -7.5 -30.5t-28.5 -15.5z" />
    <glyph glyph-name="plus" unicode="+" horiz-adv-x="556" 
d="M109 386h206l85 209h52l-85 -209h207l-18 -46h-208l-84 -208h-52l84 208h-205z" />
    <glyph glyph-name="comma" unicode="," horiz-adv-x="220" 
d="M-82 -146q46 27 72 56.5t26 52.5q0 13 -5 23t-11 19.5t-11 20t-5 24.5q0 24 17 42t41 18q23 0 39.5 -16t16.5 -45q0 -27 -12.5 -56.5t-35 -58t-54.5 -53t-70 -40.5z" />
    <glyph glyph-name="hyphen" unicode="-" horiz-adv-x="389" 
d="M76 306h298l-18 -46h-297z" />
    <glyph glyph-name="period" unicode="." horiz-adv-x="220" 
d="M35 -8q-23 0 -38.5 14.5t-15.5 37.5q0 29 19.5 47.5t45.5 18.5q23 0 38.5 -14.5t15.5 -37.5q0 -29 -19.5 -47.5t-45.5 -18.5z" />
    <glyph glyph-name="slash" unicode="/" horiz-adv-x="485" 
d="M577 754h63l-692 -878h-63z" />
    <glyph glyph-name="zero" unicode="0" horiz-adv-x="626" 
d="M272 -14q-42 0 -78.5 15.5t-62.5 45.5t-41 74.5t-15 102.5q0 53 13.5 110t38.5 111.5t59 103t76 85.5t89.5 58.5t98.5 21.5q43 0 79 -15.5t62 -45.5t41 -74.5t15 -102.5q0 -53 -13.5 -109.5t-38.5 -111t-59 -103.5t-76 -86t-89.5 -58.5t-98.5 -21.5zM277 28q34 0 68 24
t64.5 63t57 89.5t46 103.5t30.5 104t11 93q0 78 -30 122.5t-79 44.5q-34 0 -68 -23.5t-64.5 -62.5t-57 -89.5t-46 -103.5t-30.5 -104.5t-11 -93.5q0 -78 30 -122.5t79 -44.5z" />
    <glyph glyph-name="one" unicode="1" horiz-adv-x="336" 
d="M-43 31l78 9q11 2 15.5 5.5t8.5 13.5l213 552q5 14 3 20.5t-17 11.5l-64 17l6 14l209 40l-251 -651q-5 -12 -2 -17t14 -7l75 -8l-13 -31h-288z" />
    <glyph glyph-name="two" unicode="2" horiz-adv-x="517" 
d="M206 224q77 64 125.5 112.5t76 86t37.5 68.5t10 61q0 52 -31 85t-79 33q-30 0 -51 -10t-34.5 -25.5t-20 -34.5t-6.5 -38q0 -10 1 -19.5t-1 -20.5q-4 -20 -15.5 -32t-28.5 -12q-22 0 -36 15t-14 44q0 30 13.5 61.5t41.5 57t69.5 42t97.5 16.5q49 0 86.5 -12t63 -33
t38.5 -49t13 -59q0 -23 -6 -46t-24.5 -50.5t-52.5 -62.5t-90 -83l-268 -227q-6 -5 -4 -8.5t8 -3.5h183q25 0 42 3t31 12t27 26t31 44h31l-70 -165h-462z" />
    <glyph glyph-name="three" unicode="3" horiz-adv-x="519" 
d="M197 -12q-50 0 -87 13t-61 34.5t-36 48.5t-12 55q0 32 15.5 48t35.5 16t32.5 -14t12.5 -35q0 -11 -1 -21t-1 -21q0 -14 5 -28.5t16.5 -26t31.5 -19t50 -7.5q39 0 73.5 16.5t60 44t40.5 64t15 76.5q0 64 -41 98t-119 34h-44l283 244q14 13 1 13h-160q-23 0 -39 -3
t-29.5 -12.5t-27 -26.5t-31.5 -44h-31l71 165h426l-312 -264q-10 -9 3 -12q32 -6 59.5 -22t47.5 -39.5t31 -53.5t11 -64q0 -54 -22.5 -101t-61.5 -81.5t-91.5 -54.5t-113.5 -20z" />
    <glyph glyph-name="four" unicode="4" horiz-adv-x="609" 
d="M201 31l55 7q11 2 15.5 6t9.5 15l54 133h-333l257 252q35 34 62 65t47 62t34 62.5t22 66.5h113q-8 -22 -19 -43.5t-27.5 -44t-39 -47t-54.5 -54.5l-251 -233q-12 -12 4 -12h215l64 157l120 65l-90 -222h10q23 0 38.5 3t29 13t27.5 27t32 46h30l-72 -163h-125l-54 -133
q-5 -11 -2.5 -15t11.5 -6l57 -7l-12 -31h-240z" />
    <glyph glyph-name="five" unicode="5" horiz-adv-x="517" 
d="M186 -12q-50 0 -87 12.5t-61.5 33.5t-36.5 47.5t-12 54.5q0 32 16 48t36 16t32.5 -14t12.5 -35q0 -11 -1 -21t-1 -21q0 -14 5 -27.5t17.5 -24t33.5 -17.5t52 -7q39 0 73 16.5t58.5 43.5t39 62.5t14.5 73.5q0 65 -39.5 101t-110.5 36q-32 0 -66 -3.5t-67 -12.5l170 350
h223q28 0 45.5 2t30 8t22 17t21.5 29h32l-61 -135h-298l-87 -182q16 3 32 4t33 1q49 0 89.5 -13.5t69.5 -38t45 -59.5t16 -78q0 -55 -23.5 -103.5t-63 -85t-92.5 -57.5t-112 -21z" />
    <glyph glyph-name="six" unicode="6" horiz-adv-x="579" 
d="M269 -13q-55 0 -93.5 19.5t-62.5 50.5t-34.5 70.5t-10.5 80.5q0 60 16 121t44 117t66 104.5t83 84t94 56t100 20.5q42 0 73 -11t51.5 -29.5t30.5 -42t10 -48.5q1 -31 -15 -47.5t-36 -16.5t-32.5 14.5t-12.5 34.5q0 11 1.5 21.5t1.5 21.5q0 21 -17 40t-60 19
q-37 0 -73.5 -20t-70 -54.5t-62.5 -80.5t-50 -98t-32.5 -107t-11.5 -107q1 -86 28 -128t75 -42q35 0 66.5 19t55 50.5t37.5 71.5t14 81q0 58 -30.5 91t-84.5 33q-26 0 -51.5 -9t-51.5 -23l-2 3q30 36 68 60t86 24q75 0 118.5 -46t43.5 -121q0 -64 -25.5 -115t-64.5 -87
t-86.5 -55.5t-92.5 -19.5z" />
    <glyph glyph-name="seven" unicode="7" horiz-adv-x="517" 
d="M87 0q15 52 36.5 101.5t53 100.5t75 104.5t101.5 113.5l182 187q12 12 -4 12h-213q-26 0 -43.5 -3t-32 -13.5t-28.5 -29.5t-33 -50h-32l75 177h469l-244 -250q-51 -53 -90.5 -104.5t-69.5 -106t-52 -113.5t-38 -126h-112z" />
    <glyph glyph-name="eight" unicode="8" horiz-adv-x="566" 
d="M31 163q0 75 51.5 128t161.5 69l1 -5q-63 -31 -93 -81t-30 -108q0 -66 34.5 -102t91.5 -36q36 0 66 12t51 33t33 49t12 59q0 32 -14.5 63t-50.5 63l-63 58q-24 22 -40.5 41t-27 38t-15 38t-4.5 41q0 40 16.5 75t45.5 61t69.5 40.5t87.5 14.5q41 0 75 -11t58 -30.5
t37.5 -46.5t13.5 -58q0 -66 -45.5 -110t-129.5 -51l-1 4q52 26 74 64.5t22 86.5t-30.5 79t-78.5 31q-28 0 -51 -9.5t-40 -26t-26.5 -39t-9.5 -48.5q0 -32 17 -56.5t55 -60.5l61 -58q48 -45 69.5 -81.5t21.5 -80.5q0 -51 -19.5 -92.5t-54 -71t-83 -46t-106.5 -16.5
q-47 0 -86 12.5t-67 36t-43.5 56t-15.5 72.5z" />
    <glyph glyph-name="nine" unicode="9" horiz-adv-x="579" 
d="M407 713q55 0 93.5 -19.5t62.5 -50.5t34.5 -71t10.5 -80q0 -60 -16 -121t-44 -117t-66 -104.5t-83 -84t-94.5 -56t-99.5 -20.5q-42 0 -73 11t-51.5 29.5t-30.5 42t-10 48.5q-1 31 15 47.5t36 16.5t32.5 -14.5t12.5 -34.5q0 -11 -1.5 -21.5t-1.5 -21.5q0 -21 17 -40
t60 -19q37 0 73.5 20t70 54.5t62.5 80.5t50 98t32.5 107t11.5 107q-1 86 -28 128t-75 42q-35 0 -66.5 -19t-55 -50.5t-37.5 -71.5t-14 -81q0 -58 30.5 -91t84.5 -33q26 0 51.5 9t51.5 23l2 -3q-30 -36 -68 -60t-86 -24q-75 0 -118.5 46t-43.5 121q0 64 25.5 115t64.5 87
t86.5 55.5t92.5 19.5z" />
    <glyph glyph-name="colon" unicode=":" horiz-adv-x="240" 
d="M49 -8q-23 0 -38.5 14.5t-15.5 37.5q0 29 19.5 47.5t45.5 18.5q23 0 38.5 -14.5t15.5 -37.5q0 -29 -19.5 -47.5t-45.5 -18.5zM181 353q-23 0 -38.5 14.5t-15.5 37.5q0 29 19.5 47.5t45.5 18.5q23 0 38.5 -14.5t15.5 -37.5q0 -29 -19.5 -47.5t-45.5 -18.5z" />
    <glyph glyph-name="semicolon" unicode=";" horiz-adv-x="240" 
d="M-68 -146q46 27 72 56.5t26 52.5q0 13 -5 23t-11 19.5t-11 20t-5 24.5q0 24 17 42t41 18q23 0 39.5 -16t16.5 -45q0 -27 -12.5 -56.5t-35 -58t-54.5 -53t-70 -40.5zM181 353q-23 0 -38.5 14.5t-15.5 37.5q0 29 19.5 47.5t45.5 18.5q23 0 38.5 -14.5t15.5 -37.5
q0 -29 -19.5 -47.5t-45.5 -18.5z" />
    <glyph glyph-name="less" unicode="&#x3c;" horiz-adv-x="556" 
d="M468 142l-381 222l560 223l-22 -59l-433 -169l295 -171z" />
    <glyph glyph-name="equal" unicode="=" horiz-adv-x="556" 
d="M159 491h451l-19 -46h-451zM74 281h451l-19 -46h-451z" />
    <glyph glyph-name="greater" unicode="&#x3e;" horiz-adv-x="556" 
d="M194 586l381 -222l-560 -223l22 59l433 169l-295 171z" />
    <glyph glyph-name="question" unicode="?" horiz-adv-x="516" 
d="M378 395q23 13 42 28.5t33 33.5t21.5 40t7.5 50q0 53 -31 88.5t-87 35.5q-28 0 -48 -8t-33 -20.5t-19 -28.5t-6 -31q0 -7 1 -13.5t1 -14.5q0 -21 -12 -38t-32 -17q-18 0 -33.5 14t-15.5 42q0 27 12.5 55t37.5 51t63.5 37.5t89.5 14.5q48 0 86.5 -14t66 -37.5t42 -54.5
t14.5 -65q0 -76 -47.5 -124t-137.5 -82l-29 -11q-51 -20 -68.5 -36.5t-17.5 -36.5q0 -27 38 -29l-15 -29q-27 -3 -48.5 13t-21.5 42q0 40 27 65.5t73 52.5zM213 -8q-23 0 -38.5 14.5t-15.5 37.5q0 29 19.5 47.5t45.5 18.5q23 0 38.5 -14.5t15.5 -37.5q0 -29 -19.5 -47.5
t-45.5 -18.5z" />
    <glyph glyph-name="at" unicode="@" horiz-adv-x="772" 
d="M294 35q-35 0 -59 23.5t-25 68.5t20.5 91.5t56 84t77.5 61t84 23.5q42 0 71 -27l69 28h3l-86 -231q-13 -36 0 -54.5t49 -18.5q28 0 54.5 16.5t46.5 45t32 67t12 83.5q0 56 -19.5 101t-54 76.5t-81.5 48.5t-102 17q-72 0 -136 -28.5t-112 -78.5t-76 -117.5t-28 -146.5
q0 -60 21.5 -113t60.5 -92t93 -61.5t119 -22.5q66 0 121.5 21.5t103.5 56.5l5 -5q-51 -56 -111 -80t-131 -24q-69 0 -127.5 24t-102 66.5t-68 101t-24.5 126.5q0 84 29.5 158t82 129t124.5 87t157 32q61 0 115 -19t94 -55t63 -87.5t23 -115.5q0 -54 -16.5 -101t-45 -81
t-67 -53.5t-81.5 -19.5q-52 0 -78.5 26t-24.5 67q-35 -54 -66 -76t-65 -22zM285 130q2 -44 36 -44q10 0 21.5 4t25.5 16t32 33t42 55l54 143q-18 12 -39 12q-29 0 -59.5 -22t-55.5 -54.5t-41 -71t-16 -71.5z" />
    <glyph glyph-name="A" unicode="A" horiz-adv-x="757" 
d="M-68 32l25 4q23 4 39.5 14t36.5 34l530 624h49l7 -639q0 -17 4.5 -23t16.5 -8l33 -6l-12 -32h-255l12 32l49 7q29 5 38.5 16t9.5 34v170h-272l-134 -160q-48 -56 10 -63l30 -4l-12 -32h-217zM279 302h236l-1 262q0 7 -3.5 8t-8.5 -5z" />
    <glyph glyph-name="B" unicode="B" horiz-adv-x="664" 
d="M499 700q86 0 134 -38t48 -102q0 -36 -15 -67.5t-42.5 -56.5t-66.5 -42t-87 -24q66 -12 102.5 -51t36.5 -95q0 -50 -24 -91t-67.5 -70.5t-104.5 -46t-136 -16.5h-337l13 32l82 9q11 2 15.5 5.5t8.5 13.5l222 577q8 20 -12 23l-71 9l13 31h288zM294 390h79q44 0 82 13
t66 35t44 52t16 63q0 51 -29 77.5t-86 26.5h-69zM278 44q51 0 93.5 14.5t72.5 39.5t46.5 58.5t16.5 71.5q0 56 -34.5 87.5t-96.5 31.5h-98l-108 -281q-8 -22 16 -22h92z" />
    <glyph glyph-name="C" unicode="C" horiz-adv-x="738" 
d="M342 -12q-55 0 -101.5 18.5t-81 53t-54 83.5t-19.5 109q0 98 37.5 182t100.5 146t146 97t174 35q61 0 101.5 -15t67 -33.5t41.5 -33.5t26 -15q3 0 7 1.5t11.5 6t20.5 13.5t34 24l-86 -210h-39q9 48 -0.5 87.5t-33.5 68t-60.5 44t-82.5 15.5q-70 0 -134.5 -34.5t-114 -93
t-79 -136t-29.5 -163.5q1 -97 46 -150t115 -53q81 0 157 51t138 140h39l-99 -239q-14 41 -19.5 55t-10.5 14q-7 0 -24.5 -10.5t-45.5 -23.5t-65 -23.5t-83 -10.5z" />
    <glyph glyph-name="D" unicode="D" horiz-adv-x="767" 
d="M468 700q72 0 129.5 -18t98 -52.5t62.5 -85t22 -114.5q0 -90 -39.5 -168.5t-107 -136.5t-157.5 -91.5t-191 -33.5h-345l13 32l82 9q11 2 15.5 5.5t8.5 13.5l222 577q8 20 -12 23l-71 9l13 31h257zM269 44q83 0 156.5 32t128.5 86.5t87 126t32 149.5q0 103 -60 161
t-164 58h-52l-227 -591q-8 -22 16 -22h83z" />
    <glyph glyph-name="E" unicode="E" horiz-adv-x="651" 
d="M419 251l9 64q2 14 -2.5 19.5t-19.5 5.5l-130 3l-106 -277q-8 -22 16 -22h175q34 0 57.5 4t44.5 18.5t43 43t54 78.5h39l-79 -188h-580l13 32l82 9q11 2 15.5 5.5t8.5 13.5l222 577q8 20 -12 23l-71 9l13 31h546l-70 -184h-37q7 49 8 77t-6 42.5t-22.5 18t-41.5 3.5h-191
l-105 -273l128 2q15 0 23 4t16 18l39 68h40l-80 -225h-39z" />
    <glyph glyph-name="F" unicode="F" horiz-adv-x="611" 
d="M169 64q-8 -23 12 -24l81 -8l-12 -32h-310l13 32l82 9q11 2 15.5 5.5t8.5 13.5l222 577q8 20 -12 23l-71 9l13 31h551l-70 -184h-37q7 49 8 77t-6 42.5t-22.5 18t-41.5 3.5h-196l-107 -279l133 3q14 0 22 4t16 18l40 68h39l-80 -225h-39l9 64q2 14 -2.5 19.5t-18.5 5.5
l-135 3z" />
    <glyph glyph-name="G" unicode="G" horiz-adv-x="792" 
d="M354 -12q-57 0 -106 18.5t-85 53.5t-57 86t-21 116q0 95 37 177.5t100 143t146 95t176 34.5q63 0 104 -15t67.5 -33.5t42 -33.5t26.5 -15q3 0 7 1.5t11.5 6t20.5 13.5t34 24l-84 -210h-39q9 48 -1.5 87.5t-36 68t-64.5 44t-87 15.5q-69 0 -132.5 -34t-112.5 -91.5
t-78 -133t-29 -158.5q0 -53 13.5 -93t36.5 -67t54.5 -41t68.5 -14q42 0 88.5 17t88.5 52l64 162q10 22 -12 24l-81 8l12 31h290l-13 -31l-66 -9q-11 -2 -15.5 -5.5t-8.5 -13.5l-110 -276q-9 20 -15 32t-10.5 18.5t-7 8.5t-5.5 2q-8 0 -25 -10t-43.5 -22.5t-62 -22.5
t-80.5 -10z" />
    <glyph glyph-name="H" unicode="H" horiz-adv-x="812" 
d="M169 64q-5 -12 -2 -17t14 -7l71 -8l-13 -32h-299l13 32l82 9q11 2 15.5 5.5t8.5 13.5l222 577q8 20 -12 23l-71 9l13 31h298l-12 -31l-82 -10q-11 -2 -15.5 -5.5t-8.5 -12.5l-98 -255h347l97 251q8 20 -12 23l-71 9l12 31h299l-13 -31l-81 -10q-11 -2 -15.5 -5.5
t-8.5 -12.5l-222 -577q-5 -12 -2 -17t14 -7l71 -8l-13 -32h-299l13 32l82 9q11 2 15.5 5.5t8.5 13.5l108 280h-348z" />
    <glyph glyph-name="I" unicode="I" horiz-adv-x="360" 
d="M171 64q-5 -12 -2 -17t14 -7l71 -8l-13 -32h-299l13 32l82 9q11 2 15.5 5.5t8.5 13.5l222 577q8 20 -12 23l-71 9l13 31h298l-12 -31l-82 -10q-11 -2 -15.5 -5.5t-8.5 -12.5z" />
    <glyph glyph-name="J" unicode="J" horiz-adv-x="576" 
d="M163 -12q-40 0 -73 10t-57 28t-37 42.5t-13 53.5q0 33 18.5 55.5t48.5 22.5q21 0 33 -12.5t12 -30.5q0 -14 -4.5 -29.5t-4.5 -31.5q0 -28 21 -43.5t63 -15.5q56 0 97 33.5t70 107.5l177 459q5 12 2 16.5t-14 6.5l-82 9l13 31h309l-13 -31l-81 -10q-11 -2 -15.5 -5.5
t-8.5 -12.5l-164 -425q-44 -115 -119.5 -171.5t-177.5 -56.5z" />
    <glyph glyph-name="K" unicode="K" horiz-adv-x="728" 
d="M169 64q-5 -12 -2 -17t14 -7l71 -8l-13 -32h-299l13 32l82 9q11 2 15.5 5.5t8.5 13.5l222 577q8 20 -12 23l-71 9l13 31h298l-12 -31l-82 -10q-11 -2 -15.5 -5.5t-8.5 -12.5l-96 -249l365 233q23 14 22 26.5t-17 14.5l-40 3l13 31h251l-13 -31l-29 -5q-26 -5 -56 -17.5
t-59 -30.5l-375 -237l198 -290q10 -15 18 -24t14.5 -15t13.5 -9t15 -4l28 -5l-12 -32h-143l-215 336z" />
    <glyph glyph-name="L" unicode="L" horiz-adv-x="615" 
d="M170 66q-8 -22 16 -22h154q35 0 59 4.5t45.5 21t45.5 49.5t59 90h38l-86 -209h-561l13 32l82 9q11 2 15.5 5.5t8.5 13.5l222 577q8 20 -12 23l-71 9l13 31h309l-13 -31l-92 -10q-10 -1 -15 -4.5t-9 -13.5z" />
    <glyph glyph-name="M" unicode="M" horiz-adv-x="945" 
d="M758 64q-5 -12 -2 -17t14 -7l71 -8l-13 -32h-299l13 32l82 9q11 2 15.5 5.5t8.5 13.5l190 492q2 6 -2.5 8t-9.5 -4l-466 -560h-6l-36 564q-1 8 -5.5 8t-7.5 -8l-174 -462q-11 -29 -5 -42t29 -17l46 -7l-13 -32h-248l13 32l53 8q27 5 42 17t26 41l200 521q8 20 5 27
t-17 10l-64 13l13 31h200l29 -516q2 -15 12 -3l431 519h215l-13 -31l-81 -10q-11 -2 -15.5 -5.5t-8.5 -12.5z" />
    <glyph glyph-name="N" unicode="N" horiz-adv-x="756" 
d="M388 700l184 -478q3 -8 7.5 -7t6.5 8l143 380q11 29 5 42t-29 17l-46 7l13 31h247l-12 -31l-53 -8q-27 -5 -42 -17t-26 -41l-235 -614h-2l-225 585q-3 8 -7.5 7t-6.5 -8l-179 -475q-11 -29 -5 -42t29 -17l46 -7l-13 -32h-248l13 32l53 8q27 5 42 17t26 41l200 521
q6 16 3 22t-16 10l-63 18l13 31h177z" />
    <glyph glyph-name="O" unicode="O" horiz-adv-x="805" 
d="M373 -14q-65 0 -117.5 20t-90 56.5t-57.5 89t-20 117.5q0 88 37 168.5t98.5 142t141 98t164.5 36.5q65 0 117.5 -20t90 -56.5t57.5 -89t20 -116.5q0 -88 -37 -169t-98.5 -142.5t-141 -98t-164.5 -36.5zM531 667q-63 0 -123.5 -35t-108 -94.5t-76.5 -137t-29 -161.5
q0 -49 13.5 -87t37 -64.5t56 -40.5t70.5 -14q63 0 123.5 35t108 94.5t76.5 137t29 161.5q0 49 -13.5 87.5t-37 64.5t-56 40t-70.5 14z" />
    <glyph glyph-name="P" unicode="P" horiz-adv-x="638" 
d="M483 700q107 0 167 -47t60 -132q0 -48 -21 -89.5t-57 -72.5t-83.5 -48.5t-100.5 -17.5q-37 0 -69.5 11t-55.5 31l2 4q25 -10 72 -10q46 0 84 14.5t65.5 40.5t42.5 60.5t15 75.5q0 65 -35 101t-97 36h-75l-228 -593q-8 -23 12 -24l82 -8l-13 -32h-310l13 32l82 9
q11 2 15.5 5.5t8.5 13.5l222 577q8 20 -12 23l-71 9l13 31h272z" />
    <glyph glyph-name="Q" unicode="Q" horiz-adv-x="805" 
d="M772 -80q-27 -91 -81 -137.5t-122 -46.5q-42 0 -74.5 13.5t-59 33.5t-49.5 43t-45.5 43t-46.5 33.5t-54 13.5q-22 0 -38.5 -8t-30 -17.5t-26 -17.5t-26.5 -8t-23.5 8t-9.5 22q0 19 16 28t42 14.5t60.5 11t70.5 16.5l70 22q-59 4 -106.5 25.5t-81 58t-51.5 86.5t-18 112
q0 88 37 168.5t98.5 142t141 98t164.5 36.5q65 0 117.5 -20t89.5 -56.5t57 -89t20 -117.5q0 -70 -24 -136.5t-67 -123t-102 -100t-129 -67.5l-183 -62q40 -8 77 -24.5t73 -33t74 -29t82 -12.5q42 0 80 18t76 60zM531 667q-63 0 -123.5 -35.5t-108 -94.5t-76.5 -136.5
t-29 -161.5q1 -98 50.5 -152t126.5 -54q63 0 123.5 35.5t108 95t76.5 136.5t29 161q0 49 -13.5 87.5t-37.5 64.5t-56 40t-70 14z" />
    <glyph glyph-name="R" unicode="R" horiz-adv-x="737" 
d="M315 331h-44l-103 -267q-5 -12 -2 -17t14 -7l71 -8l-12 -32h-299l12 32l82 9q11 2 15.5 5.5t8.5 13.5l222 577q8 20 -12 23l-71 9l12 31h284q95 0 146.5 -40t51.5 -110q0 -45 -19.5 -83.5t-54.5 -67.5t-85 -46.5t-111 -20.5l150 -245q17 -28 28.5 -37.5t27.5 -12.5l26 -5
l-12 -32h-137zM287 373h108q40 0 75 13t60.5 36t40 54t14.5 68q0 54 -30.5 83.5t-88.5 29.5h-70z" />
    <glyph glyph-name="S" unicode="S" horiz-adv-x="570" 
d="M260 -12q-48 0 -81 12t-56.5 26t-38.5 26t-25 12q-4 0 -8.5 -1.5t-12 -6.5t-19 -13.5t-29.5 -21.5l89 217h39q-6 -60 4 -99.5t31 -63t49.5 -33t58.5 -9.5q33 0 60.5 12t48 32.5t32 46.5t11.5 55q0 30 -15.5 55t-47.5 51l-94 77q-39 32 -58.5 65t-19.5 72q0 44 17.5 83
t47.5 68t71.5 46t89.5 17q42 0 71 -10.5t48 -23t30.5 -23t20.5 -10.5q4 0 8.5 1.5t12 6.5t19 13t29.5 22l-82 -202h-39q5 49 -1.5 83t-22.5 56t-39.5 32t-51.5 10q-30 0 -55.5 -10t-44.5 -27t-30 -40t-11 -49q0 -31 16.5 -56t50.5 -52l96 -75q37 -29 57.5 -62t20.5 -78
q0 -41 -16 -82.5t-47.5 -74.5t-77.5 -53.5t-106 -20.5z" />
    <glyph glyph-name="T" unicode="T" horiz-adv-x="668" 
d="M336 657q-27 0 -45 -4t-34.5 -20t-37.5 -48t-54 -89h-37l79 204h618l-78 -204h-37q12 57 15.5 89t-3 48t-23.5 20t-45 4h-101l-232 -593q-8 -23 12 -24l85 -8l-13 -32h-319l13 32l88 9q17 1 24 19l234 597h-109z" />
    <glyph glyph-name="U" unicode="U" horiz-adv-x="773" 
d="M749 603q11 29 5 42t-29 17l-47 7l13 31h248l-13 -31l-52 -8q-27 -5 -42 -17t-26 -41l-142 -367q-46 -119 -128.5 -183.5t-194.5 -64.5q-72 0 -122.5 22.5t-77.5 62.5t-30 93.5t21 115.5l137 355q8 20 -12 23l-71 9l12 31h299l-13 -31l-81 -10q-11 -2 -15.5 -5.5
t-8.5 -12.5l-144 -373q-17 -45 -17.5 -85t15 -70.5t48 -48t80.5 -17.5q80 0 147 51.5t108 157.5z" />
    <glyph glyph-name="V" unicode="V" horiz-adv-x="749" 
d="M910 669l-24 -4q-23 -4 -39 -14t-38 -35l-524 -624h-49l-4 640q0 17 -4.5 22.5t-15.5 7.5l-35 7l13 31h255l-13 -31l-48 -8q-29 -5 -39 -15.5t-10 -33.5l-2 -475q0 -7 3.5 -8t8.5 5l390 468q23 28 21 43t-32 19l-31 5l13 31h217z" />
    <glyph glyph-name="W" unicode="W" horiz-adv-x="1101" 
d="M635 -8l17 499q0 7 -3.5 8t-8.5 -5l-400 -502h-59l50 638q2 16 -2.5 23t-18.5 9l-33 7l13 31h253l-13 -31l-48 -8q-29 -5 -38.5 -14t-11.5 -37l-36 -454q-1 -7 2.5 -8t8.5 5l446 557h5l-17 -558q0 -7 3.5 -8t8.5 5l337 450q43 58 -8 65l-31 5l13 31h211l-13 -31l-23 -4
q-24 -5 -42 -17t-35 -35l-468 -621h-59z" />
    <glyph glyph-name="X" unicode="X" horiz-adv-x="698" 
d="M547 75q4 -13 8 -20.5t10.5 -11.5t17 -6t27.5 -5l-13 -32h-260l13 32l57 9q24 5 30.5 14t-1.5 31l-81 233l-238 -230q-23 -23 -20 -36t25 -16l39 -5l-13 -32h-225l13 32q19 3 34 7.5t27.5 10.5t24 14.5t23.5 19.5l293 281l-91 261q-5 13 -8.5 20t-9.5 11t-16 6.5t-28 5.5
l12 31h260l-12 -31l-58 -10q-24 -4 -30.5 -13t1.5 -32l66 -190l194 188q20 19 20 33t-26 18l-39 6l13 31h225l-13 -31q-38 -7 -61 -18.5t-48 -34.5l-249 -237z" />
    <glyph glyph-name="Y" unicode="Y" horiz-adv-x="685" 
d="M414 0h-319l13 32l91 9q17 1 24 19l83 214l-73 358q-4 17 -8.5 23t-18.5 9l-29 5l13 31h255l-12 -31l-50 -8q-16 -2 -25.5 -5t-14.5 -8.5t-5.5 -13t1.5 -19.5l55 -280q3 -13 13 -3l267 277q43 46 -9 54l-38 6l13 31h219l-13 -31l-19 -3q-20 -4 -38 -15t-41 -34l-334 -342
l-81 -211q-8 -23 12 -24l82 -8z" />
    <glyph glyph-name="Z" unicode="Z" horiz-adv-x="625" 
d="M561 644q5 5 4.5 9t-7.5 4h-193q-27 0 -45.5 -3.5t-36 -17.5t-37.5 -42.5t-51 -77.5h-37l70 184h517l-614 -643q-5 -5 -4.5 -9t7.5 -4h219q34 0 56.5 4.5t42 19.5t41 43.5t53.5 76.5h39l-80 -188h-558z" />
    <glyph glyph-name="bracketleft" unicode="[" horiz-adv-x="368" 
d="M305 756h237l-12 -31l-134 -5l-313 -810l131 -5l-12 -31h-237z" />
    <glyph glyph-name="backslash" unicode="\" horiz-adv-x="510" 
d="M342 -124l-116 878h50l115 -878h-49z" />
    <glyph glyph-name="bracketright" unicode="]" horiz-adv-x="368" 
d="M131 -126h-237l12 31l134 5l313 810l-131 5l12 31h237z" />
    <glyph glyph-name="asciicircum" unicode="^" horiz-adv-x="532" 
d="M419 596l-239 -194h-64l300 304h74l64 -304h-64z" />
    <glyph glyph-name="underscore" unicode="_" horiz-adv-x="502" 
d="M-111 -100h458l-19 -46h-458z" />
    <glyph glyph-name="grave" unicode="`" 
d="M420 512q-44 29 -73.5 49t-46.5 35t-24 26.5t-7 23.5q0 18 13 30t30 12q15 0 27 -7.5t24.5 -26.5t27.5 -52.5t36 -84.5z" />
    <glyph glyph-name="a" unicode="a" horiz-adv-x="528" 
d="M109 -12q-43 0 -71 31t-28 90q0 64 29.5 129.5t76 118t103.5 85.5t111 33q60 0 99 -41l91 43h4l-162 -407q-6 -12 7 -12t42.5 14.5t87.5 58.5l4 -3q-51 -73 -97 -106.5t-94 -33.5q-35 0 -45.5 18.5t1.5 49.5l41 104q-29 -48 -54 -80.5t-49 -53t-48 -29.5t-49 -9zM99 113
q0 -32 14 -49.5t36 -17.5q15 0 32 9t40 33t54.5 67t75.5 111l56 138q-17 13 -33.5 20t-35.5 7q-26 0 -54 -15t-54.5 -39.5t-50 -57t-41.5 -68t-28.5 -71.5t-10.5 -67z" />
    <glyph glyph-name="b" unicode="b" horiz-adv-x="524" 
d="M510 352q0 -71 -28 -136.5t-75.5 -116t-109.5 -81t-129 -30.5q-42 0 -73 10.5t-55 26.5q-14 9 -16 24t8 40l220 555q5 12 3 17.5t-10 10.5l-37 23l6 14l167 37l-176 -444q29 48 55.5 81.5t51 53.5t49 29t50.5 9q43 0 71 -31.5t28 -91.5zM170 30q46 0 91.5 30.5t80.5 77
t57 102.5t22 108q0 35 -14 52t-36 17q-16 0 -33.5 -8.5t-41 -31.5t-55.5 -65.5t-76 -109.5l-46 -116q-22 -56 51 -56z" />
    <glyph glyph-name="c" unicode="c" horiz-adv-x="391" 
d="M279 437q-27 0 -56.5 -29t-54.5 -73t-41.5 -97.5t-16.5 -102.5q0 -43 21 -65t54 -22q15 0 31 5.5t34.5 18t40.5 34t49 54.5l5 -2q-35 -85 -86 -128.5t-113 -43.5q-57 0 -92.5 36t-35.5 105q0 60 23 122t61 112.5t87.5 82t102.5 31.5q26 0 47.5 -7.5t36.5 -20t23.5 -28.5
t8.5 -33q0 -21 -12 -36.5t-35 -15.5q-17 0 -31.5 13.5t-17.5 46.5q-2 23 -10.5 33t-22.5 10z" />
    <glyph glyph-name="d" unicode="d" horiz-adv-x="538" 
d="M14 109q0 68 27.5 133.5t72.5 117.5t101.5 83.5t113.5 31.5q29 0 55.5 -8.5t46.5 -24.5l80 202q5 12 3 17.5t-10 10.5l-37 23l6 14l167 37l-268 -676q-5 -12 7 -12q13 0 42.5 14.5t87.5 58.5l4 -3q-51 -73 -97 -106.5t-94 -33.5q-35 0 -45.5 18.5t1.5 49.5l42 105
q-30 -48 -56 -81.5t-51 -53.5t-49.5 -29t-50.5 -9q-43 0 -71 31t-28 90zM103 113q0 -32 14 -49.5t37 -17.5q15 0 32.5 8.5t41.5 32.5t56 66.5t77 110.5l55 141q-37 26 -80 26t-85 -30.5t-75 -77t-53 -103t-20 -107.5z" />
    <glyph glyph-name="e" unicode="e" horiz-adv-x="400" 
d="M354 145q-47 -86 -97 -122.5t-111 -36.5q-60 0 -94.5 36.5t-34.5 103.5q0 63 24.5 125.5t65.5 112.5t95 81.5t113 31.5q42 0 67.5 -21t25.5 -55q0 -25 -16 -52.5t-50.5 -53.5t-89 -47.5t-132.5 -33.5q-11 -41 -11 -79q0 -48 21.5 -69t51.5 -21q17 0 34 5t37 17t43.5 32
t53.5 49zM319 404q0 15 -8.5 24t-22.5 9q-19 0 -41 -15t-43.5 -41t-40.5 -60t-32 -71q50 10 85.5 27t58.5 38t33.5 44t10.5 45z" />
    <glyph glyph-name="f" unicode="f" horiz-adv-x="314" 
d="M80 -38q-36 -94 -85 -139t-112 -45q-43 0 -71 19t-28 48q0 21 13.5 34.5t32.5 13.5q20 0 29.5 -11t13.5 -29q9 -37 35 -37q14 0 27.5 8.5t24.5 33.5q8 19 20.5 58.5t29.5 85.5l154 414l-79 1l7 16l89 28l34 91q35 96 90 144t123 48q23 0 43.5 -6.5t36 -17t24.5 -24.5
t9 -29q0 -20 -11.5 -32.5t-28.5 -12.5q-29 0 -48 39q-11 23 -24 32.5t-32 9.5q-17 0 -31.5 -10t-27.5 -35q-16 -29 -28 -74.5t-35 -108.5l-4 -11l111 1l-20 -50l-110 1z" />
    <glyph glyph-name="g" unicode="g" horiz-adv-x="456" 
d="M410 -22q0 -38 -19 -73t-52 -62t-78.5 -43.5t-97.5 -16.5q-48 0 -83.5 10t-58.5 27t-34 38t-11 44q0 21 12 33.5t29 12.5q25 0 33 -27q5 -14 4.5 -29t4.5 -28q9 -22 33 -34.5t73 -12.5q36 0 67 11t53.5 28t35.5 39t13 45q0 34 -21 44.5t-72 6.5l-149 -11q-48 -4 -80 20
t-32 62q0 45 40.5 76t129.5 34q-64 37 -64 119q0 39 15.5 72.5t43 58t64 39t78.5 14.5q59 0 100 -33q15 49 45.5 74.5t67.5 25.5q24 0 39 -10.5t15 -29.5q0 -17 -10.5 -27t-27.5 -10q-15 0 -29 6t-28 6q-16 0 -28.5 -13t-22.5 -47q24 -35 24 -82q0 -35 -14 -68t-40.5 -59
t-64.5 -41.5t-86 -15.5q-53 0 -87.5 -3.5t-54.5 -11t-28 -18t-8 -22.5q0 -17 11.5 -26t40.5 -7l170 12q70 6 104.5 -19.5t34.5 -77.5zM351 363q0 40 -18 60.5t-45 20.5q-26 0 -48.5 -18t-39 -45t-25.5 -58.5t-9 -59.5q0 -40 18.5 -60.5t44.5 -20.5q27 0 49 18t38.5 45
t25.5 58.5t9 59.5z" />
    <glyph glyph-name="h" unicode="h" horiz-adv-x="546" 
d="M-4 0l256 644q5 12 3 17.5t-10 10.5l-37 23l6 14l167 37l-193 -487q43 60 79 101.5t67.5 67.5t60 37.5t56.5 11.5q43 0 59.5 -32.5t-8.5 -85.5l-134 -288q-6 -13 7 -13t42.5 14.5t87.5 58.5l4 -3q-51 -73 -97.5 -106.5t-96.5 -33.5q-35 0 -47 18.5t1 46.5l144 306
q11 24 6 35.5t-23 11.5q-15 0 -33 -9t-45 -33t-65.5 -67t-93.5 -111l-74 -186h-89z" />
    <glyph glyph-name="i" unicode="i" horiz-adv-x="296" 
d="M302 573q-23 0 -36.5 15t-13.5 35q-1 27 17 45t44 18q23 0 37 -14.5t14 -34.5q1 -27 -17.5 -45.5t-44.5 -18.5zM124 71q-6 -13 7 -13t42.5 14.5t87.5 58.5l4 -3q-51 -73 -97 -106.5t-94 -33.5q-35 0 -46 18.5t2 49.5l148 348q-59 -8 -133 -52l-3 4q51 55 106 85t118 30h8
q10 0 13 -5t0 -13z" />
    <glyph glyph-name="j" unicode="j" horiz-adv-x="289" 
d="M300 573q-23 0 -36.5 15t-13.5 35q-1 27 17 45t44 18q23 0 37 -14.5t14 -34.5q1 -27 -17.5 -45.5t-44.5 -18.5zM96 -38q-36 -94 -85 -139t-112 -45q-43 0 -70.5 19t-28.5 48q0 21 13.5 34.5t32.5 13.5q20 0 29.5 -11t13.5 -29q9 -37 35 -37q15 0 29 12t28 44
q6 14 13.5 37t16 48.5t16.5 50.5t15 44l135 352q-29 -4 -62.5 -16.5t-71.5 -35.5l-3 4q51 55 106 85t118 30h8q10 0 13 -5t0 -13z" />
    <glyph glyph-name="k" unicode="k" horiz-adv-x="496" 
d="M-4 0l256 644q5 12 3 17.5t-10 10.5l-37 23l6 14l167 37l-197 -496q52 58 92 100.5t72.5 70t60.5 40.5t57 13q34 0 49 -16t15 -35t-11.5 -31.5t-30.5 -12.5q-11 0 -18.5 4.5t-15.5 9.5t-16 9t-19 4q-12 0 -25.5 -5.5t-33 -21t-47 -42t-66.5 -68.5l57 -125
q14 -30 24.5 -49t18.5 -29.5t15 -14t15 -3.5q12 0 28 9t49 36l5 -3q-58 -104 -123 -104q-17 0 -31 6t-26.5 20t-26 38.5t-29.5 61.5l-48 114l-90 -226h-89z" />
    <glyph glyph-name="l" unicode="l" horiz-adv-x="282" 
d="M115 71q-6 -13 7 -13t42.5 14.5t87.5 58.5l4 -3q-51 -73 -97 -106.5t-94 -33.5q-35 0 -45.5 18.5t1.5 49.5l233 588q5 12 3 17.5t-10 10.5l-37 23l6 14l167 37z" />
    <glyph glyph-name="m" unicode="m" horiz-adv-x="808" 
d="M171 404q-29 -4 -62.5 -16.5t-71.5 -35.5l-3 4q51 55 106 85t118 30h8q10 0 13 -5t0 -13l-79 -199q40 60 73.5 102t63.5 69t56.5 39.5t52.5 12.5q41 0 55.5 -29t-6.5 -82l-45 -113q43 61 79 104t67.5 69.5t60 38.5t55.5 12q44 0 60.5 -32.5t-8.5 -85.5l-135 -288
q-6 -13 7 -13t42.5 14.5t87.5 58.5l4 -3q-51 -73 -97 -106.5t-96 -33.5q-35 0 -47 18.5t1 46.5l143 306q11 24 6 35.5t-23 11.5q-14 0 -31.5 -9.5t-44.5 -34.5t-65.5 -69t-94.5 -113l-71 -180h-88l143 359q18 47 -17 47q-12 0 -27.5 -10.5t-40 -36t-60.5 -69t-89 -109.5
l-72 -181h-88z" />
    <glyph glyph-name="n" unicode="n" horiz-adv-x="560" 
d="M171 404q-29 -4 -62.5 -16.5t-71.5 -35.5l-3 4q51 55 106 85t118 30h8q10 0 13 -5t0 -13l-77 -194q43 60 79 101.5t67.5 67.5t60 37.5t56.5 11.5q43 0 59.5 -32.5t-8.5 -85.5l-134 -288q-6 -13 7 -13t42.5 14.5t87.5 58.5l4 -3q-51 -73 -97.5 -106.5t-96.5 -33.5
q-35 0 -47 18.5t1 46.5l144 306q11 24 6 35.5t-23 11.5q-15 0 -33 -9t-45 -33t-65.5 -67t-93.5 -111l-74 -186h-88z" />
    <glyph glyph-name="o" unicode="o" horiz-adv-x="483" 
d="M456 301q0 -48 -20 -103t-56 -102.5t-86.5 -78.5t-112.5 -31q-69 0 -111 45t-43 132q0 32 9 67.5t25.5 70.5t41 67t55 56t67 38.5t77.5 14.5q69 0 111.5 -45t42.5 -131zM376 342q0 45 -19.5 70t-53.5 25q-27 0 -52 -16.5t-46.5 -43.5t-39.5 -61t-31 -68.5t-20 -67.5
t-7 -57q0 -47 19 -72t54 -25q27 0 52 16.5t47 43.5t39.5 61t30.5 69.5t20 68t7 57.5z" />
    <glyph glyph-name="p" unicode="p" horiz-adv-x="525" 
d="M500 330q0 -69 -27.5 -131t-71 -109t-99 -74.5t-110.5 -27.5q-51 0 -88 23l-65 -164q-8 -19 11 -22l44 -6l-12 -29h-220l12 29l51 7q10 2 14.5 5.5t8.5 11.5l208 523q-26 -12 -55.5 -26.5t-63.5 -32.5l-3 4q74 68 143 107l43 109l102 35l-39 -98q42 11 77 11
q64 0 102 -39t38 -106zM325 415q-29 0 -65 -10l-140 -354q28 -19 63 -19q40 0 81 26.5t74 68.5t54 94t21 103q0 43 -24 67t-64 24z" />
    <glyph glyph-name="q" unicode="q" horiz-adv-x="524" 
d="M14 109q0 68 27.5 133.5t72.5 117.5t101.5 83.5t113.5 31.5q32 0 61 -10.5t49 -30.5l91 43h4l-250 -630q-8 -19 11 -22l44 -6l-12 -29h-219l11 29l52 7q10 2 14.5 5.5t8.5 11.5l127 320q-30 -49 -56.5 -82.5t-51.5 -54t-49.5 -29.5t-50.5 -9q-43 0 -71 31t-28 90z
M103 113q0 -32 14 -49.5t36 -17.5q16 0 33.5 8.5t41.5 32.5t56.5 67.5t77.5 112.5l54 137q-36 27 -80 27q-43 0 -85 -30.5t-75 -77.5t-53 -103t-20 -107z" />
    <glyph glyph-name="r" unicode="r" horiz-adv-x="467" 
d="M171 404q-29 -4 -62.5 -16.5t-71.5 -35.5l-3 4q51 55 106 85t118 30h8q10 0 13 -5t0 -13l-68 -171q37 61 65.5 98.5t52 58t43.5 27.5t41 7q34 0 53 -19.5t19 -48.5q0 -24 -12.5 -38.5t-33.5 -14.5q-28 0 -38 32q-5 18 -13.5 25t-19.5 7q-10 0 -24.5 -8.5t-37 -35
t-56.5 -74.5t-83 -127l-68 -171h-88z" />
    <glyph glyph-name="s" unicode="s" horiz-adv-x="365" 
d="M136 -12q-31 0 -56.5 8t-43.5 21.5t-28 32t-10 38.5q0 19 12 31.5t29 12.5t27.5 -9.5t16.5 -34.5q8 -35 21 -50.5t39 -15.5q31 0 52.5 23t21.5 59q0 22 -6.5 39t-25.5 40l-43 52q-25 30 -37 54.5t-12 54.5q0 28 10.5 52t29.5 42t44.5 28t55.5 10q28 0 53 -8t43.5 -22
t29 -32.5t10.5 -39.5q0 -18 -10.5 -30t-29.5 -12q-16 0 -27 10.5t-17 34.5q-8 33 -22 49t-40 16t-43 -17.5t-17 -44.5q0 -20 10.5 -36.5t30.5 -40.5l42 -51q26 -32 38.5 -58t12.5 -54q0 -34 -12 -62t-34 -48t-51.5 -31t-63.5 -11z" />
    <glyph glyph-name="t" unicode="t" horiz-adv-x="351" 
d="M126 -12q-28 0 -48 10.5t-30.5 30t-10 47t14.5 61.5l118 280h-71l6 14q60 34 116.5 75.5t113.5 95.5h3l-58 -138l137 1l-20 -50l-137 1l-122 -289q-16 -38 -7 -58.5t33 -20.5q26 0 57.5 16t76.5 56l4 -3q-42 -69 -87 -99t-89 -30z" />
    <glyph glyph-name="u" unicode="u" horiz-adv-x="560" 
d="M152 57q15 0 33 9t45 33t65.5 67t93.5 111l74 186h88l-156 -393q-5 -12 7 -12q13 0 43 14.5t88 58.5l4 -3q-51 -73 -97.5 -106.5t-94.5 -33.5q-35 0 -45.5 18.5t1.5 49.5l59 147q-43 -60 -79 -101t-67.5 -67t-60 -37.5t-56.5 -11.5q-44 0 -60 32.5t9 86.5l140 298
q-29 -4 -63 -16.5t-70 -34.5l-3 4q51 57 107.5 86t121.5 29h8q10 0 13 -5t-1 -13l-164 -349q-21 -47 17 -47z" />
    <glyph glyph-name="v" unicode="v" horiz-adv-x="456" 
d="M349 153q-30 -36 -63 -66.5t-65.5 -52.5t-63 -34t-55.5 -12q-18 0 -24 8.5t-4 26.5l55 384q-54 -12 -113 -50l-4 4q42 53 90 81.5t97 28.5h8q18 0 15 -18l-60 -396q-2 -14 12 -6q33 20 69 50t74 76q34 42 50.5 81.5t16.5 70.5q0 13 -4.5 25t-10.5 23t-10.5 22.5
t-4.5 24.5q0 23 13.5 37t33.5 14q26 0 41 -20t15 -54q0 -29 -9.5 -62.5t-24.5 -66.5t-34.5 -64t-39.5 -55z" />
    <glyph glyph-name="w" unicode="w" horiz-adv-x="711" 
d="M600 151q-29 -36 -59.5 -65.5t-60.5 -51.5t-58.5 -34t-52.5 -12q-18 0 -24 8.5t-4 26.5l21 161q-8 -12 -16.5 -22.5t-16.5 -21.5q-28 -34 -58.5 -62t-60 -48t-57.5 -31t-51 -11q-18 0 -24 8.5t-4 26.5l55 384q-27 -5 -55 -17.5t-58 -32.5l-4 4q42 53 89.5 81.5t96.5 28.5
h9q18 0 15 -18l-60 -396q-2 -14 12 -6q32 20 65 48.5t65 67.5q24 29 40.5 57t29.5 57l16 126q-24 -5 -48 -13t-50 -22l-4 4q37 45 81 70t89 25h8q18 0 15 -18l-55 -396q-2 -15 13 -6q32 19 63 49t65 72q74 95 74 157q0 13 -4.5 25t-10.5 23t-10.5 22.5t-4.5 24.5
q0 23 13.5 37t33.5 14q26 0 41 -20t15 -54q0 -29 -10 -62t-26 -66t-36.5 -64.5t-41.5 -57.5z" />
    <glyph glyph-name="x" unicode="x" 
d="M154 129q13 17 27.5 38.5t33.5 48.5l-41 194q-29 -6 -59 -20t-62 -34l-4 5q40 51 86.5 80.5t93.5 29.5h4q10 0 13.5 -3.5t5.5 -11.5l31 -147q7 10 13 19.5t12 17.5q25 36 45.5 60.5t39 39.5t36 21.5t35.5 6.5q34 0 49 -16t15 -35t-11.5 -31.5t-30.5 -12.5q-10 0 -17.5 4
t-15 8.5t-15.5 8.5t-18 4q-7 0 -14 -3t-16 -11t-21 -21.5t-28 -35.5q-11 -14 -22.5 -31t-25.5 -38l21 -99q8 -37 16 -59.5t17 -35t18.5 -17t20.5 -4.5q6 0 13 2t16.5 7t22 15t29.5 27l5 -3q-30 -54 -62.5 -82.5t-65.5 -28.5q-42 -1 -68 31.5t-43 116.5l-8 39
q-20 -32 -37 -55q-25 -36 -45.5 -60.5t-38.5 -39.5t-35 -22t-35 -7q-35 0 -50 16t-15 35t11.5 31.5t30.5 12.5q10 0 17.5 -4t15 -8.5t15 -8.5t18.5 -4q7 0 13.5 3t15 10.5t20 21t28.5 35.5z" />
    <glyph glyph-name="y" unicode="y" horiz-adv-x="458" 
d="M192 8q54 56 90 103.5t57.5 86t30.5 68t9 50.5q0 18 -5.5 31.5t-12 26t-12 25t-5.5 26.5q0 21 12 35.5t34 14.5q25 0 42 -22t17 -66q0 -86 -60.5 -189.5t-167.5 -215.5q-101 -106 -177 -153.5t-138 -47.5q-34 0 -54 15t-20 38q0 19 13 31.5t34 12.5q13 0 24 -5t21 -10.5
t20.5 -10.5t24.5 -5q11 0 23 2.5t28 10.5t36 22.5t46 38.5l21 487q-55 -10 -114 -51l-4 4q39 52 85.5 81t94.5 29h10q18 0 16 -17z" />
    <glyph glyph-name="z" unicode="z" horiz-adv-x="433" 
d="M-39 19l358 339l-112 45q-36 14 -58 14q-12 0 -12 -8q0 -4 3.5 -10t8 -14.5t8 -18t3.5 -21.5q0 -20 -13 -29.5t-28 -9.5q-20 0 -33 14.5t-13 37.5q0 21 11.5 42t30.5 37.5t43 26.5t48 10q23 0 44 -4t53 -16l80 -29l54 52l34 -33l-352 -335l54 -28q34 -18 59 -25.5
t48 -7.5q12 0 22 1.5t23 8t29 18.5t40 33l5 -4q-23 -38 -41 -64.5t-36 -43t-38 -24t-47 -7.5q-25 0 -49 9.5t-55 24.5l-81 40l-57 -54z" />
    <glyph glyph-name="braceleft" unicode="{" horiz-adv-x="368" 
d="M47 301l12 32h25q95 0 138.5 38t43.5 98q0 30 -5.5 66.5t-5.5 71.5q-1 75 49 117t143 42q23 0 45 -4t38 -10l-5 -15q-11 3 -25 5t-26 2q-25 0 -47.5 -10t-40 -27t-27.5 -41t-10 -51q0 -34 5.5 -70.5t5.5 -68.5q0 -72 -48.5 -113t-153.5 -49q57 -9 84.5 -35t27.5 -61
q0 -25 -13 -49.5t-32 -49t-42 -48.5t-42 -47.5t-32 -46t-13 -44.5t15.5 -34.5t52.5 -12.5q27 0 50 6l2 -15q-22 -6 -47 -9.5t-49 -3.5q-55 0 -84 24.5t-29 68.5q0 26 13 51.5t32 50t42 48.5t42 46.5t32 43.5t13 41q0 23 -23 43t-77 20h-34z" />
    <glyph glyph-name="bar" unicode="|" horiz-adv-x="300" 
d="M325 754h54l-338 -878h-54z" />
    <glyph glyph-name="braceright" unicode="}" horiz-adv-x="368" 
d="M390 329l-12 -32h-25q-95 0 -138.5 -38t-43.5 -98q0 -30 5.5 -66.5t5.5 -71.5q1 -75 -49 -117t-143 -42q-23 0 -45 4t-38 10l5 15q11 -3 25 -5t26 -2q25 0 47.5 10t40 27t27.5 41t10 51q0 34 -5.5 70.5t-5.5 68.5q0 72 48.5 113t153.5 49q-57 9 -84.5 35t-27.5 61
q0 25 13 49.5t32 49t42 48.5t42 47.5t32 46t13 44.5t-15.5 34.5t-52.5 12.5q-28 0 -50 -6l-2 15q22 6 47 9.5t49 3.5q55 0 84 -24.5t29 -68.5q0 -26 -13 -51.5t-32 -50t-42 -48.5t-42 -46.5t-32 -43.5t-13 -41q0 -23 23 -43t77 -20h34z" />
    <glyph glyph-name="asciitilde" unicode="~" horiz-adv-x="556" 
d="M75 323q25 36 46 59.5t39.5 38t35.5 20.5t36 6q16 0 29.5 -3.5t27 -11.5t28.5 -20t33 -29t30.5 -27.5t22 -16.5t18 -8.5t17.5 -2.5q10 0 20.5 4.5t24.5 16t33 30.5t45 49l28 -24q-26 -36 -46.5 -59.5t-39 -38t-35.5 -20.5t-36 -6q-16 0 -29.5 3.5t-27 11.5t-28.5 20
t-33 29q-18 16 -30.5 27t-22 17t-18 8.5t-17.5 2.5q-10 0 -20.5 -4.5t-24.5 -16t-33 -30.5t-45 -49z" />
    <glyph glyph-name="uni00A0" unicode="&#xa0;" horiz-adv-x="181" 
 />
    <glyph glyph-name="exclamdown" unicode="&#xa1;" horiz-adv-x="252" 
d="M255 513q-27 -74 -46 -142t-33.5 -126.5t-26 -106.5t-22.5 -82q-13 -39 -33.5 -54.5t-45.5 -15.5q-32 0 -41.5 23t5.5 61q13 33 36.5 79t52.5 103t61 123t61 138h32zM289 708q23 0 38.5 -14.5t15.5 -37.5q0 -29 -19.5 -47.5t-45.5 -18.5q-23 0 -38.5 14.5t-15.5 37.5
q0 29 19.5 47.5t45.5 18.5z" />
    <glyph glyph-name="cent" unicode="&#xa2;" horiz-adv-x="443" 
d="M175 104q-47 14 -75.5 54t-28.5 100q0 55 22.5 112.5t61.5 104t91.5 77.5t113.5 34l46 118h42l-46 -120q45 -7 74 -31t30 -56q0 -22 -13 -36t-34 -14q-35 0 -51 51q-5 15 -10.5 25.5t-13.5 15.5l-146 -379q5 -1 15 -1q39 0 80 26.5t94 90.5l5 -2q-32 -89 -88.5 -133
t-120.5 -44h-9l-39 -101h-42zM164 267q0 -65 38 -92l144 373q-37 -3 -70 -31t-58 -69.5t-39.5 -89.5t-14.5 -91z" />
    <glyph glyph-name="sterling" unicode="&#xa3;" horiz-adv-x="573" 
d="M348 82q26 0 43.5 3t32 13.5t28.5 29t34 50.5h31l-73 -178h-499q78 56 127 92.5t76 63t37 46t10 40.5q0 22 -4 47t-10 52h-115l15 38h92q-6 30 -11 58.5t-5 52.5q0 50 19.5 91t52.5 70t76.5 45t91.5 16q99 0 150.5 -38.5t51.5 -99.5q0 -27 -13 -42t-35 -15
q-21 0 -35.5 16t-18.5 52q-5 41 -31.5 62.5t-74.5 21.5q-28 0 -52.5 -11.5t-43 -31t-29 -47t-10.5 -58.5q0 -30 7.5 -67.5t15.5 -74.5h207l-15 -38h-186q3 -20 3 -37q0 -28 -7 -53t-24 -50t-45 -51t-70 -56q-6 -5 -4.5 -8.5t8.5 -3.5h202z" />
    <glyph glyph-name="yen" unicode="&#xa5;" horiz-adv-x="679" 
d="M94 180h175l35 91h-175l15 37h155l-66 324q-4 17 -8.5 23t-18.5 9l-29 5l13 31h249l-12 -31l-50 -8q-16 -2 -25.5 -5t-14.5 -8.5t-5.5 -13t1.5 -19.5l54 -278q3 -13 13 -3l267 275q45 46 -8 54l-38 6l12 31h220l-13 -31l-25 -4q-15 -3 -32.5 -14t-40.5 -34l-301 -309h157
l-14 -37h-177l-35 -91h176l-14 -37h-177l-30 -79q-8 -23 12 -24l82 -8l-13 -32h-313l13 32l91 9q17 1 24 19l32 83h-176z" />
    <glyph glyph-name="brokenbar" unicode="&#xa6;" horiz-adv-x="300" 
d="M325 754h54l-152 -395h-54zM139 271h54l-152 -395h-54z" />
    <glyph glyph-name="section" unicode="&#xa7;" horiz-adv-x="543" 
d="M306 -55q0 -36 -13.5 -67t-37 -53.5t-56 -35.5t-71.5 -13q-31 0 -57.5 8t-45.5 21.5t-29.5 31.5t-10.5 38q-1 23 11.5 36.5t32.5 13.5q19 0 31 -11.5t17 -40.5q12 -58 64 -58q35 0 58 24.5t23 63.5q0 19 -8.5 41.5t-25.5 57.5l-86 160q-20 38 -28.5 64t-8.5 52
q0 71 55 116.5t155 59.5q-13 28 -18.5 49.5t-5.5 41.5q0 36 13 67t37 53.5t56.5 35.5t71.5 13q31 0 57.5 -8t45.5 -21.5t29.5 -31.5t10.5 -38q0 -23 -12 -36.5t-32 -13.5q-19 0 -31 11.5t-18 40.5q-5 30 -21.5 44t-41.5 14q-35 0 -58 -24.5t-23 -63.5q0 -19 8.5 -41.5
t25.5 -57.5l86 -159q20 -38 28.5 -64t8.5 -52q0 -72 -55.5 -117t-155.5 -60q14 -28 19.5 -49.5t5.5 -41.5zM268 62q71 22 103 52t32 67q0 19 -8 41.5t-26 54.5l-80 151q-71 -22 -103 -51.5t-32 -67.5q0 -18 8 -40.5t26 -55.5z" />
    <glyph glyph-name="dieresis" unicode="&#xa8;" 
d="M282 529q-23 0 -37 15t-15 35q0 28 18.5 46t44.5 18q23 0 36.5 -14.5t14.5 -35.5q0 -27 -18 -45.5t-44 -18.5zM472 529q-23 0 -37 15t-14 35q0 28 18 46t44 18q23 0 37 -14.5t14 -35.5q1 -27 -17.5 -45.5t-44.5 -18.5z" />
    <glyph glyph-name="copyright" unicode="&#xa9;" horiz-adv-x="920" 
d="M118 349q0 81 30 151.5t82 122.5t123 81.5t154 29.5q82 0 153 -29.5t123.5 -81t82 -121.5t29.5 -151t-29.5 -151.5t-82 -122.5t-123.5 -81.5t-153 -29.5q-83 0 -154 29.5t-123 81t-82 121.5t-30 151zM153 350q0 -75 27.5 -139.5t75 -112t112.5 -74.5t140 -27t139.5 27
t112 74.5t74.5 112t27 139.5t-27.5 139.5t-75 112t-112.5 74.5t-140 27t-139.5 -27t-112 -74.5t-74.5 -112t-27 -139.5zM511 131q-48 0 -87.5 16t-68.5 45t-45 69t-16 87q0 48 16.5 89.5t45 71.5t68 47.5t85.5 17.5q34 0 57.5 -8t39.5 -17t25 -17t14 -8q2 0 4.5 1t6.5 4.5
t11.5 10t20.5 17.5v-142h-38q-11 55 -44.5 89.5t-80.5 34.5q-57 0 -92.5 -48.5t-35.5 -135.5q0 -91 37 -140.5t94 -49.5q46 0 80.5 35t45.5 89h38v-142q-13 12 -20.5 18.5t-11.5 10t-6.5 4.5t-4.5 1q-5 0 -14.5 -8t-25 -17t-39.5 -17t-59 -8z" />
    <glyph glyph-name="ordfeminine" unicode="&#xaa;" horiz-adv-x="419" 
d="M207 355q-32 0 -53.5 22.5t-21.5 66.5q0 47 21.5 94t55 85t75 62t82.5 24q44 0 73 -29l76 30h3l-115 -287q-4 -10 6 -10q11 0 32 11.5t62 41.5l3 -2q-39 -57 -77 -83t-76 -26q-51 0 -32 49l25 63q-38 -57 -71 -84.5t-68 -27.5zM206 442q0 -23 8 -34t22 -11q11 0 23 6.5
t28.5 23.5t39 47t52.5 78l41 104q-26 21 -51 21q-26 0 -54.5 -23.5t-52.5 -59t-40 -76.5t-16 -76z" />
    <glyph glyph-name="guillemotleft" unicode="&#xab;" horiz-adv-x="579" 
d="M241 -10l-8 -4l-197 252l353 239l6 -7l-226 -243zM461 -10l-8 -4l-197 252l353 239l6 -7l-226 -243z" />
    <glyph glyph-name="registered" unicode="&#xae;" horiz-adv-x="518" 
d="M584 499q0 -47 -16.5 -86.5t-46 -68.5t-69 -45.5t-85.5 -16.5q-47 0 -87 16t-69 45t-46 68t-17 86q0 46 16.5 85.5t46 69t69 46t86.5 16.5q46 0 86 -16.5t69 -45t46 -68t17 -85.5zM557 498q0 41 -14.5 76t-40.5 60.5t-61 40t-75 14.5q-41 0 -75.5 -14.5t-60 -40
t-40 -60.5t-14.5 -76t14.5 -76t40 -60.5t60.5 -40t75 -14.5t75 14.5t61 40t40.5 60.5t14.5 76zM350 492h-10v-82q0 -10 9 -11l21 -2v-16h-117v16l21 2q9 1 9 11v184q0 10 -9 11l-21 2v16h121q45 0 67.5 -17.5t22.5 -46.5q0 -23 -14.5 -39t-41.5 -23l56 -79q8 -11 12.5 -14.5
t13.5 -5.5l6 -1v-16h-71zM340 510h16q26 0 40 12t14 35q0 46 -52 46h-18v-93z" />
    <glyph glyph-name="macron" unicode="&#xaf;" 
d="M242 587h282l-18 -44h-282z" />
    <glyph glyph-name="degree" unicode="&#xb0;" horiz-adv-x="414" 
d="M310 385q-28 0 -53 9.5t-44 27.5t-30 43t-11 56q0 41 15 76t40.5 61t59.5 41t72 15q28 0 53.5 -9.5t44.5 -27.5t30 -43.5t11 -56.5q0 -41 -15 -76t-41 -60.5t-60 -40.5t-72 -15zM315 425q27 0 52 12t43.5 32t30 47.5t11.5 57.5q0 46 -27.5 72.5t-70.5 26.5q-27 0 -52 -12
t-43.5 -32t-30 -47.5t-11.5 -57.5q0 -46 27.5 -72.5t70.5 -26.5z" />
    <glyph glyph-name="plusminus" unicode="&#xb1;" horiz-adv-x="556" 
d="M116 386h200l81 202h52l-82 -202h200l-18 -46h-201l-81 -201h-51l81 201h-199zM-19 46h452l-19 -46h-452z" />
    <glyph glyph-name="twosuperior" unicode="&#xb2;" horiz-adv-x="306" 
d="M211 448q39 32 63.5 56t38 43.5t18.5 36t5 32.5q0 27 -16 44.5t-39 17.5q-28 0 -39 -16t-11 -34q0 -4 1 -9.5t-1 -12.5q-6 -29 -34 -29q-15 0 -24 8.5t-9 24.5q0 18 9.5 36t26.5 31.5t42 22t56 8.5q59 0 88.5 -24.5t30.5 -59.5q0 -19 -11 -42.5t-49 -53.5l-169 -134
q-3 -3 -2.5 -5.5t4.5 -2.5h89q14 0 24 2t18 7t15.5 14.5t17.5 24.5h20l-43 -105h-269z" />
    <glyph glyph-name="threesuperior" unicode="&#xb3;" horiz-adv-x="310" 
d="M212 322q-28 0 -49 7t-35.5 19t-21.5 27t-7 31q0 21 12 32t26 11t21.5 -9.5t7.5 -23.5q0 -6 -1 -13t-1 -13q0 -15 10 -28t37 -13q20 0 37 8t29 21.5t18.5 31.5t6.5 37q0 32 -22.5 49t-63.5 17h-19l141 121q5 5 6 7t-5 2h-78q-14 0 -23 -1.5t-16.5 -6.5t-15 -14t-17.5 -24
h-20l43 103h253l-169 -139q-9 -7 0 -9q36 -8 59.5 -33t23.5 -60q0 -29 -12.5 -53.5t-35 -43.5t-53 -29.5t-66.5 -10.5z" />
    <glyph glyph-name="acute" unicode="&#xb4;" 
d="M281 519q58 56 93.5 89.5t57.5 51.5t35 23.5t25 5.5q18 0 30 -11t12 -28q0 -13 -9 -25t-36 -27t-75.5 -35.5t-127.5 -50.5z" />
    <glyph glyph-name="paragraph" unicode="&#xb6;" horiz-adv-x="628" 
d="M769 669l-82 -10q-11 -2 -15.5 -5.5t-8.5 -12.5l-222 -577q-5 -12 -2 -17t14 -7l71 -8l-13 -32h-373l12 32l82 9q11 2 15.5 5.5t8.5 13.5l88 228h-35q-80 0 -128.5 42t-48.5 118q0 54 22.5 100.5t64 80t100 52.5t130.5 19h332zM304 44h75l236 613h-75z" />
    <glyph glyph-name="periodcentered" unicode="&#xb7;" horiz-adv-x="220" 
d="M125 224q-23 0 -38.5 14.5t-15.5 37.5q0 29 19.5 47.5t45.5 18.5q23 0 38.5 -14.5t15.5 -37.5q0 -29 -19.5 -47.5t-45.5 -18.5z" />
    <glyph glyph-name="cedilla" unicode="&#xb8;" 
d="M209 10l-69 -66q5 1 10 1.5t10 0.5q34 0 54.5 -18t20.5 -47q0 -21 -9.5 -40t-26.5 -32.5t-40.5 -21.5t-50.5 -8q-38 0 -65.5 13.5t-47.5 36.5l9 9q15 -9 34.5 -16t46.5 -7q33 0 56 17t23 43q0 18 -13 29t-37 11q-14 0 -25.5 -3.5t-27.5 -10.5l-5 9l102 100h51z" />
    <glyph glyph-name="onesuperior" unicode="&#xb9;" horiz-adv-x="204" 
d="M71 350l39 5q10 1 14 10l105 275q3 8 2 12t-9 7l-31 11l5 11l136 27l-131 -340q-4 -13 7 -14l37 -4l-8 -21h-174z" />
    <glyph glyph-name="ordmasculine" unicode="&#xba;" horiz-adv-x="372" 
d="M145 483q0 35 15 75t42.5 73.5t66 56t85.5 22.5q54 0 85.5 -32.5t31.5 -93.5q0 -35 -15 -75t-42 -74t-65.5 -56.5t-85.5 -22.5q-54 0 -86 32.5t-32 94.5zM263 388q28 0 53 25.5t44 61.5t30 74t11 63q0 34 -12.5 50t-34.5 16q-28 0 -53 -25.5t-44 -61.5t-30 -74t-11 -62
q0 -35 12.5 -51t34.5 -16z" />
    <glyph glyph-name="guillemotright" unicode="&#xbb;" horiz-adv-x="579" 
d="M119 473l8 4l197 -252l-353 -239l-6 7l226 243zM340 473l8 4l197 -252l-353 -239l-6 7l226 243z" />
    <glyph glyph-name="onequarter" unicode="&#xbc;" horiz-adv-x="690" 
d="M71 350l39 5q10 1 14 10l105 275q3 8 2 12t-9 7l-31 11l5 11l136 27l-131 -340q-4 -13 7 -14l37 -4l-8 -21h-174zM590 706h59l-564 -712h-58zM401 21l28 4q10 1 14 11l25 62h-182l127 121q41 40 60.5 75.5t28.5 76.5h89q-7 -14 -16 -28t-24.5 -31.5t-39.5 -40.5t-60 -54
l-69 -60q-4 -3 -3.5 -5.5t5.5 -2.5h104l29 71l94 48l-48 -119q13 0 22.5 2t17 7.5t15 15.5t18.5 26h20l-45 -102h-69l-25 -62q-4 -10 5 -11l28 -4l-8 -21h-149z" />
    <glyph glyph-name="onehalf" unicode="&#xbd;" horiz-adv-x="692" 
d="M71 350l39 5q10 1 14 10l105 275q3 8 2 12t-9 7l-31 11l5 11l136 27l-131 -340q-4 -13 7 -14l37 -4l-8 -21h-174zM590 706h59l-564 -712h-58zM463 119q39 32 63.5 56t38 43.5t18.5 36t5 32.5q0 27 -16 44.5t-39 17.5q-28 0 -39 -16t-11 -34q0 -4 1 -9.5t-1 -12.5
q-6 -29 -34 -29q-15 0 -24 8.5t-9 24.5q0 18 9.5 36t26.5 31.5t42 22t56 8.5q59 0 88.5 -24.5t30.5 -59.5q0 -19 -11 -42.5t-49 -53.5l-169 -134q-3 -3 -2.5 -5.5t4.5 -2.5h89q14 0 24 2t18 7t15.5 14.5t17.5 24.5h20l-43 -105h-269z" />
    <glyph glyph-name="threequarters" unicode="&#xbe;" horiz-adv-x="769" 
d="M212 322q-28 0 -49 7t-35.5 19t-21.5 27t-7 31q0 21 12 32t26 11t21.5 -9.5t7.5 -23.5q0 -6 -1 -13t-1 -13q0 -15 10 -28t37 -13q20 0 37 8t29 21.5t18.5 31.5t6.5 37q0 32 -22.5 49t-63.5 17h-19l141 121q5 5 6 7t-5 2h-78q-14 0 -23 -1.5t-16.5 -6.5t-15 -14t-17.5 -24
h-20l43 103h253l-169 -139q-9 -7 0 -9q36 -8 59.5 -33t23.5 -60q0 -29 -12.5 -53.5t-35 -43.5t-53 -29.5t-66.5 -10.5zM679 706h59l-564 -712h-58zM490 21l28 4q10 1 14 11l25 62h-182l127 121q41 40 60.5 75.5t28.5 76.5h89q-7 -14 -16 -28t-24.5 -31.5t-39.5 -40.5
t-60 -54l-69 -60q-4 -3 -3.5 -5.5t5.5 -2.5h104l29 71l94 48l-48 -119q13 0 22.5 2t17 7.5t15 15.5t18.5 26h20l-45 -102h-69l-25 -62q-4 -10 5 -11l28 -4l-8 -21h-149z" />
    <glyph glyph-name="questiondown" unicode="&#xbf;" horiz-adv-x="516" 
d="M235 306q-46 -27 -75 -62t-29 -90q0 -53 31 -88.5t87 -35.5q28 0 48 8t33 20.5t19 28.5t6 31q0 7 -1 13.5t-1 14.5q0 21 12 38t32 17q18 0 33.5 -14t15.5 -42q0 -27 -12.5 -55t-37.5 -51t-63.5 -37.5t-89.5 -14.5q-48 0 -86.5 14t-66 37.5t-42 54.5t-14.5 65
q0 76 47.5 124t137.5 82l29 11q51 20 68.5 36.5t17.5 36.5q0 27 -38 29l15 29q27 3 48.5 -13t21.5 -42q0 -40 -27 -65.5t-73 -52.5zM400 709q23 0 38.5 -14.5t15.5 -37.5q0 -29 -19.5 -47.5t-45.5 -18.5q-23 0 -38.5 14.5t-15.5 37.5q0 29 19.5 47.5t45.5 18.5z" />
    <glyph glyph-name="Agrave" unicode="&#xc0;" horiz-adv-x="757" 
d="M-68 32l25 4q23 4 39.5 14t36.5 34l530 624h49l7 -639q0 -17 4.5 -23t16.5 -8l33 -6l-12 -32h-255l12 32l49 7q29 5 38.5 16t9.5 34v170h-272l-134 -160q-48 -56 10 -63l30 -4l-12 -32h-217zM279 302h236l-1 262q0 7 -3.5 8t-8.5 -5zM659 749q-44 29 -73.5 49t-46.5 35
t-24 26.5t-7 23.5q0 18 13 30t30 12q15 0 27 -7.5t24.5 -26.5t27.5 -52.5t36 -84.5z" />
    <glyph glyph-name="Aacute" unicode="&#xc1;" horiz-adv-x="757" 
d="M-68 32l25 4q23 4 39.5 14t36.5 34l530 624h49l7 -639q0 -17 4.5 -23t16.5 -8l33 -6l-12 -32h-255l12 32l49 7q29 5 38.5 16t9.5 34v170h-272l-134 -160q-48 -56 10 -63l30 -4l-12 -32h-217zM279 302h236l-1 262q0 7 -3.5 8t-8.5 -5zM520 756q58 56 93.5 89.5t57.5 51.5
t35 23.5t25 5.5q18 0 30 -11t12 -28q0 -13 -9 -25t-36 -27t-75.5 -35.5t-127.5 -50.5z" />
    <glyph glyph-name="Acircumflex" unicode="&#xc2;" horiz-adv-x="757" 
d="M-68 32l25 4q23 4 39.5 14t36.5 34l530 624h49l7 -639q0 -17 4.5 -23t16.5 -8l33 -6l-12 -32h-255l12 32l49 7q29 5 38.5 16t9.5 34v170h-272l-134 -160q-48 -56 10 -63l30 -4l-12 -32h-217zM279 302h236l-1 262q0 7 -3.5 8t-8.5 -5zM434 752l-5 8l191 154h63l78 -155
l-8 -7l-114 90z" />
    <glyph glyph-name="Atilde" unicode="&#xc3;" horiz-adv-x="757" 
d="M-68 32l25 4q23 4 39.5 14t36.5 34l530 624h49l7 -639q0 -17 4.5 -23t16.5 -8l33 -6l-12 -32h-255l12 32l49 7q29 5 38.5 16t9.5 34v170h-272l-134 -160q-48 -56 10 -63l30 -4l-12 -32h-217zM279 302h236l-1 262q0 7 -3.5 8t-8.5 -5zM609 806q-20 16 -32.5 23t-24.5 7
q-15 0 -33.5 -13.5t-44.5 -45.5l-8 4q26 65 54 91.5t57 26.5q19 0 36 -10t43 -30q20 -15 32.5 -22t24.5 -7q15 0 33.5 13t44.5 45l8 -4q-26 -65 -54 -91.5t-57 -26.5q-19 0 -36 10t-43 30z" />
    <glyph glyph-name="Adieresis" unicode="&#xc4;" horiz-adv-x="757" 
d="M-68 32l25 4q23 4 39.5 14t36.5 34l530 624h49l7 -639q0 -17 4.5 -23t16.5 -8l33 -6l-12 -32h-255l12 32l49 7q29 5 38.5 16t9.5 34v170h-272l-134 -160q-48 -56 10 -63l30 -4l-12 -32h-217zM279 302h236l-1 262q0 7 -3.5 8t-8.5 -5zM521 766q-23 0 -37 15t-15 35
q0 28 18.5 46t44.5 18q23 0 36.5 -14.5t14.5 -35.5q0 -27 -18 -45.5t-44 -18.5zM711 766q-23 0 -37 15t-14 35q0 28 18 46t44 18q23 0 37 -14.5t14 -35.5q1 -27 -17.5 -45.5t-44.5 -18.5z" />
    <glyph glyph-name="Aring" unicode="&#xc5;" horiz-adv-x="757" 
d="M-68 32l25 4q23 4 39.5 14t36.5 34l530 624h49l7 -639q0 -17 4.5 -23t16.5 -8l33 -6l-12 -32h-255l12 32l49 7q29 5 38.5 16t9.5 34v170h-272l-134 -160q-48 -56 10 -63l30 -4l-12 -32h-217zM279 302h236l-1 262q0 7 -3.5 8t-8.5 -5zM657 970q39 0 65 -24t26 -62
q0 -24 -10 -45.5t-27 -37.5t-40 -25t-48 -9q-40 0 -66 24t-26 62q0 25 10 46t27.5 37t40 25t48.5 9zM627 804q16 0 31 6.5t26 17t18 24.5t7 30q0 25 -15 38t-41 13q-16 0 -31 -6t-26 -16.5t-18 -25t-7 -30.5q0 -24 15.5 -37.5t40.5 -13.5z" />
    <glyph glyph-name="AE" unicode="&#xc6;" horiz-adv-x="1054" 
d="M821 251l9 64q2 14 -2.5 19.5t-18.5 5.5l-130 3l-107 -277q-8 -22 16 -22h175q34 0 57.5 4t44.5 18.5t43 43t54 78.5h39l-78 -188h-580l13 32l81 9q11 2 15.5 5.5t8.5 13.5l77 199h-257l-159 -157q-16 -17 -21.5 -28.5t-4 -19.5t7.5 -12t13 -5l38 -5l-13 -32h-227l13 32
l17 3q24 5 46.5 17t50.5 39l516 508q33 33 32.5 46.5t-27.5 17.5l-37 6l13 31h620l-70 -184h-37q7 49 8 77t-6 42.5t-22.5 18t-40.5 3.5h-191l-106 -273l129 2q14 0 22 4t16 18l40 68h39l-79 -225h-40zM325 302h230l131 340q2 6 -2 7.5t-10 -3.5z" />
    <glyph glyph-name="Ccedilla" unicode="&#xc7;" horiz-adv-x="738" 
d="M426 -119q0 -21 -9.5 -40t-26.5 -32.5t-40.5 -21.5t-50.5 -8q-38 0 -65.5 13.5t-47.5 36.5l9 9q15 -9 34.5 -16t46.5 -7q33 0 56 17t23 43q0 18 -13 29t-37 11q-14 0 -25.5 -3.5t-27.5 -10.5l-5 9l80 78q-52 3 -96 22.5t-76 54t-50.5 82t-18.5 105.5q0 98 37.5 182
t100.5 146t146 97t174 35q61 0 101.5 -15t67 -33.5t41.5 -33.5t26 -15q3 0 7 1.5t11.5 6t20.5 13.5t34 24l-86 -210h-39q9 48 -0.5 87.5t-33.5 68t-60.5 44t-82.5 15.5q-70 0 -134.5 -34.5t-114 -93t-79 -136t-29.5 -163.5q1 -97 46 -150t115 -53q81 0 157 51t138 140h39
l-99 -239q-14 41 -19.5 55t-10.5 14q-6 0 -21 -8.5t-38 -20t-53.5 -22.5t-68.5 -15l-48 -46q5 1 10 1.5t10 0.5q34 0 54.5 -18t20.5 -47z" />
    <glyph glyph-name="Egrave" unicode="&#xc8;" horiz-adv-x="651" 
d="M419 251l9 64q2 14 -2.5 19.5t-19.5 5.5l-130 3l-106 -277q-8 -22 16 -22h175q34 0 57.5 4t44.5 18.5t43 43t54 78.5h39l-79 -188h-580l13 32l82 9q11 2 15.5 5.5t8.5 13.5l222 577q8 20 -12 23l-71 9l13 31h546l-70 -184h-37q7 49 8 77t-6 42.5t-22.5 18t-41.5 3.5h-191
l-105 -273l128 2q15 0 23 4t16 18l39 68h40l-80 -225h-39zM578 749q-44 29 -73.5 49t-46.5 35t-24 26.5t-7 23.5q0 18 13 30t30 12q15 0 27 -7.5t24.5 -26.5t27.5 -52.5t36 -84.5z" />
    <glyph glyph-name="Eacute" unicode="&#xc9;" horiz-adv-x="651" 
d="M439 756q58 56 93.5 89.5t57.5 51.5t35 23.5t25 5.5q18 0 30 -11t12 -28q0 -13 -9 -25t-36 -27t-75.5 -35.5t-127.5 -50.5zM419 251l9 64q2 14 -2.5 19.5t-19.5 5.5l-130 3l-106 -277q-8 -22 16 -22h175q34 0 57.5 4t44.5 18.5t43 43t54 78.5h39l-79 -188h-580l13 32
l82 9q11 2 15.5 5.5t8.5 13.5l222 577q8 20 -12 23l-71 9l13 31h546l-70 -184h-37q7 49 8 77t-6 42.5t-22.5 18t-41.5 3.5h-191l-105 -273l128 2q15 0 23 4t16 18l39 68h40l-80 -225h-39z" />
    <glyph glyph-name="Ecircumflex" unicode="&#xca;" horiz-adv-x="651" 
d="M353 752l-5 8l191 154h63l78 -155l-8 -7l-114 90zM419 251l9 64q2 14 -2.5 19.5t-19.5 5.5l-130 3l-106 -277q-8 -22 16 -22h175q34 0 57.5 4t44.5 18.5t43 43t54 78.5h39l-79 -188h-580l13 32l82 9q11 2 15.5 5.5t8.5 13.5l222 577q8 20 -12 23l-71 9l13 31h546
l-70 -184h-37q7 49 8 77t-6 42.5t-22.5 18t-41.5 3.5h-191l-105 -273l128 2q15 0 23 4t16 18l39 68h40l-80 -225h-39z" />
    <glyph glyph-name="Edieresis" unicode="&#xcb;" horiz-adv-x="651" 
d="M440 766q-23 0 -37 15t-15 35q0 28 18.5 46t44.5 18q23 0 36.5 -14.5t14.5 -35.5q0 -27 -18 -45.5t-44 -18.5zM630 766q-23 0 -37 15t-14 35q0 28 18 46t44 18q23 0 37 -14.5t14 -35.5q1 -27 -17.5 -45.5t-44.5 -18.5zM419 251l9 64q2 14 -2.5 19.5t-19.5 5.5l-130 3
l-106 -277q-8 -22 16 -22h175q34 0 57.5 4t44.5 18.5t43 43t54 78.5h39l-79 -188h-580l13 32l82 9q11 2 15.5 5.5t8.5 13.5l222 577q8 20 -12 23l-71 9l13 31h546l-70 -184h-37q7 49 8 77t-6 42.5t-22.5 18t-41.5 3.5h-191l-105 -273l128 2q15 0 23 4t16 18l39 68h40
l-80 -225h-39z" />
    <glyph glyph-name="Igrave" unicode="&#xcc;" horiz-adv-x="360" 
d="M171 64q-5 -12 -2 -17t14 -7l71 -8l-13 -32h-299l13 32l82 9q11 2 15.5 5.5t8.5 13.5l222 577q8 20 -12 23l-71 9l13 31h298l-12 -31l-82 -10q-11 -2 -15.5 -5.5t-8.5 -12.5zM439 749q-44 29 -73.5 49t-46.5 35t-24 26.5t-7 23.5q0 18 13 30t30 12q15 0 27 -7.5
t24.5 -26.5t27.5 -52.5t36 -84.5z" />
    <glyph glyph-name="Iacute" unicode="&#xcd;" horiz-adv-x="360" 
d="M171 64q-5 -12 -2 -17t14 -7l71 -8l-13 -32h-299l13 32l82 9q11 2 15.5 5.5t8.5 13.5l222 577q8 20 -12 23l-71 9l13 31h298l-12 -31l-82 -10q-11 -2 -15.5 -5.5t-8.5 -12.5zM300 756q58 56 93.5 89.5t57.5 51.5t35 23.5t25 5.5q18 0 30 -11t12 -28q0 -13 -9 -25t-36 -27
t-75.5 -35.5t-127.5 -50.5z" />
    <glyph glyph-name="Icircumflex" unicode="&#xce;" horiz-adv-x="360" 
d="M171 64q-5 -12 -2 -17t14 -7l71 -8l-13 -32h-299l13 32l82 9q11 2 15.5 5.5t8.5 13.5l222 577q8 20 -12 23l-71 9l13 31h298l-12 -31l-82 -10q-11 -2 -15.5 -5.5t-8.5 -12.5zM214 752l-5 8l191 154h63l78 -155l-8 -7l-114 90z" />
    <glyph glyph-name="Idieresis" unicode="&#xcf;" horiz-adv-x="360" 
d="M171 64q-5 -12 -2 -17t14 -7l71 -8l-13 -32h-299l13 32l82 9q11 2 15.5 5.5t8.5 13.5l222 577q8 20 -12 23l-71 9l13 31h298l-12 -31l-82 -10q-11 -2 -15.5 -5.5t-8.5 -12.5zM301 766q-23 0 -37 15t-15 35q0 28 18.5 46t44.5 18q23 0 36.5 -14.5t14.5 -35.5
q0 -27 -18 -45.5t-44 -18.5zM491 766q-23 0 -37 15t-14 35q0 28 18 46t44 18q23 0 37 -14.5t14 -35.5q1 -27 -17.5 -45.5t-44.5 -18.5z" />
    <glyph glyph-name="Eth" unicode="&#xd0;" horiz-adv-x="767" 
d="M88 382h95l98 255q8 20 -12 23l-71 9l13 31h257q72 0 129.5 -18t98 -52.5t62.5 -85t22 -114.5q0 -90 -39.5 -168.5t-107 -136.5t-157.5 -91.5t-191 -33.5h-345l13 32l82 9q11 2 15.5 5.5t8.5 13.5l109 284h-95zM269 44q83 0 156.5 32t128.5 86.5t87 126t32 149.5
q0 103 -60 161t-164 58h-52l-106 -275h158l-16 -38h-156l-107 -278q-8 -22 16 -22h83z" />
    <glyph glyph-name="Ntilde" unicode="&#xd1;" horiz-adv-x="756" 
d="M388 700l184 -478q3 -8 7.5 -7t6.5 8l143 380q11 29 5 42t-29 17l-46 7l13 31h247l-12 -31l-53 -8q-27 -5 -42 -17t-26 -41l-235 -614h-2l-225 585q-3 8 -7.5 7t-6.5 -8l-179 -475q-11 -29 -5 -42t29 -17l46 -7l-13 -32h-248l13 32l53 8q27 5 42 17t26 41l200 521
q6 16 3 22t-16 10l-63 18l13 31h177zM557 806q-20 16 -32.5 23t-24.5 7q-15 0 -33.5 -13.5t-44.5 -45.5l-8 4q26 65 54 91.5t57 26.5q19 0 36 -10t43 -30q20 -15 32.5 -22t24.5 -7q15 0 33.5 13t44.5 45l8 -4q-26 -65 -54 -91.5t-57 -26.5q-19 0 -36 10t-43 30z" />
    <glyph glyph-name="Ograve" unicode="&#xd2;" horiz-adv-x="805" 
d="M373 -14q-65 0 -117.5 20t-90 56.5t-57.5 89t-20 117.5q0 88 37 168.5t98.5 142t141 98t164.5 36.5q65 0 117.5 -20t90 -56.5t57.5 -89t20 -116.5q0 -88 -37 -169t-98.5 -142.5t-141 -98t-164.5 -36.5zM531 667q-63 0 -123.5 -35t-108 -94.5t-76.5 -137t-29 -161.5
q0 -49 13.5 -87t37 -64.5t56 -40.5t70.5 -14q63 0 123.5 35t108 94.5t76.5 137t29 161.5q0 49 -13.5 87.5t-37 64.5t-56 40t-70.5 14zM605 749q-44 29 -73.5 49t-46.5 35t-24 26.5t-7 23.5q0 18 13 30t30 12q15 0 27 -7.5t24.5 -26.5t27.5 -52.5t36 -84.5z" />
    <glyph glyph-name="Oacute" unicode="&#xd3;" horiz-adv-x="805" 
d="M466 756q58 56 93.5 89.5t57.5 51.5t35 23.5t25 5.5q18 0 30 -11t12 -28q0 -13 -9 -25t-36 -27t-75.5 -35.5t-127.5 -50.5zM373 -14q-65 0 -117.5 20t-90 56.5t-57.5 89t-20 117.5q0 88 37 168.5t98.5 142t141 98t164.5 36.5q65 0 117.5 -20t90 -56.5t57.5 -89t20 -116.5
q0 -88 -37 -169t-98.5 -142.5t-141 -98t-164.5 -36.5zM531 667q-63 0 -123.5 -35t-108 -94.5t-76.5 -137t-29 -161.5q0 -49 13.5 -87t37 -64.5t56 -40.5t70.5 -14q63 0 123.5 35t108 94.5t76.5 137t29 161.5q0 49 -13.5 87.5t-37 64.5t-56 40t-70.5 14z" />
    <glyph glyph-name="Ocircumflex" unicode="&#xd4;" horiz-adv-x="805" 
d="M380 752l-5 8l191 154h63l78 -155l-8 -7l-114 90zM373 -14q-65 0 -117.5 20t-90 56.5t-57.5 89t-20 117.5q0 88 37 168.5t98.5 142t141 98t164.5 36.5q65 0 117.5 -20t90 -56.5t57.5 -89t20 -116.5q0 -88 -37 -169t-98.5 -142.5t-141 -98t-164.5 -36.5zM531 667
q-63 0 -123.5 -35t-108 -94.5t-76.5 -137t-29 -161.5q0 -49 13.5 -87t37 -64.5t56 -40.5t70.5 -14q63 0 123.5 35t108 94.5t76.5 137t29 161.5q0 49 -13.5 87.5t-37 64.5t-56 40t-70.5 14z" />
    <glyph glyph-name="Otilde" unicode="&#xd5;" horiz-adv-x="805" 
d="M373 -14q-65 0 -117.5 20t-90 56.5t-57.5 89t-20 117.5q0 88 37 168.5t98.5 142t141 98t164.5 36.5q65 0 117.5 -20t90 -56.5t57.5 -89t20 -116.5q0 -88 -37 -169t-98.5 -142.5t-141 -98t-164.5 -36.5zM531 667q-63 0 -123.5 -35t-108 -94.5t-76.5 -137t-29 -161.5
q0 -49 13.5 -87t37 -64.5t56 -40.5t70.5 -14q63 0 123.5 35t108 94.5t76.5 137t29 161.5q0 49 -13.5 87.5t-37 64.5t-56 40t-70.5 14zM555 806q-20 16 -32.5 23t-24.5 7q-15 0 -33.5 -13.5t-44.5 -45.5l-8 4q26 65 54 91.5t57 26.5q19 0 36 -10t43 -30q20 -15 32.5 -22
t24.5 -7q15 0 33.5 13t44.5 45l8 -4q-26 -65 -54 -91.5t-57 -26.5q-19 0 -36 10t-43 30z" />
    <glyph glyph-name="Odieresis" unicode="&#xd6;" horiz-adv-x="805" 
d="M467 766q-23 0 -37 15t-15 35q0 28 18.5 46t44.5 18q23 0 36.5 -14.5t14.5 -35.5q0 -27 -18 -45.5t-44 -18.5zM657 766q-23 0 -37 15t-14 35q0 28 18 46t44 18q23 0 37 -14.5t14 -35.5q1 -27 -17.5 -45.5t-44.5 -18.5zM373 -14q-65 0 -117.5 20t-90 56.5t-57.5 89
t-20 117.5q0 88 37 168.5t98.5 142t141 98t164.5 36.5q65 0 117.5 -20t90 -56.5t57.5 -89t20 -116.5q0 -88 -37 -169t-98.5 -142.5t-141 -98t-164.5 -36.5zM531 667q-63 0 -123.5 -35t-108 -94.5t-76.5 -137t-29 -161.5q0 -49 13.5 -87t37 -64.5t56 -40.5t70.5 -14
q63 0 123.5 35t108 94.5t76.5 137t29 161.5q0 49 -13.5 87.5t-37 64.5t-56 40t-70.5 14z" />
    <glyph glyph-name="multiply" unicode="&#xd7;" horiz-adv-x="556" 
d="M66 201l236 167l-103 174l42 27l101 -172l231 167l27 -38l-236 -167l103 -174l-42 -27l-101 172l-231 -167z" />
    <glyph glyph-name="Oslash" unicode="&#xd8;" horiz-adv-x="805" 
d="M147 84q-29 35 -44 81.5t-15 103.5q0 88 37 168.5t98.5 142t141 98t164.5 36.5q62 0 112 -18t87 -51l71 69h57l-101 -97q29 -36 44 -82.5t15 -102.5q0 -88 -37 -169t-98.5 -142.5t-141 -98t-164.5 -36.5q-62 0 -112 18t-87 51l-71 -69h-57zM673 592q-23 37 -60 56t-82 19
q-63 0 -123.5 -35t-108 -94.5t-76.5 -137t-29 -161.5q0 -27 4 -50.5t12 -43.5zM371 33q63 0 123.5 35t108 94.5t76.5 137t29 161.5q0 27 -4 50.5t-12 43.5l-463 -447q23 -37 60 -56t82 -19z" />
    <glyph glyph-name="Ugrave" unicode="&#xd9;" horiz-adv-x="773" 
d="M749 603q11 29 5 42t-29 17l-47 7l13 31h248l-13 -31l-52 -8q-27 -5 -42 -17t-26 -41l-142 -367q-46 -119 -128.5 -183.5t-194.5 -64.5q-72 0 -122.5 22.5t-77.5 62.5t-30 93.5t21 115.5l137 355q8 20 -12 23l-71 9l12 31h299l-13 -31l-81 -10q-11 -2 -15.5 -5.5
t-8.5 -12.5l-144 -373q-17 -45 -17.5 -85t15 -70.5t48 -48t80.5 -17.5q80 0 147 51.5t108 157.5zM652 749q-44 29 -73.5 49t-46.5 35t-24 26.5t-7 23.5q0 18 13 30t30 12q15 0 27 -7.5t24.5 -26.5t27.5 -52.5t36 -84.5z" />
    <glyph glyph-name="Uacute" unicode="&#xda;" horiz-adv-x="773" 
d="M513 756q58 56 93.5 89.5t57.5 51.5t35 23.5t25 5.5q18 0 30 -11t12 -28q0 -13 -9 -25t-36 -27t-75.5 -35.5t-127.5 -50.5zM749 603q11 29 5 42t-29 17l-47 7l13 31h248l-13 -31l-52 -8q-27 -5 -42 -17t-26 -41l-142 -367q-46 -119 -128.5 -183.5t-194.5 -64.5
q-72 0 -122.5 22.5t-77.5 62.5t-30 93.5t21 115.5l137 355q8 20 -12 23l-71 9l12 31h299l-13 -31l-81 -10q-11 -2 -15.5 -5.5t-8.5 -12.5l-144 -373q-17 -45 -17.5 -85t15 -70.5t48 -48t80.5 -17.5q80 0 147 51.5t108 157.5z" />
    <glyph glyph-name="Ucircumflex" unicode="&#xdb;" horiz-adv-x="773" 
d="M427 752l-5 8l191 154h63l78 -155l-8 -7l-114 90zM749 603q11 29 5 42t-29 17l-47 7l13 31h248l-13 -31l-52 -8q-27 -5 -42 -17t-26 -41l-142 -367q-46 -119 -128.5 -183.5t-194.5 -64.5q-72 0 -122.5 22.5t-77.5 62.5t-30 93.5t21 115.5l137 355q8 20 -12 23l-71 9
l12 31h299l-13 -31l-81 -10q-11 -2 -15.5 -5.5t-8.5 -12.5l-144 -373q-17 -45 -17.5 -85t15 -70.5t48 -48t80.5 -17.5q80 0 147 51.5t108 157.5z" />
    <glyph glyph-name="Udieresis" unicode="&#xdc;" horiz-adv-x="773" 
d="M514 766q-23 0 -37 15t-15 35q0 28 18.5 46t44.5 18q23 0 36.5 -14.5t14.5 -35.5q0 -27 -18 -45.5t-44 -18.5zM704 766q-23 0 -37 15t-14 35q0 28 18 46t44 18q23 0 37 -14.5t14 -35.5q1 -27 -17.5 -45.5t-44.5 -18.5zM749 603q11 29 5 42t-29 17l-47 7l13 31h248
l-13 -31l-52 -8q-27 -5 -42 -17t-26 -41l-142 -367q-46 -119 -128.5 -183.5t-194.5 -64.5q-72 0 -122.5 22.5t-77.5 62.5t-30 93.5t21 115.5l137 355q8 20 -12 23l-71 9l12 31h299l-13 -31l-81 -10q-11 -2 -15.5 -5.5t-8.5 -12.5l-144 -373q-17 -45 -17.5 -85t15 -70.5
t48 -48t80.5 -17.5q80 0 147 51.5t108 157.5z" />
    <glyph glyph-name="Yacute" unicode="&#xdd;" horiz-adv-x="685" 
d="M414 0h-319l13 32l91 9q17 1 24 19l83 214l-73 358q-4 17 -8.5 23t-18.5 9l-29 5l13 31h255l-12 -31l-50 -8q-16 -2 -25.5 -5t-14.5 -8.5t-5.5 -13t1.5 -19.5l55 -280q3 -13 13 -3l267 277q43 46 -9 54l-38 6l13 31h219l-13 -31l-19 -3q-20 -4 -38 -15t-41 -34l-334 -342
l-81 -211q-8 -23 12 -24l82 -8zM461 756q58 56 93.5 89.5t57.5 51.5t35 23.5t25 5.5q18 0 30 -11t12 -28q0 -13 -9 -25t-36 -27t-75.5 -35.5t-127.5 -50.5z" />
    <glyph glyph-name="Thorn" unicode="&#xde;" horiz-adv-x="647" 
d="M169 64q-5 -12 -2 -17t14 -7l71 -8l-13 -32h-299l13 32l82 9q11 2 15.5 5.5t8.5 13.5l222 577q8 20 -12 23l-71 9l13 31h298l-12 -31l-82 -10q-11 -2 -15.5 -5.5t-8.5 -12.5l-30 -77h69q107 0 167 -47t60 -132q0 -48 -21 -89.5t-57 -72.5t-83.5 -48.5t-100.5 -17.5
q-37 0 -69.5 11t-55.5 31l2 4q18 -7 43 -7.5t48 -0.5q37 0 71 14.5t60 40t41.5 60t15.5 74.5q0 65 -35.5 100.5t-96.5 35.5h-75z" />
    <glyph glyph-name="germandbls" unicode="&#xdf;" horiz-adv-x="553" 
d="M391 375q0 -14 7 -28.5t22 -34.5l46 -64q21 -29 32.5 -54t11.5 -54q0 -32 -12.5 -60t-34 -48.5t-51.5 -32t-65 -11.5q-29 0 -54 9t-43.5 23t-29 31t-10.5 33q0 19 12 32t29 13t27 -10t17 -35q8 -32 21.5 -46t39.5 -14q33 0 54.5 23.5t21.5 58.5q0 20 -7 37.5t-24 41.5
l-48 68q-20 28 -30.5 50t-10.5 45q0 27 21.5 58.5t78.5 66.5l29 18q32 20 50 49t18 68q0 46 -25 71t-63 25q-55 0 -85 -53q-16 -28 -27 -72.5t-34 -104.5l-195 -512q-36 -94 -85 -139t-112 -45q-43 0 -71 19t-28 48q0 21 13.5 34.5t32.5 13.5q20 0 29.5 -11t13.5 -29
q9 -37 35 -37q14 0 27.5 8.5t24.5 33.5q8 19 20.5 58.5t29.5 85.5l154 414l-79 1l7 16l89 28l33 89q36 97 93 145.5t126 48.5q36 0 64 -9.5t47.5 -27t30 -40.5t10.5 -50q0 -42 -24 -74.5t-75 -64.5l-29 -18q-35 -22 -50.5 -43t-15.5 -42z" />
    <glyph glyph-name="agrave" unicode="&#xe0;" horiz-adv-x="528" 
d="M109 -12q-43 0 -71 31t-28 90q0 64 29.5 129.5t76 118t103.5 85.5t111 33q60 0 99 -41l91 43h4l-162 -407q-6 -12 7 -12t42.5 14.5t87.5 58.5l4 -3q-51 -73 -97 -106.5t-94 -33.5q-35 0 -45.5 18.5t1.5 49.5l41 104q-29 -48 -54 -80.5t-49 -53t-48 -29.5t-49 -9zM99 113
q0 -32 14 -49.5t36 -17.5q15 0 32 9t40 33t54.5 67t75.5 111l56 138q-17 13 -33.5 20t-35.5 7q-26 0 -54 -15t-54.5 -39.5t-50 -57t-41.5 -68t-28.5 -71.5t-10.5 -67zM405 512q-44 29 -73.5 49t-46.5 35t-24 26.5t-7 23.5q0 18 13 30t30 12q15 0 27 -7.5t24.5 -26.5
t27.5 -52.5t36 -84.5z" />
    <glyph glyph-name="aacute" unicode="&#xe1;" horiz-adv-x="528" 
d="M109 -12q-43 0 -71 31t-28 90q0 64 29.5 129.5t76 118t103.5 85.5t111 33q60 0 99 -41l91 43h4l-162 -407q-6 -12 7 -12t42.5 14.5t87.5 58.5l4 -3q-51 -73 -97 -106.5t-94 -33.5q-35 0 -45.5 18.5t1.5 49.5l41 104q-29 -48 -54 -80.5t-49 -53t-48 -29.5t-49 -9zM99 113
q0 -32 14 -49.5t36 -17.5q15 0 32 9t40 33t54.5 67t75.5 111l56 138q-17 13 -33.5 20t-35.5 7q-26 0 -54 -15t-54.5 -39.5t-50 -57t-41.5 -68t-28.5 -71.5t-10.5 -67zM266 519q58 56 93.5 89.5t57.5 51.5t35 23.5t25 5.5q18 0 30 -11t12 -28q0 -13 -9 -25t-36 -27
t-75.5 -35.5t-127.5 -50.5z" />
    <glyph glyph-name="acircumflex" unicode="&#xe2;" horiz-adv-x="528" 
d="M109 -12q-43 0 -71 31t-28 90q0 64 29.5 129.5t76 118t103.5 85.5t111 33q60 0 99 -41l91 43h4l-162 -407q-6 -12 7 -12t42.5 14.5t87.5 58.5l4 -3q-51 -73 -97 -106.5t-94 -33.5q-35 0 -45.5 18.5t1.5 49.5l41 104q-29 -48 -54 -80.5t-49 -53t-48 -29.5t-49 -9zM99 113
q0 -32 14 -49.5t36 -17.5q15 0 32 9t40 33t54.5 67t75.5 111l56 138q-17 13 -33.5 20t-35.5 7q-26 0 -54 -15t-54.5 -39.5t-50 -57t-41.5 -68t-28.5 -71.5t-10.5 -67zM180 515l-5 8l191 154h63l78 -155l-8 -7l-114 90z" />
    <glyph glyph-name="atilde" unicode="&#xe3;" horiz-adv-x="528" 
d="M109 -12q-43 0 -71 31t-28 90q0 64 29.5 129.5t76 118t103.5 85.5t111 33q60 0 99 -41l91 43h4l-162 -407q-6 -12 7 -12t42.5 14.5t87.5 58.5l4 -3q-51 -73 -97 -106.5t-94 -33.5q-35 0 -45.5 18.5t1.5 49.5l41 104q-29 -48 -54 -80.5t-49 -53t-48 -29.5t-49 -9zM99 113
q0 -32 14 -49.5t36 -17.5q15 0 32 9t40 33t54.5 67t75.5 111l56 138q-17 13 -33.5 20t-35.5 7q-26 0 -54 -15t-54.5 -39.5t-50 -57t-41.5 -68t-28.5 -71.5t-10.5 -67zM355 569q-20 16 -32.5 23t-24.5 7q-15 0 -33.5 -13.5t-44.5 -45.5l-8 4q26 65 54 91.5t57 26.5
q19 0 36 -10t43 -30q20 -15 32.5 -22t24.5 -7q15 0 33.5 13t44.5 45l8 -4q-26 -65 -54 -91.5t-57 -26.5q-19 0 -36 10t-43 30z" />
    <glyph glyph-name="adieresis" unicode="&#xe4;" horiz-adv-x="528" 
d="M109 -12q-43 0 -71 31t-28 90q0 64 29.5 129.5t76 118t103.5 85.5t111 33q60 0 99 -41l91 43h4l-162 -407q-6 -12 7 -12t42.5 14.5t87.5 58.5l4 -3q-51 -73 -97 -106.5t-94 -33.5q-35 0 -45.5 18.5t1.5 49.5l41 104q-29 -48 -54 -80.5t-49 -53t-48 -29.5t-49 -9zM99 113
q0 -32 14 -49.5t36 -17.5q15 0 32 9t40 33t54.5 67t75.5 111l56 138q-17 13 -33.5 20t-35.5 7q-26 0 -54 -15t-54.5 -39.5t-50 -57t-41.5 -68t-28.5 -71.5t-10.5 -67zM267 529q-23 0 -37 15t-15 35q0 28 18.5 46t44.5 18q23 0 36.5 -14.5t14.5 -35.5q0 -27 -18 -45.5
t-44 -18.5zM457 529q-23 0 -37 15t-14 35q0 28 18 46t44 18q23 0 37 -14.5t14 -35.5q1 -27 -17.5 -45.5t-44.5 -18.5z" />
    <glyph glyph-name="aring" unicode="&#xe5;" horiz-adv-x="528" 
d="M109 -12q-43 0 -71 31t-28 90q0 64 29.5 129.5t76 118t103.5 85.5t111 33q60 0 99 -41l91 43h4l-162 -407q-6 -12 7 -12t42.5 14.5t87.5 58.5l4 -3q-51 -73 -97 -106.5t-94 -33.5q-35 0 -45.5 18.5t1.5 49.5l41 104q-29 -48 -54 -80.5t-49 -53t-48 -29.5t-49 -9zM99 113
q0 -32 14 -49.5t36 -17.5q15 0 32 9t40 33t54.5 67t75.5 111l56 138q-17 13 -33.5 20t-35.5 7q-26 0 -54 -15t-54.5 -39.5t-50 -57t-41.5 -68t-28.5 -71.5t-10.5 -67zM403 733q39 0 65 -24t26 -62q0 -24 -10 -45.5t-27 -37.5t-40 -25t-48 -9q-40 0 -66 24t-26 62q0 25 10 46
t27.5 37t40 25t48.5 9zM373 567q16 0 31 6.5t26 17t18 24.5t7 30q0 25 -15 38t-41 13q-16 0 -31 -6t-26 -16.5t-18 -25t-7 -30.5q0 -24 15.5 -37.5t40.5 -13.5z" />
    <glyph glyph-name="ae" unicode="&#xe6;" horiz-adv-x="641" 
d="M109 -14q-47 0 -77 26t-30 69q0 27 13.5 48t39.5 38t65.5 32t92.5 29l69 19l2 6q1 3 3.5 9t6.5 16t10 26q8 20 11.5 37t3.5 31q0 32 -17.5 49t-47.5 17q-15 0 -30 -3.5t-27.5 -11.5t-22 -21t-12.5 -32q-6 -34 -17 -49.5t-34 -15.5q-20 0 -30 13.5t-10 27.5q0 21 14.5 44
t40 42t59.5 31.5t74 12.5q53 0 86 -18t45 -50q36 32 78 50.5t87 18.5q43 0 68.5 -21t25.5 -55q0 -25 -15.5 -52t-50 -52t-89 -45.5t-132.5 -32.5q-12 -42 -12 -84q1 -48 22 -69t51 -21q16 0 33.5 5t37 17t43.5 32t54 49l4 -3q-47 -86 -97 -122.5t-111 -36.5q-47 0 -78 22.5
t-44 64.5q-38 -44 -75.5 -65.5t-80.5 -21.5zM529 437q-19 0 -40.5 -14.5t-42.5 -39.5t-40 -58t-32 -70q49 10 84.5 26t58 36.5t33 42.5t10.5 44q0 15 -8.5 24t-22.5 9zM99 91q0 -24 15 -38.5t37 -14.5q24 0 52 17t57 46q-1 6 -1.5 12.5t-0.5 13.5q0 22 2.5 41.5t9.5 41.5
l-53 -17q-65 -21 -91.5 -44t-26.5 -58z" />
    <glyph glyph-name="ccedilla" unicode="&#xe7;" horiz-adv-x="391" 
d="M279 437q-27 0 -56.5 -29t-54.5 -73t-41.5 -97.5t-16.5 -102.5q0 -43 21 -65t54 -22q15 0 31 5.5t34.5 18t40.5 34t49 54.5l5 -2q-32 -78 -77.5 -121t-101.5 -50l-45 -43q5 1 10 1.5t10 0.5q34 0 54.5 -18t20.5 -47q0 -21 -9.5 -40t-26.5 -32.5t-40.5 -21.5t-50.5 -8
q-38 0 -65.5 13.5t-47.5 36.5l9 9q15 -9 34.5 -16t46.5 -7q33 0 56 17t23 43q0 18 -13 29t-37 11q-14 0 -25.5 -3.5t-27.5 -10.5l-5 9l80 79q-45 8 -72 43t-27 95t23 122t61 112.5t87.5 82t102.5 31.5q26 0 47.5 -7.5t36.5 -20t23.5 -28.5t8.5 -33q0 -21 -12 -36.5
t-35 -15.5q-17 0 -31.5 13.5t-17.5 46.5q-2 23 -10.5 33t-22.5 10z" />
    <glyph glyph-name="egrave" unicode="&#xe8;" horiz-adv-x="400" 
d="M354 145q-47 -86 -97 -122.5t-111 -36.5q-60 0 -94.5 36.5t-34.5 103.5q0 63 24.5 125.5t65.5 112.5t95 81.5t113 31.5q42 0 67.5 -21t25.5 -55q0 -25 -16 -52.5t-50.5 -53.5t-89 -47.5t-132.5 -33.5q-11 -41 -11 -79q0 -48 21.5 -69t51.5 -21q17 0 34 5t37 17t43.5 32
t53.5 49zM319 404q0 15 -8.5 24t-22.5 9q-19 0 -41 -15t-43.5 -41t-40.5 -60t-32 -71q50 10 85.5 27t58.5 38t33.5 44t10.5 45zM371 512q-44 29 -73.5 49t-46.5 35t-24 26.5t-7 23.5q0 18 13 30t30 12q15 0 27 -7.5t24.5 -26.5t27.5 -52.5t36 -84.5z" />
    <glyph glyph-name="eacute" unicode="&#xe9;" horiz-adv-x="400" 
d="M232 519q58 56 93.5 89.5t57.5 51.5t35 23.5t25 5.5q18 0 30 -11t12 -28q0 -13 -9 -25t-36 -27t-75.5 -35.5t-127.5 -50.5zM354 145q-47 -86 -97 -122.5t-111 -36.5q-60 0 -94.5 36.5t-34.5 103.5q0 63 24.5 125.5t65.5 112.5t95 81.5t113 31.5q42 0 67.5 -21t25.5 -55
q0 -25 -16 -52.5t-50.5 -53.5t-89 -47.5t-132.5 -33.5q-11 -41 -11 -79q0 -48 21.5 -69t51.5 -21q17 0 34 5t37 17t43.5 32t53.5 49zM319 404q0 15 -8.5 24t-22.5 9q-19 0 -41 -15t-43.5 -41t-40.5 -60t-32 -71q50 10 85.5 27t58.5 38t33.5 44t10.5 45z" />
    <glyph glyph-name="ecircumflex" unicode="&#xea;" horiz-adv-x="400" 
d="M146 515l-5 8l191 154h63l78 -155l-8 -7l-114 90zM354 145q-47 -86 -97 -122.5t-111 -36.5q-60 0 -94.5 36.5t-34.5 103.5q0 63 24.5 125.5t65.5 112.5t95 81.5t113 31.5q42 0 67.5 -21t25.5 -55q0 -25 -16 -52.5t-50.5 -53.5t-89 -47.5t-132.5 -33.5q-11 -41 -11 -79
q0 -48 21.5 -69t51.5 -21q17 0 34 5t37 17t43.5 32t53.5 49zM319 404q0 15 -8.5 24t-22.5 9q-19 0 -41 -15t-43.5 -41t-40.5 -60t-32 -71q50 10 85.5 27t58.5 38t33.5 44t10.5 45z" />
    <glyph glyph-name="edieresis" unicode="&#xeb;" horiz-adv-x="400" 
d="M233 529q-23 0 -37 15t-15 35q0 28 18.5 46t44.5 18q23 0 36.5 -14.5t14.5 -35.5q0 -27 -18 -45.5t-44 -18.5zM423 529q-23 0 -37 15t-14 35q0 28 18 46t44 18q23 0 37 -14.5t14 -35.5q1 -27 -17.5 -45.5t-44.5 -18.5zM354 145q-47 -86 -97 -122.5t-111 -36.5
q-60 0 -94.5 36.5t-34.5 103.5q0 63 24.5 125.5t65.5 112.5t95 81.5t113 31.5q42 0 67.5 -21t25.5 -55q0 -25 -16 -52.5t-50.5 -53.5t-89 -47.5t-132.5 -33.5q-11 -41 -11 -79q0 -48 21.5 -69t51.5 -21q17 0 34 5t37 17t43.5 32t53.5 49zM319 404q0 15 -8.5 24t-22.5 9
q-19 0 -41 -15t-43.5 -41t-40.5 -60t-32 -71q50 10 85.5 27t58.5 38t33.5 44t10.5 45z" />
    <glyph glyph-name="igrave" unicode="&#xec;" horiz-adv-x="296" 
d="M124 71q-6 -13 7 -13t42.5 14.5t87.5 58.5l4 -3q-51 -73 -97 -106.5t-94 -33.5q-35 0 -46 18.5t2 49.5l148 348q-59 -8 -133 -52l-3 4q51 57 106 86t118 29h8q10 0 13 -5t0 -13zM325 512q-44 29 -73.5 49t-46.5 35t-24 26.5t-7 23.5q0 18 13 30t30 12q15 0 27 -7.5
t24.5 -26.5t27.5 -52.5t36 -84.5z" />
    <glyph glyph-name="iacute" unicode="&#xed;" horiz-adv-x="296" 
d="M186 519q58 56 93.5 89.5t57.5 51.5t35 23.5t25 5.5q18 0 30 -11t12 -28q0 -13 -9 -25t-36 -27t-75.5 -35.5t-127.5 -50.5zM124 71q-6 -13 7 -13t42.5 14.5t87.5 58.5l4 -3q-51 -73 -97 -106.5t-94 -33.5q-35 0 -46 18.5t2 49.5l148 348q-59 -8 -133 -52l-3 4
q51 57 106 86t118 29h8q10 0 13 -5t0 -13z" />
    <glyph glyph-name="icircumflex" unicode="&#xee;" horiz-adv-x="296" 
d="M100 515l-5 8l191 154h63l78 -155l-8 -7l-114 90zM124 71q-6 -13 7 -13t42.5 14.5t87.5 58.5l4 -3q-51 -73 -97 -106.5t-94 -33.5q-35 0 -46 18.5t2 49.5l148 348q-59 -8 -133 -52l-3 4q51 57 106 86t118 29h8q10 0 13 -5t0 -13z" />
    <glyph glyph-name="idieresis" unicode="&#xef;" horiz-adv-x="296" 
d="M187 529q-23 0 -37 15t-15 35q0 28 18.5 46t44.5 18q23 0 36.5 -14.5t14.5 -35.5q0 -27 -18 -45.5t-44 -18.5zM377 529q-23 0 -37 15t-14 35q0 28 18 46t44 18q23 0 37 -14.5t14 -35.5q1 -27 -17.5 -45.5t-44.5 -18.5zM124 71q-6 -13 7 -13t42.5 14.5t87.5 58.5l4 -3
q-51 -73 -97 -106.5t-94 -33.5q-35 0 -46 18.5t2 49.5l148 348q-59 -8 -133 -52l-3 4q51 57 106 86t118 29h8q10 0 13 -5t0 -13z" />
    <glyph glyph-name="eth" unicode="&#xf0;" horiz-adv-x="483" 
d="M223 548v2l273 157h68v-2l-272 -157h-69zM298 469q29 0 54.5 -9.5t44 -26t30 -39t13.5 -49.5l-17 -13q-18 47 -51 71t-69 24q-27 0 -52 -15.5t-47 -41.5t-40.5 -59t-32 -67t-21 -67.5t-7.5 -59.5q0 -45 19 -68t51 -23q27 0 54 18.5t52.5 51.5t49.5 79t44 100t32 106.5
t12 97.5q0 69 -35 127t-108 101l3 6q103 -22 159 -91.5t56 -178.5q0 -46 -9 -94.5t-29 -102.5q-21 -55 -51.5 -102.5t-68 -82.5t-80.5 -55t-89 -20q-66 0 -106.5 40t-40.5 119q0 48 22 104.5t60.5 105t89.5 81.5t108 33z" />
    <glyph glyph-name="ntilde" unicode="&#xf1;" horiz-adv-x="560" 
d="M171 404q-29 -4 -62.5 -16.5t-71.5 -35.5l-3 4q51 55 106 85t118 30h8q10 0 13 -5t0 -13l-77 -194q43 60 79 101.5t67.5 67.5t60 37.5t56.5 11.5q43 0 59.5 -32.5t-8.5 -85.5l-134 -288q-6 -13 7 -13t42.5 14.5t87.5 58.5l4 -3q-51 -73 -97.5 -106.5t-96.5 -33.5
q-35 0 -47 18.5t1 46.5l144 306q11 24 6 35.5t-23 11.5q-15 0 -33 -9t-45 -33t-65.5 -67t-93.5 -111l-74 -186h-88zM383 569q-20 16 -32.5 23t-24.5 7q-15 0 -33.5 -13.5t-44.5 -45.5l-8 4q26 65 54 91.5t57 26.5q19 0 36 -10t43 -30q20 -15 32.5 -22t24.5 -7q15 0 33.5 13
t44.5 45l8 -4q-26 -65 -54 -91.5t-57 -26.5q-19 0 -36 10t-43 30z" />
    <glyph glyph-name="ograve" unicode="&#xf2;" horiz-adv-x="483" 
d="M456 301q0 -48 -20 -103t-56 -102.5t-86.5 -78.5t-112.5 -31q-69 0 -111 45t-43 132q0 32 9 67.5t25.5 70.5t41 67t55 56t67 38.5t77.5 14.5q69 0 111.5 -45t42.5 -131zM376 342q0 45 -19.5 70t-53.5 25q-27 0 -52 -16.5t-46.5 -43.5t-39.5 -61t-31 -68.5t-20 -67.5
t-7 -57q0 -47 19 -72t54 -25q27 0 52 16.5t47 43.5t39.5 61t30.5 69.5t20 68t7 57.5zM369 512q-44 29 -73.5 49t-46.5 35t-24 26.5t-7 23.5q0 18 13 30t30 12q15 0 27 -7.5t24.5 -26.5t27.5 -52.5t36 -84.5z" />
    <glyph glyph-name="oacute" unicode="&#xf3;" horiz-adv-x="483" 
d="M230 519q58 56 93.5 89.5t57.5 51.5t35 23.5t25 5.5q18 0 30 -11t12 -28q0 -13 -9 -25t-36 -27t-75.5 -35.5t-127.5 -50.5zM456 301q0 -48 -20 -103t-56 -102.5t-86.5 -78.5t-112.5 -31q-69 0 -111 45t-43 132q0 32 9 67.5t25.5 70.5t41 67t55 56t67 38.5t77.5 14.5
q69 0 111.5 -45t42.5 -131zM376 342q0 45 -19.5 70t-53.5 25q-27 0 -52 -16.5t-46.5 -43.5t-39.5 -61t-31 -68.5t-20 -67.5t-7 -57q0 -47 19 -72t54 -25q27 0 52 16.5t47 43.5t39.5 61t30.5 69.5t20 68t7 57.5z" />
    <glyph glyph-name="ocircumflex" unicode="&#xf4;" horiz-adv-x="483" 
d="M144 515l-5 8l191 154h63l78 -155l-8 -7l-114 90zM456 301q0 -48 -20 -103t-56 -102.5t-86.5 -78.5t-112.5 -31q-69 0 -111 45t-43 132q0 32 9 67.5t25.5 70.5t41 67t55 56t67 38.5t77.5 14.5q69 0 111.5 -45t42.5 -131zM376 342q0 45 -19.5 70t-53.5 25q-27 0 -52 -16.5
t-46.5 -43.5t-39.5 -61t-31 -68.5t-20 -67.5t-7 -57q0 -47 19 -72t54 -25q27 0 52 16.5t47 43.5t39.5 61t30.5 69.5t20 68t7 57.5z" />
    <glyph glyph-name="otilde" unicode="&#xf5;" horiz-adv-x="483" 
d="M456 301q0 -48 -20 -103t-56 -102.5t-86.5 -78.5t-112.5 -31q-69 0 -111 45t-43 132q0 32 9 67.5t25.5 70.5t41 67t55 56t67 38.5t77.5 14.5q69 0 111.5 -45t42.5 -131zM376 342q0 45 -19.5 70t-53.5 25q-27 0 -52 -16.5t-46.5 -43.5t-39.5 -61t-31 -68.5t-20 -67.5
t-7 -57q0 -47 19 -72t54 -25q27 0 52 16.5t47 43.5t39.5 61t30.5 69.5t20 68t7 57.5zM319 569q-20 16 -32.5 23t-24.5 7q-15 0 -33.5 -13.5t-44.5 -45.5l-8 4q26 65 54 91.5t57 26.5q19 0 36 -10t43 -30q20 -15 32.5 -22t24.5 -7q15 0 33.5 13t44.5 45l8 -4
q-26 -65 -54 -91.5t-57 -26.5q-19 0 -36 10t-43 30z" />
    <glyph glyph-name="odieresis" unicode="&#xf6;" horiz-adv-x="483" 
d="M231 529q-23 0 -37 15t-15 35q0 28 18.5 46t44.5 18q23 0 36.5 -14.5t14.5 -35.5q0 -27 -18 -45.5t-44 -18.5zM421 529q-23 0 -37 15t-14 35q0 28 18 46t44 18q23 0 37 -14.5t14 -35.5q1 -27 -17.5 -45.5t-44.5 -18.5zM456 301q0 -48 -20 -103t-56 -102.5t-86.5 -78.5
t-112.5 -31q-69 0 -111 45t-43 132q0 32 9 67.5t25.5 70.5t41 67t55 56t67 38.5t77.5 14.5q69 0 111.5 -45t42.5 -131zM376 342q0 45 -19.5 70t-53.5 25q-27 0 -52 -16.5t-46.5 -43.5t-39.5 -61t-31 -68.5t-20 -67.5t-7 -57q0 -47 19 -72t54 -25q27 0 52 16.5t47 43.5
t39.5 61t30.5 69.5t20 68t7 57.5z" />
    <glyph glyph-name="divide" unicode="&#xf7;" horiz-adv-x="556" 
d="M393 492q-24 0 -39 15t-16 38q0 29 19.5 48t46.5 19q23 0 38.5 -15t15.5 -38q0 -29 -19.5 -48t-45.5 -19zM109 386h465l-18 -46h-465zM261 114q-24 0 -39 15t-16 38q0 30 19.5 48.5t46.5 18.5q23 0 38.5 -15t15.5 -38q0 -29 -19.5 -48t-45.5 -19z" />
    <glyph glyph-name="oslash" unicode="&#xf8;" horiz-adv-x="483" 
d="M57 49q-30 44 -30 114q0 32 9 67.5t25.5 70.5t41 67t55 56t67 38.5t77.5 14.5q59 0 99 -34l30 34h50l-55 -62q14 -22 22 -50.5t8 -63.5q0 -48 -20 -103t-56 -102.5t-86.5 -78.5t-112.5 -31q-59 0 -99 34l-30 -34h-50zM364 400q-19 37 -61 37q-27 0 -52 -16.5t-46.5 -43.5
t-39.5 -61t-31 -68.5t-20 -67.5t-7 -57q0 -11 1 -16zM180 26q27 0 52 16.5t47 43.5t39.5 61t30.5 69.5t20 68t7 57.5q0 10 -1 14l-256 -293q18 -37 61 -37z" />
    <glyph glyph-name="ugrave" unicode="&#xf9;" horiz-adv-x="560" 
d="M152 57q15 0 33 9t45 33t65.5 67t93.5 111l74 186h88l-156 -393q-5 -12 7 -12q13 0 43 14.5t88 58.5l4 -3q-51 -73 -97.5 -106.5t-94.5 -33.5q-35 0 -45.5 18.5t1.5 49.5l59 147q-43 -60 -79 -101t-67.5 -67t-60 -37.5t-56.5 -11.5q-44 0 -60 32.5t9 86.5l140 298
q-29 -4 -63 -16.5t-70 -34.5l-3 4q51 57 107.5 86t121.5 29h8q10 0 13 -5t-1 -13l-164 -349q-21 -47 17 -47zM444 512q-44 29 -73.5 49t-46.5 35t-24 26.5t-7 23.5q0 18 13 30t30 12q15 0 27 -7.5t24.5 -26.5t27.5 -52.5t36 -84.5z" />
    <glyph glyph-name="uacute" unicode="&#xfa;" horiz-adv-x="560" 
d="M305 519q58 56 93.5 89.5t57.5 51.5t35 23.5t25 5.5q18 0 30 -11t12 -28q0 -13 -9 -25t-36 -27t-75.5 -35.5t-127.5 -50.5zM152 57q15 0 33 9t45 33t65.5 67t93.5 111l74 186h88l-156 -393q-5 -12 7 -12q13 0 43 14.5t88 58.5l4 -3q-51 -73 -97.5 -106.5t-94.5 -33.5
q-35 0 -45.5 18.5t1.5 49.5l59 147q-43 -60 -79 -101t-67.5 -67t-60 -37.5t-56.5 -11.5q-44 0 -60 32.5t9 86.5l140 298q-29 -4 -63 -16.5t-70 -34.5l-3 4q51 57 107.5 86t121.5 29h8q10 0 13 -5t-1 -13l-164 -349q-21 -47 17 -47z" />
    <glyph glyph-name="ucircumflex" unicode="&#xfb;" horiz-adv-x="560" 
d="M219 515l-5 8l191 154h63l78 -155l-8 -7l-114 90zM152 57q15 0 33 9t45 33t65.5 67t93.5 111l74 186h88l-156 -393q-5 -12 7 -12q13 0 43 14.5t88 58.5l4 -3q-51 -73 -97.5 -106.5t-94.5 -33.5q-35 0 -45.5 18.5t1.5 49.5l59 147q-43 -60 -79 -101t-67.5 -67t-60 -37.5
t-56.5 -11.5q-44 0 -60 32.5t9 86.5l140 298q-29 -4 -63 -16.5t-70 -34.5l-3 4q51 57 107.5 86t121.5 29h8q10 0 13 -5t-1 -13l-164 -349q-21 -47 17 -47z" />
    <glyph glyph-name="udieresis" unicode="&#xfc;" horiz-adv-x="560" 
d="M306 529q-23 0 -37 15t-15 35q0 28 18.5 46t44.5 18q23 0 36.5 -14.5t14.5 -35.5q0 -27 -18 -45.5t-44 -18.5zM496 529q-23 0 -37 15t-14 35q0 28 18 46t44 18q23 0 37 -14.5t14 -35.5q1 -27 -17.5 -45.5t-44.5 -18.5zM152 57q15 0 33 9t45 33t65.5 67t93.5 111l74 186
h88l-156 -393q-5 -12 7 -12q13 0 43 14.5t88 58.5l4 -3q-51 -73 -97.5 -106.5t-94.5 -33.5q-35 0 -45.5 18.5t1.5 49.5l59 147q-43 -60 -79 -101t-67.5 -67t-60 -37.5t-56.5 -11.5q-44 0 -60 32.5t9 86.5l140 298q-29 -4 -63 -16.5t-70 -34.5l-3 4q51 57 107.5 86t121.5 29
h8q10 0 13 -5t-1 -13l-164 -349q-21 -47 17 -47z" />
    <glyph glyph-name="yacute" unicode="&#xfd;" horiz-adv-x="458" 
d="M192 8q54 56 90 103.5t57.5 86t30.5 68t9 50.5q0 18 -5.5 31.5t-12 26t-12 25t-5.5 26.5q0 21 12 35.5t34 14.5q25 0 42 -22t17 -66q0 -86 -60.5 -189.5t-167.5 -215.5q-101 -106 -177 -153.5t-138 -47.5q-34 0 -54 15t-20 38q0 19 13 31.5t34 12.5q13 0 24 -5t21 -10.5
t20.5 -10.5t24.5 -5q11 0 23 2.5t28 10.5t36 22.5t46 38.5l21 487q-55 -10 -114 -51l-4 4q39 52 85.5 81t94.5 29h10q18 0 16 -17zM221 519q58 56 93.5 89.5t57.5 51.5t35 23.5t25 5.5q18 0 30 -11t12 -28q0 -13 -9 -25t-36 -27t-75.5 -35.5t-127.5 -50.5z" />
    <glyph glyph-name="thorn" unicode="&#xfe;" horiz-adv-x="524" 
d="M510 354q0 -68 -27.5 -133.5t-72.5 -117.5t-101.5 -83.5t-113.5 -31.5q-29 0 -55 8t-46 25l-69 -174q-8 -19 11 -22l44 -6l-12 -29h-220l12 29l51 7q10 2 14.5 5.5t8.5 11.5l318 801q5 12 3 17.5t-10 10.5l-37 23l6 14l167 37l-175 -442q29 48 55 80.5t51 52.5t49 29
t50 9q43 0 71 -31t28 -90zM371 417q-15 0 -32.5 -8.5t-41 -31.5t-55.5 -64.5t-76 -108.5l-57 -146q37 -26 79 -26q43 0 85 30.5t75 77.5t53 103t20 107q0 33 -14 50t-36 17z" />
    <glyph glyph-name="ydieresis" unicode="&#xff;" horiz-adv-x="458" 
d="M192 8q54 56 90 103.5t57.5 86t30.5 68t9 50.5q0 18 -5.5 31.5t-12 26t-12 25t-5.5 26.5q0 21 12 35.5t34 14.5q25 0 42 -22t17 -66q0 -86 -60.5 -189.5t-167.5 -215.5q-101 -106 -177 -153.5t-138 -47.5q-34 0 -54 15t-20 38q0 19 13 31.5t34 12.5q13 0 24 -5t21 -10.5
t20.5 -10.5t24.5 -5q11 0 23 2.5t28 10.5t36 22.5t46 38.5l21 487q-55 -10 -114 -51l-4 4q39 52 85.5 81t94.5 29h10q18 0 16 -17zM222 529q-23 0 -37 15t-15 35q0 28 18.5 46t44.5 18q23 0 36.5 -14.5t14.5 -35.5q0 -27 -18 -45.5t-44 -18.5zM412 529q-23 0 -37 15t-14 35
q0 28 18 46t44 18q23 0 37 -14.5t14 -35.5q1 -27 -17.5 -45.5t-44.5 -18.5z" />
    <glyph glyph-name="Amacron" unicode="&#x100;" horiz-adv-x="757" 
d="M-68 32l25 4q23 4 39.5 14t36.5 34l530 624h49l7 -639q0 -17 4.5 -23t16.5 -8l33 -6l-12 -32h-255l12 32l49 7q29 5 38.5 16t9.5 34v170h-272l-134 -160q-48 -56 10 -63l30 -4l-12 -32h-217zM279 302h236l-1 262q0 7 -3.5 8t-8.5 -5zM481 824h282l-18 -44h-282z" />
    <glyph glyph-name="amacron" unicode="&#x101;" horiz-adv-x="528" 
d="M109 -12q-43 0 -71 31t-28 90q0 64 29.5 129.5t76 118t103.5 85.5t111 33q60 0 99 -41l91 43h4l-162 -407q-6 -12 7 -12t42.5 14.5t87.5 58.5l4 -3q-51 -73 -97 -106.5t-94 -33.5q-35 0 -45.5 18.5t1.5 49.5l41 104q-29 -48 -54 -80.5t-49 -53t-48 -29.5t-49 -9zM99 113
q0 -32 14 -49.5t36 -17.5q15 0 32 9t40 33t54.5 67t75.5 111l56 138q-17 13 -33.5 20t-35.5 7q-26 0 -54 -15t-54.5 -39.5t-50 -57t-41.5 -68t-28.5 -71.5t-10.5 -67zM227 587h282l-18 -44h-282z" />
    <glyph glyph-name="Abreve" unicode="&#x102;" horiz-adv-x="757" 
d="M-68 32l25 4q23 4 39.5 14t36.5 34l530 624h49l7 -639q0 -17 4.5 -23t16.5 -8l33 -6l-12 -32h-255l12 32l49 7q29 5 38.5 16t9.5 34v170h-272l-134 -160q-48 -56 10 -63l30 -4l-12 -32h-217zM279 302h236l-1 262q0 7 -3.5 8t-8.5 -5zM628 841q97 0 175 84l7 -3
q-28 -72 -80 -113t-112 -41q-34 0 -59 11.5t-39 32.5t-16.5 49.5t8.5 63.5h8q2 -45 29.5 -64.5t78.5 -19.5z" />
    <glyph glyph-name="abreve" unicode="&#x103;" horiz-adv-x="528" 
d="M109 -12q-43 0 -71 31t-28 90q0 64 29.5 129.5t76 118t103.5 85.5t111 33q60 0 99 -41l91 43h4l-162 -407q-6 -12 7 -12t42.5 14.5t87.5 58.5l4 -3q-51 -73 -97 -106.5t-94 -33.5q-35 0 -45.5 18.5t1.5 49.5l41 104q-29 -48 -54 -80.5t-49 -53t-48 -29.5t-49 -9zM99 113
q0 -32 14 -49.5t36 -17.5q15 0 32 9t40 33t54.5 67t75.5 111l56 138q-17 13 -33.5 20t-35.5 7q-26 0 -54 -15t-54.5 -39.5t-50 -57t-41.5 -68t-28.5 -71.5t-10.5 -67zM374 604q97 0 175 84l7 -3q-28 -72 -80 -113t-112 -41q-34 0 -59 11.5t-39 32.5t-16.5 49.5t8.5 63.5h8
q2 -45 29.5 -64.5t78.5 -19.5z" />
    <glyph glyph-name="Aogonek" unicode="&#x104;" horiz-adv-x="757" 
d="M-68 32l25 4q23 4 39.5 14t36.5 34l530 624h49l7 -639q0 -17 4.5 -23t16.5 -8l33 -6l-12 -32h-97q-29 -33 -47.5 -54t-28.5 -35.5t-13.5 -23.5t-3.5 -17q0 -14 9.5 -22t26.5 -8q33 0 86 35l5 -6q-66 -89 -146 -89q-33 0 -52.5 15.5t-19.5 41.5q0 33 39.5 71.5t111.5 91.5
h-125l12 32l49 7q29 5 38.5 16t9.5 34v170h-272l-134 -160q-48 -56 10 -63l30 -4l-12 -32h-217zM279 302h236l-1 262q0 7 -3.5 8t-8.5 -5z" />
    <glyph glyph-name="aogonek" unicode="&#x105;" horiz-adv-x="527" 
d="M109 -12q-43 0 -71 31t-28 90q0 64 29.5 129.5t76 118t103.5 85.5t111 33q60 0 99 -41l91 43h4l-162 -407q-5 -12 7 -12q13 0 42.5 14.5t87.5 58.5l4 -3q-46 -66 -87.5 -99.5t-85.5 -39.5q-26 -29 -42 -48t-25 -32.5t-12.5 -22t-3.5 -16.5q0 -14 9.5 -22t26.5 -8
q33 0 86 35l5 -6q-66 -89 -146 -89q-33 0 -52.5 15.5t-19.5 41.5q0 32 35.5 68t101.5 85q-23 5 -29.5 22.5t4.5 43.5l41 104q-29 -48 -54 -80.5t-49 -53t-48 -29.5t-49 -9zM99 113q0 -32 14 -49.5t36 -17.5q15 0 32 9t40 33t54.5 67t75.5 111l56 138q-17 13 -33.5 20
t-35.5 7q-26 0 -54 -15t-54.5 -39.5t-50 -57t-41.5 -68t-28.5 -71.5t-10.5 -67z" />
    <glyph glyph-name="Cacute" unicode="&#x106;" horiz-adv-x="738" 
d="M472 756q58 56 93.5 89.5t57.5 51.5t35 23.5t25 5.5q18 0 30 -11t12 -28q0 -13 -9 -25t-36 -27t-75.5 -35.5t-127.5 -50.5zM342 -12q-55 0 -101.5 18.5t-81 53t-54 83.5t-19.5 109q0 98 37.5 182t100.5 146t146 97t174 35q61 0 101.5 -15t67 -33.5t41.5 -33.5t26 -15
q3 0 7 1.5t11.5 6t20.5 13.5t34 24l-86 -210h-39q9 48 -0.5 87.5t-33.5 68t-60.5 44t-82.5 15.5q-70 0 -134.5 -34.5t-114 -93t-79 -136t-29.5 -163.5q1 -97 46 -150t115 -53q81 0 157 51t138 140h39l-99 -239q-14 41 -19.5 55t-10.5 14q-7 0 -24.5 -10.5t-45.5 -23.5
t-65 -23.5t-83 -10.5z" />
    <glyph glyph-name="cacute" unicode="&#x107;" horiz-adv-x="391" 
d="M219 519q58 56 93.5 89.5t57.5 51.5t35 23.5t25 5.5q18 0 30 -11t12 -28q0 -13 -9 -25t-36 -27t-75.5 -35.5t-127.5 -50.5zM279 437q-27 0 -56.5 -29t-54.5 -73t-41.5 -97.5t-16.5 -102.5q0 -43 21 -65t54 -22q15 0 31 5.5t34.5 18t40.5 34t49 54.5l5 -2
q-35 -85 -86 -128.5t-113 -43.5q-57 0 -92.5 36t-35.5 105q0 60 23 122t61 112.5t87.5 82t102.5 31.5q26 0 47.5 -7.5t36.5 -20t23.5 -28.5t8.5 -33q0 -21 -12 -36.5t-35 -15.5q-17 0 -31.5 13.5t-17.5 46.5q-2 23 -10.5 33t-22.5 10z" />
    <glyph glyph-name="Ccircumflex" unicode="&#x108;" horiz-adv-x="738" 
d="M386 752l-5 8l191 154h63l78 -155l-8 -7l-114 90zM342 -12q-55 0 -101.5 18.5t-81 53t-54 83.5t-19.5 109q0 98 37.5 182t100.5 146t146 97t174 35q61 0 101.5 -15t67 -33.5t41.5 -33.5t26 -15q3 0 7 1.5t11.5 6t20.5 13.5t34 24l-86 -210h-39q9 48 -0.5 87.5t-33.5 68
t-60.5 44t-82.5 15.5q-70 0 -134.5 -34.5t-114 -93t-79 -136t-29.5 -163.5q1 -97 46 -150t115 -53q81 0 157 51t138 140h39l-99 -239q-14 41 -19.5 55t-10.5 14q-7 0 -24.5 -10.5t-45.5 -23.5t-65 -23.5t-83 -10.5z" />
    <glyph glyph-name="ccircumflex" unicode="&#x109;" horiz-adv-x="391" 
d="M133 515l-5 8l191 154h63l78 -155l-8 -7l-114 90zM279 437q-27 0 -56.5 -29t-54.5 -73t-41.5 -97.5t-16.5 -102.5q0 -43 21 -65t54 -22q15 0 31 5.5t34.5 18t40.5 34t49 54.5l5 -2q-35 -85 -86 -128.5t-113 -43.5q-57 0 -92.5 36t-35.5 105q0 60 23 122t61 112.5t87.5 82
t102.5 31.5q26 0 47.5 -7.5t36.5 -20t23.5 -28.5t8.5 -33q0 -21 -12 -36.5t-35 -15.5q-17 0 -31.5 13.5t-17.5 46.5q-2 23 -10.5 33t-22.5 10z" />
    <glyph glyph-name="Cdotaccent" unicode="&#x10a;" horiz-adv-x="738" 
d="M342 -12q-55 0 -101.5 18.5t-81 53t-54 83.5t-19.5 109q0 98 37.5 182t100.5 146t146 97t174 35q61 0 101.5 -15t67 -33.5t41.5 -33.5t26 -15q3 0 7 1.5t11.5 6t20.5 13.5t34 24l-86 -210h-39q9 48 -0.5 87.5t-33.5 68t-60.5 44t-82.5 15.5q-70 0 -134.5 -34.5t-114 -93
t-79 -136t-29.5 -163.5q1 -97 46 -150t115 -53q81 0 157 51t138 140h39l-99 -239q-14 41 -19.5 55t-10.5 14q-7 0 -24.5 -10.5t-45.5 -23.5t-65 -23.5t-83 -10.5zM568 766q-23 0 -37 15t-14 35q0 28 18 46t44 18q23 0 37 -14.5t14 -35.5q0 -27 -18 -45.5t-44 -18.5z" />
    <glyph glyph-name="cdotaccent" unicode="&#x10b;" horiz-adv-x="391" 
d="M279 437q-27 0 -56.5 -29t-54.5 -73t-41.5 -97.5t-16.5 -102.5q0 -43 21 -65t54 -22q15 0 31 5.5t34.5 18t40.5 34t49 54.5l5 -2q-35 -85 -86 -128.5t-113 -43.5q-57 0 -92.5 36t-35.5 105q0 60 23 122t61 112.5t87.5 82t102.5 31.5q26 0 47.5 -7.5t36.5 -20t23.5 -28.5
t8.5 -33q0 -21 -12 -36.5t-35 -15.5q-17 0 -31.5 13.5t-17.5 46.5q-2 23 -10.5 33t-22.5 10zM315 529q-23 0 -37 15t-14 35q0 28 18 46t44 18q23 0 37 -14.5t14 -35.5q0 -27 -18 -45.5t-44 -18.5z" />
    <glyph glyph-name="Ccaron" unicode="&#x10c;" horiz-adv-x="738" 
d="M780 938l5 -7l-191 -155h-64l-78 156l8 6l114 -90zM342 -12q-55 0 -101.5 18.5t-81 53t-54 83.5t-19.5 109q0 98 37.5 182t100.5 146t146 97t174 35q61 0 101.5 -15t67 -33.5t41.5 -33.5t26 -15q3 0 7 1.5t11.5 6t20.5 13.5t34 24l-86 -210h-39q9 48 -0.5 87.5t-33.5 68
t-60.5 44t-82.5 15.5q-70 0 -134.5 -34.5t-114 -93t-79 -136t-29.5 -163.5q1 -97 46 -150t115 -53q81 0 157 51t138 140h39l-99 -239q-14 41 -19.5 55t-10.5 14q-7 0 -24.5 -10.5t-45.5 -23.5t-65 -23.5t-83 -10.5z" />
    <glyph glyph-name="ccaron" unicode="&#x10d;" horiz-adv-x="391" 
d="M527 701l5 -7l-191 -155h-64l-78 156l8 6l114 -90zM279 437q-27 0 -56.5 -29t-54.5 -73t-41.5 -97.5t-16.5 -102.5q0 -43 21 -65t54 -22q15 0 31 5.5t34.5 18t40.5 34t49 54.5l5 -2q-35 -85 -86 -128.5t-113 -43.5q-57 0 -92.5 36t-35.5 105q0 60 23 122t61 112.5
t87.5 82t102.5 31.5q26 0 47.5 -7.5t36.5 -20t23.5 -28.5t8.5 -33q0 -21 -12 -36.5t-35 -15.5q-17 0 -31.5 13.5t-17.5 46.5q-2 23 -10.5 33t-22.5 10z" />
    <glyph glyph-name="Dcaron" unicode="&#x10e;" horiz-adv-x="767" 
d="M766 938l5 -7l-191 -155h-64l-78 156l8 6l114 -90zM468 700q72 0 129.5 -18t98 -52.5t62.5 -85t22 -114.5q0 -90 -39.5 -168.5t-107 -136.5t-157.5 -91.5t-191 -33.5h-345l13 32l82 9q11 2 15.5 5.5t8.5 13.5l222 577q8 20 -12 23l-71 9l13 31h257zM269 44q83 0 156.5 32
t128.5 86.5t87 126t32 149.5q0 103 -60 161t-164 58h-52l-227 -591q-8 -22 16 -22h83z" />
    <glyph glyph-name="dcaron" unicode="&#x10f;" horiz-adv-x="538" 
d="M708 703q11 20 22 28t25 8q17 0 27 -9.5t10 -22.5q0 -9 -5.5 -22.5t-22 -35.5t-44.5 -55t-73 -82l-6 3q23 74 38 118.5t29 69.5zM14 109q0 68 27.5 133.5t72.5 117.5t101.5 83.5t113.5 31.5q29 0 55.5 -8.5t46.5 -24.5l80 202q5 12 3 17.5t-10 10.5l-37 23l6 14l167 37
l-268 -676q-5 -12 7 -12q13 0 42.5 14.5t87.5 58.5l4 -3q-51 -73 -97 -106.5t-94 -33.5q-35 0 -45.5 18.5t1.5 49.5l42 105q-30 -48 -56 -81.5t-51 -53.5t-49.5 -29t-50.5 -9q-43 0 -71 31t-28 90zM103 113q0 -32 14 -49.5t37 -17.5q15 0 32.5 8.5t41.5 32.5t56 66.5
t77 110.5l55 141q-37 26 -80 26t-85 -30.5t-75 -77t-53 -103t-20 -107.5z" />
    <glyph glyph-name="Dcroat" unicode="&#x110;" horiz-adv-x="767" 
d="M88 382h95l98 255q8 20 -12 23l-71 9l13 31h257q72 0 129.5 -18t98 -52.5t62.5 -85t22 -114.5q0 -90 -39.5 -168.5t-107 -136.5t-157.5 -91.5t-191 -33.5h-345l13 32l82 9q11 2 15.5 5.5t8.5 13.5l109 284h-95zM269 44q83 0 156.5 32t128.5 86.5t87 126t32 149.5
q0 103 -60 161t-164 58h-52l-106 -275h158l-16 -38h-156l-107 -278q-8 -22 16 -22h83z" />
    <glyph glyph-name="dcroat" unicode="&#x111;" horiz-adv-x="538" 
d="M14 109q0 68 27.5 133.5t72.5 117.5t101.5 83.5t113.5 31.5q29 0 55.5 -8.5t46.5 -24.5l45 114h-141l15 36h140l21 52q5 12 3 17.5t-10 10.5l-37 23l6 14l167 37l-61 -154h65l-15 -36h-64l-193 -486q-5 -12 7 -12q13 0 42.5 14.5t87.5 58.5l4 -3q-51 -73 -97 -106.5
t-94 -33.5q-35 0 -45.5 18.5t1.5 49.5l42 105q-30 -48 -56 -81.5t-51 -53.5t-49.5 -29t-50.5 -9q-43 0 -71 31t-28 90zM103 113q0 -32 14 -49.5t37 -17.5q15 0 32.5 8.5t41.5 32.5t56 66.5t77 110.5l55 141q-37 26 -80 26t-85 -30.5t-75 -77t-53 -103t-20 -107.5z" />
    <glyph glyph-name="Emacron" unicode="&#x112;" horiz-adv-x="651" 
d="M419 251l9 64q2 14 -2.5 19.5t-19.5 5.5l-130 3l-106 -277q-8 -22 16 -22h175q34 0 57.5 4t44.5 18.5t43 43t54 78.5h39l-79 -188h-580l13 32l82 9q11 2 15.5 5.5t8.5 13.5l222 577q8 20 -12 23l-71 9l13 31h546l-70 -184h-37q7 49 8 77t-6 42.5t-22.5 18t-41.5 3.5h-191
l-105 -273l128 2q15 0 23 4t16 18l39 68h40l-80 -225h-39zM400 824h282l-18 -44h-282z" />
    <glyph glyph-name="emacron" unicode="&#x113;" horiz-adv-x="400" 
d="M354 145q-47 -86 -97 -122.5t-111 -36.5q-60 0 -94.5 36.5t-34.5 103.5q0 63 24.5 125.5t65.5 112.5t95 81.5t113 31.5q42 0 67.5 -21t25.5 -55q0 -25 -16 -52.5t-50.5 -53.5t-89 -47.5t-132.5 -33.5q-11 -41 -11 -79q0 -48 21.5 -69t51.5 -21q17 0 34 5t37 17t43.5 32
t53.5 49zM319 404q0 15 -8.5 24t-22.5 9q-19 0 -41 -15t-43.5 -41t-40.5 -60t-32 -71q50 10 85.5 27t58.5 38t33.5 44t10.5 45zM193 587h282l-18 -44h-282z" />
    <glyph glyph-name="Ebreve" unicode="&#x114;" horiz-adv-x="651" 
d="M419 251l9 64q2 14 -2.5 19.5t-19.5 5.5l-130 3l-106 -277q-8 -22 16 -22h175q34 0 57.5 4t44.5 18.5t43 43t54 78.5h39l-79 -188h-580l13 32l82 9q11 2 15.5 5.5t8.5 13.5l222 577q8 20 -12 23l-71 9l13 31h546l-70 -184h-37q7 49 8 77t-6 42.5t-22.5 18t-41.5 3.5h-191
l-105 -273l128 2q15 0 23 4t16 18l39 68h40l-80 -225h-39zM547 841q97 0 175 84l7 -3q-28 -72 -80 -113t-112 -41q-34 0 -59 11.5t-39 32.5t-16.5 49.5t8.5 63.5h8q2 -45 29.5 -64.5t78.5 -19.5z" />
    <glyph glyph-name="ebreve" unicode="&#x115;" horiz-adv-x="400" 
d="M354 145q-47 -86 -97 -122.5t-111 -36.5q-60 0 -94.5 36.5t-34.5 103.5q0 63 24.5 125.5t65.5 112.5t95 81.5t113 31.5q42 0 67.5 -21t25.5 -55q0 -25 -16 -52.5t-50.5 -53.5t-89 -47.5t-132.5 -33.5q-11 -41 -11 -79q0 -48 21.5 -69t51.5 -21q17 0 34 5t37 17t43.5 32
t53.5 49zM319 404q0 15 -8.5 24t-22.5 9q-19 0 -41 -15t-43.5 -41t-40.5 -60t-32 -71q50 10 85.5 27t58.5 38t33.5 44t10.5 45zM340 604q97 0 175 84l7 -3q-28 -72 -80 -113t-112 -41q-34 0 -59 11.5t-39 32.5t-16.5 49.5t8.5 63.5h8q2 -45 29.5 -64.5t78.5 -19.5z" />
    <glyph glyph-name="Edotaccent" unicode="&#x116;" horiz-adv-x="651" 
d="M419 251l9 64q2 14 -2.5 19.5t-19.5 5.5l-130 3l-106 -277q-8 -22 16 -22h175q34 0 57.5 4t44.5 18.5t43 43t54 78.5h39l-79 -188h-580l13 32l82 9q11 2 15.5 5.5t8.5 13.5l222 577q8 20 -12 23l-71 9l13 31h546l-70 -184h-37q7 49 8 77t-6 42.5t-22.5 18t-41.5 3.5h-191
l-105 -273l128 2q15 0 23 4t16 18l39 68h40l-80 -225h-39zM535 766q-23 0 -37 15t-14 35q0 28 18 46t44 18q23 0 37 -14.5t14 -35.5q0 -27 -18 -45.5t-44 -18.5z" />
    <glyph glyph-name="edotaccent" unicode="&#x117;" horiz-adv-x="400" 
d="M354 145q-47 -86 -97 -122.5t-111 -36.5q-60 0 -94.5 36.5t-34.5 103.5q0 63 24.5 125.5t65.5 112.5t95 81.5t113 31.5q42 0 67.5 -21t25.5 -55q0 -25 -16 -52.5t-50.5 -53.5t-89 -47.5t-132.5 -33.5q-11 -41 -11 -79q0 -48 21.5 -69t51.5 -21q17 0 34 5t37 17t43.5 32
t53.5 49zM319 404q0 15 -8.5 24t-22.5 9q-19 0 -41 -15t-43.5 -41t-40.5 -60t-32 -71q50 10 85.5 27t58.5 38t33.5 44t10.5 45zM328 529q-23 0 -37 15t-14 35q0 28 18 46t44 18q23 0 37 -14.5t14 -35.5q0 -27 -18 -45.5t-44 -18.5z" />
    <glyph glyph-name="Eogonek" unicode="&#x118;" horiz-adv-x="651" 
d="M419 251l9 64q2 14 -2.5 19.5t-19.5 5.5l-130 3l-106 -277q-8 -22 16 -22h175q34 0 57.5 4t44.5 18.5t43 43t54 78.5h39l-79 -188h-70q-29 -33 -47.5 -54t-28.5 -35.5t-13.5 -23.5t-3.5 -17q0 -14 9.5 -22t26.5 -8q33 0 86 35l5 -6q-66 -89 -146 -89q-33 0 -52.5 15.5
t-19.5 41.5q0 33 39.5 71.5t111.5 91.5h-477l13 32l82 9q11 2 15.5 5.5t8.5 13.5l222 577q8 20 -12 23l-71 9l13 31h546l-70 -184h-37q7 49 8 77t-6 42.5t-22.5 18t-41.5 3.5h-191l-105 -273l128 2q15 0 23 4t16 18l39 68h40l-80 -225h-39z" />
    <glyph glyph-name="eogonek" unicode="&#x119;" horiz-adv-x="400" 
d="M246 10q-62 -53 -87 -84t-25 -56q0 -14 9.5 -22t26.5 -8q33 0 86 35l5 -6q-32 -43 -69.5 -66t-76.5 -23q-32 0 -51.5 15.5t-19.5 41.5q0 35 36.5 73t97.5 79q-15 -3 -32 -3q-60 0 -94.5 36.5t-34.5 103.5q0 63 24.5 125.5t65.5 112.5t95 81.5t113 31.5q42 0 67.5 -21
t25.5 -55q0 -25 -16 -52.5t-50.5 -53.5t-89 -47.5t-132.5 -33.5q-11 -41 -11 -79q1 -48 22 -69t51 -21q17 0 34 5t37 17t43.5 32t53.5 49l4 -3q-21 -40 -47 -73t-61 -62zM288 437q-19 0 -41 -15t-43.5 -41t-40.5 -60t-32 -71q50 10 85.5 27t58.5 38t33.5 44t10.5 45
q0 15 -8.5 24t-22.5 9z" />
    <glyph glyph-name="Ecaron" unicode="&#x11a;" horiz-adv-x="651" 
d="M747 938l5 -7l-191 -155h-64l-78 156l8 6l114 -90zM419 251l9 64q2 14 -2.5 19.5t-19.5 5.5l-130 3l-106 -277q-8 -22 16 -22h175q34 0 57.5 4t44.5 18.5t43 43t54 78.5h39l-79 -188h-580l13 32l82 9q11 2 15.5 5.5t8.5 13.5l222 577q8 20 -12 23l-71 9l13 31h546
l-70 -184h-37q7 49 8 77t-6 42.5t-22.5 18t-41.5 3.5h-191l-105 -273l128 2q15 0 23 4t16 18l39 68h40l-80 -225h-39z" />
    <glyph glyph-name="ecaron" unicode="&#x11b;" horiz-adv-x="400" 
d="M540 701l5 -7l-191 -155h-64l-78 156l8 6l114 -90zM354 145q-47 -86 -97 -122.5t-111 -36.5q-60 0 -94.5 36.5t-34.5 103.5q0 63 24.5 125.5t65.5 112.5t95 81.5t113 31.5q42 0 67.5 -21t25.5 -55q0 -25 -16 -52.5t-50.5 -53.5t-89 -47.5t-132.5 -33.5q-11 -41 -11 -79
q0 -48 21.5 -69t51.5 -21q17 0 34 5t37 17t43.5 32t53.5 49zM319 404q0 15 -8.5 24t-22.5 9q-19 0 -41 -15t-43.5 -41t-40.5 -60t-32 -71q50 10 85.5 27t58.5 38t33.5 44t10.5 45z" />
    <glyph glyph-name="Gcircumflex" unicode="&#x11c;" horiz-adv-x="792" 
d="M390 752l-5 8l191 154h63l78 -155l-8 -7l-114 90zM354 -12q-57 0 -106 18.5t-85 53.5t-57 86t-21 116q0 95 37 177.5t100 143t146 95t176 34.5q63 0 104 -15t67.5 -33.5t42 -33.5t26.5 -15q3 0 7 1.5t11.5 6t20.5 13.5t34 24l-84 -210h-39q9 48 -1.5 87.5t-36 68
t-64.5 44t-87 15.5q-69 0 -132.5 -34t-112.5 -91.5t-78 -133t-29 -158.5q0 -53 13.5 -93t36.5 -67t54.5 -41t68.5 -14q42 0 88.5 17t88.5 52l64 162q10 22 -12 24l-81 8l12 31h290l-13 -31l-66 -9q-11 -2 -15.5 -5.5t-8.5 -13.5l-110 -276q-9 20 -15 32t-10.5 18.5t-7 8.5
t-5.5 2q-8 0 -25 -10t-43.5 -22.5t-62 -22.5t-80.5 -10z" />
    <glyph glyph-name="gcircumflex" unicode="&#x11d;" horiz-adv-x="456" 
d="M132 515l-5 8l166 154h63l53 -155l-8 -7l-89 90zM410 -22q0 -38 -19 -73t-52 -62t-78.5 -43.5t-97.5 -16.5q-48 0 -83.5 10t-58.5 27t-34 38t-11 44q0 21 12 33.5t29 12.5q25 0 33 -27q5 -14 4.5 -29t4.5 -28q9 -22 33 -34.5t73 -12.5q36 0 67 11t53.5 28t35.5 39t13 45
q0 34 -21 44.5t-72 6.5l-149 -11q-48 -4 -80 20t-32 62q0 45 40.5 76t129.5 34q-64 37 -64 119q0 39 15.5 72.5t43 58t64 39t78.5 14.5q59 0 100 -33q15 49 45.5 74.5t67.5 25.5q24 0 39 -10.5t15 -29.5q0 -17 -10.5 -27t-27.5 -10q-15 0 -29 6t-28 6q-16 0 -28.5 -13
t-22.5 -47q24 -35 24 -82q0 -35 -14 -68t-40.5 -59t-64.5 -41.5t-86 -15.5q-53 0 -87.5 -3.5t-54.5 -11t-28 -18t-8 -22.5q0 -17 11.5 -26t40.5 -7l170 12q70 6 104.5 -19.5t34.5 -77.5zM351 363q0 40 -18 60.5t-45 20.5q-26 0 -48.5 -18t-39 -45t-25.5 -58.5t-9 -59.5
q0 -40 18.5 -60.5t44.5 -20.5q27 0 49 18t38.5 45t25.5 58.5t9 59.5z" />
    <glyph glyph-name="Gbreve" unicode="&#x11e;" horiz-adv-x="792" 
d="M354 -12q-57 0 -106 18.5t-85 53.5t-57 86t-21 116q0 95 37 177.5t100 143t146 95t176 34.5q63 0 104 -15t67.5 -33.5t42 -33.5t26.5 -15q3 0 7 1.5t11.5 6t20.5 13.5t34 24l-84 -210h-39q9 48 -1.5 87.5t-36 68t-64.5 44t-87 15.5q-69 0 -132.5 -34t-112.5 -91.5
t-78 -133t-29 -158.5q0 -53 13.5 -93t36.5 -67t54.5 -41t68.5 -14q42 0 88.5 17t88.5 52l64 162q10 22 -12 24l-81 8l12 31h290l-13 -31l-66 -9q-11 -2 -15.5 -5.5t-8.5 -13.5l-110 -276q-9 20 -15 32t-10.5 18.5t-7 8.5t-5.5 2q-8 0 -25 -10t-43.5 -22.5t-62 -22.5
t-80.5 -10zM584 841q97 0 175 84l7 -3q-28 -72 -80 -113t-112 -41q-34 0 -59 11.5t-39 32.5t-16.5 49.5t8.5 63.5h8q2 -45 29.5 -64.5t78.5 -19.5z" />
    <glyph glyph-name="gbreve" unicode="&#x11f;" horiz-adv-x="456" 
d="M410 -22q0 -38 -19 -73t-52 -62t-78.5 -43.5t-97.5 -16.5q-48 0 -83.5 10t-58.5 27t-34 38t-11 44q0 21 12 33.5t29 12.5q25 0 33 -27q5 -14 4.5 -29t4.5 -28q9 -22 33 -34.5t73 -12.5q36 0 67 11t53.5 28t35.5 39t13 45q0 34 -21 44.5t-72 6.5l-149 -11q-48 -4 -80 20
t-32 62q0 45 40.5 76t129.5 34q-64 37 -64 119q0 39 15.5 72.5t43 58t64 39t78.5 14.5q59 0 100 -33q15 49 45.5 74.5t67.5 25.5q24 0 39 -10.5t15 -29.5q0 -17 -10.5 -27t-27.5 -10q-15 0 -29 6t-28 6q-16 0 -28.5 -13t-22.5 -47q24 -35 24 -82q0 -35 -14 -68t-40.5 -59
t-64.5 -41.5t-86 -15.5q-53 0 -87.5 -3.5t-54.5 -11t-28 -18t-8 -22.5q0 -17 11.5 -26t40.5 -7l170 12q70 6 104.5 -19.5t34.5 -77.5zM351 363q0 40 -18 60.5t-45 20.5q-26 0 -48.5 -18t-39 -45t-25.5 -58.5t-9 -59.5q0 -40 18.5 -60.5t44.5 -20.5q27 0 49 18t38.5 45
t25.5 58.5t9 59.5zM337 604q97 0 175 84l7 -3q-28 -72 -80 -113t-112 -41q-34 0 -59 11.5t-39 32.5t-16.5 49.5t8.5 63.5h8q2 -45 29.5 -64.5t78.5 -19.5z" />
    <glyph glyph-name="Gdotaccent" unicode="&#x120;" horiz-adv-x="792" 
d="M354 -12q-57 0 -106 18.5t-85 53.5t-57 86t-21 116q0 95 37 177.5t100 143t146 95t176 34.5q63 0 104 -15t67.5 -33.5t42 -33.5t26.5 -15q3 0 7 1.5t11.5 6t20.5 13.5t34 24l-84 -210h-39q9 48 -1.5 87.5t-36 68t-64.5 44t-87 15.5q-69 0 -132.5 -34t-112.5 -91.5
t-78 -133t-29 -158.5q0 -53 13.5 -93t36.5 -67t54.5 -41t68.5 -14q42 0 88.5 17t88.5 52l64 162q10 22 -12 24l-81 8l12 31h290l-13 -31l-66 -9q-11 -2 -15.5 -5.5t-8.5 -13.5l-110 -276q-9 20 -15 32t-10.5 18.5t-7 8.5t-5.5 2q-8 0 -25 -10t-43.5 -22.5t-62 -22.5
t-80.5 -10zM572 766q-23 0 -37 15t-14 35q0 28 18 46t44 18q23 0 37 -14.5t14 -35.5q0 -27 -18 -45.5t-44 -18.5z" />
    <glyph glyph-name="gdotaccent" unicode="&#x121;" horiz-adv-x="456" 
d="M410 -22q0 -38 -19 -73t-52 -62t-78.5 -43.5t-97.5 -16.5q-48 0 -83.5 10t-58.5 27t-34 38t-11 44q0 21 12 33.5t29 12.5q25 0 33 -27q5 -14 4.5 -29t4.5 -28q9 -22 33 -34.5t73 -12.5q36 0 67 11t53.5 28t35.5 39t13 45q0 34 -21 44.5t-72 6.5l-149 -11q-48 -4 -80 20
t-32 62q0 45 40.5 76t129.5 34q-64 37 -64 119q0 39 15.5 72.5t43 58t64 39t78.5 14.5q59 0 100 -33q15 49 45.5 74.5t67.5 25.5q24 0 39 -10.5t15 -29.5q0 -17 -10.5 -27t-27.5 -10q-15 0 -29 6t-28 6q-16 0 -28.5 -13t-22.5 -47q24 -35 24 -82q0 -35 -14 -68t-40.5 -59
t-64.5 -41.5t-86 -15.5q-53 0 -87.5 -3.5t-54.5 -11t-28 -18t-8 -22.5q0 -17 11.5 -26t40.5 -7l170 12q70 6 104.5 -19.5t34.5 -77.5zM351 363q0 40 -18 60.5t-45 20.5q-26 0 -48.5 -18t-39 -45t-25.5 -58.5t-9 -59.5q0 -40 18.5 -60.5t44.5 -20.5q27 0 49 18t38.5 45
t25.5 58.5t9 59.5zM325 529q-23 0 -37 15t-14 35q0 28 18 46t44 18q23 0 37 -14.5t14 -35.5q0 -27 -18 -45.5t-44 -18.5z" />
    <glyph glyph-name="uni0122" unicode="&#x122;" horiz-adv-x="792" 
d="M231 -255q65 38 65 65q0 7 -4 14.5t-9 15t-9 16t-4 17.5q0 25 18 42.5t43 17.5q22 0 36 -14t14 -39q0 -20 -11 -41.5t-30 -41t-45.5 -36.5t-57.5 -28zM354 -12q-57 0 -106 18.5t-85 53.5t-57 86t-21 116q0 95 37 177.5t100 143t146 95t176 34.5q63 0 104 -15t67.5 -33.5
t42 -33.5t26.5 -15q3 0 7 1.5t11.5 6t20.5 13.5t34 24l-84 -210h-39q9 48 -1.5 87.5t-36 68t-64.5 44t-87 15.5q-69 0 -132.5 -34t-112.5 -91.5t-78 -133t-29 -158.5q0 -53 13.5 -93t36.5 -67t54.5 -41t68.5 -14q42 0 88.5 17t88.5 52l64 162q10 22 -12 24l-81 8l12 31h290
l-13 -31l-66 -9q-11 -2 -15.5 -5.5t-8.5 -13.5l-110 -276q-9 20 -15 32t-10.5 18.5t-7 8.5t-5.5 2q-8 0 -25 -10t-43.5 -22.5t-62 -22.5t-80.5 -10z" />
    <glyph glyph-name="uni0123" unicode="&#x123;" horiz-adv-x="456" 
d="M423 718q-65 -38 -65 -65q0 -8 4 -15t9 -14.5t9 -16t4 -17.5q0 -25 -18 -42.5t-43 -17.5q-22 0 -36 14t-14 39q0 20 11 41.5t30 41t45.5 36.5t57.5 28zM410 -22q0 -38 -19 -73t-52 -62t-78.5 -43.5t-97.5 -16.5q-48 0 -83.5 10t-58.5 27t-34 38t-11 44q0 21 12 33.5
t29 12.5q25 0 33 -27q5 -14 4.5 -29t4.5 -28q9 -22 33 -34.5t73 -12.5q36 0 67 11t53.5 28t35.5 39t13 45q0 34 -21 44.5t-72 6.5l-149 -11q-48 -4 -80 20t-32 62q0 45 40.5 76t129.5 34q-64 37 -64 119q0 39 15.5 72.5t43 58t64 39t78.5 14.5q59 0 100 -33q15 49 45.5 74.5
t67.5 25.5q24 0 39 -10.5t15 -29.5q0 -17 -10.5 -27t-27.5 -10q-15 0 -29 6t-28 6q-16 0 -28.5 -13t-22.5 -47q24 -35 24 -82q0 -35 -14 -68t-40.5 -59t-64.5 -41.5t-86 -15.5q-53 0 -87.5 -3.5t-54.5 -11t-28 -18t-8 -22.5q0 -17 11.5 -26t40.5 -7l170 12q70 6 104.5 -19.5
t34.5 -77.5zM351 363q0 40 -18 60.5t-45 20.5q-26 0 -48.5 -18t-39 -45t-25.5 -58.5t-9 -59.5q0 -40 18.5 -60.5t44.5 -20.5q27 0 49 18t38.5 45t25.5 58.5t9 59.5z" />
    <glyph glyph-name="Hcircumflex" unicode="&#x124;" horiz-adv-x="812" 
d="M439 752l-5 8l191 154h63l78 -155l-8 -7l-114 90zM169 64q-5 -12 -2 -17t14 -7l71 -8l-13 -32h-299l13 32l82 9q11 2 15.5 5.5t8.5 13.5l222 577q8 20 -12 23l-71 9l13 31h298l-12 -31l-82 -10q-11 -2 -15.5 -5.5t-8.5 -12.5l-98 -255h347l97 251q8 20 -12 23l-71 9
l12 31h299l-13 -31l-81 -10q-11 -2 -15.5 -5.5t-8.5 -12.5l-222 -577q-5 -12 -2 -17t14 -7l71 -8l-13 -32h-299l13 32l82 9q11 2 15.5 5.5t8.5 13.5l108 280h-348z" />
    <glyph glyph-name="hcircumflex" unicode="&#x125;" horiz-adv-x="546" 
d="M183 784l-5 8l191 154h63l78 -155l-8 -7l-114 90zM-4 0l256 644q5 12 3 17.5t-10 10.5l-37 23l6 14l167 37l-193 -487q43 60 79 101.5t67.5 67.5t60 37.5t56.5 11.5q43 0 59.5 -32.5t-8.5 -85.5l-134 -288q-6 -13 7 -13t42.5 14.5t87.5 58.5l4 -3q-51 -73 -97.5 -106.5
t-96.5 -33.5q-35 0 -47 18.5t1 46.5l144 306q11 24 6 35.5t-23 11.5q-15 0 -33 -9t-45 -33t-65.5 -67t-93.5 -111l-74 -186h-89z" />
    <glyph glyph-name="Hbar" unicode="&#x126;" horiz-adv-x="812" 
d="M169 64q-5 -12 -2 -17t14 -7l71 -8l-13 -32h-299l13 32l82 9q11 2 15.5 5.5t8.5 13.5l169 440h-95l16 37h94l38 100q8 20 -12 23l-71 9l13 31h298l-12 -31l-82 -10q-11 -2 -15.5 -5.5t-8.5 -12.5l-40 -104h348l38 100q8 20 -12 23l-71 9l12 31h299l-13 -31l-81 -10
q-11 -2 -15.5 -5.5t-8.5 -12.5l-40 -104h95l-16 -37h-93l-168 -436q-5 -12 -2 -17t14 -7l71 -8l-13 -32h-299l13 32l82 9q11 2 15.5 5.5t8.5 13.5l100 261h-347zM633 366l51 134h-347l-52 -134h348z" />
    <glyph glyph-name="hbar" unicode="&#x127;" horiz-adv-x="546" 
d="M-4 0l221 556h-65l14 36h65l21 52q5 12 3 17.5t-10 10.5l-37 23l6 14l167 37l-61 -154h141l-15 -36h-140l-118 -297q43 60 79 101.5t67.5 67.5t60 37.5t56.5 11.5q43 0 59.5 -32.5t-8.5 -85.5l-134 -288q-6 -13 7 -13t42.5 14.5t87.5 58.5l4 -3q-51 -73 -97.5 -106.5
t-96.5 -33.5q-35 0 -47 18.5t1 46.5l144 306q11 24 6 35.5t-23 11.5q-15 0 -33 -9t-45 -33t-65.5 -67t-93.5 -111l-74 -186h-89z" />
    <glyph glyph-name="Itilde" unicode="&#x128;" horiz-adv-x="360" 
d="M171 64q-5 -12 -2 -17t14 -7l71 -8l-13 -32h-299l13 32l82 9q11 2 15.5 5.5t8.5 13.5l222 577q8 20 -12 23l-71 9l13 31h298l-12 -31l-82 -10q-11 -2 -15.5 -5.5t-8.5 -12.5zM389 806q-20 16 -32.5 23t-24.5 7q-15 0 -33.5 -13.5t-44.5 -45.5l-8 4q26 65 54 91.5t57 26.5
q19 0 36 -10t43 -30q20 -15 32.5 -22t24.5 -7q15 0 33.5 13t44.5 45l8 -4q-26 -65 -54 -91.5t-57 -26.5q-19 0 -36 10t-43 30z" />
    <glyph glyph-name="itilde" unicode="&#x129;" horiz-adv-x="296" 
d="M124 71q-6 -13 7 -13t42.5 14.5t87.5 58.5l4 -3q-51 -73 -97 -106.5t-94 -33.5q-35 0 -46 18.5t2 49.5l148 348q-59 -8 -133 -52l-3 4q51 57 106 86t118 29h8q10 0 13 -5t0 -13zM275 569q-20 16 -32.5 23t-24.5 7q-15 0 -33.5 -13.5t-44.5 -45.5l-8 4q26 65 54 91.5
t57 26.5q19 0 36 -10t43 -30q20 -15 32.5 -22t24.5 -7q15 0 33.5 13t44.5 45l8 -4q-26 -65 -54 -91.5t-57 -26.5q-19 0 -36 10t-43 30z" />
    <glyph glyph-name="Imacron" unicode="&#x12a;" horiz-adv-x="360" 
d="M171 64q-5 -12 -2 -17t14 -7l71 -8l-13 -32h-299l13 32l82 9q11 2 15.5 5.5t8.5 13.5l222 577q8 20 -12 23l-71 9l13 31h298l-12 -31l-82 -10q-11 -2 -15.5 -5.5t-8.5 -12.5zM261 824h282l-18 -44h-282z" />
    <glyph glyph-name="imacron" unicode="&#x12b;" horiz-adv-x="296" 
d="M124 71q-6 -13 7 -13t42.5 14.5t87.5 58.5l4 -3q-51 -73 -97 -106.5t-94 -33.5q-35 0 -46 18.5t2 49.5l148 348q-59 -8 -133 -52l-3 4q51 57 106 86t118 29h8q10 0 13 -5t0 -13zM147 587h282l-18 -44h-282z" />
    <glyph glyph-name="Ibreve" unicode="&#x12c;" horiz-adv-x="360" 
d="M171 64q-5 -12 -2 -17t14 -7l71 -8l-13 -32h-299l13 32l82 9q11 2 15.5 5.5t8.5 13.5l222 577q8 20 -12 23l-71 9l13 31h298l-12 -31l-82 -10q-11 -2 -15.5 -5.5t-8.5 -12.5zM408 841q97 0 175 84l7 -3q-28 -72 -80 -113t-112 -41q-34 0 -59 11.5t-39 32.5t-16.5 49.5
t8.5 63.5h8q2 -45 29.5 -64.5t78.5 -19.5z" />
    <glyph glyph-name="ibreve" unicode="&#x12d;" horiz-adv-x="296" 
d="M124 71q-6 -13 7 -13t42.5 14.5t87.5 58.5l4 -3q-51 -73 -97 -106.5t-94 -33.5q-35 0 -46 18.5t2 49.5l148 348q-59 -8 -133 -52l-3 4q51 57 106 86t118 29h8q10 0 13 -5t0 -13zM294 604q97 0 175 84l7 -3q-28 -72 -80 -113t-112 -41q-34 0 -59 11.5t-39 32.5t-16.5 49.5
t8.5 63.5h8q2 -45 29.5 -64.5t78.5 -19.5z" />
    <glyph glyph-name="Iogonek" unicode="&#x12e;" horiz-adv-x="360" 
d="M171 64q-5 -12 -2 -17t14 -7l71 -8l-13 -32h-118q-29 -33 -47.5 -54t-28.5 -35.5t-13.5 -23.5t-3.5 -17q0 -14 9.5 -22t26.5 -8q33 0 86 35l5 -6q-66 -89 -146 -89q-33 0 -52.5 15.5t-19.5 41.5q0 33 39.5 71.5t111.5 91.5h-148l13 32l82 9q11 2 15.5 5.5t8.5 13.5
l222 577q8 20 -12 23l-71 9l13 31h298l-12 -31l-82 -10q-11 -2 -15.5 -5.5t-8.5 -12.5z" />
    <glyph glyph-name="iogonek" unicode="&#x12f;" horiz-adv-x="296" 
d="M302 573q-23 0 -36.5 15t-13.5 35q-1 27 17 45t44 18q23 0 37 -14.5t14 -34.5q1 -27 -17.5 -45.5t-44.5 -18.5zM124 71q-6 -13 7 -13t42.5 14.5t87.5 58.5l4 -3q-45 -66 -87 -99.5t-85 -39.5q-26 -29 -42 -48t-25 -32.5t-12.5 -22t-3.5 -16.5q0 -14 9.5 -22t26.5 -8
q33 0 86 35l5 -6q-66 -89 -146 -89q-33 0 -52.5 15.5t-19.5 41.5q0 32 35.5 68t101.5 85q-24 5 -30.5 22.5t4.5 43.5l148 348q-59 -8 -133 -52l-3 4q51 55 106 85t118 30h8q10 0 13 -5t0 -13z" />
    <glyph glyph-name="Idotaccent" unicode="&#x130;" horiz-adv-x="360" 
d="M171 64q-5 -12 -2 -17t14 -7l71 -8l-13 -32h-299l13 32l82 9q11 2 15.5 5.5t8.5 13.5l222 577q8 20 -12 23l-71 9l13 31h298l-12 -31l-82 -10q-11 -2 -15.5 -5.5t-8.5 -12.5zM396 766q-23 0 -37 15t-14 35q0 28 18 46t44 18q23 0 37 -14.5t14 -35.5q0 -27 -18 -45.5
t-44 -18.5z" />
    <glyph glyph-name="dotlessi" unicode="&#x131;" horiz-adv-x="296" 
d="M124 71q-6 -13 7 -13t42.5 14.5t87.5 58.5l4 -3q-51 -73 -97 -106.5t-94 -33.5q-35 0 -46 18.5t2 49.5l148 348q-59 -8 -133 -52l-3 4q51 57 106 86t118 29h8q10 0 13 -5t0 -13z" />
    <glyph glyph-name="IJ" unicode="&#x132;" horiz-adv-x="936" 
d="M171 64q-5 -12 -2 -17t14 -7l71 -8l-13 -32h-299l13 32l82 9q11 2 15.5 5.5t8.5 13.5l222 577q8 20 -12 23l-71 9l13 31h298l-12 -31l-82 -10q-11 -2 -15.5 -5.5t-8.5 -12.5zM523 -12q-40 0 -73 10t-57 28t-37 42.5t-13 53.5q0 33 18.5 55.5t48.5 22.5q21 0 33 -12.5
t12 -30.5q0 -14 -4.5 -29.5t-4.5 -31.5q0 -28 21 -43.5t63 -15.5q56 0 97 33.5t70 107.5l177 459q5 12 2 16.5t-14 6.5l-82 9l13 31h309l-13 -31l-81 -10q-11 -2 -15.5 -5.5t-8.5 -12.5l-164 -425q-44 -115 -119.5 -171.5t-177.5 -56.5z" />
    <glyph glyph-name="ij" unicode="&#x133;" horiz-adv-x="584" 
d="M302 573q-23 0 -36.5 15t-13.5 35q-1 27 17 45t44 18q23 0 37 -14.5t14 -34.5q1 -27 -17.5 -45.5t-44.5 -18.5zM124 71q-6 -13 7 -13t42.5 14.5t87.5 58.5l4 -3q-51 -73 -97 -106.5t-94 -33.5q-35 0 -46 18.5t2 49.5l148 348q-59 -8 -133 -52l-3 4q51 55 106 85t118 30h8
q10 0 13 -5t0 -13zM596 573q-23 0 -36.5 15t-13.5 35q-1 27 17 45t44 18q23 0 37 -14.5t14 -34.5q1 -27 -17.5 -45.5t-44.5 -18.5zM392 -38q-36 -94 -85 -139t-112 -45q-43 0 -70.5 19t-28.5 48q0 21 13.5 34.5t32.5 13.5q20 0 29.5 -11t13.5 -29q9 -37 35 -37q15 0 29 12
t28 44q6 14 13.5 37t16 48.5t16.5 50.5t15 44l135 352q-29 -4 -62.5 -16.5t-71.5 -35.5l-3 4q51 55 106 85t118 30h8q10 0 13 -5t0 -13z" />
    <glyph glyph-name="Jcircumflex" unicode="&#x134;" horiz-adv-x="576" 
d="M439 752l-5 8l191 154h63l78 -155l-8 -7l-114 90zM163 -12q-40 0 -73 10t-57 28t-37 42.5t-13 53.5q0 33 18.5 55.5t48.5 22.5q21 0 33 -12.5t12 -30.5q0 -14 -4.5 -29.5t-4.5 -31.5q0 -28 21 -43.5t63 -15.5q56 0 97 33.5t70 107.5l177 459q5 12 2 16.5t-14 6.5l-82 9
l13 31h309l-13 -31l-81 -10q-11 -2 -15.5 -5.5t-8.5 -12.5l-164 -425q-44 -115 -119.5 -171.5t-177.5 -56.5z" />
    <glyph glyph-name="jcircumflex" unicode="&#x135;" horiz-adv-x="289" 
d="M96 -38q-36 -94 -85 -139t-112 -45q-43 0 -70.5 19t-28.5 48q0 21 13.5 34.5t32.5 13.5q20 0 29.5 -11t13.5 -29q9 -37 35 -37q15 0 29 12t28 44q6 14 13.5 37t16 48.5t16.5 50.5t15 44l135 352q-29 -4 -62.5 -16.5t-71.5 -35.5l-3 4q51 57 106 86t118 29h8q10 0 13 -5
t0 -13zM97 515l-5 8l191 154h63l78 -155l-8 -7l-114 90z" />
    <glyph glyph-name="uni0136" unicode="&#x136;" horiz-adv-x="728" 
d="M221 -255q65 38 65 65q0 7 -4 14.5t-9 15t-9 16t-4 17.5q0 25 18 42.5t43 17.5q22 0 36 -14t14 -39q0 -20 -11 -41.5t-30 -41t-45.5 -36.5t-57.5 -28zM169 64q-5 -12 -2 -17t14 -7l71 -8l-13 -32h-299l13 32l82 9q11 2 15.5 5.5t8.5 13.5l222 577q8 20 -12 23l-71 9
l13 31h298l-12 -31l-82 -10q-11 -2 -15.5 -5.5t-8.5 -12.5l-96 -249l365 233q23 14 22 26.5t-17 14.5l-40 3l13 31h251l-13 -31l-29 -5q-26 -5 -56 -17.5t-59 -30.5l-375 -237l198 -290q10 -15 18 -24t14.5 -15t13.5 -9t15 -4l28 -5l-12 -32h-143l-215 336z" />
    <glyph glyph-name="uni0137" unicode="&#x137;" horiz-adv-x="496" 
d="M85 -255q65 38 65 65q0 7 -4 14.5t-9 15t-9 16t-4 17.5q0 25 18 42.5t43 17.5q22 0 36 -14t14 -39q0 -20 -11 -41.5t-30 -41t-45.5 -36.5t-57.5 -28zM-4 0l256 644q5 12 3 17.5t-10 10.5l-37 23l6 14l167 37l-197 -496q52 58 92 100.5t72.5 70t60.5 40.5t57 13
q34 0 49 -16t15 -35t-11.5 -31.5t-30.5 -12.5q-11 0 -18.5 4.5t-15.5 9.5t-16 9t-19 4q-12 0 -25.5 -5.5t-33 -21t-47 -42t-66.5 -68.5l57 -125q14 -30 24.5 -49t18.5 -29.5t15 -14t15 -3.5q12 0 28 9t49 36l5 -3q-58 -104 -123 -104q-17 0 -31 6t-26.5 20t-26 38.5
t-29.5 61.5l-48 114l-90 -226h-89z" />
    <glyph glyph-name="kgreenlandic" unicode="&#x138;" horiz-adv-x="511" 
d="M171 404q-29 -4 -62.5 -16.5t-71.5 -35.5l-3 4q51 55 106 85t118 30h8q10 0 13 -5t0 -13l-82 -205q53 59 93 101.5t73 70.5t61 41t57 13q34 0 49 -16t15 -35t-11.5 -31.5t-30.5 -12.5q-11 0 -18.5 4.5t-15.5 9.5t-16 9t-19 4q-12 0 -25.5 -5.5t-33 -21t-47 -42
t-66.5 -68.5l57 -125q14 -30 24.5 -49t18.5 -29.5t15 -14t15 -3.5q12 0 28 9t49 36l5 -3q-58 -104 -123 -104q-17 0 -31 6t-26.5 20t-26 38.5t-29.5 61.5l-49 115l-90 -227h-88z" />
    <glyph glyph-name="Lacute" unicode="&#x139;" horiz-adv-x="615" 
d="M302 756q58 56 93.5 89.5t57.5 51.5t35 23.5t25 5.5q18 0 30 -11t12 -28q0 -13 -9 -25t-36 -27t-75.5 -35.5t-127.5 -50.5zM170 66q-8 -22 16 -22h154q35 0 59 4.5t45.5 21t45.5 49.5t59 90h38l-86 -209h-561l13 32l82 9q11 2 15.5 5.5t8.5 13.5l222 577q8 20 -12 23
l-71 9l13 31h309l-13 -31l-92 -10q-10 -1 -15 -4.5t-9 -13.5z" />
    <glyph glyph-name="lacute" unicode="&#x13a;" horiz-adv-x="282" 
d="M271 788q58 56 93.5 89.5t57.5 51.5t35 23.5t25 5.5q18 0 30 -11t12 -28q0 -13 -9 -25t-36 -27t-75.5 -35.5t-127.5 -50.5zM115 71q-6 -13 7 -13t42.5 14.5t87.5 58.5l4 -3q-51 -73 -97 -106.5t-94 -33.5q-35 0 -45.5 18.5t1.5 49.5l233 588q5 12 3 17.5t-10 10.5l-37 23
l6 14l167 37z" />
    <glyph glyph-name="uni013B" unicode="&#x13b;" horiz-adv-x="615" 
d="M157 -255q65 38 65 65q0 7 -4 14.5t-9 15t-9 16t-4 17.5q0 25 18 42.5t43 17.5q22 0 36 -14t14 -39q0 -20 -11 -41.5t-30 -41t-45.5 -36.5t-57.5 -28zM170 66q-8 -22 16 -22h154q35 0 59 4.5t45.5 21t45.5 49.5t59 90h38l-86 -209h-561l13 32l82 9q11 2 15.5 5.5
t8.5 13.5l222 577q8 20 -12 23l-71 9l13 31h309l-13 -31l-92 -10q-10 -1 -15 -4.5t-9 -13.5z" />
    <glyph glyph-name="uni013C" unicode="&#x13c;" horiz-adv-x="282" 
d="M-90 -255q65 38 65 65q0 7 -4 14.5t-9 15t-9 16t-4 17.5q0 25 18 42.5t43 17.5q22 0 36 -14t14 -39q0 -20 -11 -41.5t-30 -41t-45.5 -36.5t-57.5 -28zM115 71q-6 -13 7 -13t42.5 14.5t87.5 58.5l4 -3q-51 -73 -97 -106.5t-94 -33.5q-35 0 -45.5 18.5t1.5 49.5l233 588
q5 12 3 17.5t-10 10.5l-37 23l6 14l167 37z" />
    <glyph glyph-name="Lcaron" unicode="&#x13d;" horiz-adv-x="615" 
d="M606 672q11 20 22 28t25 8q17 0 27 -9.5t10 -22.5q0 -9 -5.5 -22.5t-22 -35.5t-44.5 -55t-73 -82l-6 3q23 74 38 118.5t29 69.5zM170 66q-8 -22 16 -22h154q35 0 59 4.5t45.5 21t45.5 49.5t59 90h38l-86 -209h-561l13 32l82 9q11 2 15.5 5.5t8.5 13.5l222 577
q8 20 -12 23l-71 9l13 31h309l-13 -31l-92 -10q-10 -1 -15 -4.5t-9 -13.5z" />
    <glyph glyph-name="lcaron" unicode="&#x13e;" horiz-adv-x="282" 
d="M451 703q11 20 22 28t25 8q17 0 27 -9.5t10 -22.5q0 -9 -5.5 -22.5t-22 -35.5t-44.5 -55t-73 -82l-6 3q23 74 38 118.5t29 69.5zM115 71q-6 -13 7 -13t42.5 14.5t87.5 58.5l4 -3q-51 -73 -97 -106.5t-94 -33.5q-35 0 -45.5 18.5t1.5 49.5l233 588q5 12 3 17.5t-10 10.5
l-37 23l6 14l167 37z" />
    <glyph glyph-name="Ldot" unicode="&#x13f;" horiz-adv-x="636" 
d="M545 332q-23 0 -38 15t-15 36q0 28 19 46.5t45 18.5q23 0 38 -15t15 -36q0 -28 -19 -46.5t-45 -18.5zM170 66q-8 -22 16 -22h154q35 0 59 4.5t45.5 21t45.5 49.5t59 90h38l-86 -209h-561l13 32l82 9q11 2 15.5 5.5t8.5 13.5l222 577q8 20 -12 23l-71 9l13 31h309l-13 -31
l-92 -10q-10 -1 -15 -4.5t-9 -13.5z" />
    <glyph glyph-name="ldot" unicode="&#x140;" horiz-adv-x="388" 
d="M291 274q0 27 18.5 46t44.5 19q23 0 37.5 -15.5t14.5 -35.5q0 -27 -18.5 -45.5t-44.5 -18.5q-23 0 -37.5 15t-14.5 35zM115 71q-6 -13 7 -13t42.5 14.5t87.5 58.5l4 -3q-51 -73 -97 -106.5t-94 -33.5q-35 0 -45.5 18.5t1.5 49.5l233 588q5 12 3 17.5t-10 10.5l-37 23
l6 14l167 37z" />
    <glyph glyph-name="Lslash" unicode="&#x141;" horiz-adv-x="615" 
d="M44 266l118 62l119 309q8 20 -12 23l-71 9l13 31h309l-13 -31l-92 -10q-10 -1 -15 -4.5t-9 -13.5l-99 -257l203 106l-22 -56l-202 -104l-101 -264q-8 -22 16 -22h154q35 0 59 4.5t45.5 21t45.5 49.5t59 90h38l-86 -209h-561l13 32l82 9q11 2 15.5 5.5t8.5 13.5l82 213
l-119 -62z" />
    <glyph glyph-name="lslash" unicode="&#x142;" horiz-adv-x="282" 
d="M115 71q-6 -13 7 -13t42.5 14.5t87.5 58.5l4 -3q-51 -73 -97 -106.5t-94 -33.5q-35 0 -45.5 18.5t1.5 49.5l91 231l-81 -44l21 53l81 43l121 305q5 12 3 17.5t-10 10.5l-37 23l6 14l167 37l-142 -357l82 44l-21 -53l-81 -43z" />
    <glyph glyph-name="Nacute" unicode="&#x143;" horiz-adv-x="756" 
d="M468 756q58 56 93.5 89.5t57.5 51.5t35 23.5t25 5.5q18 0 30 -11t12 -28q0 -13 -9 -25t-36 -27t-75.5 -35.5t-127.5 -50.5zM388 700l184 -478q3 -8 7.5 -7t6.5 8l143 380q11 29 5 42t-29 17l-46 7l13 31h247l-12 -31l-53 -8q-27 -5 -42 -17t-26 -41l-235 -614h-2
l-225 585q-3 8 -7.5 7t-6.5 -8l-179 -475q-11 -29 -5 -42t29 -17l46 -7l-13 -32h-248l13 32l53 8q27 5 42 17t26 41l200 521q6 16 3 22t-16 10l-63 18l13 31h177z" />
    <glyph glyph-name="nacute" unicode="&#x144;" horiz-adv-x="560" 
d="M294 519q58 56 93.5 89.5t57.5 51.5t35 23.5t25 5.5q18 0 30 -11t12 -28q0 -13 -9 -25t-36 -27t-75.5 -35.5t-127.5 -50.5zM171 404q-29 -4 -62.5 -16.5t-71.5 -35.5l-3 4q51 55 106 85t118 30h8q10 0 13 -5t0 -13l-77 -194q43 60 79 101.5t67.5 67.5t60 37.5t56.5 11.5
q43 0 59.5 -32.5t-8.5 -85.5l-134 -288q-6 -13 7 -13t42.5 14.5t87.5 58.5l4 -3q-51 -73 -97.5 -106.5t-96.5 -33.5q-35 0 -47 18.5t1 46.5l144 306q11 24 6 35.5t-23 11.5q-15 0 -33 -9t-45 -33t-65.5 -67t-93.5 -111l-74 -186h-88z" />
    <glyph glyph-name="uni0145" unicode="&#x145;" horiz-adv-x="756" 
d="M233 -255q65 38 65 65q0 7 -4 14.5t-9 15t-9 16t-4 17.5q0 25 18 42.5t43 17.5q22 0 36 -14t14 -39q0 -20 -11 -41.5t-30 -41t-45.5 -36.5t-57.5 -28zM388 700l184 -478q3 -8 7.5 -7t6.5 8l143 380q11 29 5 42t-29 17l-46 7l13 31h247l-12 -31l-53 -8q-27 -5 -42 -17
t-26 -41l-235 -614h-2l-225 585q-3 8 -7.5 7t-6.5 -8l-179 -475q-11 -29 -5 -42t29 -17l46 -7l-13 -32h-248l13 32l53 8q27 5 42 17t26 41l200 521q6 16 3 22t-16 10l-63 18l13 31h177z" />
    <glyph glyph-name="uni0146" unicode="&#x146;" horiz-adv-x="560" 
d="M93 -255q65 38 65 65q0 7 -4 14.5t-9 15t-9 16t-4 17.5q0 25 18 42.5t43 17.5q22 0 36 -14t14 -39q0 -20 -11 -41.5t-30 -41t-45.5 -36.5t-57.5 -28zM171 404q-29 -4 -62.5 -16.5t-71.5 -35.5l-3 4q51 55 106 85t118 30h8q10 0 13 -5t0 -13l-77 -194q43 60 79 101.5
t67.5 67.5t60 37.5t56.5 11.5q43 0 59.5 -32.5t-8.5 -85.5l-134 -288q-6 -13 7 -13t42.5 14.5t87.5 58.5l4 -3q-51 -73 -97.5 -106.5t-96.5 -33.5q-35 0 -47 18.5t1 46.5l144 306q11 24 6 35.5t-23 11.5q-15 0 -33 -9t-45 -33t-65.5 -67t-93.5 -111l-74 -186h-88z" />
    <glyph glyph-name="Ncaron" unicode="&#x147;" horiz-adv-x="756" 
d="M776 938l5 -7l-191 -155h-64l-78 156l8 6l114 -90zM388 700l184 -478q3 -8 7.5 -7t6.5 8l143 380q11 29 5 42t-29 17l-46 7l13 31h247l-12 -31l-53 -8q-27 -5 -42 -17t-26 -41l-235 -614h-2l-225 585q-3 8 -7.5 7t-6.5 -8l-179 -475q-11 -29 -5 -42t29 -17l46 -7l-13 -32
h-248l13 32l53 8q27 5 42 17t26 41l200 521q6 16 3 22t-16 10l-63 18l13 31h177z" />
    <glyph glyph-name="ncaron" unicode="&#x148;" horiz-adv-x="560" 
d="M602 701l5 -7l-191 -155h-64l-78 156l8 6l114 -90zM171 404q-29 -4 -62.5 -16.5t-71.5 -35.5l-3 4q51 55 106 85t118 30h8q10 0 13 -5t0 -13l-77 -194q43 60 79 101.5t67.5 67.5t60 37.5t56.5 11.5q43 0 59.5 -32.5t-8.5 -85.5l-134 -288q-6 -13 7 -13t42.5 14.5
t87.5 58.5l4 -3q-51 -73 -97.5 -106.5t-96.5 -33.5q-35 0 -47 18.5t1 46.5l144 306q11 24 6 35.5t-23 11.5q-15 0 -33 -9t-45 -33t-65.5 -67t-93.5 -111l-74 -186h-88z" />
    <glyph glyph-name="Eng" unicode="&#x14a;" horiz-adv-x="756" 
d="M507 14l-184 556q-2 7 -7 6.5t-7 -7.5l-178 -471q-11 -29 -5 -42t29 -17l46 -7l-13 -32h-248l13 32l53 8q27 5 42 17t26 41l200 521q6 16 3 22t-16 10l-63 18l13 31h177l170 -514q2 -7 6.5 -7t7.5 8l157 416q11 29 5 42t-29 17l-46 7l13 31h247l-12 -31l-53 -8
q-27 -5 -42 -17t-26 -41l-249 -652q-36 -92 -82 -132.5t-112 -40.5q-54 0 -87 25.5t-33 62.5q-1 26 14.5 44t39.5 18q20 0 31 -11.5t11 -31.5q0 -10 -2.5 -19t-2.5 -20q0 -14 10.5 -22t28.5 -8q35 0 69 33t61 102z" />
    <glyph glyph-name="eng" unicode="&#x14b;" horiz-adv-x="534" 
d="M171 404q-29 -4 -62.5 -16.5t-71.5 -35.5l-3 4q51 57 106 86t118 29h8q10 0 13 -5t0 -13l-76 -192q42 59 76 100.5t64 67t57.5 37t55.5 11.5q41 0 55.5 -29t-5.5 -82l-154 -403q-37 -95 -86 -140t-112 -45q-43 0 -70.5 19t-28.5 48q0 21 13.5 34.5t32.5 13.5
q20 0 29.5 -11t13.5 -29q7 -37 35 -37q15 0 29 12t28 45q6 14 14 36l16 48q8 26 16 51t16 44l117 306q18 48 -16 48q-13 0 -30 -9.5t-43 -34t-63 -67t-90 -109.5l-74 -186h-88z" />
    <glyph glyph-name="Omacron" unicode="&#x14c;" horiz-adv-x="805" 
d="M427 824h282l-18 -44h-282zM373 -14q-65 0 -117.5 20t-90 56.5t-57.5 89t-20 117.5q0 88 37 168.5t98.5 142t141 98t164.5 36.5q65 0 117.5 -20t90 -56.5t57.5 -89t20 -116.5q0 -88 -37 -169t-98.5 -142.5t-141 -98t-164.5 -36.5zM531 667q-63 0 -123.5 -35t-108 -94.5
t-76.5 -137t-29 -161.5q0 -49 13.5 -87t37 -64.5t56 -40.5t70.5 -14q63 0 123.5 35t108 94.5t76.5 137t29 161.5q0 49 -13.5 87.5t-37 64.5t-56 40t-70.5 14z" />
    <glyph glyph-name="omacron" unicode="&#x14d;" horiz-adv-x="483" 
d="M191 587h282l-18 -44h-282zM456 301q0 -48 -20 -103t-56 -102.5t-86.5 -78.5t-112.5 -31q-69 0 -111 45t-43 132q0 32 9 67.5t25.5 70.5t41 67t55 56t67 38.5t77.5 14.5q69 0 111.5 -45t42.5 -131zM376 342q0 45 -19.5 70t-53.5 25q-27 0 -52 -16.5t-46.5 -43.5
t-39.5 -61t-31 -68.5t-20 -67.5t-7 -57q0 -47 19 -72t54 -25q27 0 52 16.5t47 43.5t39.5 61t30.5 69.5t20 68t7 57.5z" />
    <glyph glyph-name="Obreve" unicode="&#x14e;" horiz-adv-x="805" 
d="M373 -14q-65 0 -117.5 20t-90 56.5t-57.5 89t-20 117.5q0 88 37 168.5t98.5 142t141 98t164.5 36.5q65 0 117.5 -20t90 -56.5t57.5 -89t20 -116.5q0 -88 -37 -169t-98.5 -142.5t-141 -98t-164.5 -36.5zM531 667q-63 0 -123.5 -35t-108 -94.5t-76.5 -137t-29 -161.5
q0 -49 13.5 -87t37 -64.5t56 -40.5t70.5 -14q63 0 123.5 35t108 94.5t76.5 137t29 161.5q0 49 -13.5 87.5t-37 64.5t-56 40t-70.5 14zM574 841q97 0 175 84l7 -3q-28 -72 -80 -113t-112 -41q-34 0 -59 11.5t-39 32.5t-16.5 49.5t8.5 63.5h8q2 -45 29.5 -64.5t78.5 -19.5z
" />
    <glyph glyph-name="obreve" unicode="&#x14f;" horiz-adv-x="483" 
d="M456 301q0 -48 -20 -103t-56 -102.5t-86.5 -78.5t-112.5 -31q-69 0 -111 45t-43 132q0 32 9 67.5t25.5 70.5t41 67t55 56t67 38.5t77.5 14.5q69 0 111.5 -45t42.5 -131zM376 342q0 45 -19.5 70t-53.5 25q-27 0 -52 -16.5t-46.5 -43.5t-39.5 -61t-31 -68.5t-20 -67.5
t-7 -57q0 -47 19 -72t54 -25q27 0 52 16.5t47 43.5t39.5 61t30.5 69.5t20 68t7 57.5zM338 604q97 0 175 84l7 -3q-28 -72 -80 -113t-112 -41q-34 0 -59 11.5t-39 32.5t-16.5 49.5t8.5 63.5h8q2 -45 29.5 -64.5t78.5 -19.5z" />
    <glyph glyph-name="Ohungarumlaut" unicode="&#x150;" horiz-adv-x="805" 
d="M577 929q17 0 28 -9t11 -26q0 -11 -7.5 -22t-31 -27t-66.5 -39t-114 -57l-4 5q46 55 76 89.5t49.5 53.5t32.5 25.5t26 6.5zM762 929q17 0 28 -9t11 -26q0 -11 -7.5 -22t-31 -27t-66.5 -39t-114 -57l-5 5q47 55 76.5 89.5t49 53.5t32.5 25.5t27 6.5zM373 -14
q-65 0 -117.5 20t-90 56.5t-57.5 89t-20 117.5q0 88 37 168.5t98.5 142t141 98t164.5 36.5q65 0 117.5 -20t90 -56.5t57.5 -89t20 -116.5q0 -88 -37 -169t-98.5 -142.5t-141 -98t-164.5 -36.5zM531 667q-63 0 -123.5 -35t-108 -94.5t-76.5 -137t-29 -161.5q0 -49 13.5 -87
t37 -64.5t56 -40.5t70.5 -14q63 0 123.5 35t108 94.5t76.5 137t29 161.5q0 49 -13.5 87.5t-37 64.5t-56 40t-70.5 14z" />
    <glyph glyph-name="ohungarumlaut" unicode="&#x151;" horiz-adv-x="483" 
d="M341 692q17 0 28 -9t11 -26q0 -11 -7.5 -22t-31 -27t-66.5 -39t-114 -57l-4 5q46 55 76 89.5t49.5 53.5t32.5 25.5t26 6.5zM526 692q17 0 28 -9t11 -26q0 -11 -7.5 -22t-31 -27t-66.5 -39t-114 -57l-5 5q47 55 76.5 89.5t49 53.5t32.5 25.5t27 6.5zM456 301
q0 -48 -20 -103t-56 -102.5t-86.5 -78.5t-112.5 -31q-69 0 -111 45t-43 132q0 32 9 67.5t25.5 70.5t41 67t55 56t67 38.5t77.5 14.5q69 0 111.5 -45t42.5 -131zM376 342q0 45 -19.5 70t-53.5 25q-27 0 -52 -16.5t-46.5 -43.5t-39.5 -61t-31 -68.5t-20 -67.5t-7 -57
q0 -47 19 -72t54 -25q27 0 52 16.5t47 43.5t39.5 61t30.5 69.5t20 68t7 57.5z" />
    <glyph glyph-name="OE" unicode="&#x152;" horiz-adv-x="1049" 
d="M396 0q-72 0 -130 18t-98.5 52.5t-62 84.5t-21.5 115q0 90 39.5 168.5t107 136.5t157.5 91.5t191 33.5h575l-70 -184h-37q7 49 8 77t-6 42.5t-22.5 18t-40.5 3.5h-191l-106 -273l129 2q15 0 22.5 4t15.5 18l40 68h39l-79 -225h-39l9 64q2 14 -2.5 19.5t-19.5 5.5l-130 3
l-107 -277q-8 -22 16 -22h176q34 0 57.5 4t44 18.5t42.5 43t54 78.5h39l-78 -188h-522zM596 657q-83 0 -156.5 -32.5t-129 -87t-87.5 -126t-32 -149.5q1 -102 60.5 -160t163.5 -58h16q20 0 26 18l221 573q8 22 -16 22h-66z" />
    <glyph glyph-name="oe" unicode="&#x153;" horiz-adv-x="710" 
d="M665 145q-47 -86 -96 -122.5t-109 -36.5q-41 0 -71 20t-43 65q-36 -40 -79 -62.5t-91 -22.5q-67 0 -108 44.5t-41 129.5q0 48 20 104t55.5 103t85 78.5t108.5 31.5q46 0 81.5 -24t52.5 -77q43 49 93 75t102 26q43 0 68 -21t25 -55q0 -25 -15.5 -52.5t-50 -53.5t-89 -47.5
t-132.5 -33.5q-11 -41 -11 -79q0 -48 21 -69t52 -21q16 0 33 5t37 17t44 32t54 49zM598 437q-19 0 -41 -15t-43 -41t-40 -60t-32 -71q49 10 84.5 27t58.5 38t33.5 44t10.5 45q0 15 -8 24t-23 9zM175 26q24 0 47.5 16.5t44.5 43t39 61t30.5 70t20 69.5t7.5 61q0 44 -18 67
t-48 23q-25 0 -48.5 -16.5t-45 -43t-39.5 -60.5t-31 -69.5t-20.5 -69.5t-7.5 -60q0 -45 18.5 -68.5t50.5 -23.5z" />
    <glyph glyph-name="Racute" unicode="&#x154;" horiz-adv-x="737" 
d="M422 758q58 56 93.5 89.5t57.5 51.5t35 23.5t25 5.5q18 0 30 -11t12 -28q0 -13 -9 -25t-36 -27t-75.5 -35.5t-127.5 -50.5zM315 331h-44l-103 -267q-5 -12 -2 -17t14 -7l71 -8l-12 -32h-299l12 32l82 9q11 2 15.5 5.5t8.5 13.5l222 577q8 20 -12 23l-71 9l12 31h284
q95 0 146.5 -40t51.5 -110q0 -45 -19.5 -83.5t-54.5 -67.5t-85 -46.5t-111 -20.5l150 -245q17 -28 28.5 -37.5t27.5 -12.5l26 -5l-12 -32h-137zM287 373h108q40 0 75 13t60.5 36t40 54t14.5 68q0 54 -30.5 83.5t-88.5 29.5h-70z" />
    <glyph glyph-name="racute" unicode="&#x155;" horiz-adv-x="467" 
d="M252 519q58 56 93.5 89.5t57.5 51.5t35 23.5t25 5.5q18 0 30 -11t12 -28q0 -13 -9 -25t-36 -27t-75.5 -35.5t-127.5 -50.5zM171 404q-29 -4 -62.5 -16.5t-71.5 -35.5l-3 4q51 55 106 85t118 30h8q10 0 13 -5t0 -13l-68 -171q37 61 65.5 98.5t52 58t43.5 27.5t41 7
q34 0 53 -19.5t19 -48.5q0 -24 -12.5 -38.5t-33.5 -14.5q-28 0 -38 32q-5 18 -13.5 25t-19.5 7q-10 0 -24.5 -8.5t-37 -35t-56.5 -74.5t-83 -127l-68 -171h-88z" />
    <glyph glyph-name="uni0156" unicode="&#x156;" horiz-adv-x="737" 
d="M224 -255q65 38 65 65q0 7 -4 14.5t-9 15t-9 16t-4 17.5q0 25 18 42.5t43 17.5q22 0 36 -14t14 -39q0 -20 -11 -41.5t-30 -41t-45.5 -36.5t-57.5 -28zM315 331h-44l-103 -267q-5 -12 -2 -17t14 -7l71 -8l-12 -32h-299l12 32l82 9q11 2 15.5 5.5t8.5 13.5l222 577
q8 20 -12 23l-71 9l12 31h284q95 0 146.5 -40t51.5 -110q0 -45 -19.5 -83.5t-54.5 -67.5t-85 -46.5t-111 -20.5l150 -245q17 -28 28.5 -37.5t27.5 -12.5l26 -5l-12 -32h-137zM287 373h108q40 0 75 13t60.5 36t40 54t14.5 68q0 54 -30.5 83.5t-88.5 29.5h-70z" />
    <glyph glyph-name="uni0157" unicode="&#x157;" horiz-adv-x="467" 
d="M-78 -255q65 38 65 65q0 7 -4 14.5t-9 15t-9 16t-4 17.5q0 25 18 42.5t43 17.5q22 0 36 -14t14 -39q0 -20 -11 -41.5t-30 -41t-45.5 -36.5t-57.5 -28zM171 404q-29 -4 -62.5 -16.5t-71.5 -35.5l-3 4q51 55 106 85t118 30h8q10 0 13 -5t0 -13l-68 -171q37 61 65.5 98.5
t52 58t43.5 27.5t41 7q34 0 53 -19.5t19 -48.5q0 -24 -12.5 -38.5t-33.5 -14.5q-28 0 -38 32q-5 18 -13.5 25t-19.5 7q-10 0 -24.5 -8.5t-37 -35t-56.5 -74.5t-83 -127l-68 -171h-88z" />
    <glyph glyph-name="Rcaron" unicode="&#x158;" horiz-adv-x="737" 
d="M730 940l5 -7l-191 -155h-64l-78 156l8 6l114 -90zM315 331h-44l-103 -267q-5 -12 -2 -17t14 -7l71 -8l-12 -32h-299l12 32l82 9q11 2 15.5 5.5t8.5 13.5l222 577q8 20 -12 23l-71 9l12 31h284q95 0 146.5 -40t51.5 -110q0 -45 -19.5 -83.5t-54.5 -67.5t-85 -46.5
t-111 -20.5l150 -245q17 -28 28.5 -37.5t27.5 -12.5l26 -5l-12 -32h-137zM287 373h108q40 0 75 13t60.5 36t40 54t14.5 68q0 54 -30.5 83.5t-88.5 29.5h-70z" />
    <glyph glyph-name="rcaron" unicode="&#x159;" horiz-adv-x="467" 
d="M560 701l5 -7l-191 -155h-64l-78 156l8 6l114 -90zM171 404q-29 -4 -62.5 -16.5t-71.5 -35.5l-3 4q51 55 106 85t118 30h8q10 0 13 -5t0 -13l-68 -171q37 61 65.5 98.5t52 58t43.5 27.5t41 7q34 0 53 -19.5t19 -48.5q0 -24 -12.5 -38.5t-33.5 -14.5q-28 0 -38 32
q-5 18 -13.5 25t-19.5 7q-10 0 -24.5 -8.5t-37 -35t-56.5 -74.5t-83 -127l-68 -171h-88z" />
    <glyph glyph-name="Sacute" unicode="&#x15a;" horiz-adv-x="570" 
d="M345 756q58 56 93.5 89.5t57.5 51.5t35 23.5t25 5.5q18 0 30 -11t12 -28q0 -13 -9 -25t-36 -27t-75.5 -35.5t-127.5 -50.5zM260 -12q-48 0 -81 12t-56.5 26t-38.5 26t-25 12q-4 0 -8.5 -1.5t-12 -6.5t-19 -13.5t-29.5 -21.5l89 217h39q-6 -60 4 -99.5t31 -63t49.5 -33
t58.5 -9.5q33 0 60.5 12t48 32.5t32 46.5t11.5 55q0 30 -15.5 55t-47.5 51l-94 77q-39 32 -58.5 65t-19.5 72q0 44 17.5 83t47.5 68t71.5 46t89.5 17q42 0 71 -10.5t48 -23t30.5 -23t20.5 -10.5q4 0 8.5 1.5t12 6.5t19 13t29.5 22l-82 -202h-39q5 49 -1.5 83t-22.5 56
t-39.5 32t-51.5 10q-30 0 -55.5 -10t-44.5 -27t-30 -40t-11 -49q0 -31 16.5 -56t50.5 -52l96 -75q37 -29 57.5 -62t20.5 -78q0 -41 -16 -82.5t-47.5 -74.5t-77.5 -53.5t-106 -20.5z" />
    <glyph glyph-name="sacute" unicode="&#x15b;" horiz-adv-x="365" 
d="M165 519q58 56 93.5 89.5t57.5 51.5t35 23.5t25 5.5q18 0 30 -11t12 -28q0 -13 -9 -25t-36 -27t-75.5 -35.5t-127.5 -50.5zM136 -12q-31 0 -56.5 8t-43.5 21.5t-28 32t-10 38.5q0 19 12 31.5t29 12.5t27.5 -9.5t16.5 -34.5q8 -35 21 -50.5t39 -15.5q31 0 52.5 23t21.5 59
q0 22 -6.5 39t-25.5 40l-43 52q-25 30 -37 54.5t-12 54.5q0 28 10.5 52t29.5 42t44.5 28t55.5 10q28 0 53 -8t43.5 -22t29 -32.5t10.5 -39.5q0 -18 -10.5 -30t-29.5 -12q-16 0 -27 10.5t-17 34.5q-8 33 -22 49t-40 16t-43 -17.5t-17 -44.5q0 -20 10.5 -36.5t30.5 -40.5
l42 -51q26 -32 38.5 -58t12.5 -54q0 -34 -12 -62t-34 -48t-51.5 -31t-63.5 -11z" />
    <glyph glyph-name="Scircumflex" unicode="&#x15c;" horiz-adv-x="570" 
d="M259 752l-5 8l191 154h63l78 -155l-8 -7l-114 90zM260 -12q-48 0 -81 12t-56.5 26t-38.5 26t-25 12q-4 0 -8.5 -1.5t-12 -6.5t-19 -13.5t-29.5 -21.5l89 217h39q-6 -60 4 -99.5t31 -63t49.5 -33t58.5 -9.5q33 0 60.5 12t48 32.5t32 46.5t11.5 55q0 30 -15.5 55t-47.5 51
l-94 77q-39 32 -58.5 65t-19.5 72q0 44 17.5 83t47.5 68t71.5 46t89.5 17q42 0 71 -10.5t48 -23t30.5 -23t20.5 -10.5q4 0 8.5 1.5t12 6.5t19 13t29.5 22l-82 -202h-39q5 49 -1.5 83t-22.5 56t-39.5 32t-51.5 10q-30 0 -55.5 -10t-44.5 -27t-30 -40t-11 -49q0 -31 16.5 -56
t50.5 -52l96 -75q37 -29 57.5 -62t20.5 -78q0 -41 -16 -82.5t-47.5 -74.5t-77.5 -53.5t-106 -20.5z" />
    <glyph glyph-name="scircumflex" unicode="&#x15d;" horiz-adv-x="365" 
d="M79 515l-5 8l191 154h63l78 -155l-8 -7l-114 90zM136 -12q-31 0 -56.5 8t-43.5 21.5t-28 32t-10 38.5q0 19 12 31.5t29 12.5t27.5 -9.5t16.5 -34.5q8 -35 21 -50.5t39 -15.5q31 0 52.5 23t21.5 59q0 22 -6.5 39t-25.5 40l-43 52q-25 30 -37 54.5t-12 54.5q0 28 10.5 52
t29.5 42t44.5 28t55.5 10q28 0 53 -8t43.5 -22t29 -32.5t10.5 -39.5q0 -18 -10.5 -30t-29.5 -12q-16 0 -27 10.5t-17 34.5q-8 33 -22 49t-40 16t-43 -17.5t-17 -44.5q0 -20 10.5 -36.5t30.5 -40.5l42 -51q26 -32 38.5 -58t12.5 -54q0 -34 -12 -62t-34 -48t-51.5 -31
t-63.5 -11z" />
    <glyph glyph-name="uni015E" unicode="&#x15e;" horiz-adv-x="570" 
d="M323 -119q0 -21 -9.5 -40t-26.5 -32.5t-40.5 -21.5t-50.5 -8q-38 0 -65.5 13.5t-47.5 36.5l9 9q15 -9 34.5 -16t46.5 -7q33 0 56 17t23 43q0 18 -13 29t-37 11q-14 0 -25.5 -3.5t-27.5 -10.5l-5 9l82 80q-38 4 -65.5 16.5t-47 25t-32.5 22.5t-22 10q-4 0 -8.5 -1.5
t-12 -6.5t-19 -13.5t-29.5 -21.5l89 217h39q-6 -60 4 -99.5t31 -63t49.5 -33t58.5 -9.5q33 0 60.5 12t48 32.5t32 46.5t11.5 55q0 30 -15.5 55t-47.5 51l-94 77q-39 32 -58.5 65t-19.5 72q0 44 17.5 83t47.5 68t71.5 46t89.5 17q42 0 71 -10.5t48 -23t30.5 -23t20.5 -10.5
q4 0 8.5 1.5t12 6.5t19 13t29.5 22l-82 -202h-39q5 49 -1.5 83t-22.5 56t-39.5 32t-51.5 10q-30 0 -55.5 -10t-44.5 -27t-30 -40t-11 -49q0 -31 16.5 -56t50.5 -52l96 -75q37 -29 57.5 -62t20.5 -78q0 -40 -15 -80t-44.5 -73t-73 -54t-100.5 -24l-46 -44q5 1 10 1.5t10 0.5
q34 0 54.5 -18t20.5 -47z" />
    <glyph glyph-name="uni015F" unicode="&#x15f;" horiz-adv-x="365" 
d="M202 -119q0 -21 -9.5 -40t-26.5 -32.5t-40.5 -21.5t-50.5 -8q-38 0 -65.5 13.5t-47.5 36.5l9 9q15 -9 34.5 -16t46.5 -7q33 0 56 17t23 43q0 18 -13 29t-37 11q-14 0 -25.5 -3.5t-27.5 -10.5l-5 9l82 80q-49 8 -78 35.5t-29 62.5q0 19 12 31.5t29 12.5t27.5 -9.5
t16.5 -34.5q8 -35 21 -50.5t39 -15.5q31 0 52.5 23t21.5 59q0 22 -6.5 39t-25.5 40l-43 52q-25 30 -37 54.5t-12 54.5q0 28 10.5 52t29.5 42t44.5 28t55.5 10q28 0 53 -8t43.5 -22t29 -32.5t10.5 -39.5q0 -18 -10.5 -30t-29.5 -12q-16 0 -27 10.5t-17 34.5q-8 33 -22 49
t-40 16t-43 -17.5t-17 -44.5q0 -20 10.5 -36.5t30.5 -40.5l42 -51q26 -32 38.5 -58t12.5 -54q0 -32 -10.5 -58.5t-29.5 -46t-45.5 -31.5t-57.5 -15l-47 -45q5 1 10 1.5t10 0.5q34 0 54.5 -18t20.5 -47z" />
    <glyph glyph-name="Scaron" unicode="&#x160;" horiz-adv-x="570" 
d="M653 938l5 -7l-191 -155h-64l-78 156l8 6l114 -90zM260 -12q-48 0 -81 12t-56.5 26t-38.5 26t-25 12q-4 0 -8.5 -1.5t-12 -6.5t-19 -13.5t-29.5 -21.5l89 217h39q-6 -60 4 -99.5t31 -63t49.5 -33t58.5 -9.5q33 0 60.5 12t48 32.5t32 46.5t11.5 55q0 30 -15.5 55t-47.5 51
l-94 77q-39 32 -58.5 65t-19.5 72q0 44 17.5 83t47.5 68t71.5 46t89.5 17q42 0 71 -10.5t48 -23t30.5 -23t20.5 -10.5q4 0 8.5 1.5t12 6.5t19 13t29.5 22l-82 -202h-39q5 49 -1.5 83t-22.5 56t-39.5 32t-51.5 10q-30 0 -55.5 -10t-44.5 -27t-30 -40t-11 -49q0 -31 16.5 -56
t50.5 -52l96 -75q37 -29 57.5 -62t20.5 -78q0 -41 -16 -82.5t-47.5 -74.5t-77.5 -53.5t-106 -20.5z" />
    <glyph glyph-name="scaron" unicode="&#x161;" horiz-adv-x="365" 
d="M473 701l5 -7l-191 -155h-64l-78 156l8 6l114 -90zM136 -12q-31 0 -56.5 8t-43.5 21.5t-28 32t-10 38.5q0 19 12 31.5t29 12.5t27.5 -9.5t16.5 -34.5q8 -35 21 -50.5t39 -15.5q31 0 52.5 23t21.5 59q0 22 -6.5 39t-25.5 40l-43 52q-25 30 -37 54.5t-12 54.5q0 28 10.5 52
t29.5 42t44.5 28t55.5 10q28 0 53 -8t43.5 -22t29 -32.5t10.5 -39.5q0 -18 -10.5 -30t-29.5 -12q-16 0 -27 10.5t-17 34.5q-8 33 -22 49t-40 16t-43 -17.5t-17 -44.5q0 -20 10.5 -36.5t30.5 -40.5l42 -51q26 -32 38.5 -58t12.5 -54q0 -34 -12 -62t-34 -48t-51.5 -31
t-63.5 -11z" />
    <glyph glyph-name="uni0162" unicode="&#x162;" horiz-adv-x="668" 
d="M336 657q-27 0 -45 -4t-34.5 -20t-37.5 -48t-54 -89h-37l79 204h618l-78 -204h-37q12 57 15.5 89t-3 48t-23.5 20t-45 4h-101l-232 -593q-8 -23 12 -24l85 -8l-13 -32h-125l-59 -56q5 1 10 1.5t10 0.5q34 0 54.5 -18t20.5 -47q0 -21 -9.5 -40t-26.5 -32.5t-40.5 -21.5
t-50.5 -8q-38 0 -65.5 13.5t-47.5 36.5l9 9q15 -9 34.5 -16t46.5 -7q33 0 56 17t23 43q0 18 -13 29t-37 11q-14 0 -25.5 -3.5t-27.5 -10.5l-5 9l92 90h-143l13 32l88 9q17 1 24 19l234 597h-109z" />
    <glyph glyph-name="uni0163" unicode="&#x163;" horiz-adv-x="351" 
d="M194 -119q0 -21 -9.5 -40t-26.5 -32.5t-40.5 -21.5t-50.5 -8q-38 0 -65.5 13.5t-47.5 36.5l9 9q15 -9 34.5 -16t46.5 -7q33 0 56 17t23 43q0 18 -13 29t-37 11q-14 0 -25.5 -3.5t-27.5 -10.5l-5 9l83 81q-42 11 -56 49t10 97l118 280h-71l6 14q60 34 116.5 75.5
t113.5 95.5h3l-58 -138l137 1l-20 -50l-137 1l-122 -289q-16 -38 -7 -58.5t33 -20.5q26 0 57.5 16t76.5 56l4 -3q-37 -61 -76.5 -91.5t-78.5 -35.5l-48 -46q5 1 10 1.5t10 0.5q34 0 54.5 -18t20.5 -47z" />
    <glyph glyph-name="Tcaron" unicode="&#x164;" horiz-adv-x="668" 
d="M761 938l5 -7l-191 -155h-64l-78 156l8 6l114 -90zM336 657q-27 0 -45 -4t-34.5 -20t-37.5 -48t-54 -89h-37l79 204h618l-78 -204h-37q12 57 15.5 89t-3 48t-23.5 20t-45 4h-101l-232 -593q-8 -23 12 -24l85 -8l-13 -32h-319l13 32l88 9q17 1 24 19l234 597h-109z" />
    <glyph glyph-name="tcaron" unicode="&#x165;" horiz-adv-x="351" 
d="M446 703q11 20 22 28t25 8q17 0 27 -9.5t10 -22.5q0 -9 -5.5 -22.5t-22 -35.5t-44.5 -55t-73 -82l-6 3q23 74 38 118.5t29 69.5zM126 -12q-28 0 -48 10.5t-30.5 30t-10 47t14.5 61.5l118 280h-71l6 14q60 34 116.5 75.5t113.5 95.5h3l-58 -138l137 1l-20 -50l-137 1
l-122 -289q-16 -38 -7 -58.5t33 -20.5q26 0 57.5 16t76.5 56l4 -3q-42 -69 -87 -99t-89 -30z" />
    <glyph glyph-name="Tbar" unicode="&#x166;" horiz-adv-x="668" 
d="M218 382h119l108 275h-109q-27 0 -45 -4t-34.5 -20t-37.5 -48t-54 -89h-37l79 204h618l-78 -204h-37q12 57 15.5 89t-3 48t-23.5 20t-45 4h-101l-108 -275h122l-16 -38h-120l-110 -280q-8 -23 12 -24l85 -8l-13 -32h-319l13 32l88 9q17 1 24 19l111 284h-119z" />
    <glyph glyph-name="tbar" unicode="&#x167;" horiz-adv-x="351" 
d="M126 -12q-28 0 -48 10.5t-30.5 30t-10 47t14.5 61.5l39 93h-66l15 36h67l63 151h-71l6 14q60 34 116.5 75.5t113.5 95.5h3l-58 -138l137 1l-20 -50l-137 1l-63 -150h118l-15 -36h-119l-43 -103q-16 -38 -7 -58.5t33 -20.5q26 0 57.5 16t76.5 56l4 -3q-42 -69 -87 -99
t-89 -30z" />
    <glyph glyph-name="Utilde" unicode="&#x168;" horiz-adv-x="773" 
d="M749 603q11 29 5 42t-29 17l-47 7l13 31h248l-13 -31l-52 -8q-27 -5 -42 -17t-26 -41l-142 -367q-46 -119 -128.5 -183.5t-194.5 -64.5q-72 0 -122.5 22.5t-77.5 62.5t-30 93.5t21 115.5l137 355q8 20 -12 23l-71 9l12 31h299l-13 -31l-81 -10q-11 -2 -15.5 -5.5
t-8.5 -12.5l-144 -373q-17 -45 -17.5 -85t15 -70.5t48 -48t80.5 -17.5q80 0 147 51.5t108 157.5zM602 806q-20 16 -32.5 23t-24.5 7q-15 0 -33.5 -13.5t-44.5 -45.5l-8 4q26 65 54 91.5t57 26.5q19 0 36 -10t43 -30q20 -15 32.5 -22t24.5 -7q15 0 33.5 13t44.5 45l8 -4
q-26 -65 -54 -91.5t-57 -26.5q-19 0 -36 10t-43 30z" />
    <glyph glyph-name="utilde" unicode="&#x169;" horiz-adv-x="560" 
d="M152 57q15 0 33 9t45 33t65.5 67t93.5 111l74 186h88l-156 -393q-5 -12 7 -12q13 0 43 14.5t88 58.5l4 -3q-51 -73 -97.5 -106.5t-94.5 -33.5q-35 0 -45.5 18.5t1.5 49.5l59 147q-43 -60 -79 -101t-67.5 -67t-60 -37.5t-56.5 -11.5q-44 0 -60 32.5t9 86.5l140 298
q-29 -4 -63 -16.5t-70 -34.5l-3 4q51 57 107.5 86t121.5 29h8q10 0 13 -5t-1 -13l-164 -349q-21 -47 17 -47zM394 569q-20 16 -32.5 23t-24.5 7q-15 0 -33.5 -13.5t-44.5 -45.5l-8 4q26 65 54 91.5t57 26.5q19 0 36 -10t43 -30q20 -15 32.5 -22t24.5 -7q15 0 33.5 13
t44.5 45l8 -4q-26 -65 -54 -91.5t-57 -26.5q-19 0 -36 10t-43 30z" />
    <glyph glyph-name="Umacron" unicode="&#x16a;" horiz-adv-x="773" 
d="M749 603q11 29 5 42t-29 17l-47 7l13 31h248l-13 -31l-52 -8q-27 -5 -42 -17t-26 -41l-142 -367q-46 -119 -128.5 -183.5t-194.5 -64.5q-72 0 -122.5 22.5t-77.5 62.5t-30 93.5t21 115.5l137 355q8 20 -12 23l-71 9l12 31h299l-13 -31l-81 -10q-11 -2 -15.5 -5.5
t-8.5 -12.5l-144 -373q-17 -45 -17.5 -85t15 -70.5t48 -48t80.5 -17.5q80 0 147 51.5t108 157.5zM474 824h282l-18 -44h-282z" />
    <glyph glyph-name="umacron" unicode="&#x16b;" horiz-adv-x="560" 
d="M152 57q15 0 33 9t45 33t65.5 67t93.5 111l74 186h88l-156 -393q-5 -12 7 -12q13 0 43 14.5t88 58.5l4 -3q-51 -73 -97.5 -106.5t-94.5 -33.5q-35 0 -45.5 18.5t1.5 49.5l59 147q-43 -60 -79 -101t-67.5 -67t-60 -37.5t-56.5 -11.5q-44 0 -60 32.5t9 86.5l140 298
q-29 -4 -63 -16.5t-70 -34.5l-3 4q51 57 107.5 86t121.5 29h8q10 0 13 -5t-1 -13l-164 -349q-21 -47 17 -47zM266 587h282l-18 -44h-282z" />
    <glyph glyph-name="Ubreve" unicode="&#x16c;" horiz-adv-x="773" 
d="M749 603q11 29 5 42t-29 17l-47 7l13 31h248l-13 -31l-52 -8q-27 -5 -42 -17t-26 -41l-142 -367q-46 -119 -128.5 -183.5t-194.5 -64.5q-72 0 -122.5 22.5t-77.5 62.5t-30 93.5t21 115.5l137 355q8 20 -12 23l-71 9l12 31h299l-13 -31l-81 -10q-11 -2 -15.5 -5.5
t-8.5 -12.5l-144 -373q-17 -45 -17.5 -85t15 -70.5t48 -48t80.5 -17.5q80 0 147 51.5t108 157.5zM621 841q97 0 175 84l7 -3q-28 -72 -80 -113t-112 -41q-34 0 -59 11.5t-39 32.5t-16.5 49.5t8.5 63.5h8q2 -45 29.5 -64.5t78.5 -19.5z" />
    <glyph glyph-name="ubreve" unicode="&#x16d;" horiz-adv-x="560" 
d="M152 57q15 0 33 9t45 33t65.5 67t93.5 111l74 186h88l-156 -393q-5 -12 7 -12q13 0 43 14.5t88 58.5l4 -3q-51 -73 -97.5 -106.5t-94.5 -33.5q-35 0 -45.5 18.5t1.5 49.5l59 147q-43 -60 -79 -101t-67.5 -67t-60 -37.5t-56.5 -11.5q-44 0 -60 32.5t9 86.5l140 298
q-29 -4 -63 -16.5t-70 -34.5l-3 4q51 57 107.5 86t121.5 29h8q10 0 13 -5t-1 -13l-164 -349q-21 -47 17 -47zM413 604q97 0 175 84l7 -3q-28 -72 -80 -113t-112 -41q-34 0 -59 11.5t-39 32.5t-16.5 49.5t8.5 63.5h8q2 -45 29.5 -64.5t78.5 -19.5z" />
    <glyph glyph-name="Uring" unicode="&#x16e;" horiz-adv-x="773" 
d="M650 970q39 0 65 -24t26 -62q0 -24 -10 -45.5t-27 -37.5t-40 -25t-48 -9q-40 0 -66 24t-26 62q0 25 10 46t27.5 37t40 25t48.5 9zM620 804q16 0 31 6.5t26 17t18 24.5t7 30q0 25 -15 38t-41 13q-16 0 -31 -6t-26 -16.5t-18 -25t-7 -30.5q0 -24 15.5 -37.5t40.5 -13.5z
M749 603q11 29 5 42t-29 17l-47 7l13 31h248l-13 -31l-52 -8q-27 -5 -42 -17t-26 -41l-142 -367q-46 -119 -128.5 -183.5t-194.5 -64.5q-72 0 -122.5 22.5t-77.5 62.5t-30 93.5t21 115.5l137 355q8 20 -12 23l-71 9l12 31h299l-13 -31l-81 -10q-11 -2 -15.5 -5.5t-8.5 -12.5
l-144 -373q-17 -45 -17.5 -85t15 -70.5t48 -48t80.5 -17.5q80 0 147 51.5t108 157.5z" />
    <glyph glyph-name="uring" unicode="&#x16f;" horiz-adv-x="560" 
d="M442 733q39 0 65 -24t26 -62q0 -24 -10 -45.5t-27 -37.5t-40 -25t-48 -9q-40 0 -66 24t-26 62q0 25 10 46t27.5 37t40 25t48.5 9zM412 567q16 0 31 6.5t26 17t18 24.5t7 30q0 25 -15 38t-41 13q-16 0 -31 -6t-26 -16.5t-18 -25t-7 -30.5q0 -24 15.5 -37.5t40.5 -13.5z
M152 57q15 0 33 9t45 33t65.5 67t93.5 111l74 186h88l-156 -393q-5 -12 7 -12q13 0 43 14.5t88 58.5l4 -3q-51 -73 -97.5 -106.5t-94.5 -33.5q-35 0 -45.5 18.5t1.5 49.5l59 147q-43 -60 -79 -101t-67.5 -67t-60 -37.5t-56.5 -11.5q-44 0 -60 32.5t9 86.5l140 298
q-29 -4 -63 -16.5t-70 -34.5l-3 4q51 57 107.5 86t121.5 29h8q10 0 13 -5t-1 -13l-164 -349q-21 -47 17 -47z" />
    <glyph glyph-name="Uhungarumlaut" unicode="&#x170;" horiz-adv-x="773" 
d="M749 603q11 29 5 42t-29 17l-47 7l13 31h248l-13 -31l-52 -8q-27 -5 -42 -17t-26 -41l-142 -367q-46 -119 -128.5 -183.5t-194.5 -64.5q-72 0 -122.5 22.5t-77.5 62.5t-30 93.5t21 115.5l137 355q8 20 -12 23l-71 9l12 31h299l-13 -31l-81 -10q-11 -2 -15.5 -5.5
t-8.5 -12.5l-144 -373q-17 -45 -17.5 -85t15 -70.5t48 -48t80.5 -17.5q80 0 147 51.5t108 157.5zM624 929q17 0 28 -9t11 -26q0 -11 -7.5 -22t-31 -27t-66.5 -39t-114 -57l-4 5q46 55 76 89.5t49.5 53.5t32.5 25.5t26 6.5zM809 929q17 0 28 -9t11 -26q0 -11 -7.5 -22
t-31 -27t-66.5 -39t-114 -57l-5 5q47 55 76.5 89.5t49 53.5t32.5 25.5t27 6.5z" />
    <glyph glyph-name="uhungarumlaut" unicode="&#x171;" horiz-adv-x="560" 
d="M152 57q15 0 33 9t45 33t65.5 67t93.5 111l74 186h88l-156 -393q-5 -12 7 -12q13 0 43 14.5t88 58.5l4 -3q-51 -73 -97.5 -106.5t-94.5 -33.5q-35 0 -45.5 18.5t1.5 49.5l59 147q-43 -60 -79 -101t-67.5 -67t-60 -37.5t-56.5 -11.5q-44 0 -60 32.5t9 86.5l140 298
q-29 -4 -63 -16.5t-70 -34.5l-3 4q51 57 107.5 86t121.5 29h8q10 0 13 -5t-1 -13l-164 -349q-21 -47 17 -47zM416 692q17 0 28 -9t11 -26q0 -11 -7.5 -22t-31 -27t-66.5 -39t-114 -57l-4 5q46 55 76 89.5t49.5 53.5t32.5 25.5t26 6.5zM601 692q17 0 28 -9t11 -26
q0 -11 -7.5 -22t-31 -27t-66.5 -39t-114 -57l-5 5q47 55 76.5 89.5t49 53.5t32.5 25.5t27 6.5z" />
    <glyph glyph-name="Uogonek" unicode="&#x172;" horiz-adv-x="773" 
d="M749 603q11 29 5 42t-29 17l-47 7l13 31h248l-13 -31l-52 -8q-27 -5 -42 -17t-26 -41l-142 -367q-44 -114 -121 -178t-182 -69q-26 -29 -42 -48.5t-25 -32.5t-12.5 -21.5t-3.5 -16.5q0 -14 9.5 -22t26.5 -8q33 0 86 35l5 -6q-66 -89 -146 -89q-33 0 -52.5 15.5
t-19.5 41.5q0 31 35 67t100 84q-66 3 -113 27t-71.5 63.5t-26.5 91.5t21 112l137 355q8 20 -12 23l-71 9l12 31h299l-13 -31l-81 -10q-11 -2 -15.5 -5.5t-8.5 -12.5l-144 -373q-17 -45 -17.5 -85t15 -70.5t48 -48t80.5 -17.5q80 0 147 51.5t108 157.5z" />
    <glyph glyph-name="uogonek" unicode="&#x173;" horiz-adv-x="560" 
d="M152 57q15 0 33 9t45 33t65.5 67t93.5 111l74 186h88l-156 -393q-5 -12 7 -12q13 0 43 14.5t88 58.5l4 -3q-45 -65 -86.5 -98.5t-83.5 -39.5q-26 -29 -42.5 -48.5t-25.5 -33t-12.5 -22t-3.5 -16.5q0 -14 9.5 -22t26.5 -8q33 0 86 35l5 -6q-66 -89 -146 -89
q-33 0 -52.5 15.5t-19.5 41.5q0 32 35 68t101 84q-25 5 -31.5 22.5t4.5 44.5l59 147q-43 -60 -79 -101t-67.5 -67t-60 -37.5t-56.5 -11.5q-44 0 -60 32.5t9 86.5l140 298q-29 -4 -63 -16.5t-70 -34.5l-3 4q51 57 107.5 86t121.5 29h8q10 0 13 -5t-1 -13l-164 -349
q-21 -47 17 -47z" />
    <glyph glyph-name="Wcircumflex" unicode="&#x174;" horiz-adv-x="1101" 
d="M602 752l-5 8l191 154h63l78 -155l-8 -7l-114 90zM635 -8l17 499q0 7 -3.5 8t-8.5 -5l-400 -502h-59l50 638q2 16 -2.5 23t-18.5 9l-33 7l13 31h253l-13 -31l-48 -8q-29 -5 -38.5 -14t-11.5 -37l-36 -454q-1 -7 2.5 -8t8.5 5l446 557h5l-17 -558q0 -7 3.5 -8t8.5 5
l337 450q43 58 -8 65l-31 5l13 31h211l-13 -31l-23 -4q-24 -5 -42 -17t-35 -35l-468 -621h-59z" />
    <glyph glyph-name="wcircumflex" unicode="&#x175;" horiz-adv-x="711" 
d="M264 515l-5 8l191 154h63l78 -155l-8 -7l-114 90zM600 151q-29 -36 -59.5 -65.5t-60.5 -51.5t-58.5 -34t-52.5 -12q-18 0 -24 8.5t-4 26.5l21 161q-8 -12 -16.5 -22.5t-16.5 -21.5q-28 -34 -58.5 -62t-60 -48t-57.5 -31t-51 -11q-18 0 -24 8.5t-4 26.5l55 384
q-27 -5 -55 -17.5t-58 -32.5l-4 4q42 53 89.5 81.5t96.5 28.5h9q18 0 15 -18l-60 -396q-2 -14 12 -6q32 20 65 48.5t65 67.5q24 29 40.5 57t29.5 57l16 126q-24 -5 -48 -13t-50 -22l-4 4q37 45 81 70t89 25h8q18 0 15 -18l-55 -396q-2 -15 13 -6q32 19 63 49t65 72
q74 95 74 157q0 13 -4.5 25t-10.5 23t-10.5 22.5t-4.5 24.5q0 23 13.5 37t33.5 14q26 0 41 -20t15 -54q0 -29 -10 -62t-26 -66t-36.5 -64.5t-41.5 -57.5z" />
    <glyph glyph-name="Ycircumflex" unicode="&#x176;" horiz-adv-x="685" 
d="M414 0h-319l13 32l91 9q17 1 24 19l83 214l-73 358q-4 17 -8.5 23t-18.5 9l-29 5l13 31h255l-12 -31l-50 -8q-16 -2 -25.5 -5t-14.5 -8.5t-5.5 -13t1.5 -19.5l55 -280q3 -13 13 -3l267 277q43 46 -9 54l-38 6l13 31h219l-13 -31l-19 -3q-20 -4 -38 -15t-41 -34l-334 -342
l-81 -211q-8 -23 12 -24l82 -8zM375 752l-5 8l191 154h63l78 -155l-8 -7l-114 90z" />
    <glyph glyph-name="ycircumflex" unicode="&#x177;" horiz-adv-x="458" 
d="M192 8q54 56 90 103.5t57.5 86t30.5 68t9 50.5q0 18 -5.5 31.5t-12 26t-12 25t-5.5 26.5q0 21 12 35.5t34 14.5q25 0 42 -22t17 -66q0 -86 -60.5 -189.5t-167.5 -215.5q-101 -106 -177 -153.5t-138 -47.5q-34 0 -54 15t-20 38q0 19 13 31.5t34 12.5q13 0 24 -5t21 -10.5
t20.5 -10.5t24.5 -5q11 0 23 2.5t28 10.5t36 22.5t46 38.5l21 487q-55 -10 -114 -51l-4 4q39 52 85.5 81t94.5 29h10q18 0 16 -17zM135 515l-5 8l191 154h63l78 -155l-8 -7l-114 90z" />
    <glyph glyph-name="Ydieresis" unicode="&#x178;" horiz-adv-x="685" 
d="M414 0h-319l13 32l91 9q17 1 24 19l83 214l-73 358q-4 17 -8.5 23t-18.5 9l-29 5l13 31h255l-12 -31l-50 -8q-16 -2 -25.5 -5t-14.5 -8.5t-5.5 -13t1.5 -19.5l55 -280q3 -13 13 -3l267 277q43 46 -9 54l-38 6l13 31h219l-13 -31l-19 -3q-20 -4 -38 -15t-41 -34l-334 -342
l-81 -211q-8 -23 12 -24l82 -8zM462 766q-23 0 -37 15t-15 35q0 28 18.5 46t44.5 18q23 0 36.5 -14.5t14.5 -35.5q0 -27 -18 -45.5t-44 -18.5zM652 766q-23 0 -37 15t-14 35q0 28 18 46t44 18q23 0 37 -14.5t14 -35.5q1 -27 -17.5 -45.5t-44.5 -18.5z" />
    <glyph glyph-name="Zacute" unicode="&#x179;" horiz-adv-x="625" 
d="M389 756q58 56 93.5 89.5t57.5 51.5t35 23.5t25 5.5q18 0 30 -11t12 -28q0 -13 -9 -25t-36 -27t-75.5 -35.5t-127.5 -50.5zM561 644q5 5 4.5 9t-7.5 4h-193q-27 0 -45.5 -3.5t-36 -17.5t-37.5 -42.5t-51 -77.5h-37l70 184h517l-614 -643q-5 -5 -4.5 -9t7.5 -4h219
q34 0 56.5 4.5t42 19.5t41 43.5t53.5 76.5h39l-80 -188h-558z" />
    <glyph glyph-name="zacute" unicode="&#x17a;" horiz-adv-x="433" 
d="M209 519q58 56 93.5 89.5t57.5 51.5t35 23.5t25 5.5q18 0 30 -11t12 -28q0 -13 -9 -25t-36 -27t-75.5 -35.5t-127.5 -50.5zM-39 19l358 339l-112 45q-36 14 -58 14q-12 0 -12 -8q0 -4 3.5 -10t8 -14.5t8 -18t3.5 -21.5q0 -20 -13 -29.5t-28 -9.5q-20 0 -33 14.5t-13 37.5
q0 21 11.5 42t30.5 37.5t43 26.5t48 10q23 0 44 -4t53 -16l80 -29l54 52l34 -33l-352 -335l54 -28q34 -18 59 -25.5t48 -7.5q12 0 22 1.5t23 8t29 18.5t40 33l5 -4q-23 -38 -41 -64.5t-36 -43t-38 -24t-47 -7.5q-25 0 -49 9.5t-55 24.5l-81 40l-57 -54z" />
    <glyph glyph-name="Zdotaccent" unicode="&#x17b;" horiz-adv-x="625" 
d="M561 644q5 5 4.5 9t-7.5 4h-193q-27 0 -45.5 -3.5t-36 -17.5t-37.5 -42.5t-51 -77.5h-37l70 184h517l-614 -643q-5 -5 -4.5 -9t7.5 -4h219q34 0 56.5 4.5t42 19.5t41 43.5t53.5 76.5h39l-80 -188h-558zM485 766q-23 0 -37 15t-14 35q0 28 18 46t44 18q23 0 37 -14.5
t14 -35.5q0 -27 -18 -45.5t-44 -18.5z" />
    <glyph glyph-name="zdotaccent" unicode="&#x17c;" horiz-adv-x="433" 
d="M-39 19l358 339l-112 45q-36 14 -58 14q-12 0 -12 -8q0 -4 3.5 -10t8 -14.5t8 -18t3.5 -21.5q0 -20 -13 -29.5t-28 -9.5q-20 0 -33 14.5t-13 37.5q0 21 11.5 42t30.5 37.5t43 26.5t48 10q23 0 44 -4t53 -16l80 -29l54 52l34 -33l-352 -335l54 -28q34 -18 59 -25.5
t48 -7.5q12 0 22 1.5t23 8t29 18.5t40 33l5 -4q-23 -38 -41 -64.5t-36 -43t-38 -24t-47 -7.5q-25 0 -49 9.5t-55 24.5l-81 40l-57 -54zM305 529q-23 0 -37 15t-14 35q0 28 18 46t44 18q23 0 37 -14.5t14 -35.5q0 -27 -18 -45.5t-44 -18.5z" />
    <glyph glyph-name="Zcaron" unicode="&#x17d;" horiz-adv-x="625" 
d="M697 938l5 -7l-191 -155h-64l-78 156l8 6l114 -90zM561 644q5 5 4.5 9t-7.5 4h-193q-27 0 -45.5 -3.5t-36 -17.5t-37.5 -42.5t-51 -77.5h-37l70 184h517l-614 -643q-5 -5 -4.5 -9t7.5 -4h219q34 0 56.5 4.5t42 19.5t41 43.5t53.5 76.5h39l-80 -188h-558z" />
    <glyph glyph-name="zcaron" unicode="&#x17e;" horiz-adv-x="433" 
d="M517 701l5 -7l-191 -155h-64l-78 156l8 6l114 -90zM-39 19l358 339l-112 45q-36 14 -58 14q-12 0 -12 -8q0 -4 3.5 -10t8 -14.5t8 -18t3.5 -21.5q0 -20 -13 -29.5t-28 -9.5q-20 0 -33 14.5t-13 37.5q0 21 11.5 42t30.5 37.5t43 26.5t48 10q23 0 44 -4t53 -16l80 -29
l54 52l34 -33l-352 -335l54 -28q34 -18 59 -25.5t48 -7.5q12 0 22 1.5t23 8t29 18.5t40 33l5 -4q-23 -38 -41 -64.5t-36 -43t-38 -24t-47 -7.5q-25 0 -49 9.5t-55 24.5l-81 40l-57 -54z" />
    <glyph glyph-name="uni0218" unicode="&#x218;" horiz-adv-x="570" 
d="M117 -255q65 38 65 65q0 7 -4 14.5t-9 15t-9 16t-4 17.5q0 25 18 42.5t43 17.5q22 0 36 -14t14 -39q0 -20 -11 -41.5t-30 -41t-45.5 -36.5t-57.5 -28zM260 -12q-48 0 -81 12t-56.5 26t-38.5 26t-25 12q-4 0 -8.5 -1.5t-12 -6.5t-19 -13.5t-29.5 -21.5l89 217h39
q-6 -60 4 -99.5t31 -63t49.5 -33t58.5 -9.5q33 0 60.5 12t48 32.5t32 46.5t11.5 55q0 30 -15.5 55t-47.5 51l-94 77q-39 32 -58.5 65t-19.5 72q0 44 17.5 83t47.5 68t71.5 46t89.5 17q42 0 71 -10.5t48 -23t30.5 -23t20.5 -10.5q4 0 8.5 1.5t12 6.5t19 13t29.5 22l-82 -202
h-39q5 49 -1.5 83t-22.5 56t-39.5 32t-51.5 10q-30 0 -55.5 -10t-44.5 -27t-30 -40t-11 -49q0 -31 16.5 -56t50.5 -52l96 -75q37 -29 57.5 -62t20.5 -78q0 -41 -16 -82.5t-47.5 -74.5t-77.5 -53.5t-106 -20.5z" />
    <glyph glyph-name="uni0219" unicode="&#x219;" horiz-adv-x="365" 
d="M5 -255q65 38 65 65q0 7 -4 14.5t-9 15t-9 16t-4 17.5q0 25 18 42.5t43 17.5q22 0 36 -14t14 -39q0 -20 -11 -41.5t-30 -41t-45.5 -36.5t-57.5 -28zM136 -12q-31 0 -56.5 8t-43.5 21.5t-28 32t-10 38.5q0 19 12 31.5t29 12.5t27.5 -9.5t16.5 -34.5q8 -35 21 -50.5
t39 -15.5q31 0 52.5 23t21.5 59q0 22 -6.5 39t-25.5 40l-43 52q-25 30 -37 54.5t-12 54.5q0 28 10.5 52t29.5 42t44.5 28t55.5 10q28 0 53 -8t43.5 -22t29 -32.5t10.5 -39.5q0 -18 -10.5 -30t-29.5 -12q-16 0 -27 10.5t-17 34.5q-8 33 -22 49t-40 16t-43 -17.5t-17 -44.5
q0 -20 10.5 -36.5t30.5 -40.5l42 -51q26 -32 38.5 -58t12.5 -54q0 -34 -12 -62t-34 -48t-51.5 -31t-63.5 -11z" />
    <glyph glyph-name="uni021A" unicode="&#x21a;" horiz-adv-x="668" 
d="M110 -255q65 38 65 65q0 7 -4 14.5t-9 15t-9 16t-4 17.5q0 25 18 42.5t43 17.5q22 0 36 -14t14 -39q0 -20 -11 -41.5t-30 -41t-45.5 -36.5t-57.5 -28zM336 657q-27 0 -45 -4t-34.5 -20t-37.5 -48t-54 -89h-37l79 204h618l-78 -204h-37q12 57 15.5 89t-3 48t-23.5 20
t-45 4h-101l-232 -593q-8 -23 12 -24l85 -8l-13 -32h-319l13 32l88 9q17 1 24 19l234 597h-109z" />
    <glyph glyph-name="uni021B" unicode="&#x21b;" horiz-adv-x="351" 
d="M-9 -255q65 38 65 65q0 7 -4 14.5t-9 15t-9 16t-4 17.5q0 25 18 42.5t43 17.5q22 0 36 -14t14 -39q0 -20 -11 -41.5t-30 -41t-45.5 -36.5t-57.5 -28zM126 -12q-28 0 -48 10.5t-30.5 30t-10 47t14.5 61.5l118 280h-71l6 14q60 34 116.5 75.5t113.5 95.5h3l-58 -138l137 1
l-20 -50l-137 1l-122 -289q-16 -38 -7 -58.5t33 -20.5q26 0 57.5 16t76.5 56l4 -3q-42 -69 -87 -99t-89 -30z" />
    <glyph glyph-name="uni0237" unicode="&#x237;" horiz-adv-x="289" 
d="M96 -38q-36 -94 -85 -139t-112 -45q-43 0 -70.5 19t-28.5 48q0 21 13.5 34.5t32.5 13.5q20 0 29.5 -11t13.5 -29q9 -37 35 -37q15 0 29 12t28 44q6 14 13.5 37t16 48.5t16.5 50.5t15 44l135 352q-29 -4 -62.5 -16.5t-71.5 -35.5l-3 4q51 57 106 86t118 29h8q10 0 13 -5
t0 -13z" />
    <glyph glyph-name="circumflex" unicode="&#x2c6;" 
d="M195 515l-5 8l191 154h63l78 -155l-8 -7l-114 90z" />
    <glyph glyph-name="caron" unicode="&#x2c7;" 
d="M589 701l5 -7l-191 -155h-64l-78 156l8 6l114 -90z" />
    <glyph glyph-name="breve" unicode="&#x2d8;" 
d="M389 604q97 0 175 84l7 -3q-28 -72 -80 -113t-112 -41q-34 0 -59 11.5t-39 32.5t-16.5 49.5t8.5 63.5h8q2 -45 29.5 -64.5t78.5 -19.5z" />
    <glyph glyph-name="dotaccent" unicode="&#x2d9;" 
d="M377 529q-23 0 -37 15t-14 35q0 28 18 46t44 18q23 0 37 -14.5t14 -35.5q0 -27 -18 -45.5t-44 -18.5z" />
    <glyph glyph-name="ring" unicode="&#x2da;" 
d="M418 733q39 0 65 -24t26 -62q0 -24 -10 -45.5t-27 -37.5t-40 -25t-48 -9q-40 0 -66 24t-26 62q0 25 10 46t27.5 37t40 25t48.5 9zM388 567q16 0 31 6.5t26 17t18 24.5t7 30q0 25 -15 38t-41 13q-16 0 -31 -6t-26 -16.5t-18 -25t-7 -30.5q0 -24 15.5 -37.5t40.5 -13.5z
" />
    <glyph glyph-name="ogonek" unicode="&#x2db;" 
d="M201 10q-32 -36 -52 -59t-31 -38t-15 -24.5t-4 -18.5q0 -14 9.5 -22t26.5 -8q33 0 86 35l5 -6q-66 -89 -146 -89q-33 0 -52.5 15.5t-19.5 41.5q0 35 43 75.5t122 97.5h28z" />
    <glyph glyph-name="tilde" unicode="&#x2dc;" 
d="M370 569q-20 16 -32.5 23t-24.5 7q-15 0 -33.5 -13.5t-44.5 -45.5l-8 4q26 65 54 91.5t57 26.5q19 0 36 -10t43 -30q20 -15 32.5 -22t24.5 -7q15 0 33.5 13t44.5 45l8 -4q-26 -65 -54 -91.5t-57 -26.5q-19 0 -36 10t-43 30z" />
    <glyph glyph-name="hungarumlaut" unicode="&#x2dd;" 
d="M392 692q17 0 28 -9t11 -26q0 -11 -7.5 -22t-31 -27t-66.5 -39t-114 -57l-4 5q46 55 76 89.5t49.5 53.5t32.5 25.5t26 6.5zM577 692q17 0 28 -9t11 -26q0 -11 -7.5 -22t-31 -27t-66.5 -39t-114 -57l-5 5q47 55 76.5 89.5t49 53.5t32.5 25.5t27 6.5z" />
    <glyph glyph-name="Wgrave" unicode="&#x1e80;" horiz-adv-x="1101" 
d="M635 -8l17 499q0 7 -3.5 8t-8.5 -5l-400 -502h-59l50 638q2 16 -2.5 23t-18.5 9l-33 7l13 31h253l-13 -31l-48 -8q-29 -5 -38.5 -14t-11.5 -37l-36 -454q-1 -7 2.5 -8t8.5 5l446 557h5l-17 -558q0 -7 3.5 -8t8.5 5l337 450q43 58 -8 65l-31 5l13 31h211l-13 -31l-23 -4
q-24 -5 -42 -17t-35 -35l-468 -621h-59zM827 749q-44 29 -73.5 49t-46.5 35t-24 26.5t-7 23.5q0 18 13 30t30 12q15 0 27 -7.5t24.5 -26.5t27.5 -52.5t36 -84.5z" />
    <glyph glyph-name="wgrave" unicode="&#x1e81;" horiz-adv-x="711" 
d="M600 151q-29 -36 -59.5 -65.5t-60.5 -51.5t-58.5 -34t-52.5 -12q-18 0 -24 8.5t-4 26.5l21 161q-8 -12 -16.5 -22.5t-16.5 -21.5q-28 -34 -58.5 -62t-60 -48t-57.5 -31t-51 -11q-18 0 -24 8.5t-4 26.5l55 384q-27 -5 -55 -17.5t-58 -32.5l-4 4q42 53 89.5 81.5t96.5 28.5
h9q18 0 15 -18l-60 -396q-2 -14 12 -6q32 20 65 48.5t65 67.5q24 29 40.5 57t29.5 57l16 126q-24 -5 -48 -13t-50 -22l-4 4q37 45 81 70t89 25h8q18 0 15 -18l-55 -396q-2 -15 13 -6q32 19 63 49t65 72q74 95 74 157q0 13 -4.5 25t-10.5 23t-10.5 22.5t-4.5 24.5
q0 23 13.5 37t33.5 14q26 0 41 -20t15 -54q0 -29 -10 -62t-26 -66t-36.5 -64.5t-41.5 -57.5zM489 512q-44 29 -73.5 49t-46.5 35t-24 26.5t-7 23.5q0 18 13 30t30 12q15 0 27 -7.5t24.5 -26.5t27.5 -52.5t36 -84.5z" />
    <glyph glyph-name="Wacute" unicode="&#x1e82;" horiz-adv-x="1101" 
d="M688 756q58 56 93.5 89.5t57.5 51.5t35 23.5t25 5.5q18 0 30 -11t12 -28q0 -13 -9 -25t-36 -27t-75.5 -35.5t-127.5 -50.5zM635 -8l17 499q0 7 -3.5 8t-8.5 -5l-400 -502h-59l50 638q2 16 -2.5 23t-18.5 9l-33 7l13 31h253l-13 -31l-48 -8q-29 -5 -38.5 -14t-11.5 -37
l-36 -454q-1 -7 2.5 -8t8.5 5l446 557h5l-17 -558q0 -7 3.5 -8t8.5 5l337 450q43 58 -8 65l-31 5l13 31h211l-13 -31l-23 -4q-24 -5 -42 -17t-35 -35l-468 -621h-59z" />
    <glyph glyph-name="wacute" unicode="&#x1e83;" horiz-adv-x="711" 
d="M350 519q58 56 93.5 89.5t57.5 51.5t35 23.5t25 5.5q18 0 30 -11t12 -28q0 -13 -9 -25t-36 -27t-75.5 -35.5t-127.5 -50.5zM600 151q-29 -36 -59.5 -65.5t-60.5 -51.5t-58.5 -34t-52.5 -12q-18 0 -24 8.5t-4 26.5l21 161q-8 -12 -16.5 -22.5t-16.5 -21.5
q-28 -34 -58.5 -62t-60 -48t-57.5 -31t-51 -11q-18 0 -24 8.5t-4 26.5l55 384q-27 -5 -55 -17.5t-58 -32.5l-4 4q42 53 89.5 81.5t96.5 28.5h9q18 0 15 -18l-60 -396q-2 -14 12 -6q32 20 65 48.5t65 67.5q24 29 40.5 57t29.5 57l16 126q-24 -5 -48 -13t-50 -22l-4 4
q37 45 81 70t89 25h8q18 0 15 -18l-55 -396q-2 -15 13 -6q32 19 63 49t65 72q74 95 74 157q0 13 -4.5 25t-10.5 23t-10.5 22.5t-4.5 24.5q0 23 13.5 37t33.5 14q26 0 41 -20t15 -54q0 -29 -10 -62t-26 -66t-36.5 -64.5t-41.5 -57.5z" />
    <glyph glyph-name="Wdieresis" unicode="&#x1e84;" horiz-adv-x="1101" 
d="M689 766q-23 0 -37 15t-15 35q0 28 18.5 46t44.5 18q23 0 36.5 -14.5t14.5 -35.5q0 -27 -18 -45.5t-44 -18.5zM879 766q-23 0 -37 15t-14 35q0 28 18 46t44 18q23 0 37 -14.5t14 -35.5q1 -27 -17.5 -45.5t-44.5 -18.5zM635 -8l17 499q0 7 -3.5 8t-8.5 -5l-400 -502h-59
l50 638q2 16 -2.5 23t-18.5 9l-33 7l13 31h253l-13 -31l-48 -8q-29 -5 -38.5 -14t-11.5 -37l-36 -454q-1 -7 2.5 -8t8.5 5l446 557h5l-17 -558q0 -7 3.5 -8t8.5 5l337 450q43 58 -8 65l-31 5l13 31h211l-13 -31l-23 -4q-24 -5 -42 -17t-35 -35l-468 -621h-59z" />
    <glyph glyph-name="wdieresis" unicode="&#x1e85;" horiz-adv-x="711" 
d="M351 529q-23 0 -37 15t-15 35q0 28 18.5 46t44.5 18q23 0 36.5 -14.5t14.5 -35.5q0 -27 -18 -45.5t-44 -18.5zM541 529q-23 0 -37 15t-14 35q0 28 18 46t44 18q23 0 37 -14.5t14 -35.5q1 -27 -17.5 -45.5t-44.5 -18.5zM600 151q-29 -36 -59.5 -65.5t-60.5 -51.5
t-58.5 -34t-52.5 -12q-18 0 -24 8.5t-4 26.5l21 161q-8 -12 -16.5 -22.5t-16.5 -21.5q-28 -34 -58.5 -62t-60 -48t-57.5 -31t-51 -11q-18 0 -24 8.5t-4 26.5l55 384q-27 -5 -55 -17.5t-58 -32.5l-4 4q42 53 89.5 81.5t96.5 28.5h9q18 0 15 -18l-60 -396q-2 -14 12 -6
q32 20 65 48.5t65 67.5q24 29 40.5 57t29.5 57l16 126q-24 -5 -48 -13t-50 -22l-4 4q37 45 81 70t89 25h8q18 0 15 -18l-55 -396q-2 -15 13 -6q32 19 63 49t65 72q74 95 74 157q0 13 -4.5 25t-10.5 23t-10.5 22.5t-4.5 24.5q0 23 13.5 37t33.5 14q26 0 41 -20t15 -54
q0 -29 -10 -62t-26 -66t-36.5 -64.5t-41.5 -57.5z" />
    <glyph glyph-name="Ygrave" unicode="&#x1ef2;" horiz-adv-x="685" 
d="M414 0h-319l13 32l91 9q17 1 24 19l83 214l-73 358q-4 17 -8.5 23t-18.5 9l-29 5l13 31h255l-12 -31l-50 -8q-16 -2 -25.5 -5t-14.5 -8.5t-5.5 -13t1.5 -19.5l55 -280q3 -13 13 -3l267 277q43 46 -9 54l-38 6l13 31h219l-13 -31l-19 -3q-20 -4 -38 -15t-41 -34l-334 -342
l-81 -211q-8 -23 12 -24l82 -8zM600 749q-44 29 -73.5 49t-46.5 35t-24 26.5t-7 23.5q0 18 13 30t30 12q15 0 27 -7.5t24.5 -26.5t27.5 -52.5t36 -84.5z" />
    <glyph glyph-name="ygrave" unicode="&#x1ef3;" horiz-adv-x="458" 
d="M192 8q54 56 90 103.5t57.5 86t30.5 68t9 50.5q0 18 -5.5 31.5t-12 26t-12 25t-5.5 26.5q0 21 12 35.5t34 14.5q25 0 42 -22t17 -66q0 -86 -60.5 -189.5t-167.5 -215.5q-101 -106 -177 -153.5t-138 -47.5q-34 0 -54 15t-20 38q0 19 13 31.5t34 12.5q13 0 24 -5t21 -10.5
t20.5 -10.5t24.5 -5q11 0 23 2.5t28 10.5t36 22.5t46 38.5l21 487q-55 -10 -114 -51l-4 4q39 52 85.5 81t94.5 29h10q18 0 16 -17zM360 512q-44 29 -73.5 49t-46.5 35t-24 26.5t-7 23.5q0 18 13 30t30 12q15 0 27 -7.5t24.5 -26.5t27.5 -52.5t36 -84.5z" />
    <glyph glyph-name="uni2002" unicode="&#x2002;" 
 />
    <glyph glyph-name="uni2003" unicode="&#x2003;" horiz-adv-x="1000" 
 />
    <glyph glyph-name="uni2009" unicode="&#x2009;" horiz-adv-x="175" 
 />
    <glyph glyph-name="uni200A" unicode="&#x200a;" horiz-adv-x="100" 
 />
    <glyph glyph-name="uni200B" unicode="&#x200b;" horiz-adv-x="0" 
 />
    <glyph glyph-name="endash" unicode="&#x2013;" horiz-adv-x="539" 
d="M76 306h448l-18 -46h-447z" />
    <glyph glyph-name="emdash" unicode="&#x2014;" horiz-adv-x="739" 
d="M76 306h648l-18 -46h-647z" />
    <glyph glyph-name="uni2015" unicode="&#x2015;" horiz-adv-x="935" 
d="M76 306h846l-18 -46h-845z" />
    <glyph glyph-name="quoteleft" unicode="&#x2018;" horiz-adv-x="220" 
d="M355 718q-46 -27 -72 -56.5t-26 -52.5q0 -13 5 -23t11 -19.5t11 -20t5 -24.5q0 -24 -17 -42t-41 -18q-23 0 -39.5 16t-16.5 45q0 27 12.5 56.5t35 58t54.5 52.5t70 41z" />
    <glyph glyph-name="quoteright" unicode="&#x2019;" horiz-adv-x="220" 
d="M164 484q46 27 72 56.5t26 52.5q0 13 -5 23t-11 19.5t-11 20t-5 24.5q0 24 17 42t41 18q23 0 39.5 -16t16.5 -45q0 -27 -12.5 -56.5t-35 -58t-54.5 -53t-70 -40.5z" />
    <glyph glyph-name="quotesinglbase" unicode="&#x201a;" horiz-adv-x="220" 
d="M-82 -146q46 27 72 56.5t26 52.5q0 13 -5 23t-11 19.5t-11 20t-5 24.5q0 24 17 42t41 18q23 0 39.5 -16t16.5 -45q0 -27 -12.5 -56.5t-35 -58t-54.5 -53t-70 -40.5z" />
    <glyph glyph-name="quotedblleft" unicode="&#x201c;" horiz-adv-x="391" 
d="M355 718q-46 -27 -72 -56.5t-26 -52.5q0 -13 5 -23t11 -19.5t11 -20t5 -24.5q0 -24 -17 -42t-41 -18q-23 0 -39.5 16t-16.5 45q0 27 12.5 56.5t35 58t54.5 52.5t70 41zM526 718q-46 -27 -72 -56.5t-26 -52.5q0 -13 5 -23t11 -19.5t11 -20t5 -24.5q0 -24 -17 -42t-41 -18
q-23 0 -39.5 16t-16.5 45q0 27 12.5 56.5t35 58t54.5 52.5t70 41z" />
    <glyph glyph-name="quotedblright" unicode="&#x201d;" horiz-adv-x="391" 
d="M164 484q46 27 72 56.5t26 52.5q0 13 -5 23t-11 19.5t-11 20t-5 24.5q0 24 17 42t41 18q23 0 39.5 -16t16.5 -45q0 -27 -12.5 -56.5t-35 -58t-54.5 -53t-70 -40.5zM335 484q46 27 72 56.5t26 52.5q0 13 -5 23t-11 19.5t-11 20t-5 24.5q0 24 17 42t41 18q23 0 39.5 -16
t16.5 -45q0 -27 -12.5 -56.5t-35 -58t-54.5 -53t-70 -40.5z" />
    <glyph glyph-name="quotedblbase" unicode="&#x201e;" horiz-adv-x="391" 
d="M-82 -146q46 27 72 56.5t26 52.5q0 13 -5 23t-11 19.5t-11 20t-5 24.5q0 24 17 42t41 18q23 0 39.5 -16t16.5 -45q0 -27 -12.5 -56.5t-35 -58t-54.5 -53t-70 -40.5zM89 -146q46 27 72 56.5t26 52.5q0 13 -5 23t-11 19.5t-11 20t-5 24.5q0 24 17 42t41 18q23 0 39.5 -16
t16.5 -45q0 -27 -12.5 -56.5t-35 -58t-54.5 -53t-70 -40.5z" />
    <glyph glyph-name="dagger" unicode="&#x2020;" horiz-adv-x="510" 
d="M380 396q-56 -85 -106 -182.5t-100 -225.5h-18q25 67 43 123.5t31 105.5t20.5 93t12.5 86l76 88q-38 -9 -65.5 -15t-47 -9.5t-32.5 -5.5t-22 -2q-18 0 -28.5 9t-10.5 26q0 23 19 39.5t48 16.5q12 0 25 -1.5t30 -5.5t40 -9.5t55 -14.5q4 34 7 58.5t6 42.5t6 31t7 23
q9 23 24 35t38 12q25 0 33.5 -15t-0.5 -38q-4 -10 -10 -22.5t-16.5 -29.5t-26 -41t-37.5 -57q39 9 66 15t46.5 10t32.5 5.5t23 1.5q18 0 28.5 -8.5t10.5 -25.5q1 -23 -18.5 -40t-48.5 -17q-12 0 -25 2t-30 5.5t-40.5 9.5t-54.5 15z" />
    <glyph glyph-name="daggerdbl" unicode="&#x2021;" horiz-adv-x="510" 
d="M317 245q-11 -21 -22 -44l-27 -49.5t-34 -62.5t-44 -81q38 8 65 14t46.5 9.5t32.5 5t22 1.5q18 0 28.5 -8.5t10.5 -25.5q0 -23 -19 -40t-48 -17q-12 0 -25 1.5t-30 5.5t-40.5 9.5t-54.5 14.5q-4 -34 -7 -58.5t-6 -42.5t-6 -31t-7 -23q-9 -23 -24 -35t-38 -12
q-25 0 -33.5 15t0.5 38q4 10 10 22t16.5 29.5t26 41.5t37.5 57q-38 -9 -65.5 -15t-47 -10t-32.5 -5.5t-23 -1.5q-38 0 -40 34q0 23 19 40t49 17q12 0 25 -1.5t30 -5.5t40 -9.5t55 -14.5q10 46 17.5 81.5t14 63t12 50t11.5 43.5q11 22 22.5 44.5t26.5 50t33.5 62.5t44.5 82
q-38 -9 -65.5 -15t-47 -9.5t-32.5 -5.5t-22 -2q-18 0 -28.5 9t-10.5 26q0 23 19 39.5t48 16.5q12 0 25 -1.5t30 -5.5t40 -9.5t55 -14.5q4 34 7 58.5t6 42.5t6 31t7 23q9 23 24 35t38 12q25 0 33.5 -15t-0.5 -38q-4 -10 -10 -22.5t-16.5 -29.5t-26 -41t-37.5 -57q39 9 66 15
t46.5 10t32.5 5.5t23 1.5q18 0 28.5 -8.5t10.5 -25.5q1 -23 -18.5 -40t-48.5 -17q-12 0 -25 2t-30 5.5t-40.5 9.5t-54.5 15q-10 -47 -17 -82l-14 -63q-6 -28 -11.5 -50.5t-11.5 -43.5z" />
    <glyph glyph-name="bullet" unicode="&#x2022;" horiz-adv-x="404" 
d="M242 217q-57 0 -93 35t-36 93q0 33 12.5 63.5t34 53t50 36t60.5 13.5q57 0 93 -35t36 -93q0 -33 -12.5 -63.5t-34 -53t-50 -36t-60.5 -13.5z" />
    <glyph glyph-name="ellipsis" unicode="&#x2026;" horiz-adv-x="660" 
d="M35 -8q-23 0 -38.5 14.5t-15.5 37.5q0 29 19.5 47.5t45.5 18.5q23 0 38.5 -14.5t15.5 -37.5q0 -29 -19.5 -47.5t-45.5 -18.5zM255 -8q-23 0 -38.5 14.5t-15.5 37.5q0 29 19.5 47.5t45.5 18.5q23 0 38.5 -14.5t15.5 -37.5q0 -29 -19.5 -47.5t-45.5 -18.5zM475 -8
q-23 0 -38.5 14.5t-15.5 37.5q0 29 19.5 47.5t45.5 18.5q23 0 38.5 -14.5t15.5 -37.5q0 -29 -19.5 -47.5t-45.5 -18.5z" />
    <glyph glyph-name="perthousand" unicode="&#x2030;" horiz-adv-x="1232" 
d="M252 321q-54 0 -86 31t-32 97q0 40 16 86t44 84t67 63.5t84 25.5q53 0 85 -31t32 -97q0 -41 -16 -86.5t-44 -83.5t-66.5 -63.5t-83.5 -25.5zM255 348q24 0 48 26t42.5 64.5t30.5 83.5t12 83q0 42 -12.5 59t-33.5 17q-24 0 -48 -25t-43 -63.5t-30.5 -85t-11.5 -88.5
q0 -38 12 -54.5t34 -16.5zM726 706h59l-564 -712h-58zM611 -8q-54 0 -86 31t-32 97q0 40 16 86t44 84t67 63.5t84 25.5q53 0 85 -31t32 -97q0 -41 -16 -86.5t-44 -83.5t-66.5 -63.5t-83.5 -25.5zM614 19q24 0 48 26t42.5 64.5t30.5 83.5t12 83q0 42 -12.5 59t-33.5 17
q-24 0 -48 -25t-43 -63.5t-30.5 -85t-11.5 -88.5q0 -38 12 -54.5t34 -16.5zM981 -8q-54 0 -86 31t-32 97q0 40 16 86t44 84t67 63.5t84 25.5q53 0 85 -31t32 -97q0 -41 -16 -86.5t-44 -83.5t-66.5 -63.5t-83.5 -25.5zM984 19q24 0 48 26t42.5 64.5t30.5 83.5t12 83
q0 42 -12.5 59t-33.5 17q-24 0 -48 -25t-43 -63.5t-30.5 -85t-11.5 -88.5q0 -38 12 -54.5t34 -16.5z" />
    <glyph glyph-name="guilsinglleft" unicode="&#x2039;" horiz-adv-x="359" 
d="M241 -10l-8 -4l-197 252l353 239l6 -7l-226 -243z" />
    <glyph glyph-name="guilsinglright" unicode="&#x203a;" horiz-adv-x="359" 
d="M120 473l8 4l197 -252l-353 -239l-6 7l226 243z" />
    <glyph glyph-name="fraction" unicode="&#x2044;" horiz-adv-x="42" 
d="M316 706h59l-564 -712h-58z" />
    <glyph glyph-name="uni2070" unicode="&#x2070;" horiz-adv-x="364" 
d="M252 321q-54 0 -86 31t-32 97q0 40 16 86t44 84t67 63.5t84 25.5q53 0 85 -31t32 -97q0 -41 -16 -86.5t-44 -83.5t-66.5 -63.5t-83.5 -25.5zM255 348q24 0 48 26t42.5 64.5t30.5 83.5t12 83q0 42 -12.5 59t-33.5 17q-24 0 -48 -25t-43 -63.5t-30.5 -85t-11.5 -88.5
q0 -38 12 -54.5t34 -16.5z" />
    <glyph glyph-name="uni2074" unicode="&#x2074;" horiz-adv-x="363" 
d="M208 350l28 4q10 1 14 11l25 62h-182l127 121q41 40 60.5 75.5t28.5 76.5h89q-7 -14 -16 -28t-24.5 -31.5t-39.5 -40.5t-60 -54l-69 -60q-4 -3 -3.5 -5.5t5.5 -2.5h104l29 71l94 48l-48 -119q13 0 22.5 2t17 7.5t15 15.5t18.5 26h20l-45 -102h-69l-25 -62q-4 -10 5 -11
l28 -4l-8 -21h-149z" />
    <glyph glyph-name="uni2075" unicode="&#x2075;" horiz-adv-x="304" 
d="M203 322q-57 0 -83 24t-26 55q0 18 11.5 29.5t25.5 11.5t22 -9t8 -23q0 -7 -1.5 -13.5t-1.5 -13.5q0 -11 10 -22.5t38 -11.5q20 0 37 8t29 21t19 29.5t7 33.5q0 32 -21.5 51t-60.5 19q-18 0 -39 -4t-38 -9l97 202h136q15 0 24.5 1t16.5 4t13 9t14 16h20l-39 -87h-179
l-38 -79q19 4 42 4q58 0 92.5 -27.5t34.5 -75.5q0 -29 -13.5 -54.5t-36.5 -45.5t-54 -31.5t-66 -11.5z" />
    <glyph glyph-name="uni2076" unicode="&#x2076;" horiz-adv-x="341" 
d="M257 322q-35 0 -59 10.5t-39 27t-22 38t-7 44.5q0 48 19 95.5t50.5 85t72.5 60.5t84 23q53 0 76.5 -22t23.5 -50q0 -20 -12 -31.5t-26 -11.5t-21.5 9.5t-7.5 23.5q0 6 0.5 12.5t0.5 12.5q0 11 -8 21t-30 10q-26 0 -52 -21t-47 -56t-34.5 -81t-13.5 -97q0 -24 4.5 -39
t12 -24t17 -12t18.5 -3q15 0 29 9.5t24.5 25.5t17 36.5t6.5 43.5q0 32 -16.5 47.5t-41.5 15.5q-9 0 -17.5 -2t-19.5 -7v2q17 18 36 28.5t42 10.5q41 0 65 -23t24 -62q0 -34 -13.5 -62t-34.5 -47.5t-47.5 -30t-53.5 -10.5z" />
    <glyph glyph-name="uni2077" unicode="&#x2077;" horiz-adv-x="307" 
d="M141 329q7 27 20 52t33 52t47.5 56.5t64.5 65.5l80 78q3 2 3 4.5t-5 2.5h-119q-15 0 -24.5 -2t-18 -7.5t-16.5 -16t-19 -27.5h-20l47 113h274l-129 -132q-58 -59 -87.5 -115.5t-45.5 -123.5h-85z" />
    <glyph glyph-name="uni2078" unicode="&#x2078;" horiz-adv-x="329" 
d="M106 410q0 38 28 65t89 33l1 -3q-29 -15 -42 -39t-13 -53q0 -32 18 -50.5t47 -18.5q34 0 56.5 21.5t22.5 52.5q0 14 -7.5 29.5t-27.5 32.5l-44 36q-27 22 -37 41t-10 42q0 21 9.5 40.5t27.5 35t43 24.5t56 9q48 0 79.5 -21t31.5 -51q0 -35 -25.5 -57t-76.5 -25l-1 2
q27 14 36 32t9 38q0 27 -16 43t-42 16t-43.5 -17t-17.5 -44q0 -15 8 -27t30 -29l43 -35q29 -24 39.5 -44t10.5 -42q0 -27 -12.5 -50.5t-34 -40t-50.5 -26t-62 -9.5q-57 0 -90 26t-33 63z" />
    <glyph glyph-name="uni2079" unicode="&#x2079;" horiz-adv-x="341" 
d="M311 706q34 0 58.5 -10.5t39.5 -27t22 -38.5t7 -44q0 -48 -19 -95.5t-50.5 -85t-72.5 -60.5t-84 -23q-53 0 -76.5 22t-23.5 50q0 20 12 31.5t26 11.5t21.5 -9.5t7.5 -23.5q0 -6 -0.5 -12.5t-0.5 -12.5q0 -11 8 -21t30 -10q26 0 52 21t47 56t34.5 81t13.5 97q0 24 -4.5 39
t-12 24t-17 12t-18.5 3q-15 0 -29 -9.5t-24.5 -25.5t-17 -37t-6.5 -43q0 -32 16.5 -47.5t41.5 -15.5q9 0 17.5 2t19.5 7v-2q-17 -18 -36 -28.5t-42 -10.5q-41 0 -65 23t-24 62q0 34 13.5 62t34.5 47.5t47.5 30t53.5 10.5z" />
    <glyph glyph-name="uni2080" unicode="&#x2080;" horiz-adv-x="364" 
d="M119 -8q-54 0 -86 31t-32 97q0 40 16 86t44 84t67 63.5t84 25.5q53 0 85 -31t32 -97q0 -41 -16 -86.5t-44 -83.5t-66.5 -63.5t-83.5 -25.5zM122 19q24 0 48 26t42.5 64.5t30.5 83.5t12 83q0 42 -12.5 59t-33.5 17q-24 0 -48 -25t-43 -63.5t-30.5 -85t-11.5 -88.5
q0 -38 12 -54.5t34 -16.5z" />
    <glyph glyph-name="uni2081" unicode="&#x2081;" horiz-adv-x="204" 
d="M-62 21l39 5q10 1 14 10l105 275q3 8 2 12t-9 7l-31 11l5 11l136 27l-131 -340q-4 -13 7 -14l37 -4l-8 -21h-174z" />
    <glyph glyph-name="uni2082" unicode="&#x2082;" horiz-adv-x="306" 
d="M78 119q39 32 63.5 56t38 43.5t18.5 36t5 32.5q0 27 -16 44.5t-39 17.5q-28 0 -39 -16t-11 -34q0 -4 1 -9.5t-1 -12.5q-6 -29 -34 -29q-15 0 -24 8.5t-9 24.5q0 18 9.5 36t26.5 31.5t42 22t56 8.5q59 0 88.5 -24.5t30.5 -59.5q0 -19 -11 -42.5t-49 -53.5l-169 -134
q-3 -3 -2.5 -5.5t4.5 -2.5h89q14 0 24 2t18 7t15.5 14.5t17.5 24.5h20l-43 -105h-269z" />
    <glyph glyph-name="uni2083" unicode="&#x2083;" horiz-adv-x="310" 
d="M79 -7q-28 0 -49 7t-35.5 19t-21.5 27t-7 31q0 21 12 32t26 11t21.5 -9.5t7.5 -23.5q0 -6 -1 -13t-1 -13q0 -15 10 -28t37 -13q20 0 37 8t29 21.5t18.5 31.5t6.5 37q0 32 -22.5 49t-63.5 17h-19l141 121q5 5 6 7t-5 2h-78q-14 0 -23 -1.5t-16.5 -6.5t-15 -14t-17.5 -24
h-20l43 103h253l-169 -139q-9 -7 0 -9q36 -8 59.5 -33t23.5 -60q0 -29 -12.5 -53.5t-35 -43.5t-53 -29.5t-66.5 -10.5z" />
    <glyph glyph-name="uni2084" unicode="&#x2084;" horiz-adv-x="363" 
d="M75 21l28 4q10 1 14 11l25 62h-182l127 121q41 40 60.5 75.5t28.5 76.5h89q-7 -14 -16 -28t-24.5 -31.5t-39.5 -40.5t-60 -54l-69 -60q-4 -3 -3.5 -5.5t5.5 -2.5h104l29 71l94 48l-48 -119q13 0 22.5 2t17 7.5t15 15.5t18.5 26h20l-45 -102h-69l-25 -62q-4 -10 5 -11
l28 -4l-8 -21h-149z" />
    <glyph glyph-name="uni2085" unicode="&#x2085;" horiz-adv-x="304" 
d="M70 -7q-57 0 -83 24t-26 55q0 18 11.5 29.5t25.5 11.5t22 -9t8 -23q0 -7 -1.5 -13.5t-1.5 -13.5q0 -11 10 -22.5t38 -11.5q20 0 37 8t29 21t19 29.5t7 33.5q0 32 -21.5 51t-60.5 19q-18 0 -39 -4t-38 -9l97 202h136q15 0 24.5 1t16.5 4t13 9t14 16h20l-39 -87h-179
l-38 -79q19 4 42 4q58 0 92.5 -27.5t34.5 -75.5q0 -29 -13.5 -54.5t-36.5 -45.5t-54 -31.5t-66 -11.5z" />
    <glyph glyph-name="uni2086" unicode="&#x2086;" horiz-adv-x="341" 
d="M124 -7q-35 0 -59 10.5t-39 27t-22 38t-7 44.5q0 48 19 95.5t50.5 85t72.5 60.5t84 23q53 0 76.5 -22t23.5 -50q0 -20 -12 -31.5t-26 -11.5t-21.5 9.5t-7.5 23.5q0 6 0.5 12.5t0.5 12.5q0 11 -8 21t-30 10q-26 0 -52 -21t-47 -56t-34.5 -81t-13.5 -97q0 -24 4.5 -39
t12 -24t17 -12t18.5 -3q15 0 29 9.5t24.5 25.5t17 36.5t6.5 43.5q0 32 -16.5 47.5t-41.5 15.5q-9 0 -17.5 -2t-19.5 -7v2q17 18 36 28.5t42 10.5q41 0 65 -23t24 -62q0 -34 -13.5 -62t-34.5 -47.5t-47.5 -30t-53.5 -10.5z" />
    <glyph glyph-name="uni2087" unicode="&#x2087;" horiz-adv-x="307" 
d="M8 0q7 27 20 52t33 52t47.5 56.5t64.5 65.5l80 78q3 2 3 4.5t-5 2.5h-119q-15 0 -24.5 -2t-18 -7.5t-16.5 -16t-19 -27.5h-20l47 113h274l-129 -132q-58 -59 -87.5 -115.5t-45.5 -123.5h-85z" />
    <glyph glyph-name="uni2088" unicode="&#x2088;" horiz-adv-x="329" 
d="M-27 81q0 38 28 65t89 33l1 -3q-29 -15 -42 -39t-13 -53q0 -32 18 -50.5t47 -18.5q34 0 56.5 21.5t22.5 52.5q0 14 -7.5 29.5t-27.5 32.5l-44 36q-27 22 -37 41t-10 42q0 21 9.5 40.5t27.5 35t43 24.5t56 9q48 0 79.5 -21t31.5 -51q0 -35 -25.5 -57t-76.5 -25l-1 2
q27 14 36 32t9 38q0 27 -16 43t-42 16t-43.5 -17t-17.5 -44q0 -15 8 -27t30 -29l43 -35q29 -24 39.5 -44t10.5 -42q0 -27 -12.5 -50.5t-34 -40t-50.5 -26t-62 -9.5q-57 0 -90 26t-33 63z" />
    <glyph glyph-name="uni2089" unicode="&#x2089;" horiz-adv-x="341" 
d="M178 377q34 0 58.5 -10.5t39.5 -27t22 -38.5t7 -44q0 -48 -19 -95.5t-50.5 -85t-72.5 -60.5t-84 -23q-53 0 -76.5 22t-23.5 50q0 20 12 31.5t26 11.5t21.5 -9.5t7.5 -23.5q0 -6 -0.5 -12.5t-0.5 -12.5q0 -11 8 -21t30 -10q26 0 52 21t47 56t34.5 81t13.5 97q0 24 -4.5 39
t-12 24t-17 12t-18.5 3q-15 0 -29 -9.5t-24.5 -25.5t-17 -37t-6.5 -43q0 -32 16.5 -47.5t41.5 -15.5q9 0 17.5 2t19.5 7v-2q-17 -18 -36 -28.5t-42 -10.5q-41 0 -65 23t-24 62q0 34 13.5 62t34.5 47.5t47.5 30t53.5 10.5z" />
    <glyph glyph-name="Euro" unicode="&#x20ac;" horiz-adv-x="655" 
d="M46 313h85q3 22 8.5 43t12.5 41h-74l16 38h73q27 61 68 112t90.5 88t105.5 58t113 21q43 0 78 -12t59.5 -31.5t38 -44t13.5 -49.5q0 -28 -14.5 -44.5t-39.5 -16.5q-15 0 -26 9t-15 25q-3 12 -3.5 28t-3.5 29q-6 23 -28 41.5t-68 18.5q-41 0 -81 -17.5t-75.5 -48
t-65.5 -73t-50 -93.5h246l-26 -38h-234q-6 -20 -11 -41t-8 -43h190l-28 -38h-165q-1 -8 -1 -15v-15q1 -91 46.5 -138.5t118.5 -47.5q47 0 100.5 23.5t105.5 75.5l7 -6q-42 -78 -106 -121t-140 -43q-50 0 -92 17.5t-73.5 50t-49.5 79t-18 103.5v18q0 10 1 19h-95z" />
    <glyph glyph-name="trademark" unicode="&#x2122;" horiz-adv-x="879" 
d="M290 393q-5 -15 8 -16l35 -4l-9 -22h-180l9 22l42 5q11 1 16 13l113 283h-34q-15 0 -25.5 -2.5t-21 -11t-24 -25.5t-33.5 -47h-25l45 112h336l-46 -112h-25q5 30 6 47t-2 25.5t-11.5 11t-23.5 2.5h-38zM535 415q-8 -21 -4.5 -29.5t20.5 -10.5l15 -2l-9 -22h-126l9 22
l14 2q21 3 31.5 11.5t18.5 29.5l94 238q4 11 2 14.5t-10 5.5l-29 4l9 22h121l16 -223q0 -5 3 -5.5t6 3.5l195 225h131l-9 -22l-37 -5q-12 -1 -17 -12l-106 -268q-5 -15 8 -16l32 -4l-9 -22h-172l9 22l37 5q12 1 17 13l87 220q2 5 -1 6t-7 -3l-231 -265h-1l-20 263
q-1 5 -4 5.5t-5 -4.5z" />
    <glyph glyph-name="uni2153" unicode="&#x2153;" horiz-adv-x="683" 
d="M71 350l39 5q10 1 14 10l105 275q3 8 2 12t-9 7l-31 11l5 11l136 27l-131 -340q-4 -13 7 -14l37 -4l-8 -21h-174zM590 706h59l-564 -712h-58zM454 -7q-28 0 -49 7t-35.5 19t-21.5 27t-7 31q0 21 12 32t26 11t21.5 -9.5t7.5 -23.5q0 -6 -1 -13t-1 -13q0 -15 10 -28t37 -13
q20 0 37 8t29 21.5t18.5 31.5t6.5 37q0 32 -22.5 49t-63.5 17h-19l141 121q5 5 6 7t-5 2h-78q-14 0 -23 -1.5t-16.5 -6.5t-15 -14t-17.5 -24h-20l43 103h253l-169 -139q-9 -7 0 -9q36 -8 59.5 -33t23.5 -60q0 -29 -12.5 -53.5t-35 -43.5t-53 -29.5t-66.5 -10.5z" />
    <glyph glyph-name="uni2154" unicode="&#x2154;" horiz-adv-x="792" 
d="M211 448q39 32 63.5 56t38 43.5t18.5 36t5 32.5q0 27 -16 44.5t-39 17.5q-28 0 -39 -16t-11 -34q0 -4 1 -9.5t-1 -12.5q-6 -29 -34 -29q-15 0 -24 8.5t-9 24.5q0 18 9.5 36t26.5 31.5t42 22t56 8.5q59 0 88.5 -24.5t30.5 -59.5q0 -19 -11 -42.5t-49 -53.5l-169 -134
q-3 -3 -2.5 -5.5t4.5 -2.5h89q14 0 24 2t18 7t15.5 14.5t17.5 24.5h20l-43 -105h-269zM698 706h59l-564 -712h-58zM563 -7q-28 0 -49 7t-35.5 19t-21.5 27t-7 31q0 21 12 32t26 11t21.5 -9.5t7.5 -23.5q0 -6 -1 -13t-1 -13q0 -15 10 -28t37 -13q20 0 37 8t29 21.5t18.5 31.5
t6.5 37q0 32 -22.5 49t-63.5 17h-19l141 121q5 5 6 7t-5 2h-78q-14 0 -23 -1.5t-16.5 -6.5t-15 -14t-17.5 -24h-20l43 103h253l-169 -139q-9 -7 0 -9q36 -8 59.5 -33t23.5 -60q0 -29 -12.5 -53.5t-35 -43.5t-53 -29.5t-66.5 -10.5z" />
    <glyph glyph-name="uni2155" unicode="&#x2155;" horiz-adv-x="660" 
d="M71 350l39 5q10 1 14 10l105 275q3 8 2 12t-9 7l-31 11l5 11l136 27l-131 -340q-4 -13 7 -14l37 -4l-8 -21h-174zM590 706h59l-564 -712h-58zM425 -7q-57 0 -83 24t-26 55q0 18 11.5 29.5t25.5 11.5t22 -9t8 -23q0 -7 -1.5 -13.5t-1.5 -13.5q0 -11 10 -22.5t38 -11.5
q20 0 37 8t29 21t19 29.5t7 33.5q0 32 -21.5 51t-60.5 19q-18 0 -39 -4t-38 -9l97 202h136q15 0 24.5 1t16.5 4t13 9t14 16h20l-39 -87h-179l-38 -79q19 4 42 4q58 0 92.5 -27.5t34.5 -75.5q0 -29 -13.5 -54.5t-36.5 -45.5t-54 -31.5t-66 -11.5z" />
    <glyph glyph-name="uni2156" unicode="&#x2156;" horiz-adv-x="769" 
d="M211 448q39 32 63.5 56t38 43.5t18.5 36t5 32.5q0 27 -16 44.5t-39 17.5q-28 0 -39 -16t-11 -34q0 -4 1 -9.5t-1 -12.5q-6 -29 -34 -29q-15 0 -24 8.5t-9 24.5q0 18 9.5 36t26.5 31.5t42 22t56 8.5q59 0 88.5 -24.5t30.5 -59.5q0 -19 -11 -42.5t-49 -53.5l-169 -134
q-3 -3 -2.5 -5.5t4.5 -2.5h89q14 0 24 2t18 7t15.5 14.5t17.5 24.5h20l-43 -105h-269zM698 706h59l-564 -712h-58zM534 -7q-57 0 -83 24t-26 55q0 18 11.5 29.5t25.5 11.5t22 -9t8 -23q0 -7 -1.5 -13.5t-1.5 -13.5q0 -11 10 -22.5t38 -11.5q20 0 37 8t29 21t19 29.5t7 33.5
q0 32 -21.5 51t-60.5 19q-18 0 -39 -4t-38 -9l97 202h136q15 0 24.5 1t16.5 4t13 9t14 16h20l-39 -87h-179l-38 -79q19 4 42 4q58 0 92.5 -27.5t34.5 -75.5q0 -29 -13.5 -54.5t-36.5 -45.5t-54 -31.5t-66 -11.5z" />
    <glyph glyph-name="uni2157" unicode="&#x2157;" horiz-adv-x="750" 
d="M212 322q-28 0 -49 7t-35.5 19t-21.5 27t-7 31q0 21 12 32t26 11t21.5 -9.5t7.5 -23.5q0 -6 -1 -13t-1 -13q0 -15 10 -28t37 -13q20 0 37 8t29 21.5t18.5 31.5t6.5 37q0 32 -22.5 49t-63.5 17h-19l141 121q5 5 6 7t-5 2h-78q-14 0 -23 -1.5t-16.5 -6.5t-15 -14t-17.5 -24
h-20l43 103h253l-169 -139q-9 -7 0 -9q36 -8 59.5 -33t23.5 -60q0 -29 -12.5 -53.5t-35 -43.5t-53 -29.5t-66.5 -10.5zM679 706h59l-564 -712h-58zM515 -7q-57 0 -83 24t-26 55q0 18 11.5 29.5t25.5 11.5t22 -9t8 -23q0 -7 -1.5 -13.5t-1.5 -13.5q0 -11 10 -22.5t38 -11.5
q20 0 37 8t29 21t19 29.5t7 33.5q0 32 -21.5 51t-60.5 19q-18 0 -39 -4t-38 -9l97 202h136q15 0 24.5 1t16.5 4t13 9t14 16h20l-39 -87h-179l-38 -79q19 4 42 4q58 0 92.5 -27.5t34.5 -75.5q0 -29 -13.5 -54.5t-36.5 -45.5t-54 -31.5t-66 -11.5z" />
    <glyph glyph-name="uni2158" unicode="&#x2158;" horiz-adv-x="801" 
d="M208 350l28 4q10 1 14 11l25 62h-182l127 121q41 40 60.5 75.5t28.5 76.5h89q-7 -14 -16 -28t-24.5 -31.5t-39.5 -40.5t-60 -54l-69 -60q-4 -3 -3.5 -5.5t5.5 -2.5h104l29 71l94 48l-48 -119q13 0 22.5 2t17 7.5t15 15.5t18.5 26h20l-45 -102h-69l-25 -62q-4 -10 5 -11
l28 -4l-8 -21h-149zM730 706h59l-564 -712h-58zM565 -7q-57 0 -83 24t-26 55q0 18 11.5 29.5t25.5 11.5t22 -9t8 -23q0 -7 -1.5 -13.5t-1.5 -13.5q0 -11 10 -22.5t38 -11.5q20 0 37 8t29 21t19 29.5t7 33.5q0 32 -21.5 51t-60.5 19q-18 0 -39 -4t-38 -9l97 202h136
q15 0 24.5 1t16.5 4t13 9t14 16h20l-39 -87h-179l-38 -79q19 4 42 4q58 0 92.5 -27.5t34.5 -75.5q0 -29 -13.5 -54.5t-36.5 -45.5t-54 -31.5t-66 -11.5z" />
    <glyph glyph-name="uni2159" unicode="&#x2159;" horiz-adv-x="690" 
d="M71 350l39 5q10 1 14 10l105 275q3 8 2 12t-9 7l-31 11l5 11l136 27l-131 -340q-4 -13 7 -14l37 -4l-8 -21h-174zM590 706h59l-564 -712h-58zM475 -7q-35 0 -59 10.5t-39 27t-22 38t-7 44.5q0 48 19 95.5t50.5 85t72.5 60.5t84 23q53 0 76.5 -22t23.5 -50
q0 -20 -12 -31.5t-26 -11.5t-21.5 9.5t-7.5 23.5q0 6 0.5 12.5t0.5 12.5q0 11 -8 21t-30 10q-26 0 -52 -21t-47 -56t-34.5 -81t-13.5 -97q0 -24 4.5 -39t12 -24t17 -12t18.5 -3q15 0 29 9.5t24.5 25.5t17 36.5t6.5 43.5q0 32 -16.5 47.5t-41.5 15.5q-9 0 -17.5 -2t-19.5 -7
v2q17 18 36 28.5t42 10.5q41 0 65 -23t24 -62q0 -34 -13.5 -62t-34.5 -47.5t-47.5 -30t-53.5 -10.5z" />
    <glyph glyph-name="uni215A" unicode="&#x215a;" horiz-adv-x="777" 
d="M203 322q-57 0 -83 24t-26 55q0 18 11.5 29.5t25.5 11.5t22 -9t8 -23q0 -7 -1.5 -13.5t-1.5 -13.5q0 -11 10 -22.5t38 -11.5q20 0 37 8t29 21t19 29.5t7 33.5q0 32 -21.5 51t-60.5 19q-18 0 -39 -4t-38 -9l97 202h136q15 0 24.5 1t16.5 4t13 9t14 16h20l-39 -87h-179
l-38 -79q19 4 42 4q58 0 92.5 -27.5t34.5 -75.5q0 -29 -13.5 -54.5t-36.5 -45.5t-54 -31.5t-66 -11.5zM677 706h59l-564 -712h-58zM562 -7q-35 0 -59 10.5t-39 27t-22 38t-7 44.5q0 48 19 95.5t50.5 85t72.5 60.5t84 23q53 0 76.5 -22t23.5 -50q0 -20 -12 -31.5t-26 -11.5
t-21.5 9.5t-7.5 23.5q0 6 0.5 12.5t0.5 12.5q0 11 -8 21t-30 10q-26 0 -52 -21t-47 -56t-34.5 -81t-13.5 -97q0 -24 4.5 -39t12 -24t17 -12t18.5 -3q15 0 29 9.5t24.5 25.5t17 36.5t6.5 43.5q0 32 -16.5 47.5t-41.5 15.5q-9 0 -17.5 -2t-19.5 -7v2q17 18 36 28.5t42 10.5
q41 0 65 -23t24 -62q0 -34 -13.5 -62t-34.5 -47.5t-47.5 -30t-53.5 -10.5z" />
    <glyph glyph-name="uni215B" unicode="&#x215b;" horiz-adv-x="687" 
d="M71 350l39 5q10 1 14 10l105 275q3 8 2 12t-9 7l-31 11l5 11l136 27l-131 -340q-4 -13 7 -14l37 -4l-8 -21h-174zM590 706h59l-564 -712h-58zM328 81q0 38 28 65t89 33l1 -3q-29 -15 -42 -39t-13 -53q0 -32 18 -50.5t47 -18.5q34 0 56.5 21.5t22.5 52.5q0 14 -7.5 29.5
t-27.5 32.5l-44 36q-27 22 -37 41t-10 42q0 21 9.5 40.5t27.5 35t43 24.5t56 9q48 0 79.5 -21t31.5 -51q0 -35 -25.5 -57t-76.5 -25l-1 2q27 14 36 32t9 38q0 27 -16 43t-42 16t-43.5 -17t-17.5 -44q0 -15 8 -27t30 -29l43 -35q29 -24 39.5 -44t10.5 -42q0 -27 -12.5 -50.5
t-34 -40t-50.5 -26t-62 -9.5q-57 0 -90 26t-33 63z" />
    <glyph glyph-name="uni215C" unicode="&#x215c;" horiz-adv-x="777" 
d="M212 322q-28 0 -49 7t-35.5 19t-21.5 27t-7 31q0 21 12 32t26 11t21.5 -9.5t7.5 -23.5q0 -6 -1 -13t-1 -13q0 -15 10 -28t37 -13q20 0 37 8t29 21.5t18.5 31.5t6.5 37q0 32 -22.5 49t-63.5 17h-19l141 121q5 5 6 7t-5 2h-78q-14 0 -23 -1.5t-16.5 -6.5t-15 -14t-17.5 -24
h-20l43 103h253l-169 -139q-9 -7 0 -9q36 -8 59.5 -33t23.5 -60q0 -29 -12.5 -53.5t-35 -43.5t-53 -29.5t-66.5 -10.5zM679 706h59l-564 -712h-58zM417 81q0 38 28 65t89 33l1 -3q-29 -15 -42 -39t-13 -53q0 -32 18 -50.5t47 -18.5q34 0 56.5 21.5t22.5 52.5q0 14 -7.5 29.5
t-27.5 32.5l-44 36q-27 22 -37 41t-10 42q0 21 9.5 40.5t27.5 35t43 24.5t56 9q48 0 79.5 -21t31.5 -51q0 -35 -25.5 -57t-76.5 -25l-1 2q27 14 36 32t9 38q0 27 -16 43t-42 16t-43.5 -17t-17.5 -44q0 -15 8 -27t30 -29l43 -35q29 -24 39.5 -44t10.5 -42q0 -27 -12.5 -50.5
t-34 -40t-50.5 -26t-62 -9.5q-57 0 -90 26t-33 63z" />
    <glyph glyph-name="uni215D" unicode="&#x215d;" horiz-adv-x="774" 
d="M203 322q-57 0 -83 24t-26 55q0 18 11.5 29.5t25.5 11.5t22 -9t8 -23q0 -7 -1.5 -13.5t-1.5 -13.5q0 -11 10 -22.5t38 -11.5q20 0 37 8t29 21t19 29.5t7 33.5q0 32 -21.5 51t-60.5 19q-18 0 -39 -4t-38 -9l97 202h136q15 0 24.5 1t16.5 4t13 9t14 16h20l-39 -87h-179
l-38 -79q19 4 42 4q58 0 92.5 -27.5t34.5 -75.5q0 -29 -13.5 -54.5t-36.5 -45.5t-54 -31.5t-66 -11.5zM677 706h59l-564 -712h-58zM415 81q0 38 28 65t89 33l1 -3q-29 -15 -42 -39t-13 -53q0 -32 18 -50.5t47 -18.5q34 0 56.5 21.5t22.5 52.5q0 14 -7.5 29.5t-27.5 32.5
l-44 36q-27 22 -37 41t-10 42q0 21 9.5 40.5t27.5 35t43 24.5t56 9q48 0 79.5 -21t31.5 -51q0 -35 -25.5 -57t-76.5 -25l-1 2q27 14 36 32t9 38q0 27 -16 43t-42 16t-43.5 -17t-17.5 -44q0 -15 8 -27t30 -29l43 -35q29 -24 39.5 -44t10.5 -42q0 -27 -12.5 -50.5t-34 -40
t-50.5 -26t-62 -9.5q-57 0 -90 26t-33 63z" />
    <glyph glyph-name="uni215E" unicode="&#x215e;" horiz-adv-x="718" 
d="M141 329q7 27 20 52t33 52t47.5 56.5t64.5 65.5l80 78q3 2 3 4.5t-5 2.5h-119q-15 0 -24.5 -2t-18 -7.5t-16.5 -16t-19 -27.5h-20l47 113h274l-129 -132q-58 -59 -87.5 -115.5t-45.5 -123.5h-85zM621 706h59l-564 -712h-58zM359 81q0 38 28 65t89 33l1 -3
q-29 -15 -42 -39t-13 -53q0 -32 18 -50.5t47 -18.5q34 0 56.5 21.5t22.5 52.5q0 14 -7.5 29.5t-27.5 32.5l-44 36q-27 22 -37 41t-10 42q0 21 9.5 40.5t27.5 35t43 24.5t56 9q48 0 79.5 -21t31.5 -51q0 -35 -25.5 -57t-76.5 -25l-1 2q27 14 36 32t9 38q0 27 -16 43t-42 16
t-43.5 -17t-17.5 -44q0 -15 8 -27t30 -29l43 -35q29 -24 39.5 -44t10.5 -42q0 -27 -12.5 -50.5t-34 -40t-50.5 -26t-62 -9.5q-57 0 -90 26t-33 63z" />
    <glyph glyph-name="uni215F" unicode="&#x215f;" horiz-adv-x="305" 
d="M71 350l39 5q10 1 14 10l105 275q3 8 2 12t-9 7l-31 11l5 11l136 27l-131 -340q-4 -13 7 -14l37 -4l-8 -21h-174zM590 706h59l-564 -712h-58z" />
    <glyph glyph-name="uni2190" unicode="&#x2190;" horiz-adv-x="804" 
d="M794 301l-566 27l161 -250l-9 -7l-296 279l296 279l9 -7l-161 -250l566 27v-98z" />
    <glyph glyph-name="uni2191" unicode="&#x2191;" horiz-adv-x="810" 
d="M417 0l27 574l-250 -161l-7 9l279 296l279 -296l-7 -9l-250 161l27 -574h-98z" />
    <glyph glyph-name="uni2192" unicode="&#x2192;" horiz-adv-x="804" 
d="M643 372l-161 250l9 7l296 -279l-296 -279l-9 7l161 250l-566 -27v98z" />
    <glyph glyph-name="uni2193" unicode="&#x2193;" horiz-adv-x="810" 
d="M458 126l250 161l7 -9l-279 -296l-279 296l7 9l250 -161l-27 574h98z" />
    <glyph glyph-name="uni2196" unicode="&#x2196;" horiz-adv-x="810" 
d="M320 583l-62 -289l-12 2l-12 406l406 -12l2 -12l-289 -63l418 -380l-70 -70z" />
    <glyph glyph-name="uni2197" unicode="&#x2197;" horiz-adv-x="809" 
d="M150 235l418 380l-289 63l2 12l406 12l-12 -406l-12 -2l-62 289l-381 -418z" />
    <glyph glyph-name="uni2198" unicode="&#x2198;" horiz-adv-x="810" 
d="M701 465l-418 -380l289 -63l-2 -12l-406 -12l12 406l12 2l62 -289l381 418z" />
    <glyph glyph-name="uni2199" unicode="&#x2199;" horiz-adv-x="810" 
d="M591 117l62 289l12 -2l12 -406l-406 12l-2 12l289 63l-418 380l70 70z" />
    <glyph glyph-name="minus" unicode="&#x2212;" horiz-adv-x="556" 
d="M109 386h465l-18 -46h-465z" />
    <glyph glyph-name="approxequal" unicode="&#x2248;" horiz-adv-x="556" 
d="M124 428q25 35 44.5 59t37 38.5t34.5 20.5t35 6q31 0 55 -15t61 -49q18 -16 30 -26.5t21.5 -17t17.5 -9t17 -2.5t19 4.5t23.5 16t32 31t44.5 48.5l28 -24q-25 -35 -45 -59t-37.5 -38.5t-34.5 -20.5t-35 -6q-31 0 -55 15t-61 49q-18 16 -30 26.5t-21.5 17t-17.5 9t-17 2.5
t-19.5 -4.5t-24 -16t-31.5 -31t-44 -48.5zM41 218q25 35 44.5 59t37 38.5t34.5 20.5t35 6q31 0 55 -15t61 -49q18 -16 30 -26.5t21.5 -17t17.5 -9t17 -2.5t19 4.5t23.5 16t32 31t44.5 48.5l28 -24q-25 -35 -45 -59t-37.5 -38.5t-34.5 -20.5t-35 -6q-31 0 -55 15.5t-61 48.5
q-18 16 -30 26.5t-21.5 17t-17.5 9t-17 2.5t-19.5 -4.5t-24 -16t-31.5 -30.5t-44 -48z" />
    <glyph glyph-name="notequal" unicode="&#x2260;" horiz-adv-x="556" 
d="M180 235h-125l19 46h149l155 164h-238l19 46h262l109 116h64l-109 -116h125l-19 -46h-150l-154 -164h238l-19 -46h-263l-109 -116h-63z" />
    <glyph glyph-name="lessequal" unicode="&#x2264;" horiz-adv-x="556" 
d="M468 142l-381 222l560 223l-22 -59l-433 -169l295 -171zM-22 46h452l-19 -46h-452z" />
    <glyph glyph-name="greaterequal" unicode="&#x2265;" horiz-adv-x="556" 
d="M197 587l381 -223l-561 -222l23 58l432 169l-294 171zM-22 46h452l-19 -46h-452z" />
    <glyph glyph-name="uni25A0" unicode="&#x25a0;" horiz-adv-x="884" 
d="M843 0h-700v700h700v-700z" />
    <glyph glyph-name="uni25A1" unicode="&#x25a1;" horiz-adv-x="884" 
d="M843 0h-700v700h700v-700zM198 644v-588h589v588h-589z" />
    <glyph glyph-name="uni25AA" unicode="&#x25aa;" horiz-adv-x="708" 
d="M138 534h534v-534h-534v534z" />
    <glyph glyph-name="uni25AB" unicode="&#x25ab;" horiz-adv-x="708" 
d="M138 534h534v-534h-534v534zM189 51h432v432h-432v-432z" />
    <glyph glyph-name="triagup" unicode="&#x25b2;" horiz-adv-x="750" 
d="M-27 0l350 606l349 -606h-699z" />
    <glyph glyph-name="triagrt" unicode="&#x25ba;" horiz-adv-x="750" 
d="M157 699l605 -349l-605 -350v699z" />
    <glyph glyph-name="triagdn" unicode="&#x25bc;" horiz-adv-x="750" 
d="M832 700l-349 -606l-350 606h699z" />
    <glyph glyph-name="triaglf" unicode="&#x25c4;" horiz-adv-x="750" 
d="M673 0l-605 350l605 349v-699z" />
    <glyph glyph-name="uni25CB" unicode="&#x25cb;" horiz-adv-x="833" 
d="M827 351q0 -74 -28.5 -139.5t-77 -114.5t-114 -77.5t-139.5 -28.5t-139.5 28.5t-114.5 77.5t-77.5 114.5t-28.5 139.5t28.5 139.5t77.5 114t114.5 77t139.5 28.5t139.5 -28.5t114 -77t77 -114t28.5 -139.5zM163 351q0 -63 24 -118t65.5 -96.5t97 -65.5t118.5 -24
q62 0 116.5 24t95.5 65t65 96t24 117q0 63 -24 118.5t-65 97t-95.5 65.5t-116.5 24q-63 0 -118.5 -24t-97 -65.5t-65.5 -96.5t-24 -117z" />
    <glyph glyph-name="uni25CF" unicode="&#x25cf;" horiz-adv-x="833" 
d="M827 351q0 -74 -28.5 -139.5t-77 -114.5t-114 -77.5t-139.5 -28.5t-139.5 28.5t-114.5 77.5t-77.5 114.5t-28.5 139.5t28.5 139.5t77.5 114t114.5 77t139.5 28.5t139.5 -28.5t114 -77t77 -114t28.5 -139.5z" />
    <glyph glyph-name="uni25E2" unicode="&#x25e2;" horiz-adv-x="700" 
d="M467 676l181 -676l-676 181z" />
    <glyph glyph-name="uni25E3" unicode="&#x25e3;" horiz-adv-x="700" 
d="M688 181l-676 -181l181 676z" />
    <glyph glyph-name="uni25E4" unicode="&#x25e4;" horiz-adv-x="700" 
d="M301 25l-181 676l676 -181z" />
    <glyph glyph-name="uni25E5" unicode="&#x25e5;" horiz-adv-x="700" 
d="M88 520l676 181l-181 -676z" />
    <glyph glyph-name="s_t" unicode="&#xfb06;" horiz-adv-x="711" 
d="M136 -12q-31 0 -56.5 8t-43.5 21.5t-28 32t-10 38.5q0 19 12 31.5t29 12.5t27.5 -9.5t16.5 -34.5q8 -35 21 -50.5t39 -15.5q31 0 52.5 23t21.5 59q0 22 -6.5 39t-25.5 40l-43 52q-25 30 -37 54.5t-12 54.5q0 28 10.5 52t29.5 42t44.5 28t55.5 10q17 0 32 -3q-3 15 -3 31
q0 51 19.5 93t51.5 72t73 46.5t85 16.5q39 0 71.5 -9.5t56.5 -28t37.5 -45.5t13.5 -62q0 -22 -4.5 -48t-18.5 -58l-7 -17l137 1l-20 -50l-137 1l-122 -289q-16 -38 -7 -58.5t33 -20.5q26 0 57.5 16t76.5 56l4 -3q-42 -69 -87 -99t-89 -30q-28 0 -48 10.5t-30.5 30t-10 47
t14.5 61.5l118 280h-71l6 14q21 12 42 25t42 27q34 22 49 53t15 54q0 22 -9.5 40t-26 30.5t-39 19.5t-47.5 7q-39 0 -72 -15t-57 -40.5t-37 -61t-13 -75.5q0 -27 7 -42q23 -14 36.5 -35t13.5 -44q0 -18 -10.5 -30t-29.5 -12q-16 0 -27 10.5t-17 34.5q-8 33 -22 49t-40 16
t-43 -17.5t-17 -44.5q0 -20 10.5 -36.5t30.5 -40.5l42 -51q26 -32 38.5 -58t12.5 -54q0 -34 -12 -62t-34 -48t-51.5 -31t-63.5 -11z" />
    <glyph glyph-name="idotaccent" horiz-adv-x="296" 
d="M124 71q-6 -13 7 -13t42.5 14.5t87.5 58.5l4 -3q-51 -73 -97 -106.5t-94 -33.5q-35 0 -46 18.5t2 49.5l148 348q-59 -8 -133 -52l-3 4q51 57 106 86t118 29h8q10 0 13 -5t0 -13zM282 529q-23 0 -37 15t-14 35q0 28 18 46t44 18q23 0 37 -14.5t14 -35.5q0 -27 -18 -45.5
t-44 -18.5z" />
    <glyph glyph-name="cordinal" horiz-adv-x="300" 
d="M334 678q-18 0 -39 -21.5t-39.5 -53t-30.5 -68.5t-12 -67t13.5 -45t36.5 -15t50.5 17t62.5 58l5 -2q-45 -125 -142 -125q-44 0 -72 27.5t-28 78.5q0 43 17.5 87t47 80t66.5 58.5t76 22.5q38 0 63 -19t25 -47q0 -19 -10.5 -30.5t-27.5 -11.5q-33 0 -37 42q-2 19 -8 26.5
t-17 7.5z" />
    <glyph glyph-name="T_h" horiz-adv-x="1110" 
d="M560 0l227 572q8 27 6.5 43.5t-11 26t-27 12.5t-40.5 3h-162l-232 -593q-8 -23 12 -24l85 -8l-13 -32h-319l13 32l88 9q17 1 24 19l234 597h-109q-27 0 -45 -4t-34.5 -20t-37.5 -48t-54 -89h-37l79 204h645l89 36l-189 -477q43 60 79 101.5t67.5 67.5t60 37.5t56.5 11.5
q43 0 59.5 -32.5t-8.5 -85.5l-134 -288q-6 -13 7 -13t42.5 14.5t87.5 58.5l4 -3q-51 -73 -97.5 -106.5t-96.5 -33.5q-35 0 -47 18.5t1 46.5l144 306q11 24 6 35.5t-23 11.5q-15 0 -33 -9t-45 -33t-65.5 -67t-93.5 -111l-74 -186h-89z" />
    <glyph glyph-name="W_h" horiz-adv-x="1576" 
d="M635 -8l17 499q0 7 -3.5 8t-8.5 -5l-400 -502h-59l50 638q2 16 -2.5 23t-18.5 9l-33 7l13 31h253l-13 -31l-48 -8q-29 -5 -38.5 -14t-11.5 -37l-36 -454q-1 -7 2.5 -8t8.5 5l446 557h5l-17 -558q0 -7 3.5 -8t8.5 5l337 450q43 58 -8 65l-31 5l13 31h219l123 35l-189 -477
q43 60 79 101.5t67.5 68t60.5 38t57 11.5q43 0 59.5 -32.5t-8.5 -85.5l-134 -288q-6 -13 7 -13t42.5 14.5t87.5 58.5l4 -3q-51 -73 -97.5 -106.5t-96.5 -33.5q-35 0 -47 18.5t1 46.5l144 306q11 24 6 35.5t-23 11.5q-15 0 -33 -9t-45.5 -33t-66 -67t-93.5 -112l-73 -185h-89
l251 630q13 35 -10 35h-28q-24 0 -42 -14.5t-35 -37.5l-468 -621h-59z" />
    <glyph glyph-name="c_h" horiz-adv-x="935" 
d="M279 437q-27 0 -56.5 -29t-54.5 -73t-41.5 -97.5t-16.5 -102.5q0 -43 21 -65t54 -22q15 0 31 5.5t34.5 18t40.5 34t49 54.5l5 -2q-35 -85 -86 -128.5t-113 -43.5q-57 0 -92.5 36t-35.5 105q0 60 23 122t61 112.5t87.5 82t102.5 31.5h10q4 0 9 -1q-2 10 -3 20t-1 20
q0 46 18.5 84.5t49.5 66.5t70.5 43t81.5 15q61 0 101 -26l142 49l-193 -487q43 60 79 101.5t67.5 67.5t60 37.5t56.5 11.5q43 0 59.5 -32.5t-8.5 -85.5l-134 -288q-6 -13 7 -13t42.5 14.5t87.5 58.5l4 -3q-51 -73 -97.5 -106.5t-96.5 -33.5q-35 0 -47 18.5t1 46.5l144 306
q11 24 6 35.5t-23 11.5q-15 0 -33 -9t-45 -33t-65.5 -67t-93.5 -111l-74 -186h-89l238 599q2 5 2 9v9q0 29 -27.5 45t-70.5 16q-37 0 -68 -13.5t-53.5 -37t-35 -55.5t-12.5 -68q0 -14 1.5 -26.5t6.5 -22.5q20 -13 31 -31t11 -38q0 -21 -12 -36.5t-35 -15.5q-17 0 -31.5 13.5
t-17.5 46.5q-2 23 -10.5 33t-22.5 10z" />
    </font>
</defs>
</svg>
