<?xml version="1.0" standalone="no"?>
<!DOCTYPE svg PUBLIC "-//W3C//DTD SVG 1.1//EN" "http://www.w3.org/Graphics/SVG/1.1/DTD/svg11.dtd" >
<svg xmlns="http://www.w3.org/2000/svg" xmlns:xlink="http://www.w3.org/1999/xlink" version="1.1">
<metadata>
Created by FontForge 20190801 at Wed Feb  7 19:57:38 2018
 By www-data
(c) 2018 MCKL, Inc. All rights reserved.
</metadata>
<defs>
<font id="ogilvyserifregular" horiz-adv-x="810" >
  <font-face 
    font-family="ogilvyserifregular"
    font-weight="400"
    font-stretch="normal"
    units-per-em="1000"
    panose-1="2 2 5 3 6 4 3 6 1 3"
    ascent="800"
    descent="-200"
    x-height="463"
    cap-height="700"
    bbox="-214 -267 1585 970"
    underline-thickness="50"
    underline-position="-125"
    unicode-range="U+000D-FB06"
  />
<missing-glyph horiz-adv-x="514" 
d="M59 750h394v-850h-394v850z" />
    <glyph glyph-name="fi" unicode="fi" horiz-adv-x="575" 
d="M30 30l49 6q10 2 13 6.5t3 13.5v359h-79v16l79 29v61q0 112 49.5 167t128.5 55q30 0 55.5 -8t44.5 -21t29.5 -30.5t10.5 -36.5q0 -17 -9.5 -27.5t-25.5 -10.5q-15 0 -25.5 9t-21.5 31q-17 30 -36 43.5t-45 13.5q-38 0 -62.5 -27.5t-24.5 -70.5q0 -38 11.5 -72.5
t14.5 -71.5l167 1q38 0 67.5 2.5t58.5 9.5v-421q0 -9 3 -13.5t13 -6.5l50 -6v-30h-224v30l48 6q10 2 13 6.5t3 13.5v337q0 20 -20 20l-179 1v-358q0 -9 3 -13.5t13 -6.5l48 -6v-30h-223v30z" />
    <glyph glyph-name="fl" unicode="fl" horiz-adv-x="575" 
d="M16 431l79 29v49q0 54 14.5 97.5t40.5 74t61.5 47t77.5 16.5q41 0 75 -15.5t57 -42.5l61 60v-690q0 -9 3 -13.5t13 -6.5l50 -6v-30h-224v30l48 6q10 2 13 6.5t3 13.5v357l-199 1v-358q0 -9 3 -13.5t13 -6.5l48 -6v-30h-223v30l49 6q10 2 13 6.5t3 13.5v359h-79v16z
M175 591q0 -29 5 -61t8 -67l200 2v131q0 51 -28.5 80t-73.5 29q-51 0 -81 -31t-30 -83z" />
    <glyph glyph-name="f_b" unicode="fb" horiz-adv-x="873" 
d="M609 -12q-36 0 -60.5 8t-41.5 18t-27.5 18t-16.5 8q-3 0 -6 -1t-10.5 -6t-21 -15t-37.5 -28v423l-199 1v-358q0 -10 3 -14.5t13 -5.5l60 -6v-30h-235v30l49 6q10 2 13 6.5t3 13.5v359h-79v16l79 29v49q0 54 14.5 97.5t40.5 74t61.5 47t77.5 16.5q41 0 75 -15.5t57 -42.5
l61 60v-357q25 40 66 63t88 23q42 0 79 -16.5t64.5 -47t43 -74t15.5 -98.5q0 -56 -18 -102.5t-49 -79.5t-72.5 -51t-89.5 -18zM175 591q0 -29 5 -61t8 -67l200 2v131q0 51 -28.5 80t-73.5 29q-51 0 -81 -31t-30 -83zM602 417q-74 0 -120 -62v-265q47 -56 118 -56
q31 0 58 13.5t46 39t30 62t11 81.5q0 43 -11.5 78t-31 59t-45.5 37t-55 13z" />
    <glyph glyph-name="f_f_b" unicode="ffb" horiz-adv-x="1166" 
d="M30 0v30l49 6q10 2 13 6.5t3 13.5v359h-79v16l79 29v61q0 56 13.5 97.5t38 69.5t58.5 41.5t75 13.5q27 0 51 -7t43 -19t32 -28.5t17 -35.5q26 44 67 67.5t92 23.5q41 0 75 -15.5t57 -42.5l61 60v-357q25 40 66 63t88 23q42 0 79 -16.5t64.5 -47t43 -74t15.5 -98.5
q0 -56 -18 -102.5t-49 -79.5t-72.5 -51t-89.5 -18q-36 0 -60.5 8t-41.5 18t-27.5 18t-16.5 8q-3 0 -6 -1t-10.5 -6t-21 -15t-37.5 -28v423l-199 1v-358q0 -10 3 -14.5t13 -5.5l60 -6v-30h-234v30l48 6q10 2 13 6.5t3 13.5v358h-199v-358q0 -9 3 -13.5t13 -6.5l48 -6v-30
h-223zM468 591q0 -29 5 -60.5t8 -66.5l200 1v131q0 51 -28.5 80t-73.5 29q-51 0 -81 -31t-30 -83zM164 607q0 -37 11 -72t14 -72l199 1v45q0 49 12 88q-14 2 -25 11.5t-22 29.5q-18 35 -41 51.5t-55 16.5q-42 0 -67.5 -28t-25.5 -71zM895 417q-74 0 -120 -62v-265
q47 -56 118 -56q31 0 58 13.5t46 39t30 62t11 81.5q0 43 -11.5 78t-31 59t-45.5 37t-55 13z" />
    <glyph glyph-name="f_f" unicode="ff" horiz-adv-x="609" 
d="M30 0v30l49 6q10 2 13 6.5t3 13.5v359h-79v16l79 29v61q0 56 13.5 97.5t38 69.5t58.5 41.5t75 13.5q47 0 84 -20t53 -51q40 71 119 71q26 0 48.5 -7t39 -19t26 -27.5t9.5 -32.5q0 -16 -9.5 -26.5t-25.5 -10.5t-26 9t-21 30q-13 24 -28 34.5t-37 10.5q-25 0 -42 -17.5
t-17 -46.5q0 -23 4.5 -44t10 -42t10 -42t4.5 -43v-4h110v-52h-110v-357q0 -10 3 -14.5t13 -5.5l60 -6v-30h-234v30l48 6q10 2 13 6.5t3 13.5v358h-199v-358q0 -9 3 -13.5t13 -6.5l48 -6v-30h-223zM163 607q0 -37 11.5 -72t14.5 -72l199 1v77q0 16 1 30t3 27q-20 6 -39 40
q-35 68 -97 68q-42 0 -67.5 -28t-25.5 -71z" />
    <glyph glyph-name="f_h" unicode="fh" horiz-adv-x="862" 
d="M16 431l79 29v49q0 54 14.5 97.5t40.5 74t61.5 47t77.5 16.5q41 0 75 -15.5t57 -42.5l61 60v-351q24 39 61 59.5t83 20.5q66 0 107.5 -40t41.5 -113v-266q0 -9 3 -13.5t13 -6.5l49 -6v-30h-223v30l48 6q10 2 13 6.5t3 13.5v259q0 54 -25 80.5t-66 26.5q-68 0 -108 -60
v-306q0 -9 3 -13.5t13 -6.5l48 -6v-30h-222v30l48 6q10 2 13 6.5t3 13.5v357l-199 1v-358q0 -9 3 -13.5t13 -6.5l48 -6v-30h-223v30l49 6q10 2 13 6.5t3 13.5v359h-79v16zM388 596q0 51 -28.5 80t-73.5 29q-51 0 -81 -31t-30 -83q0 -29 5 -61t8 -67l200 2v131z" />
    <glyph glyph-name="f_f_h" unicode="ffh" horiz-adv-x="1155" 
d="M30 0v30l49 6q10 2 13 6.5t3 13.5v359h-79v16l79 29v61q0 56 13.5 97.5t38 69.5t58.5 41.5t75 13.5q27 0 51 -7t43 -19t32 -28.5t17 -35.5q26 44 67 67.5t92 23.5q41 0 75 -15.5t57 -42.5l61 60v-351q24 39 61 59.5t83 20.5q66 0 107.5 -40t41.5 -113v-266q0 -9 3 -13.5
t13 -6.5l49 -6v-30h-223v30l48 6q10 2 13 6.5t3 13.5v259q0 54 -25 80.5t-66 26.5q-68 0 -108 -60v-306q0 -9 3 -13.5t13 -6.5l48 -6v-30h-222v30l48 6q10 2 13 6.5t3 13.5v357l-199 1v-358q0 -9 3 -13.5t13 -6.5l48 -6v-30h-222v30l48 6q10 2 13 6.5t3 13.5v358h-199v-358
q0 -9 3 -13.5t13 -6.5l48 -6v-30h-223zM468 591q0 -29 5 -60.5t8 -66.5l200 1v131q0 51 -28.5 80t-73.5 29q-51 0 -81 -31t-30 -83zM163 607q0 -37 11.5 -72t14.5 -72l199 1v45q0 49 12 88q-14 2 -25 11.5t-22 29.5q-35 68 -97 68q-42 0 -67.5 -28t-25.5 -71z" />
    <glyph glyph-name="f_f_i" unicode="ffi" horiz-adv-x="868" 
d="M30 30l49 6q10 2 13 6.5t3 13.5v359h-79v16l79 29v61q0 56 13.5 97.5t38 69.5t58.5 41.5t75 13.5q50 0 89 -22.5t51 -57.5q23 41 60.5 60.5t85.5 19.5q30 0 55.5 -8t44.5 -21t29.5 -30.5t10.5 -36.5q0 -17 -9.5 -27.5t-26.5 -10.5q-14 0 -24.5 9t-21.5 31
q-17 30 -36 43.5t-45 13.5q-38 0 -62.5 -27.5t-24.5 -70.5q0 -18 3.5 -36t8 -36t8.5 -36t5 -36l168 1q38 0 67.5 2.5t58.5 9.5v-421q0 -9 3 -13.5t13 -6.5l49 -6v-30h-223v30l48 6q10 2 13 6.5t3 13.5v337q0 20 -20 20l-179 1v-358q0 -9 3 -13.5t13 -6.5l48 -6v-30h-222v30
l48 6q10 2 13 6.5t3 13.5v358h-199v-358q0 -9 3 -13.5t13 -6.5l48 -6v-30h-223v30zM163 607q0 -37 11.5 -72t14.5 -72l199 1v57q0 40 8 77q-22 3 -43 40q-35 68 -97 68q-42 0 -67.5 -28t-25.5 -71z" />
    <glyph glyph-name="f_dotlessi" unicode="f&#x131;" horiz-adv-x="574" 
d="M30 30l49 6q10 2 13 6.5t3 13.5v359h-79v16l79 29v61q0 112 49.5 167t128.5 55q30 0 55.5 -8t44.5 -21t29.5 -30.5t10.5 -36.5q0 -17 -9.5 -27.5t-25.5 -10.5q-15 0 -25.5 9t-21.5 31q-17 30 -36 43.5t-45 13.5q-38 0 -62.5 -27.5t-24.5 -70.5q0 -38 11.5 -72.5
t14.5 -71.5l167 1q38 0 67.5 2.5t58.5 9.5v-421q0 -9 3 -13.5t13 -6.5l50 -6v-30h-224v30l48 6q10 2 13 6.5t3 13.5v337q0 20 -20 20l-179 1v-358q0 -9 3 -13.5t13 -6.5l48 -6v-30h-223v30z" />
    <glyph glyph-name="f_j" unicode="fj" horiz-adv-x="563" 
d="M30 30l49 6q10 2 13 6.5t3 13.5v359h-79v16l79 29v61q0 112 49.5 167t128.5 55q30 0 55.5 -8t44.5 -21t29.5 -30.5t10.5 -36.5q0 -17 -9.5 -27.5t-25.5 -10.5q-15 0 -25.5 9t-21.5 31q-17 30 -36 43.5t-45 13.5q-38 0 -62.5 -27.5t-24.5 -70.5q0 -38 11.5 -72.5
t14.5 -72.5l167 2q38 0 67.5 2.5t58.5 9.5v-542q0 -38 -10 -67t-27 -49t-40 -30.5t-49 -10.5q-39 0 -66 21t-27 49q0 17 11.5 29t28.5 12t27.5 -10t19.5 -28q17 -35 39 -35q25 0 25 31q0 18 -4 40.5t-9 48t-9 54.5t-4 62v341q0 20 -20 20l-179 1v-358q0 -10 3 -14.5t13 -5.5
l60 -6v-30h-235v30z" />
    <glyph glyph-name="f_f_j" unicode="ffj" horiz-adv-x="856" 
d="M30 30l49 6q10 2 13 6.5t3 13.5v359h-79v16l79 29v61q0 56 13.5 97.5t38 69.5t58.5 41.5t75 13.5q50 0 89 -22.5t51 -57.5q23 41 60.5 60.5t85.5 19.5q30 0 55.5 -8t44.5 -21t29.5 -30.5t10.5 -36.5q0 -17 -9.5 -27.5t-26.5 -10.5q-14 0 -24.5 9t-21.5 31
q-17 30 -36 43.5t-45 13.5q-38 0 -62.5 -27.5t-24.5 -70.5q0 -18 3.5 -36t8 -36t8.5 -36t5 -36l168 1q38 0 67.5 2.5t58.5 9.5v-542q0 -38 -10 -67t-27 -49t-40 -30.5t-49 -10.5q-39 0 -66 21t-27 49q0 17 11.5 29t28.5 12t27.5 -10t19.5 -28q17 -35 39 -35q25 0 25 31
q0 18 -4 40.5t-9 48t-9 54.5t-4 62v341q0 20 -20 20l-179 1v-358q0 -10 3 -14.5t13 -5.5l60 -6v-30h-234v30l48 6q10 2 13 6.5t3 13.5v358h-199v-358q0 -9 3 -13.5t13 -6.5l48 -6v-30h-223v30zM163 607q0 -37 11.5 -72t14.5 -72l199 1v57q0 40 8 77q-22 3 -43 40
q-35 68 -97 68q-42 0 -67.5 -28t-25.5 -71z" />
    <glyph glyph-name="f_k" unicode="fk" horiz-adv-x="829" 
d="M16 431l79 29v49q0 54 14.5 97.5t40.5 74t61.5 47t77.5 16.5q41 0 75 -15.5t57 -42.5l61 60v-489l175 145q24 21 -6 27l-25 4v30h183v-30l-24 -4q-25 -5 -41.5 -13.5t-39.5 -27.5l-150 -123l193 -198q17 -17 30.5 -24.5t32.5 -10.5l14 -2v-30h-141l-201 226v-170
q0 -9 3 -13.5t13 -6.5l50 -6v-30h-224v30l48 6q10 2 13 6.5t3 13.5v357l-199 1v-358q0 -9 3 -13.5t13 -6.5l48 -6v-30h-223v30l49 6q10 2 13 6.5t3 13.5v359h-79v16zM388 596q0 51 -28.5 80t-73.5 29q-51 0 -81 -31t-30 -83q0 -29 5 -61t8 -67l200 2v131z" />
    <glyph glyph-name="f_f_k" unicode="ffk" horiz-adv-x="1122" 
d="M30 0v30l49 6q10 2 13 6.5t3 13.5v359h-79v16l79 29v61q0 56 13.5 97.5t38 69.5t58.5 41.5t75 13.5q27 0 51 -7t43 -19t32 -28.5t17 -35.5q26 44 67 67.5t92 23.5q41 0 75 -15.5t57 -42.5l61 60v-489l175 145q24 21 -6 27l-25 4v30h183v-30l-24 -4q-25 -5 -41.5 -13.5
t-39.5 -27.5l-150 -123l193 -198q17 -17 30.5 -24.5t32.5 -10.5l14 -2v-30h-141l-201 226v-170q0 -9 3 -13.5t13 -6.5l49 -6v-30h-223v30l48 6q10 2 13 6.5t3 13.5v357l-199 1v-358q0 -9 3 -13.5t13 -6.5l48 -6v-30h-222v30l48 6q10 2 13 6.5t3 13.5v358h-199v-358
q0 -9 3 -13.5t13 -6.5l48 -6v-30h-223zM468 591q0 -29 5 -60.5t8 -66.5l200 1v131q0 51 -28.5 80t-73.5 29q-51 0 -81 -31t-30 -83zM163 607q0 -37 11.5 -72t14.5 -72l199 1v45q0 49 12 88q-14 2 -25 11.5t-22 29.5q-35 68 -97 68q-42 0 -67.5 -28t-25.5 -71z" />
    <glyph glyph-name="f_f_l" unicode="ffl" horiz-adv-x="868" 
d="M30 0v30l49 6q10 2 13 6.5t3 13.5v359h-79v16l79 29v61q0 56 13.5 97.5t38 69.5t58.5 41.5t75 13.5q27 0 51 -7t43 -19t32 -28.5t17 -35.5q26 44 67 67.5t92 23.5q41 0 75 -15.5t57 -42.5l61 60v-690q0 -9 3 -13.5t13 -6.5l49 -6v-30h-223v30l48 6q10 2 13 6.5t3 13.5
v357l-199 1v-358q0 -9 3 -13.5t13 -6.5l48 -6v-30h-222v30l48 6q10 2 13 6.5t3 13.5v358h-199v-358q0 -9 3 -13.5t13 -6.5l48 -6v-30h-223zM468 591q0 -29 5 -60.5t8 -66.5l200 1v131q0 51 -28.5 80t-73.5 29q-51 0 -81 -31t-30 -83zM163 607q0 -37 11.5 -72t14.5 -72l199 1
v45q0 49 12 88q-14 2 -25 11.5t-22 29.5q-35 68 -97 68q-42 0 -67.5 -28t-25.5 -71z" />
    <glyph glyph-name=".notdef" horiz-adv-x="514" 
d="M59 750h394v-850h-394v850z" />
    <glyph glyph-name=".null" horiz-adv-x="0" 
 />
    <glyph glyph-name="nonmarkingreturn" horiz-adv-x="333" 
 />
    <glyph glyph-name="NULL" horiz-adv-x="211" 
 />
    <glyph glyph-name="NULL" horiz-adv-x="211" 
 />
    <glyph glyph-name="CR" unicode="&#xd;" horiz-adv-x="211" 
 />
    <glyph glyph-name="space" unicode=" " horiz-adv-x="211" 
 />
    <glyph glyph-name="exclam" unicode="!" horiz-adv-x="252" 
d="M108 190q-2 72 -9 138.5t-15.5 124t-15 104.5t-6.5 80q0 36 17 56.5t46 20.5t46 -20.5t17 -56.5q0 -33 -6.5 -80t-15 -104.5t-16 -124t-9.5 -138.5h-33zM125 -8q-25 0 -42 17t-17 43q0 24 17 41.5t42 17.5t42 -17.5t17 -41.5q0 -26 -17 -43t-42 -17z" />
    <glyph glyph-name="quotedbl" unicode="&#x22;" horiz-adv-x="391" 
d="M109 740q25 0 39 -15t14 -41q0 -12 -2.5 -28.5t-8 -43t-15 -65t-23.5 -94.5h-8q-14 56 -23.5 94.5t-15 65t-8 43t-2.5 28.5q0 26 14 41t39 15zM280 740q25 0 39 -15t14 -41q0 -12 -2.5 -28.5t-8 -43t-15 -65t-23.5 -94.5h-8q-14 56 -23.5 94.5t-15 65t-8 43t-2.5 28.5
q0 26 14 41t39 15z" />
    <glyph glyph-name="numbersign" unicode="#" horiz-adv-x="657" 
d="M163 255l38 190h-122v82h139l35 177h48l-35 -177h195l35 177h49l-35 -177h118v-82h-135l-38 -190h121v-81h-137l-36 -178h-49l36 178h-195l-36 -178h-48l36 178h-120v81h136zM406 255l38 190h-195l-38 -190h195z" />
    <glyph glyph-name="dollar" unicode="$" horiz-adv-x="550" 
d="M251 -11q-47 2 -86 15.5t-67.5 34.5t-44 49.5t-15.5 60.5q0 23 11.5 36t31.5 13t33 -13.5t17 -46.5q7 -48 38.5 -74.5t81.5 -31.5v286l-55 24q-72 31 -107.5 73t-35.5 108q0 42 15.5 76t42.5 58t63 38t77 17v82h41v-83q41 -3 75 -16.5t58.5 -33.5t38 -44.5t13.5 -51.5
q0 -23 -11.5 -36t-31.5 -13t-33 13t-17 47q-11 79 -92 91v-255l72 -31q74 -32 109 -74.5t35 -111.5q0 -45 -16.5 -81.5t-45.5 -63t-68.5 -42.5t-85.5 -19v-93h-41v93zM136 554q0 -41 26 -71t89 -56v241q-51 -4 -83 -36t-32 -78zM292 303v-271q59 5 94.5 38.5t35.5 90.5
q0 45 -24 76t-84 56z" />
    <glyph glyph-name="percent" unicode="%" horiz-adv-x="782" 
d="M179 321q-32 0 -60 13t-49 37.5t-33 59.5t-12 78q0 46 12.5 83t33.5 63t49.5 39.5t61.5 13.5q32 0 60 -13t49 -37.5t33 -59.5t12 -78q0 -47 -12.5 -83.5t-33.5 -62.5t-49.5 -39.5t-61.5 -13.5zM182 348q33 0 52 43.5t19 120.5q0 85 -21 127t-53 42t-51.5 -43t-19.5 -120
q0 -85 21 -127.5t53 -42.5zM565 706h53l-410 -712h-52zM591 -8q-32 0 -60 13t-49 37.5t-33 59.5t-12 78q0 46 12.5 83t33.5 63t49.5 39.5t61.5 13.5q32 0 60 -13t49 -37.5t33 -59.5t12 -78q0 -47 -12.5 -83.5t-33.5 -62.5t-49.5 -39.5t-61.5 -13.5zM594 19q33 0 52 43.5
t19 120.5q0 85 -21 127t-53 42t-51.5 -43t-19.5 -120q0 -85 21 -127.5t53 -42.5z" />
    <glyph glyph-name="ampersand" unicode="&#x26;" horiz-adv-x="796" 
d="M246 -14q-47 0 -85.5 13.5t-65.5 37.5t-42 56.5t-15 70.5q0 63 38.5 115t117.5 103q-42 51 -62 89.5t-20 82.5q0 36 13 65.5t36 50.5t54.5 32.5t69.5 11.5q36 0 67 -10t53 -28.5t34.5 -43.5t12.5 -55q0 -53 -31 -92t-91 -77l-22 -13l164 -186q20 34 42 83t42.5 84.5
t41.5 58t44 33t50 10.5q39 0 65 -20.5t26 -50.5q0 -23 -13 -37t-32 -14q-29 0 -46 29q-10 15 -17.5 22t-18.5 7q-9 0 -18 -6t-21 -21.5t-27.5 -43.5t-36.5 -71q-14 -27 -26 -51.5t-25 -45.5q33 -38 58.5 -61.5t48 -37t43 -18.5t42.5 -5q20 0 43.5 6.5t49.5 31.5l4 -3
q-26 -52 -62.5 -76t-87.5 -24q-28 0 -52.5 6t-47.5 18.5t-46 32t-48 46.5q-44 -56 -92 -80.5t-109 -24.5zM275 432q45 21 73.5 57t28.5 83q0 48 -26 77.5t-66 29.5t-64.5 -26t-24.5 -67q0 -36 20 -73t59 -81zM269 51q41 0 76.5 16t70.5 58l-190 219q-50 -32 -73.5 -72
t-23.5 -87q0 -30 10.5 -54.5t29 -42.5t44 -27.5t56.5 -9.5z" />
    <glyph glyph-name="quotesingle" unicode="'" horiz-adv-x="220" 
d="M109 740q25 0 39 -15t14 -41q0 -12 -2.5 -28.5t-8 -43t-15 -65t-23.5 -94.5h-8q-14 56 -23.5 94.5t-15 65t-8 43t-2.5 28.5q0 26 14 41t39 15z" />
    <glyph glyph-name="parenleft" unicode="(" horiz-adv-x="368" 
d="M55 315q0 93 23.5 167.5t64 131t95 95.5t115.5 61l4 -8q-47 -27 -82 -67t-59 -94.5t-36 -125.5t-12 -160t12 -160t36 -125.5t59 -94.5t82 -67l-4 -8q-61 22 -115.5 61t-95 95.5t-64 131t-23.5 167.5z" />
    <glyph glyph-name="parenright" unicode=")" horiz-adv-x="368" 
d="M311 315q0 -93 -23.5 -167.5t-64 -131t-95 -95.5t-115.5 -61l-4 8q46 27 81.5 67t59.5 94.5t36 125.5t12 160t-12 160t-36 125.5t-59.5 94.5t-81.5 67l4 8q61 -22 115.5 -61t95 -95.5t64 -131t23.5 -167.5z" />
    <glyph glyph-name="asterisk" unicode="*" horiz-adv-x="446" 
d="M222 714q19 0 30 -11.5t11 -29.5q0 -8 -2 -18.5t-6.5 -26t-11.5 -38t-18 -55.5h-6q-11 33 -18 55.5t-11.5 38t-6 26t-1.5 18.5q0 18 10.5 29.5t29.5 11.5zM47 613q10 17 25 20.5t32 -5.5q7 -4 15 -11t19 -18.5t27 -29t39 -43.5l-3 -5q-34 7 -57 12t-38.5 9t-25.5 7.5
t-17 7.5q-17 10 -21 25t5 31zM397 613q9 -16 5 -31t-21 -25q-7 -4 -16.5 -7.5t-25.5 -7.5t-39 -9t-57 -12l-3 5q23 26 39 43.5t27.5 29t19.5 18.5t15 11q16 9 31 5.5t25 -20.5zM397 411q-9 -16 -24.5 -19.5t-31.5 5.5q-7 4 -15 10.5t-19.5 18t-27.5 29t-39 43.5l3 5
q34 -7 57 -11.5t39 -8.5t25.5 -7.5t16.5 -7.5q17 -10 21.5 -25t-5.5 -32zM47 411q-10 17 -5.5 32t21.5 25q7 4 17 7.5t25.5 7.5t38.5 8.5t57 11.5l3 -5q-23 -26 -39 -43.5t-27 -29t-19 -18t-15 -10.5q-17 -9 -32.5 -5.5t-24.5 19.5zM222 311q-19 0 -29.5 11t-10.5 30
q0 8 1.5 18.5t6 26t11.5 37.5t18 55h6q11 -33 18 -55t11.5 -37.5t6.5 -26t2 -18.5q0 -19 -11 -30t-30 -11z" />
    <glyph glyph-name="plus" unicode="+" horiz-adv-x="556" 
d="M45 386h207v209h49v-209h209v-46h-209v-208h-49v208h-207v46z" />
    <glyph glyph-name="comma" unicode="," horiz-adv-x="220" 
d="M55 -152q32 28 47 52.5t15 44.5q0 14 -6.5 26.5t-23.5 24.5q-18 13 -28 27t-10 32q0 26 15 40.5t38 14.5q29 0 49.5 -25t20.5 -68q0 -59 -31 -104t-77 -75z" />
    <glyph glyph-name="hyphen" unicode="-" horiz-adv-x="399" 
d="M45 306h308v-46h-308v46z" />
    <glyph glyph-name="period" unicode="." horiz-adv-x="220" 
d="M50 51q0 25 17 42t42 17t42 -17t17 -42t-17 -42t-42 -17t-42 17t-17 42z" />
    <glyph glyph-name="slash" unicode="/" horiz-adv-x="486" 
d="M376 754h57l-353 -878h-58z" />
    <glyph glyph-name="zero" unicode="0" horiz-adv-x="631" 
d="M310 -14q-54 0 -102.5 26t-85 72.5t-58 111t-21.5 141.5q0 91 23.5 161t62 118t88 73t102.5 25q54 0 102.5 -25.5t85 -72t58 -111t21.5 -142.5q0 -90 -23.5 -160.5t-62 -118.5t-88 -73t-102.5 -25zM318 28q37 0 67 25t51 68.5t32.5 101t11.5 123.5q0 75 -13 135
t-35.5 102.5t-53.5 65.5t-66 23q-38 0 -68 -25t-51 -68.5t-32.5 -101t-11.5 -123.5q0 -74 13 -134.5t36 -103t53.5 -65.5t66.5 -23z" />
    <glyph glyph-name="one" unicode="1" horiz-adv-x="333" 
d="M30 31l73 9q10 2 13.5 6t3.5 15v555q0 12 -3.5 17.5t-14.5 8.5l-72 18v14l190 40v-653q0 -11 3.5 -15t13.5 -6l74 -9v-31h-281v31z" />
    <glyph glyph-name="two" unicode="2" horiz-adv-x="513" 
d="M208 223q42 50 70.5 89t45 72.5t23.5 63t7 60.5q0 77 -35 119t-94 42q-50 0 -82.5 -27.5t-32.5 -68.5q0 -17 5.5 -29t11.5 -22.5t11.5 -21t5.5 -23.5q0 -23 -13.5 -36.5t-34.5 -13.5q-27 0 -46 24.5t-19 68.5q0 38 12.5 73t38 61.5t65 42t93.5 15.5q49 0 89.5 -14
t69 -38.5t44.5 -58t16 -72.5q0 -38 -12.5 -72.5t-39.5 -74.5t-70.5 -90t-104.5 -117l-77 -80q-5 -5 -4 -9t8 -4h210q24 0 38.5 3t23.5 12t15 26t13 44h31l-7 -167h-466z" />
    <glyph glyph-name="three" unicode="3" horiz-adv-x="509" 
d="M239 -12q-47 0 -84.5 11t-64.5 30.5t-41.5 47t-14.5 59.5q0 27 15 45t38 18q22 0 35.5 -14t13.5 -42q0 -9 -1 -18.5t-1 -19.5q0 -32 24 -53.5t78 -21.5q31 0 58 12.5t47 36t31.5 55.5t11.5 71q0 75 -48 114.5t-144 39.5h-61l201 247q11 13 -4 13h-166q-23 0 -37.5 -3
t-24 -12t-15.5 -26t-13 -45h-31l7 167h420l-208 -256q-10 -10 4 -12q104 -8 162 -64t58 -143q0 -51 -19 -94.5t-52 -75t-77.5 -49.5t-96.5 -18z" />
    <glyph glyph-name="four" unicode="4" horiz-adv-x="604" 
d="M184 444q44 66 60.5 126t14.5 130h96q-1 -40 -12 -74t-37 -75l-178 -271q-4 -5 -2 -8.5t8 -3.5h217v155l95 67v-222h9q22 0 36.5 3t23.5 12.5t15 26.5t13 45h31l-6 -163h-122v-133q0 -11 3 -15t12 -6l55 -7v-31h-237v31l55 7q10 2 13.5 6t3.5 15v133h-334z" />
    <glyph glyph-name="five" unicode="5" horiz-adv-x="514" 
d="M227 -12q-96 0 -152 40.5t-56 106.5q0 31 15.5 47.5t38.5 16.5q21 0 33.5 -13t12.5 -39q0 -9 -1 -18.5t-1 -19.5q0 -38 29 -58.5t80 -20.5q31 0 59 13t49 36t33.5 56t12.5 74q0 77 -45 117.5t-124 40.5q-81 0 -165 -22l41 355h235q26 0 41.5 2t24.5 8t14 17t10 29h31
l-10 -137h-310l-20 -182q31 7 62.5 10t62.5 3q118 0 183 -57t65 -158q0 -56 -19 -101.5t-52.5 -78t-79 -50t-98.5 -17.5z" />
    <glyph glyph-name="six" unicode="6" horiz-adv-x="568" 
d="M308 -14q-60 0 -109 24.5t-83.5 69.5t-53 107.5t-18.5 137.5q0 82 20.5 153t58 123t90 81.5t115.5 29.5q35 0 67 -10.5t56.5 -29t39 -43t14.5 -51.5q0 -22 -11.5 -34.5t-30.5 -12.5q-20 0 -33 14t-21 51q-16 74 -84 74q-41 0 -74 -25.5t-56 -69.5t-35.5 -103.5
t-12.5 -127.5q0 -58 9 -114.5t28.5 -101.5t50 -72.5t73.5 -27.5q29 0 52 13.5t39.5 36.5t25.5 54t9 67q0 37 -10 69.5t-29 56.5t-46 38t-61 14q-35 0 -66 -15.5t-50 -33.5l-3 2q8 20 22 39t34 34t47.5 24.5t62.5 9.5q44 0 80 -15.5t62 -43.5t40 -67.5t14 -86.5
q0 -56 -19 -100t-50 -75t-71 -47t-83 -16z" />
    <glyph glyph-name="seven" unicode="7" horiz-adv-x="517" 
d="M151 0q0 54 7 104t22.5 100.5t41 103.5t62.5 112l111 184q9 13 -5 13h-233q-24 0 -39 -3t-24.5 -13.5t-15.5 -29.5t-13 -50h-30l6 179h469l-154 -250q-32 -52 -52.5 -104t-31.5 -106.5t-14 -114t1 -125.5h-108z" />
    <glyph glyph-name="eight" unicode="8" horiz-adv-x="568" 
d="M46 173q0 65 41.5 109t116.5 58l2 -4q-35 -28 -53 -63.5t-18 -84.5q0 -36 11 -65t31 -50t48 -32t62 -11q67 0 108 36.5t41 96.5q0 53 -30 85t-92 62l-80 38q-42 20 -71.5 39.5t-49 41.5t-28.5 48t-9 59q0 40 15 72.5t41.5 56t63 36.5t80.5 13q45 0 82.5 -11.5t64.5 -32.5
t41.5 -51t14.5 -66q0 -55 -33 -88.5t-89 -42.5l-2 4q23 22 36 48.5t13 60.5q0 32 -10.5 57.5t-27.5 43t-40.5 27t-50.5 9.5q-54 0 -83.5 -30t-29.5 -74q0 -47 31 -77t92 -59l80 -38q42 -20 73 -40t50.5 -43.5t29 -52t9.5 -64.5q0 -47 -17.5 -85t-49.5 -65.5t-76 -42.5
t-97 -15q-57 0 -101.5 13.5t-75.5 38t-47.5 59t-16.5 76.5z" />
    <glyph glyph-name="nine" unicode="9" horiz-adv-x="568" 
d="M258 714q60 0 109 -24.5t83.5 -69.5t53 -107.5t18.5 -137.5q0 -82 -21 -153t-58.5 -123t-89.5 -81.5t-115 -29.5q-35 0 -67 10.5t-56.5 29t-39 43t-14.5 51.5q0 22 11.5 34.5t30.5 12.5q20 0 33 -14t21 -51q16 -74 84 -74q41 0 74 25.5t56 69.5t35.5 103.5t12.5 127.5
q0 58 -9 114.5t-28.5 101.5t-50 72.5t-73.5 27.5q-29 0 -52 -13.5t-39.5 -36.5t-25.5 -54t-9 -67q0 -37 10 -69.5t29 -56.5t46 -38t61 -14q35 0 66 15.5t50 33.5l3 -2q-8 -20 -22 -39t-34 -34t-47.5 -24.5t-62.5 -9.5q-44 0 -80 15.5t-62 43.5t-40 67.5t-14 86.5
q0 56 19 100t50 75t71 47t83 16z" />
    <glyph glyph-name="colon" unicode=":" horiz-adv-x="240" 
d="M60 51q0 25 17 42t42 17t42 -17t17 -42t-17 -42t-42 -17t-42 17t-17 42zM60 412q0 25 17 42t42 17t42 -17t17 -42t-17 -42t-42 -17t-42 17t-17 42z" />
    <glyph glyph-name="semicolon" unicode=";" horiz-adv-x="240" 
d="M65 -152q32 28 47 52.5t15 44.5q0 14 -6.5 26.5t-23.5 24.5q-18 13 -28 27t-10 32q0 26 15 40.5t38 14.5q29 0 49.5 -25t20.5 -68q0 -59 -31 -104t-77 -75zM60 412q0 25 17 42t42 17t42 -17t17 -42t-17 -42t-42 -17t-42 17t-17 42z" />
    <glyph glyph-name="less" unicode="&#x3c;" horiz-adv-x="556" 
d="M503 142l-471 222l471 223v-53l-364 -170l364 -170v-52z" />
    <glyph glyph-name="equal" unicode="=" horiz-adv-x="556" 
d="M52 491h451v-46h-451v46zM52 281h451v-46h-451v46z" />
    <glyph glyph-name="greater" unicode="&#x3e;" horiz-adv-x="556" 
d="M51 587l471 -222l-471 -223v53l364 170l-364 170v52z" />
    <glyph glyph-name="question" unicode="?" horiz-adv-x="519" 
d="M221 354h12q73 0 113.5 40.5t40.5 116.5q0 36 -11.5 66t-32 51t-48.5 32.5t-61 11.5q-54 0 -87 -26t-33 -65q0 -10 4 -20t8.5 -20t8.5 -20.5t4 -20.5q0 -20 -13.5 -33.5t-38.5 -13.5q-24 0 -40.5 20t-16.5 59q0 37 15.5 70.5t44 58t68.5 39t90 14.5q52 0 96.5 -14t77 -40
t50.5 -62.5t18 -80.5q0 -41 -15.5 -76t-44 -60.5t-68.5 -41t-89 -17.5l-3 -132h-43zM243 -8q-25 0 -42 17t-17 43q0 24 17 41.5t42 17.5t42.5 -17.5t17.5 -41.5q0 -26 -17.5 -43t-42.5 -17z" />
    <glyph glyph-name="at" unicode="@" horiz-adv-x="795" 
d="M302 35q-35 0 -59 23.5t-25 68.5q0 46 21.5 92.5t56 83.5t77 60.5t84.5 23.5q41 0 70 -27l69 28h3l-86 -231q-13 -36 0 -54.5t49 -18.5q29 0 55 16.5t46 45t32 67t12 83.5q0 56 -19.5 101t-54 76.5t-81.5 48.5t-102 17q-73 0 -137 -28.5t-112 -78.5t-75.5 -117.5
t-27.5 -146.5q0 -60 22 -113t61 -92t93 -61.5t119 -22.5t120.5 21.5t103.5 56.5l5 -5q-51 -56 -111 -80t-131 -24q-69 0 -127.5 24t-102 66.5t-68 101t-24.5 126.5q0 84 29.5 158t82 129t124.5 87t157 32q61 0 115 -19t94 -55t63 -87.5t23 -115.5q0 -54 -16.5 -101t-45 -81
t-67 -53.5t-81.5 -19.5q-53 0 -79.5 26t-23.5 68q-35 -55 -66 -77t-65 -22zM294 130q0 -21 10 -32.5t26 -11.5q10 0 21.5 4t25.5 16t32 33.5t42 56.5l53 141q-18 12 -39 12q-29 0 -59.5 -22t-55.5 -54.5t-40.5 -71t-15.5 -71.5z" />
    <glyph glyph-name="A" unicode="A" horiz-adv-x="757" 
d="M7 32l22 4q37 7 56 48l268 624h49l275 -639q7 -15 13.5 -21t20.5 -9l37 -7v-32h-270v32l45 7q27 5 32.5 15.5t-4.5 34.5l-71 170h-267l-68 -160q-11 -27 -4.5 -42t40.5 -20l33 -5v-32h-207v32zM231 302h231l-109 263q-2 6 -5.5 6t-5.5 -6z" />
    <glyph glyph-name="B" unicode="B" horiz-adv-x="659" 
d="M617 194q0 -42 -16.5 -77.5t-46.5 -61.5t-72.5 -40.5t-94.5 -14.5h-359v32l78 9q10 2 13.5 6t3.5 15v577q0 17 -17 20l-78 10v31h311q52 0 93.5 -12t71 -34t45 -53t15.5 -68q0 -60 -37.5 -100.5t-103.5 -55.5q45 -4 80.5 -19.5t61 -39.5t39 -55.5t13.5 -68.5zM235 390h83
q60 0 99 35.5t39 99.5q0 61 -37 96.5t-102 35.5h-82v-267zM235 65q0 -21 21 -21h108q61 0 101 40.5t40 110.5q0 72 -40 112t-119 40h-111v-282z" />
    <glyph glyph-name="C" unicode="C" horiz-adv-x="744" 
d="M397 -12q-77 0 -142.5 26.5t-113 74t-74.5 112.5t-27 142q0 80 27 147.5t74.5 117t113 77t142.5 27.5q60 0 102 -13.5t69 -29t42.5 -29t23.5 -13.5q3 0 6.5 2t9.5 7t15 15t24 27v-214h-42q-9 46 -31 83.5t-53.5 63.5t-70.5 40t-82 14q-56 0 -102 -22t-79.5 -63t-52 -98.5
t-18.5 -127.5q0 -74 19 -133t52.5 -100t80 -63.5t100.5 -22.5q43 0 82 14t70.5 40.5t53.5 63.5t31 83h42v-214q-15 16 -24 26.5t-15 15.5t-9.5 7t-6.5 2q-8 0 -23.5 -13.5t-42.5 -29t-69 -29t-102 -13.5z" />
    <glyph glyph-name="D" unicode="D" horiz-adv-x="772" 
d="M28 32l78 9q10 2 13.5 6t3.5 15v577q0 17 -17 20l-78 10v31h330q82 0 150.5 -25t118 -70t77.5 -108.5t28 -140.5q0 -80 -27.5 -146t-78 -112.5t-120.5 -72t-154 -25.5h-324v32zM235 65q0 -21 21 -21h93q60 0 109 21t84 60.5t54 95t19 124.5t-18.5 126.5t-53 99t-83 64
t-107.5 22.5h-118v-592z" />
    <glyph glyph-name="E" unicode="E" horiz-adv-x="656" 
d="M106 41q10 2 13.5 6t3.5 15v577q0 17 -17 20l-78 10v31h558v-184h-37q-12 49 -20.5 77t-19 42.5t-26.5 18t-42 3.5h-206v-274l136 3q14 0 18.5 5t8.5 22l14 63h39v-225h-39l-14 63q-4 16 -8.5 21t-18.5 5l-136 3v-278q0 -21 21 -21h185q34 0 54 4t33.5 18.5t23.5 43
t22 78.5h39l-8 -188h-577v32z" />
    <glyph glyph-name="F" unicode="F" horiz-adv-x="617" 
d="M106 41q10 2 13.5 6t3.5 15v577q0 17 -17 20l-78 10v31h562v-184h-37q-11 49 -19.5 77t-19.5 42.5t-27 18t-42 3.5h-210v-280l141 3q13 0 17.5 5t8.5 22l14 63h39v-225h-39l-14 63q-4 16 -8.5 21t-17.5 5l-141 3v-275q0 -20 17 -21l89 -9v-32h-313v32z" />
    <glyph glyph-name="G" unicode="G" horiz-adv-x="798" 
d="M629 52q-9 0 -26 -10t-44 -22t-65.5 -22t-92.5 -10q-78 0 -144 26t-114.5 73t-75.5 112.5t-27 143.5q0 79 27 146.5t75.5 117t115 77.5t145.5 28q61 0 103.5 -13.5t70.5 -29t43.5 -29t23.5 -13.5q3 0 6.5 2t9.5 7t15 15t24 27v-214h-42q-9 46 -31.5 83.5t-54 63.5
t-71.5 40t-84 14q-58 0 -105.5 -22.5t-81.5 -63t-53 -98t-19 -127.5q0 -74 19 -133.5t53 -101t80.5 -64t101.5 -22.5q54 0 101.5 19.5t82.5 55.5v161q0 20 -17 21l-88 9v31h293v-31l-63 -9q-9 -2 -12.5 -6t-3.5 -15v-273q-21 19 -34 30t-20.5 17t-12 7.5t-8.5 1.5z" />
    <glyph glyph-name="H" unicode="H" horiz-adv-x="820" 
d="M235 62q0 -11 3.5 -15t13.5 -6l78 -9v-32h-302v32l78 9q10 2 13.5 6t3.5 15v577q0 17 -17 20l-78 10v31h302v-31l-78 -10q-17 -3 -17 -20v-253h348v253q0 17 -17 20l-79 10v31h303v-31l-78 -10q-17 -3 -17 -20v-577q0 -11 3.5 -15t13.5 -6l78 -9v-32h-303v32l79 9
q10 2 13.5 6t3.5 15v278h-348v-278z" />
    <glyph glyph-name="I" unicode="I" horiz-adv-x="364" 
d="M237 62q0 -11 3.5 -15t13.5 -6l78 -9v-32h-302v32l78 9q10 2 13.5 6t3.5 15v577q0 17 -17 20l-78 10v31h302v-31l-78 -10q-17 -3 -17 -20v-577z" />
    <glyph glyph-name="J" unicode="J" horiz-adv-x="575" 
d="M224 -12q-47 0 -85.5 11.5t-65.5 31.5t-42 47.5t-15 59.5q0 29 14.5 45.5t37.5 16.5q21 0 34.5 -15t16.5 -47q5 -51 31.5 -76t73.5 -25q58 0 92.5 41t34.5 114v447q0 20 -17 20l-89 10v31h313v-31l-78 -10q-17 -3 -17 -20v-412q0 -56 -17 -100.5t-48 -75t-75 -47
t-99 -16.5z" />
    <glyph glyph-name="K" unicode="K" horiz-adv-x="735" 
d="M235 62q0 -11 3.5 -15t13.5 -6l78 -9v-32h-302v32l78 9q10 2 13.5 6t3.5 15v577q0 17 -17 20l-78 10v31h302v-31l-78 -10q-17 -3 -17 -20v-262l282 243q23 20 21 32t-28 14l-39 3v31h233v-31l-28 -5q-26 -4 -43.5 -12t-43.5 -31l-276 -236l324 -310q22 -20 34 -27t30 -11
l27 -5v-32h-170l-323 329v-267z" />
    <glyph glyph-name="L" unicode="L" horiz-adv-x="621" 
d="M123 639q0 17 -17 20l-78 10v31h313v-31l-89 -10q-9 -1 -13 -5t-4 -15v-574q0 -21 21 -21h169q34 0 55 4.5t34.5 21t23.5 49.5t23 90h39l-9 -209h-563v32l78 9q10 2 13.5 6t3.5 15v577z" />
    <glyph glyph-name="M" unicode="M" horiz-adv-x="950" 
d="M28 32l51 8q25 4 34.5 16.5t9.5 41.5v521q0 20 -5 27t-21 10l-69 13v31h212l229 -509q7 -16 14 0l228 509h209v-31l-78 -10q-17 -3 -17 -20v-577q0 -11 3.5 -15t13.5 -6l78 -9v-32h-303v32l79 9q10 2 13.5 6t3.5 15v493q0 7 -4.5 8t-7.5 -5l-253 -562h-6l-256 562
q-3 6 -7.5 5t-4.5 -8l3 -457q0 -29 9.5 -41.5t34.5 -16.5l51 -8v-32h-244v32z" />
    <glyph glyph-name="N" unicode="N" horiz-adv-x="775" 
d="M219 700l377 -461q5 -5 8.5 -4t3.5 8l-2 360q0 29 -9.5 41.5t-34.5 16.5l-51 8v31h244v-31l-51 -8q-25 -4 -34.5 -16.5t-9.5 -41.5v-614h-2l-472 578q-5 5 -8.5 4t-3.5 -8l3 -465q0 -29 9.5 -41.5t34.5 -16.5l51 -8v-32h-244v32l51 8q25 4 34.5 16.5t9.5 41.5v515
q0 20 -4.5 26t-21.5 11l-69 19v31h191z" />
    <glyph glyph-name="O" unicode="O" 
d="M767 362q0 -89 -30.5 -158.5t-81.5 -118t-117 -74t-136 -25.5q-73 0 -139 25.5t-115.5 72t-78.5 111.5t-29 144q0 88 31 158t82 118t117 73.5t136 25.5q73 0 138.5 -25.5t115 -72t78.5 -111.5t29 -143zM157 356q0 -76 20.5 -136t55 -102t80 -64.5t95.5 -22.5
q53 0 97.5 24t77 66t50.5 99.5t18 123.5q0 76 -20.5 136.5t-55 102.5t-80 64t-95.5 22q-53 0 -98 -24t-77 -66t-50 -99t-18 -124z" />
    <glyph glyph-name="P" unicode="P" horiz-adv-x="635" 
d="M346 328q32 0 59 11.5t47 33t31 51.5t11 68q0 77 -40.5 121t-105.5 44h-113v-595q0 -20 17 -21l89 -9v-32h-313v32l78 9q10 2 13.5 6t3.5 15v577q0 17 -17 20l-78 10v31h347q53 0 95.5 -14t72.5 -40.5t46.5 -64.5t16.5 -85q0 -45 -16.5 -82.5t-45.5 -64.5t-67.5 -41.5
t-81.5 -14.5q-72 0 -115 41l1 2q32 -8 65 -8z" />
    <glyph glyph-name="Q" unicode="Q" 
d="M857 -80q0 -91 -45.5 -139t-120.5 -48q-45 0 -83 13.5t-72 34t-64.5 44t-59 44t-57 34t-57.5 13.5q-21 0 -35.5 -8t-25.5 -17.5t-21.5 -17.5t-23.5 -8q-12 0 -20 8t-8 20q0 21 17 31.5t43.5 16.5t57 10.5t57.5 14.5l56 20q-72 1 -136.5 27t-113 72.5t-77 111t-28.5 142.5
q0 88 31 158t82 118t117 73.5t136 25.5q73 0 138.5 -25.5t115 -72t78.5 -111.5t29 -144q0 -65 -17 -120t-47.5 -99.5t-73 -77.5t-93.5 -54l-173 -69q42 -8 84.5 -24t85 -31.5t85.5 -27.5t88 -12q49 0 82 16t67 59zM157 356q0 -76 20.5 -136t55 -102t80 -64.5t95.5 -22.5
q53 0 97.5 24t76.5 66t50 99.5t18 123.5q0 76 -20.5 136.5t-55 102.5t-79.5 64t-95 22q-53 0 -98 -24t-77 -66t-50 -99t-18 -124z" />
    <glyph glyph-name="R" unicode="R" horiz-adv-x="754" 
d="M28 32l78 9q10 2 13.5 6t3.5 15v577q0 17 -17 20l-78 10v31h323q118 0 179.5 -48.5t61.5 -130.5q0 -70 -46.5 -118t-129.5 -65l233 -252q13 -14 22 -22.5t16.5 -14t15 -8t18.5 -4.5l27 -5v-32h-166l-281 331h-66v-269q0 -11 3.5 -15t13.5 -6l78 -9v-32h-302v32zM235 373
h95q67 0 108.5 39t41.5 105q0 67 -39.5 103.5t-116.5 36.5h-89v-284z" />
    <glyph glyph-name="S" unicode="S" horiz-adv-x="558" 
d="M285 -12q-39 0 -68.5 8.5t-50.5 18.5t-35 18.5t-21 8.5q-3 0 -5.5 -1t-8 -5.5t-14.5 -13.5l-25 -25v222h39q31 -101 81 -144t112 -43q57 0 93 33.5t36 92.5q0 47 -22.5 76.5t-78.5 55.5l-117 55q-68 33 -100.5 75t-32.5 108q0 34 14 67.5t39.5 59t61 41.5t78.5 16
q36 0 62.5 -7.5t45 -16t30.5 -16t19 -7.5q3 0 5.5 1t7.5 5.5t14 13.5l25 25v-204h-39q-27 89 -69 126t-97 37q-24 0 -44 -8.5t-35 -23t-23.5 -35t-8.5 -44.5q0 -42 23.5 -70t78.5 -54l118 -55q69 -32 101 -75t32 -113q0 -44 -17 -81t-46.5 -64t-70 -42.5t-87.5 -15.5z" />
    <glyph glyph-name="T" unicode="T" horiz-adv-x="675" 
d="M175 32l89 9q17 1 17 21v595h-111q-27 0 -43 -4t-27 -20t-19.5 -48t-20.5 -89h-36v204h626v-204h-37q-11 57 -19.5 89t-19.5 48t-27.5 20t-43.5 4h-110v-595q0 -20 17 -21l88 -9v-32h-323v32z" />
    <glyph glyph-name="U" unicode="U" horiz-adv-x="779" 
d="M613 603q0 29 -9.5 41.5t-34.5 16.5l-52 8v31h245v-31l-52 -8q-25 -4 -34.5 -16.5t-9.5 -41.5l-1 -367q0 -59 -19 -105.5t-54.5 -78t-85 -48t-109.5 -16.5q-65 0 -117.5 17.5t-90 50t-58 78.5t-20.5 103v402q0 17 -17 20l-79 10v31h303v-31l-78 -10q-17 -3 -17 -20v-393
q0 -97 51.5 -148t140.5 -51q91 0 145 49.5t54 143.5z" />
    <glyph glyph-name="V" unicode="V" horiz-adv-x="749" 
d="M740 669l-22 -4q-38 -8 -56 -49l-264 -624h-49l-271 640q-7 15 -13 21t-20 8l-38 8v31h270v-31l-45 -8q-27 -5 -32.5 -15t4.5 -34l194 -476q2 -6 6 -6t6 6l192 466q11 27 4.5 41.5t-40.5 19.5l-33 6v31h207v-31z" />
    <glyph glyph-name="W" unicode="W" horiz-adv-x="1101" 
d="M749 -8l-194 500q-2 6 -6 6t-6 -6l-193 -500h-56l-216 638q-6 17 -13 22.5t-22 8.5l-36 8v31h265v-31l-45 -8q-26 -5 -31.5 -14t3.5 -37l150 -459q2 -6 6 -6t6 6l215 559h5l216 -559q2 -6 6 -6t6 6l149 448q10 29 1.5 44t-38.5 20l-32 6v31h203v-31l-21 -4
q-22 -5 -34.5 -16.5t-20.5 -35.5l-211 -621h-56z" />
    <glyph glyph-name="X" unicode="X" horiz-adv-x="698" 
d="M163 93q-17 -25 -12 -37.5t34 -17.5l40 -6v-32h-214v32q35 6 54.5 18t34.5 34l187 267l-191 275q-7 10 -13 16.5t-14 11t-20.5 8t-31.5 7.5v31h283v-31l-52 -9q-23 -4 -27.5 -14t9.5 -32l127 -182l122 175q17 26 12.5 38t-33.5 17l-41 7v31h214v-31q-35 -6 -54 -18
t-35 -35l-157 -224l221 -317q7 -10 13 -16.5t14 -11t20 -8t32 -7.5v-32h-283v32l52 8q23 4 27.5 14.5t-9.5 31.5l-157 226z" />
    <glyph glyph-name="Y" unicode="Y" horiz-adv-x="687" 
d="M538 609q25 44 -29 53l-40 7v31h209v-31l-23 -4q-17 -3 -29 -13.5t-24 -30.5l-203 -344v-215q0 -20 17 -21l89 -9v-32h-323v32l88 9q17 1 17 21v212l-210 358q-10 16 -16.5 22t-20.5 9l-33 6v31h275v-31l-51 -9q-24 -4 -29.5 -12.5t5.5 -27.5l160 -280q6 -11 13 0z" />
    <glyph glyph-name="Z" unicode="Z" horiz-adv-x="622" 
d="M415 645q7 12 -5 12h-209q-26 0 -41.5 -3.5t-26.5 -18t-19.5 -42.5t-20.5 -77h-37v184h517l-390 -644q-8 -12 5 -12h231q33 0 53.5 4t34 18.5t23 43t22.5 78.5h39l-8 -188h-558z" />
    <glyph glyph-name="bracketleft" unicode="[" horiz-adv-x="368" 
d="M98 756h239v-31l-130 -5v-810l130 -5v-31h-239v882z" />
    <glyph glyph-name="backslash" unicode="\" horiz-adv-x="486" 
d="M405 -124l-354 878h58l353 -878h-57z" />
    <glyph glyph-name="bracketright" unicode="]" horiz-adv-x="368" 
d="M268 -126h-239v31l130 5v810l-130 5v31h239v-882z" />
    <glyph glyph-name="asciicircum" unicode="^" horiz-adv-x="532" 
d="M265 596l-155 -194h-64l182 304h74l182 -304h-64z" />
    <glyph glyph-name="underscore" unicode="_" horiz-adv-x="456" 
d="M-2 -100h458v-46h-458v46z" />
    <glyph glyph-name="grave" unicode="`" horiz-adv-x="500" 
d="M135 670q15 17 33.5 17.5t35.5 -13.5q8 -8 17.5 -18.5t22.5 -28.5t31.5 -44t45.5 -65l-4 -6q-43 20 -72.5 34t-49 24t-31.5 17t-21 15q-17 14 -19.5 32.5t11.5 35.5z" />
    <glyph glyph-name="a" unicode="a" horiz-adv-x="497" 
d="M164 -12q-50 0 -80.5 27.5t-30.5 71.5q0 19 5 34t17 28.5t32 26.5t50 27l156 75v41q0 58 -25.5 88t-67.5 30q-38 0 -62.5 -22.5t-29.5 -69.5q-3 -32 -15 -45.5t-32 -13.5q-18 0 -30 12.5t-12 35.5q0 27 15 52.5t40.5 45t60 31.5t73.5 12q88 0 133 -43.5t44 -128.5v-209
q0 -26 12 -40t31 -14q14 0 23.5 6t19.5 20l5 -2q-9 -35 -33.5 -54.5t-58.5 -19.5q-38 0 -63 22.5t-28 63.5q-28 -44 -66 -66t-83 -22zM148 110q0 -30 18 -46.5t48 -16.5q57 0 99 58v142l-98 -51q-38 -20 -52.5 -39.5t-14.5 -46.5z" />
    <glyph glyph-name="b" unicode="b" horiz-adv-x="562" 
d="M77 645q0 11 -2.5 15.5t-12.5 9.5l-51 21v14l160 41v-357q25 40 66 63t88 23q42 0 79 -16.5t64.5 -47t43 -74t15.5 -98.5q0 -56 -18 -102.5t-49 -79.5t-72.5 -51t-89.5 -18q-36 0 -60.5 8t-41.5 18t-27.5 18t-16.5 8q-3 0 -6 -1t-10.5 -6t-21 -15t-37.5 -28v655zM291 417
q-74 0 -120 -62v-265q47 -56 118 -56q31 0 58 13.5t46 39t30 62t11 81.5q0 43 -11.5 78t-31 59t-45.5 37t-55 13z" />
    <glyph glyph-name="c" unicode="c" horiz-adv-x="461" 
d="M260 432q-30 0 -55 -12.5t-43.5 -35.5t-29 -57.5t-10.5 -77.5q0 -41 12.5 -75.5t35 -59t54 -38t68.5 -13.5q43 0 74.5 15.5t62.5 51.5l5 -2q-21 -66 -70 -103t-113 -37q-44 0 -83.5 17.5t-69 49t-47 75t-17.5 96.5q0 55 19 101.5t50.5 79.5t73 51.5t86.5 18.5
q38 0 70 -11t55.5 -29.5t37 -42t13.5 -48.5q0 -24 -12 -37t-32 -13q-21 0 -33 13t-17 48q-5 38 -27 56.5t-58 18.5z" />
    <glyph glyph-name="d" unicode="d" horiz-adv-x="574" 
d="M33 224q0 56 17 102.5t46.5 79.5t69 51t84.5 18q43 0 79 -15.5t60 -44.5v230q0 11 -2.5 15.5t-12.5 9.5l-50 21v14l160 41v-660q0 -10 3 -14.5t11 -9.5l51 -30v-14l-160 -22v77q-26 -39 -66.5 -62t-86.5 -23q-42 0 -79 16.5t-64.5 47t-43.5 74t-16 98.5zM127 233
q0 -43 11.5 -77.5t31 -59t45 -37.5t54.5 -13q38 0 67.5 16t52.5 46v260q-20 29 -50 44.5t-68 15.5q-32 0 -58 -13.5t-45.5 -38.5t-30 -61.5t-10.5 -81.5z" />
    <glyph glyph-name="e" unicode="e" horiz-adv-x="461" 
d="M244 -12q-44 0 -82.5 17t-67 47.5t-44.5 73.5t-16 96q0 55 16.5 102t46 81t69 53t85.5 19q76 0 126 -50.5t56 -144.5h-309q-1 -7 -1 -14v-14q0 -45 12.5 -81t34 -61.5t50 -39t60.5 -13.5q86 0 140 71l5 -2q-16 -66 -66 -103t-115 -37zM249 437q-39 0 -71.5 -30t-46.5 -85
h198q14 0 14 14q0 45 -27.5 73t-66.5 28z" />
    <glyph glyph-name="f" unicode="f" horiz-adv-x="316" 
d="M30 0v30l49 6q10 2 13 6.5t3 13.5v358l-79 1v16l79 29v89q0 94 41 144.5t107 50.5q26 0 48.5 -7t39.5 -19t26.5 -27.5t9.5 -32.5q0 -16 -10 -26.5t-26 -10.5t-26 9t-21 30q-12 23 -26.5 32.5t-34.5 9.5q-26 0 -43 -17.5t-17 -46.5q0 -23 4 -44t9 -41t9 -40.5t4 -41.5v-7
l110 1v-52l-110 1v-358q0 -10 3 -14.5t13 -5.5l60 -6v-30h-235z" />
    <glyph glyph-name="g" unicode="g" horiz-adv-x="487" 
d="M239 -220q-89 0 -137 33t-48 81q0 23 12 36.5t32 13.5q17 0 27.5 -11.5t10.5 -28.5q0 -7 -1.5 -15t-1.5 -16q0 -60 106 -60q36 0 67 10t53.5 26.5t35 38.5t12.5 46q0 69 -78 60l-176 -17q-67 -7 -101.5 16.5t-34.5 67.5q0 40 36 68.5t101 38.5q-47 19 -75 56t-28 86
q0 34 14 64.5t39 52.5t59.5 35t75.5 13q71 0 122 -39v4q0 24 8.5 44.5t23 35.5t33.5 23.5t40 8.5q51 0 51 -40q0 -16 -10.5 -26.5t-29.5 -10.5q-12 0 -23 3.5t-22 3.5q-20 0 -31 -13t-11 -36q0 -8 0.5 -14.5t1.5 -14.5q30 -38 30 -88q0 -36 -14 -65.5t-39 -51.5t-58 -34.5
t-72 -13.5q-83 -2 -121.5 -19t-38.5 -39q0 -17 15 -24.5t52 -3.5l191 20q68 8 106 -22t38 -85q0 -42 -18.5 -78t-51 -62.5t-76.5 -42t-96 -15.5zM239 182q19 0 36 9.5t29.5 26.5t20 40.5t7.5 52.5q0 31 -8 56t-21.5 42t-31 26t-36.5 9q-39 0 -66.5 -35.5t-27.5 -93.5
q0 -63 29.5 -98t68.5 -35z" />
    <glyph glyph-name="h" unicode="h" horiz-adv-x="563" 
d="M183 56q0 -9 3 -13.5t13 -6.5l48 -6v-30h-223v30l49 6q10 2 13 6.5t3 13.5v589q0 11 -2.5 15.5t-12.5 9.5l-50 21v14l159 41v-351q24 39 61.5 59.5t83.5 20.5q66 0 107 -40t41 -113v-266q0 -9 3 -13.5t13 -6.5l50 -6v-30h-224v30l48 6q10 2 13 6.5t3 13.5v259
q0 54 -25 80.5t-66 26.5q-68 0 -108 -60v-306z" />
    <glyph glyph-name="i" unicode="i" horiz-adv-x="282" 
d="M85 630q0 23 16.5 39.5t39.5 16.5t39.5 -16.5t16.5 -39.5t-16.5 -40t-39.5 -17t-39.5 17t-16.5 40zM189 56q0 -9 3 -13.5t13 -6.5l50 -6v-30h-225v30l49 6q10 2 13 6.5t3 13.5v320q0 11 -2.5 15.5t-12.5 9.5l-50 21v14l159 41v-421z" />
    <glyph glyph-name="j" unicode="j" horiz-adv-x="266" 
d="M81 630q0 23 16.5 39.5t39.5 16.5t39.5 -16.5t16.5 -39.5t-16.5 -40t-39.5 -17t-39.5 17t-16.5 40zM185 -65q0 -38 -10 -67t-27 -49t-40 -30.5t-49 -10.5q-39 0 -66 21t-27 49q0 17 11 29t29 12q17 0 27.5 -10t19.5 -28q17 -35 39 -35q25 0 25 31q0 18 -4 40.5t-9 48
t-9 54.5t-4 62v324q0 11 -2.5 15.5t-12.5 9.5l-50 21v14l159 41v-542z" />
    <glyph glyph-name="k" unicode="k" horiz-adv-x="530" 
d="M24 30l49 6q10 2 13 6.5t3 13.5v589q0 11 -2.5 15.5t-12.5 9.5l-50 21v14l159 41v-489l175 145q25 21 -6 27l-25 4v30h183v-30l-24 -4q-24 -5 -41 -13.5t-40 -27.5l-149 -123l192 -198q17 -17 30.5 -24.5t32.5 -10.5l14 -2v-30h-141l-201 226v-170q0 -9 3 -13.5t13 -6.5
l50 -6v-30h-225v30z" />
    <glyph glyph-name="l" unicode="l" horiz-adv-x="278" 
d="M185 56q0 -9 3 -13.5t13 -6.5l50 -6v-30h-225v30l49 6q10 2 13 6.5t3 13.5v589q0 11 -2.5 15.5t-12.5 9.5l-50 21v14l159 41v-690z" />
    <glyph glyph-name="m" unicode="m" horiz-adv-x="843" 
d="M187 56q0 -9 3 -13.5t13 -6.5l48 -6v-30h-223v30l49 6q10 2 13 6.5t3 13.5v320q0 11 -2.5 15.5t-12.5 9.5l-50 21v14l159 41v-81q23 38 59.5 58.5t81.5 20.5q48 0 83 -22.5t50 -65.5q24 42 64 65t87 23q65 0 105 -40t40 -113v-266q0 -9 3 -13.5t13 -6.5l49 -6v-30h-223
v30l48 6q10 2 13 6.5t3 13.5v259q0 54 -24 80.5t-63 26.5q-67 0 -107 -64q3 -18 3 -36v-266q0 -9 3 -13.5t13 -6.5l48 -6v-30h-222v30l48 6q10 2 13 6.5t3 13.5v259q0 54 -24 80.5t-63 26.5q-32 0 -58.5 -15.5t-45.5 -44.5v-306z" />
    <glyph glyph-name="n" unicode="n" horiz-adv-x="567" 
d="M187 56q0 -9 3 -13.5t13 -6.5l48 -6v-30h-223v30l49 6q10 2 13 6.5t3 13.5v320q0 11 -2.5 15.5t-12.5 9.5l-50 21v14l159 41v-82q24 39 61.5 59.5t83.5 20.5q66 0 107 -40t41 -113v-266q0 -9 3 -13.5t13 -6.5l50 -6v-30h-224v30l48 6q10 2 13 6.5t3 13.5v259
q0 54 -25 80.5t-66 26.5q-68 0 -108 -60v-306z" />
    <glyph glyph-name="o" unicode="o" horiz-adv-x="538" 
d="M503 238q0 -57 -18 -103.5t-49.5 -79.5t-74.5 -51t-94 -18q-47 0 -89.5 17.5t-74.5 49t-50.5 75.5t-18.5 98q0 56 17.5 102.5t49 79.5t75 51t94.5 18q47 0 89 -17.5t74 -49t51 -75.5t19 -97zM404 230q0 48 -10.5 86t-29.5 65t-44 41.5t-54 14.5q-28 0 -52.5 -13.5
t-42.5 -40t-28 -64t-10 -85.5t10.5 -86.5t29.5 -65.5t44 -41.5t54 -14.5q28 0 52.5 14t42.5 40t28 64t10 86z" />
    <glyph glyph-name="p" unicode="p" horiz-adv-x="574" 
d="M183 -155q0 -8 3 -12.5t13 -6.5l50 -7v-29h-225v29l49 7q10 2 13 6.5t3 12.5v531q0 11 -2.5 15.5t-12.5 9.5l-50 21v14l159 41v-88q25 40 66 63t88 23q42 0 79 -16.5t64.5 -47t43 -74t15.5 -98.5q0 -56 -17 -102.5t-46 -79.5t-69 -51t-85 -18q-89 0 -139 62v-205z
M303 417q-38 0 -68 -16.5t-52 -46.5v-257q40 -62 118 -62q31 0 58 13.5t46 39t30 61.5t11 81q0 43 -11.5 78t-31 59t-45.5 37t-55 13z" />
    <glyph glyph-name="q" unicode="q" horiz-adv-x="562" 
d="M263 475q35 0 60 -8t42 -18t27 -18t16 -8q3 0 6 1t10.5 6t21.5 15t38 28v-628q0 -8 3 -12.5t13 -6.5l49 -7v-29h-225v29l49 7q10 2 13 6.5t3 12.5v228q-26 -39 -66.5 -62t-86.5 -23q-42 0 -79 16.5t-64.5 47t-43.5 74t-16 98.5q0 56 18 102.5t49 79.5t73 51t90 18z
M127 233q0 -43 11.5 -77.5t31 -59t45 -37.5t54.5 -13q38 0 67.5 16t52.5 46v265q-47 56 -118 56q-32 0 -58 -13.5t-45.5 -39t-30 -62t-10.5 -81.5z" />
    <glyph glyph-name="r" unicode="r" horiz-adv-x="419" 
d="M187 56q0 -19 16 -20l60 -6v-30h-235v30l49 6q10 2 13 6.5t3 13.5v320q0 11 -2.5 15.5t-12.5 9.5l-50 21v14l159 41v-88q19 41 51.5 63.5t73.5 22.5q21 0 39.5 -6t32.5 -17t22 -25.5t8 -31.5q0 -21 -11.5 -33t-28.5 -12q-14 0 -25 8t-19 28q-16 37 -50 37
q-29 0 -54 -21.5t-39 -72.5v-273z" />
    <glyph glyph-name="s" unicode="s" horiz-adv-x="412" 
d="M45 160h35q19 -69 50 -101t75 -32q39 0 64.5 22t25.5 57q0 26 -14.5 41.5t-52.5 33.5l-87 41q-44 20 -64.5 48t-20.5 73q0 29 10.5 53t29 41.5t44.5 27.5t57 10q27 0 46.5 -5t33 -10.5t22.5 -10.5t14 -5t11.5 4.5t27.5 24.5v-152h-35q-17 60 -45.5 87.5t-70.5 27.5
q-32 0 -52.5 -19t-20.5 -47q0 -25 14.5 -40.5t53.5 -34.5l88 -39q45 -20 65 -49t20 -74q0 -32 -12.5 -58.5t-34 -46t-50.5 -30t-63 -10.5q-31 0 -52.5 6t-36 13.5t-23 13.5t-13.5 6t-11.5 -4.5t-27.5 -24.5v162z" />
    <glyph glyph-name="t" unicode="t" horiz-adv-x="339" 
d="M205 -12q-53 0 -85.5 34.5t-32.5 95.5v297h-74v14q46 32 89 76t76 95h3v-136l139 1v-52l-139 1v-287q0 -41 20 -61t52 -20q40 0 75 35l4 -3q-17 -42 -49.5 -66t-77.5 -24z" />
    <glyph glyph-name="u" unicode="u" horiz-adv-x="563" 
d="M85 376q0 11 -2.5 15.5t-12.5 9.5l-51 21v14l160 41v-329q0 -54 25 -80.5t66 -26.5q68 0 108 61v274q0 11 -2.5 15.5t-12.5 9.5l-51 21v14l160 41v-391q0 -10 3 -14.5t11 -9.5l52 -30v-14l-160 -22v72q-24 -39 -61.5 -59.5t-83.5 -20.5q-66 0 -107 40t-41 114v234z" />
    <glyph glyph-name="v" unicode="v" horiz-adv-x="523" 
d="M60 403q-7 15 -11.5 19t-15.5 6l-28 5v30h219v-30l-35 -5q-20 -3 -25.5 -12t2.5 -28l115 -277q2 -6 6 -6t6 6l114 272q16 40 -27 46l-29 4v30h165v-30l-16 -3q-18 -4 -26.5 -11t-16.5 -26l-171 -401h-50z" />
    <glyph glyph-name="w" unicode="w" horiz-adv-x="778" 
d="M394 290q-2 6 -6 6t-6 -6l-118 -298h-54l-148 410q-5 14 -10.5 19t-16.5 7l-28 5v30h216v-30l-35 -5q-20 -3 -24.5 -11.5t2.5 -28.5l93 -272q2 -6 6 -6t6 6l139 357h6l140 -357q2 -6 6 -6t6 6l92 260q9 25 2 37.5t-33 16.5l-23 3v30h163v-30l-18 -3q-15 -3 -24.5 -12.5
t-17.5 -29.5l-143 -396h-55z" />
    <glyph glyph-name="x" unicode="x" horiz-adv-x="494" 
d="M7 30q16 3 27 6.5t19 8.5t15.5 12t15.5 18l116 148l-141 184q-10 13 -19 17t-33 9v30h213v-30l-34 -5q-34 -5 -8 -40l79 -102l72 95q31 42 -8 48l-28 4v30h171v-30q-32 -6 -46.5 -14.5t-30.5 -29.5l-106 -135l152 -197q10 -13 19 -17.5t33 -9.5v-30h-213v30l34 5
q34 5 8 40l-89 116l-83 -108q-32 -43 8 -49l28 -4v-30h-171v30z" />
    <glyph glyph-name="y" unicode="y" horiz-adv-x="517" 
d="M241 -114q-25 -60 -54 -84t-64 -24q-31 0 -48.5 14t-17.5 36q0 18 12.5 30t30.5 12q14 0 26.5 -5.5t27.5 -5.5t27.5 11t26.5 44l28 66l-176 423q-6 14 -11 18.5t-16 6.5l-28 5v30h219v-30l-35 -5q-20 -3 -25.5 -12t2.5 -28l112 -280q2 -6 6 -6t6 6l111 275q16 40 -27 46
l-29 4v30h165v-30l-16 -3q-18 -4 -26.5 -11.5t-16.5 -25.5z" />
    <glyph glyph-name="z" unicode="z" horiz-adv-x="470" 
d="M287 410q8 13 -4 13h-103q-25 0 -40 -3t-24.5 -14t-16.5 -31.5t-16 -56.5h-33v145h379l-264 -410q-8 -13 5 -13h109q32 0 51.5 3.5t32 14.5t20.5 33t17 58h35l-6 -149h-406z" />
    <glyph glyph-name="braceleft" unicode="{" horiz-adv-x="368" 
d="M16 299v32h40q60 0 90 23.5t30 58.5q0 24 -13 52t-28 58t-28 60t-13 57q0 26 11 49t31 40t49.5 27t67.5 10q23 0 44 -4.5t39 -10.5l-3 -10q-9 2 -18.5 2.5t-20.5 0.5q-45 0 -71.5 -22t-26.5 -57q0 -24 12 -51.5t26.5 -57t26.5 -59t12 -56.5q0 -48 -36 -82.5t-107 -43.5
q71 -9 107 -43.5t36 -82.5q0 -27 -12 -56.5t-26.5 -59t-26.5 -57t-12 -51.5q0 -35 26.5 -57t71.5 -22q23 0 39 4l3 -10q-18 -6 -39 -11t-44 -5q-38 0 -67.5 10t-49.5 27t-31 40t-11 49q0 27 13 57t28 60t28 58t13 52q0 35 -30 58.5t-90 23.5h-40z" />
    <glyph glyph-name="bar" unicode="|" horiz-adv-x="300" 
d="M122 754h54v-878h-54v878z" />
    <glyph glyph-name="braceright" unicode="}" horiz-adv-x="368" 
d="M350 331v-32h-40q-60 0 -90 -23.5t-30 -58.5q0 -24 13 -52t28 -58t28 -60t13 -57q0 -26 -11 -49t-31 -40t-50 -27t-67 -10q-23 0 -44 4.5t-39 10.5l3 10q9 -2 18.5 -2.5t20.5 -0.5q45 0 71.5 22t26.5 57q0 24 -12 51.5t-26.5 57t-26.5 59t-12 56.5q0 48 36 82.5t107 43.5
q-71 9 -107 43.5t-36 82.5q0 27 12 56.5t26.5 59t26.5 57t12 51.5q0 35 -26.5 57t-71.5 22q-23 0 -39 -4l-3 10q18 6 39 11t44 5q37 0 67 -10t50 -27t31 -40t11 -49q0 -27 -13 -57t-28 -60t-28 -58t-13 -52q0 -35 30 -58.5t90 -23.5h40z" />
    <glyph glyph-name="asciitilde" unicode="~" horiz-adv-x="556" 
d="M36 315q32 72 62.5 102t67.5 30q16 0 30 -4t28 -11.5t30.5 -20t38.5 -28.5q22 -17 36.5 -27.5t25 -16.5t19 -8.5t18.5 -2.5q19 0 39.5 20.5t52.5 79.5l34 -16q-32 -72 -62.5 -102t-67.5 -30q-16 0 -30 4t-28 11.5t-30.5 19.5t-38.5 29t-36.5 27.5t-25 16.5t-19 8.5
t-18.5 2.5t-19.5 -4.5t-20 -16t-23.5 -30.5t-29 -49z" />
    <glyph glyph-name="uni00A0" unicode="&#xa0;" horiz-adv-x="211" 
 />
    <glyph glyph-name="exclamdown" unicode="&#xa1;" horiz-adv-x="252" 
d="M142 510q1 -72 8.5 -138.5t16 -124t15 -104.5t6.5 -80q0 -36 -17 -56.5t-46 -20.5t-46 20.5t-17 56.5q0 33 6.5 80t15 104.5t16 124t9.5 138.5h33zM125 708q25 0 42 -17t17 -43q0 -24 -17 -41.5t-42 -17.5t-42 17.5t-17 41.5q0 26 17 43t42 17z" />
    <glyph glyph-name="cent" unicode="&#xa2;" horiz-adv-x="491" 
d="M249 109q-44 4 -82.5 23t-67 50.5t-44.5 73t-16 91.5q0 52 16.5 95t45 75.5t66.5 52.5t82 25v109h41v-107q37 -2 69 -13.5t55.5 -30t36.5 -41.5t13 -47q0 -23 -12 -36.5t-32 -13.5q-21 0 -33 13.5t-17 47.5q-5 35 -25.5 53.5t-54.5 21.5v-367q5 -1 10 -1h10
q44 0 78.5 15.5t64.5 51.5l5 -2q-17 -62 -62.5 -98t-105.5 -41v-113h-41v113zM128 371q0 -68 33 -115t88 -64v357q-53 -11 -87 -58.5t-34 -119.5z" />
    <glyph glyph-name="sterling" unicode="&#xa3;" horiz-adv-x="585" 
d="M31 379h94q-16 32 -27 64t-11 64q0 45 17 83t47.5 65t73 42t92.5 15q43 0 79.5 -10.5t62.5 -27.5t41 -40.5t15 -48.5q0 -22 -12.5 -35t-33.5 -13q-22 0 -34.5 14.5t-20.5 46.5q-8 35 -35.5 53t-70.5 18q-27 0 -50 -9.5t-39.5 -26t-26 -39t-9.5 -49.5q0 -42 21 -83t43 -83
h189v-38h-170q9 -21 15 -42t6 -43q0 -41 -25 -78.5t-77 -79.5q-6 -5 -5.5 -9.5t8.5 -4.5h233q25 0 40.5 3t25.5 13.5t16.5 29t13.5 50.5h31l-7 -180h-522q53 46 87.5 77.5t55 54t28.5 38.5t8 31q0 31 -16.5 66.5t-37.5 73.5h-113v38z" />
    <glyph glyph-name="yen" unicode="&#xa5;" horiz-adv-x="681" 
d="M113 180h174v91h-174v37h154l-190 324q-10 16 -16.5 22t-20.5 9l-33 6v31h269v-31l-51 -9q-24 -4 -29.5 -12.5t5.5 -27.5l160 -280q6 -11 13 0l158 269q25 44 -29 53l-41 7v31h210v-31l-23 -4q-17 -3 -29 -13.5t-24 -30.5l-185 -313h156v-37h-174v-91h174v-37h-174v-81
q0 -20 17 -21l89 -9v-32h-317v32l88 9q17 1 17 21v81h-174v37z" />
    <glyph glyph-name="brokenbar" unicode="&#xa6;" horiz-adv-x="300" 
d="M122 754h54v-395h-54v395zM122 271h54v-395h-54v395z" />
    <glyph glyph-name="section" unicode="&#xa7;" horiz-adv-x="543" 
d="M268 -224q-31 0 -58.5 7t-47.5 19t-32 28t-12 34q0 20 11.5 31.5t30.5 11.5q17 0 28.5 -9.5t22.5 -31.5q12 -26 28 -38.5t41 -12.5q29 0 48 19t19 47q0 27 -18 52t-61 67l-145 140q-50 46 -70 78t-20 70q0 104 145 152q-38 38 -54 68t-16 65q0 31 12.5 56.5t34 44.5
t52 29.5t66.5 10.5q31 0 58.5 -7t47.5 -19t32 -28t12 -34q0 -20 -11.5 -31.5t-30.5 -11.5q-17 0 -28.5 9.5t-22.5 31.5q-12 26 -28 38.5t-41 12.5q-30 0 -48.5 -19t-18.5 -47q0 -14 4 -26t13.5 -26t24.5 -30t37 -37l145 -139q24 -24 41.5 -42.5t28 -36t15.5 -34t5 -35.5
q0 -104 -145 -152q38 -38 54 -68.5t16 -65.5q0 -31 -12.5 -57t-34 -44.5t-52 -29t-66.5 -10.5zM339 73q42 22 61 45.5t19 49.5t-17 50.5t-59 64.5l-141 134q-42 -22 -61 -45t-19 -50q0 -25 17 -49.5t59 -65.5z" />
    <glyph glyph-name="dieresis" unicode="&#xa8;" horiz-adv-x="500" 
d="M93 588q0 24 17 40.5t40 16.5t39.5 -16.5t16.5 -40.5q0 -23 -16.5 -40t-39.5 -17t-40 17t-17 40zM292 588q0 24 16.5 40.5t40.5 16.5q23 0 39.5 -16.5t16.5 -40.5q0 -23 -16.5 -40t-39.5 -17q-24 0 -40.5 17t-16.5 40z" />
    <glyph glyph-name="copyright" unicode="&#xa9;" horiz-adv-x="863" 
d="M42 349q0 81 30 151.5t82 122.5t123 81.5t154 29.5q82 0 153 -29.5t123.5 -81t82 -121.5t29.5 -151t-29.5 -151.5t-82 -122.5t-123.5 -81.5t-153 -29.5q-83 0 -154 29.5t-123 81t-82 121.5t-30 151zM785 350q0 75 -27.5 139.5t-75 112t-112.5 74.5t-140 27t-139.5 -27
t-112 -74.5t-74.5 -112t-27 -139.5t27.5 -139.5t75 -112t112.5 -74.5t140 -27t139.5 27t112 74.5t74.5 112t27 139.5zM434 131q-47 0 -87 16t-68.5 45t-44.5 69t-16 87q0 48 16.5 89.5t45 71.5t68 47.5t85.5 17.5q34 0 57.5 -8t39.5 -17t25 -17t14 -8q2 0 4.5 1t6.5 4.5
t11.5 10t20.5 17.5v-142h-38q-11 55 -44.5 89.5t-80.5 34.5q-57 0 -92.5 -48.5t-35.5 -135.5q0 -91 37 -140.5t94 -49.5q46 0 80.5 35t45.5 89h38v-142q-13 12 -20.5 18.5t-11.5 10t-6.5 4.5t-4.5 1q-5 0 -14.5 -8t-25 -17t-40 -17t-59.5 -8z" />
    <glyph glyph-name="ordfeminine" unicode="&#xaa;" horiz-adv-x="378" 
d="M124 357q-38 0 -61.5 20.5t-23.5 53.5q0 29 17.5 47t58.5 36l115 51v32q0 41 -17.5 61t-46.5 20q-53 0 -61 -62q-6 -47 -41 -47q-15 0 -24.5 10t-9.5 29q0 21 10.5 39t29.5 32t45 22t57 8q66 0 101 -32.5t35 -95.5v-149q0 -37 28 -37q17 0 32 17l5 -2q-7 -25 -25.5 -39
t-47.5 -14q-30 0 -48.5 16t-21.5 45q-38 -61 -106 -61zM117 447q0 -20 13 -32t33 -12q18 0 35 10.5t32 30.5v95l-62 -32q-28 -14 -39.5 -27t-11.5 -33z" />
    <glyph glyph-name="guillemotleft" unicode="&#xab;" horiz-adv-x="578" 
d="M315 -9l-6 -5l-277 246l277 245l6 -5l-147 -240zM535 -9l-6 -5l-277 246l277 245l6 -5l-147 -240z" />
    <glyph glyph-name="registered" unicode="&#xae;" horiz-adv-x="484" 
d="M23 497q0 46 17 85.5t46 69t69 46t86 16.5t86 -16.5t69 -45t46 -68t17 -85.5q0 -47 -17 -86.5t-46 -68.5t-69 -45.5t-86 -16.5t-86 16t-69 45t-46 68t-17 86zM51 498q0 -41 14.5 -76t40 -60.5t60 -40t75.5 -14.5q40 0 75 14.5t60.5 40t40 60.5t14.5 76t-14.5 76t-40 60.5
t-60.5 40t-75 14.5q-41 0 -75.5 -14.5t-60 -40t-40 -60.5t-14.5 -76zM225 492h-10v-82q0 -10 8 -11l22 -2v-16h-117v16l21 2q9 1 9 11v184q0 10 -9 11l-21 2v16h121q45 0 67.5 -17.5t22.5 -46.5q0 -23 -15 -39t-41 -23l56 -79q8 -11 12.5 -14.5t13.5 -5.5l6 -1v-16h-72z
M215 510h16q25 0 39 12t14 35q0 22 -13.5 34t-37.5 12h-18v-93z" />
    <glyph glyph-name="macron" unicode="&#xaf;" horiz-adv-x="500" 
d="M104 587h290v-44h-290v44z" />
    <glyph glyph-name="degree" unicode="&#xb0;" horiz-adv-x="414" 
d="M40 548q0 34 13 64.5t35.5 53t52.5 35.5t65 13t65.5 -12.5t53 -35t35.5 -52.5t13 -64t-13 -64t-35.5 -52.5t-53 -35.5t-65.5 -13t-65 12.5t-52.5 34.5t-35.5 52t-13 64zM328 549q0 26 -9.5 48.5t-26 39.5t-38.5 26.5t-48 9.5t-48 -9.5t-38.5 -26.5t-26 -39.5t-9.5 -48.5
t9.5 -48.5t26 -39.5t38.5 -26.5t48 -9.5t48 9.5t38.5 26.5t26 39.5t9.5 48.5z" />
    <glyph glyph-name="plusminus" unicode="&#xb1;" horiz-adv-x="556" 
d="M52 386h200v202h49v-202h202v-46h-202v-201h-49v201h-200v46zM52 46h451v-46h-451v46z" />
    <glyph glyph-name="twosuperior" unicode="&#xb2;" horiz-adv-x="301" 
d="M119 447q21 24 35 43.5t22.5 37t11.5 33t3 32.5q0 40 -18 62.5t-47 22.5q-22 0 -36.5 -12.5t-14.5 -31.5q0 -8 3 -14.5t6 -12t6 -11.5t3 -13q0 -16 -9.5 -24.5t-24.5 -8.5q-18 0 -30 13.5t-12 37.5q0 46 32.5 76t92.5 30q59 0 93 -28t34 -72q0 -34 -22.5 -71t-75.5 -84
l-63 -56q-3 -3 -2.5 -5.5t5.5 -2.5h101q13 0 21.5 1.5t14 7t9 15t7.5 24.5h20l-4 -107h-267z" />
    <glyph glyph-name="threesuperior" unicode="&#xb3;" horiz-adv-x="302" 
d="M141 322q-55 0 -88.5 23.5t-33.5 60.5q0 17 10.5 29t27.5 12q16 0 25 -9.5t9 -26.5q0 -6 -1 -12.5t-1 -12.5q0 -16 12.5 -26.5t36.5 -10.5q31 0 50 22.5t19 59.5q0 41 -25.5 62t-73.5 21h-28l101 118q3 4 3 7t-5 3h-81q-26 0 -35 -8.5t-16 -37.5h-21l4 104h248l-115 -131
q-7 -7 2 -8q57 -7 87.5 -36.5t30.5 -75.5q0 -27 -11 -50.5t-30 -40.5t-45 -26.5t-56 -9.5z" />
    <glyph glyph-name="acute" unicode="&#xb4;" horiz-adv-x="500" 
d="M364 670q14 -17 11.5 -35.5t-19.5 -32.5q-9 -8 -21 -15t-31.5 -17t-49 -24t-72.5 -34l-5 6q27 39 45.5 65t32 44t22.5 28.5t18 18.5q17 14 36 13.5t33 -17.5z" />
    <glyph glyph-name="paragraph" unicode="&#xb6;" horiz-adv-x="626" 
d="M596 700v-31l-78 -10q-17 -3 -17 -20v-577q0 -11 3.5 -15t13.5 -6l78 -9v-32h-373v32l78 9q10 2 13.5 6t3.5 15v226h-54q-53 0 -97 14.5t-75 41t-48 64.5t-17 86t17 86t48 64.5t75 41t97 14.5h332zM447 44v613h-75v-613h75z" />
    <glyph glyph-name="periodcentered" unicode="&#xb7;" horiz-adv-x="220" 
d="M50 283q0 25 17 42t42 17t42 -17t17 -42t-17 -42t-42 -17t-42 17t-17 42z" />
    <glyph glyph-name="cedilla" unicode="&#xb8;" horiz-adv-x="500" 
d="M297 10l-57 -67q13 3 28 3q42 0 68 -20t26 -54q0 -39 -34 -66t-88 -27q-36 0 -64.5 14.5t-44.5 38.5l7 7q19 -10 40 -16.5t43 -6.5q31 0 48.5 14t17.5 37q0 21 -14.5 34.5t-41.5 13.5q-14 0 -29.5 -2.5t-30.5 -10.5l-7 9l80 99h53z" />
    <glyph glyph-name="onesuperior" unicode="&#xb9;" horiz-adv-x="201" 
d="M17 350l36 5q9 1 9 11v276q0 13 -9 16l-36 12v11l123 27v-342q0 -10 10 -11l36 -5v-21h-169v21z" />
    <glyph glyph-name="ordmasculine" unicode="&#xba;" horiz-adv-x="404" 
d="M25 529q0 40 13.5 73.5t37 57.5t56 37t70.5 13q36 0 67.5 -12.5t55.5 -35t38 -54t14 -70.5q0 -41 -13.5 -74.5t-37 -57.5t-56 -37t-70.5 -13q-36 0 -67.5 12.5t-55.5 35t-38 54.5t-14 71zM109 535q0 -71 27 -109t67 -38q38 0 64 36t26 108q0 70 -27.5 108t-66.5 38
q-38 0 -64 -36t-26 -107z" />
    <glyph glyph-name="guillemotright" unicode="&#xbb;" horiz-adv-x="578" 
d="M41 -9l6 -5l277 246l-277 245l-6 -5l147 -240zM262 -9l6 -5l277 246l-277 245l-6 -5l147 -240z" />
    <glyph glyph-name="onequarter" unicode="&#xbc;" horiz-adv-x="630" 
d="M17 350l36 5q9 1 9 11v276q0 13 -9 16l-36 12v11l123 27v-342q0 -10 10 -11l36 -5v-21h-169v21zM454 706h53l-410 -712h-52zM363 219q27 39 35.5 74.5t5.5 77.5h82q-2 -12 -7 -24.5t-13.5 -27.5t-22.5 -34.5t-34 -47.5l-58 -80q-4 -7 3 -7h106v70l75 50v-120q13 0 21 2
t13 7t8.5 15t8.5 26h20l-3 -103h-68v-61q0 -10 9 -11l27 -4v-21h-148v21l27 4q10 1 10 11v61h-182z" />
    <glyph glyph-name="onehalf" unicode="&#xbd;" horiz-adv-x="627" 
d="M17 350l36 5q9 1 9 11v276q0 13 -9 16l-36 12v11l123 27v-342q0 -10 10 -11l36 -5v-21h-169v21zM454 706h53l-410 -712h-52zM439 118q21 24 35 43.5t22.5 37t11.5 33t3 32.5q0 40 -18 62.5t-47 22.5q-22 0 -36.5 -12.5t-14.5 -31.5q0 -8 3 -14.5t6 -12t6 -11.5t3 -13
q0 -16 -9.5 -24.5t-24.5 -8.5q-18 0 -30 13.5t-12 37.5q0 46 32.5 76t92.5 30q59 0 93 -28t34 -72q0 -34 -22.5 -71t-75.5 -84l-63 -56q-3 -3 -2.5 -5.5t5.5 -2.5h101q13 0 21.5 1.5t14 7t9 15t7.5 24.5h20l-4 -107h-267z" />
    <glyph glyph-name="threequarters" unicode="&#xbe;" horiz-adv-x="704" 
d="M141 322q-55 0 -88.5 23.5t-33.5 60.5q0 17 10.5 29t27.5 12q16 0 25 -9.5t9 -26.5q0 -6 -1 -12.5t-1 -12.5q0 -16 12.5 -26.5t36.5 -10.5q31 0 50 22.5t19 59.5q0 41 -25.5 62t-73.5 21h-28l101 118q3 4 3 7t-5 3h-81q-26 0 -35 -8.5t-16 -37.5h-21l4 104h248l-115 -131
q-7 -7 2 -8q57 -7 87.5 -36.5t30.5 -75.5q0 -27 -11 -50.5t-30 -40.5t-45 -26.5t-56 -9.5zM528 706h53l-410 -712h-52zM437 219q27 39 35.5 74.5t5.5 77.5h82q-2 -12 -7 -24.5t-13.5 -27.5t-22.5 -34.5t-34 -47.5l-58 -80q-4 -7 3 -7h106v70l75 50v-120q13 0 21 2t13 7
t8.5 15t8.5 26h20l-3 -103h-68v-61q0 -10 9 -11l27 -4v-21h-148v21l27 4q10 1 10 11v61h-182z" />
    <glyph glyph-name="questiondown" unicode="&#xbf;" horiz-adv-x="519" 
d="M296 346h-12q-73 0 -113.5 -40.5t-40.5 -116.5q0 -36 11.5 -66t32 -51t48.5 -32.5t61 -11.5q54 0 87 26t33 65q0 10 -4 20t-8.5 20t-8.5 20.5t-4 20.5q0 20 13.5 33.5t38.5 13.5q24 0 40.5 -20t16.5 -59q0 -38 -15.5 -71t-44 -57.5t-68.5 -39t-90 -14.5q-53 0 -97 14
t-76.5 40t-50.5 62.5t-18 80.5q0 41 15.5 76t44 60.5t68.5 41t89 17.5l3 132h43zM274 708q25 0 42 -17t17 -43q0 -24 -17 -41.5t-42 -17.5t-42.5 17.5t-17.5 41.5q0 26 17.5 43t42.5 17z" />
    <glyph glyph-name="Agrave" unicode="&#xc0;" horiz-adv-x="757" 
d="M7 32l22 4q37 7 56 48l268 624h49l275 -639q7 -15 13.5 -21t20.5 -9l37 -7v-32h-270v32l45 7q27 5 32.5 15.5t-4.5 34.5l-71 170h-267l-68 -160q-11 -27 -4.5 -42t40.5 -20l33 -5v-32h-207v32zM231 302h231l-109 263q-2 6 -5.5 6t-5.5 -6zM264 907q15 17 33.5 17.5
t35.5 -13.5q8 -8 17.5 -18.5t22.5 -28.5t31.5 -44t45.5 -65l-4 -6q-43 20 -72.5 34t-49 24t-31.5 17t-21 15q-17 14 -19.5 32.5t11.5 35.5z" />
    <glyph glyph-name="Aacute" unicode="&#xc1;" horiz-adv-x="757" 
d="M7 32l22 4q37 7 56 48l268 624h49l275 -639q7 -15 13.5 -21t20.5 -9l37 -7v-32h-270v32l45 7q27 5 32.5 15.5t-4.5 34.5l-71 170h-267l-68 -160q-11 -27 -4.5 -42t40.5 -20l33 -5v-32h-207v32zM231 302h231l-109 263q-2 6 -5.5 6t-5.5 -6zM493 907q14 -17 11.5 -35.5
t-19.5 -32.5q-9 -8 -21 -15t-31.5 -17t-49 -24t-72.5 -34l-5 6q27 39 45.5 65t32 44t22.5 28.5t18 18.5q17 14 36 13.5t33 -17.5z" />
    <glyph glyph-name="Acircumflex" unicode="&#xc2;" horiz-adv-x="757" 
d="M7 32l22 4q37 7 56 48l268 624h49l275 -639q7 -15 13.5 -21t20.5 -9l37 -7v-32h-270v32l45 7q27 5 32.5 15.5t-4.5 34.5l-71 170h-267l-68 -160q-11 -27 -4.5 -42t40.5 -20l33 -5v-32h-207v32zM231 302h231l-109 263q-2 6 -5.5 6t-5.5 -6zM214 752l-6 8l139 154h63
l138 -154l-6 -8l-164 82z" />
    <glyph glyph-name="Atilde" unicode="&#xc3;" horiz-adv-x="757" 
d="M7 32l22 4q37 7 56 48l268 624h49l275 -639q7 -15 13.5 -21t20.5 -9l37 -7v-32h-270v32l45 7q27 5 32.5 15.5t-4.5 34.5l-71 170h-267l-68 -160q-11 -27 -4.5 -42t40.5 -20l33 -5v-32h-207v32zM231 302h231l-109 263q-2 6 -5.5 6t-5.5 -6zM399 861q27 -17 39 -22t22 -5
q14 0 28.5 11.5t35.5 42.5l10 -3q-25 -119 -84 -119q-20 0 -38.5 9t-49.5 29q-27 17 -39 22.5t-23 5.5q-14 0 -28.5 -12t-35.5 -43l-10 3q13 61 34.5 90t49.5 29q20 0 38.5 -9t50.5 -29z" />
    <glyph glyph-name="Adieresis" unicode="&#xc4;" horiz-adv-x="757" 
d="M7 32l22 4q37 7 56 48l268 624h49l275 -639q7 -15 13.5 -21t20.5 -9l37 -7v-32h-270v32l45 7q27 5 32.5 15.5t-4.5 34.5l-71 170h-267l-68 -160q-11 -27 -4.5 -42t40.5 -20l33 -5v-32h-207v32zM231 302h231l-109 263q-2 6 -5.5 6t-5.5 -6zM222 825q0 24 17 40.5t40 16.5
t39.5 -16.5t16.5 -40.5q0 -23 -16.5 -40t-39.5 -17t-40 17t-17 40zM421 825q0 24 16.5 40.5t40.5 16.5q23 0 39.5 -16.5t16.5 -40.5q0 -23 -16.5 -40t-39.5 -17q-24 0 -40.5 17t-16.5 40z" />
    <glyph glyph-name="Aring" unicode="&#xc5;" horiz-adv-x="757" 
d="M7 32l22 4q37 7 56 48l268 624h49l275 -639q7 -15 13.5 -21t20.5 -9l37 -7v-32h-270v32l45 7q27 5 32.5 15.5t-4.5 34.5l-71 170h-267l-68 -160q-11 -27 -4.5 -42t40.5 -20l33 -5v-32h-207v32zM231 302h231l-109 263q-2 6 -5.5 6t-5.5 -6zM485 870q0 -21 -8.5 -40
t-22.5 -32.5t-34 -21.5t-42 -8t-41.5 7.5t-33.5 21t-22.5 32t-8.5 39.5t8.5 40t22.5 32.5t33.5 21.5t41.5 8t42 -7.5t34 -21t22.5 -32t8.5 -39.5zM311 869q0 -28 19 -46t48 -18t48 18t19 46t-19 46t-48 18t-48 -18t-19 -46z" />
    <glyph glyph-name="AE" unicode="&#xc6;" horiz-adv-x="1061" 
d="M802 314q-4 16 -8.5 21t-17.5 5l-137 3v-278q0 -21 21 -21h185q34 0 54 4t33.5 18.5t23.5 43t23 78.5h39l-8 -188h-578v32l78 9q10 2 13.5 6t3.5 15v197h-263l-102 -157q-21 -32 -16 -45.5t34 -18.5l40 -6v-32h-216v32l16 3q24 5 41 16.5t35 39.5l332 508q21 32 16 45
t-35 18l-39 7v31h620v-184h-36q-12 49 -20.5 77t-19.5 42.5t-26.5 18t-41.5 3.5h-207v-274l137 3q13 0 17.5 5t8.5 22l14 63h39v-225h-39zM292 302h235v340q0 7 -4 8t-8 -4z" />
    <glyph glyph-name="Ccedilla" unicode="&#xc7;" horiz-adv-x="744" 
d="M511 -128q0 -39 -34 -66t-88 -27q-36 0 -64.5 14.5t-44.5 38.5l7 7q19 -10 40 -16.5t43 -6.5q31 0 48.5 14t17.5 37q0 21 -14.5 34.5t-41.5 13.5q-14 0 -29.5 -2.5t-30.5 -10.5l-7 9l63 78q-73 4 -134.5 32t-106.5 74.5t-70 110t-25 137.5q0 80 27 147.5t74.5 117t113 77
t142.5 27.5q60 0 102 -13.5t69 -29t42.5 -29t23.5 -13.5q3 0 6.5 2t9.5 7t15 15t24 27v-214h-42q-9 46 -31 83.5t-53.5 63.5t-70.5 40t-82 14q-56 0 -102 -22t-79.5 -63t-52 -98.5t-18.5 -127.5q0 -74 19 -133t52.5 -100t80 -63.5t100.5 -22.5q43 0 82 14t70.5 40.5
t53.5 63.5t31 83h42v-214q-15 16 -24 26.5t-15 15.5t-9.5 7t-6.5 2q-8 0 -21.5 -11.5t-37.5 -26.5t-60 -28.5t-87 -17.5l-39 -46q13 3 28 3q42 0 68 -20t26 -54z" />
    <glyph glyph-name="Egrave" unicode="&#xc8;" horiz-adv-x="656" 
d="M106 41q10 2 13.5 6t3.5 15v577q0 17 -17 20l-78 10v31h558v-184h-37q-12 49 -20.5 77t-19 42.5t-26.5 18t-42 3.5h-206v-274l136 3q14 0 18.5 5t8.5 22l14 63h39v-225h-39l-14 63q-4 16 -8.5 21t-18.5 5l-136 3v-278q0 -21 21 -21h185q34 0 54 4t33.5 18.5t23.5 43
t22 78.5h39l-8 -188h-577v32zM238 907q15 17 33.5 17.5t35.5 -13.5q8 -8 17.5 -18.5t22.5 -28.5t31.5 -44t45.5 -65l-4 -6q-43 20 -72.5 34t-49 24t-31.5 17t-21 15q-17 14 -19.5 32.5t11.5 35.5z" />
    <glyph glyph-name="Eacute" unicode="&#xc9;" horiz-adv-x="656" 
d="M467 907q14 -17 11.5 -35.5t-19.5 -32.5q-9 -8 -21 -15t-31.5 -17t-49 -24t-72.5 -34l-5 6q27 39 45.5 65t32 44t22.5 28.5t18 18.5q17 14 36 13.5t33 -17.5zM106 41q10 2 13.5 6t3.5 15v577q0 17 -17 20l-78 10v31h558v-184h-37q-12 49 -20.5 77t-19 42.5t-26.5 18
t-42 3.5h-206v-274l136 3q14 0 18.5 5t8.5 22l14 63h39v-225h-39l-14 63q-4 16 -8.5 21t-18.5 5l-136 3v-278q0 -21 21 -21h185q34 0 54 4t33.5 18.5t23.5 43t22 78.5h39l-8 -188h-577v32z" />
    <glyph glyph-name="Ecircumflex" unicode="&#xca;" horiz-adv-x="656" 
d="M188 752l-6 8l139 154h63l138 -154l-6 -8l-164 82zM106 41q10 2 13.5 6t3.5 15v577q0 17 -17 20l-78 10v31h558v-184h-37q-12 49 -20.5 77t-19 42.5t-26.5 18t-42 3.5h-206v-274l136 3q14 0 18.5 5t8.5 22l14 63h39v-225h-39l-14 63q-4 16 -8.5 21t-18.5 5l-136 3v-278
q0 -21 21 -21h185q34 0 54 4t33.5 18.5t23.5 43t22 78.5h39l-8 -188h-577v32z" />
    <glyph glyph-name="Edieresis" unicode="&#xcb;" horiz-adv-x="656" 
d="M196 825q0 24 17 40.5t40 16.5t39.5 -16.5t16.5 -40.5q0 -23 -16.5 -40t-39.5 -17t-40 17t-17 40zM395 825q0 24 16.5 40.5t40.5 16.5q23 0 39.5 -16.5t16.5 -40.5q0 -23 -16.5 -40t-39.5 -17q-24 0 -40.5 17t-16.5 40zM106 41q10 2 13.5 6t3.5 15v577q0 17 -17 20
l-78 10v31h558v-184h-37q-12 49 -20.5 77t-19 42.5t-26.5 18t-42 3.5h-206v-274l136 3q14 0 18.5 5t8.5 22l14 63h39v-225h-39l-14 63q-4 16 -8.5 21t-18.5 5l-136 3v-278q0 -21 21 -21h185q34 0 54 4t33.5 18.5t23.5 43t22 78.5h39l-8 -188h-577v32z" />
    <glyph glyph-name="Igrave" unicode="&#xcc;" horiz-adv-x="364" 
d="M237 62q0 -11 3.5 -15t13.5 -6l78 -9v-32h-302v32l78 9q10 2 13.5 6t3.5 15v577q0 17 -17 20l-78 10v31h302v-31l-78 -10q-17 -3 -17 -20v-577zM67 907q15 17 33.5 17.5t35.5 -13.5q8 -8 17.5 -18.5t22.5 -28.5t31.5 -44t45.5 -65l-4 -6q-43 20 -72.5 34t-49 24t-31.5 17
t-21 15q-17 14 -19.5 32.5t11.5 35.5z" />
    <glyph glyph-name="Iacute" unicode="&#xcd;" horiz-adv-x="364" 
d="M237 62q0 -11 3.5 -15t13.5 -6l78 -9v-32h-302v32l78 9q10 2 13.5 6t3.5 15v577q0 17 -17 20l-78 10v31h302v-31l-78 -10q-17 -3 -17 -20v-577zM296 907q14 -17 11.5 -35.5t-19.5 -32.5q-9 -8 -21 -15t-31.5 -17t-49 -24t-72.5 -34l-5 6q27 39 45.5 65t32 44t22.5 28.5
t18 18.5q17 14 36 13.5t33 -17.5z" />
    <glyph glyph-name="Icircumflex" unicode="&#xce;" horiz-adv-x="364" 
d="M237 62q0 -11 3.5 -15t13.5 -6l78 -9v-32h-302v32l78 9q10 2 13.5 6t3.5 15v577q0 17 -17 20l-78 10v31h302v-31l-78 -10q-17 -3 -17 -20v-577zM17 752l-6 8l139 154h63l138 -154l-6 -8l-164 82z" />
    <glyph glyph-name="Idieresis" unicode="&#xcf;" horiz-adv-x="364" 
d="M237 62q0 -11 3.5 -15t13.5 -6l78 -9v-32h-302v32l78 9q10 2 13.5 6t3.5 15v577q0 17 -17 20l-78 10v31h302v-31l-78 -10q-17 -3 -17 -20v-577zM25 825q0 24 17 40.5t40 16.5t39.5 -16.5t16.5 -40.5q0 -23 -16.5 -40t-39.5 -17t-40 17t-17 40zM224 825q0 24 16.5 40.5
t40.5 16.5q23 0 39.5 -16.5t16.5 -40.5q0 -23 -16.5 -40t-39.5 -17q-24 0 -40.5 17t-16.5 40z" />
    <glyph glyph-name="Eth" unicode="&#xd0;" horiz-adv-x="772" 
d="M28 32l78 9q10 2 13.5 6t3.5 15v282h-95v38h95v257q0 17 -17 20l-78 10v31h330q82 0 150.5 -25t118 -70t77.5 -108.5t28 -140.5q0 -80 -27.5 -146t-78 -112.5t-120.5 -72t-154 -25.5h-324v32zM235 65q0 -21 21 -21h93q60 0 109 21t84 60.5t54 95t19 124.5t-18.5 126.5
t-53 99t-83 64t-107.5 22.5h-118v-275h161v-38h-161v-279z" />
    <glyph glyph-name="Ntilde" unicode="&#xd1;" horiz-adv-x="775" 
d="M219 700l377 -461q5 -5 8.5 -4t3.5 8l-2 360q0 29 -9.5 41.5t-34.5 16.5l-51 8v31h244v-31l-51 -8q-25 -4 -34.5 -16.5t-9.5 -41.5v-614h-2l-472 578q-5 5 -8.5 4t-3.5 -8l3 -465q0 -29 9.5 -41.5t34.5 -16.5l51 -8v-32h-244v32l51 8q25 4 34.5 16.5t9.5 41.5v515
q0 20 -4.5 26t-21.5 11l-69 19v31h191zM422 861q27 -17 39 -22t22 -5q14 0 28.5 11.5t35.5 42.5l10 -3q-25 -119 -84 -119q-20 0 -38.5 9t-49.5 29q-27 17 -39 22.5t-23 5.5q-14 0 -28.5 -12t-35.5 -43l-10 3q13 61 34.5 90t49.5 29q20 0 38.5 -9t50.5 -29z" />
    <glyph glyph-name="Ograve" unicode="&#xd2;" 
d="M767 362q0 -89 -30.5 -158.5t-81.5 -118t-117 -74t-136 -25.5q-73 0 -139 25.5t-115.5 72t-78.5 111.5t-29 144q0 88 31 158t82 118t117 73.5t136 25.5q73 0 138.5 -25.5t115 -72t78.5 -111.5t29 -143zM157 356q0 -76 20.5 -136t55 -102t80 -64.5t95.5 -22.5
q53 0 97.5 24t77 66t50.5 99.5t18 123.5q0 76 -20.5 136.5t-55 102.5t-80 64t-95.5 22q-53 0 -98 -24t-77 -66t-50 -99t-18 -124zM292 907q15 17 33.5 17.5t35.5 -13.5q8 -8 17.5 -18.5t22.5 -28.5t31.5 -44t45.5 -65l-4 -6q-43 20 -72.5 34t-49 24t-31.5 17t-21 15
q-17 14 -19.5 32.5t11.5 35.5z" />
    <glyph glyph-name="Oacute" unicode="&#xd3;" 
d="M521 907q14 -17 11.5 -35.5t-19.5 -32.5q-9 -8 -21 -15t-31.5 -17t-49 -24t-72.5 -34l-5 6q27 39 45.5 65t32 44t22.5 28.5t18 18.5q17 14 36 13.5t33 -17.5zM767 362q0 -89 -30.5 -158.5t-81.5 -118t-117 -74t-136 -25.5q-73 0 -139 25.5t-115.5 72t-78.5 111.5t-29 144
q0 88 31 158t82 118t117 73.5t136 25.5q73 0 138.5 -25.5t115 -72t78.5 -111.5t29 -143zM157 356q0 -76 20.5 -136t55 -102t80 -64.5t95.5 -22.5q53 0 97.5 24t77 66t50.5 99.5t18 123.5q0 76 -20.5 136.5t-55 102.5t-80 64t-95.5 22q-53 0 -98 -24t-77 -66t-50 -99
t-18 -124z" />
    <glyph glyph-name="Ocircumflex" unicode="&#xd4;" 
d="M242 752l-6 8l139 154h63l138 -154l-6 -8l-164 82zM767 362q0 -89 -30.5 -158.5t-81.5 -118t-117 -74t-136 -25.5q-73 0 -139 25.5t-115.5 72t-78.5 111.5t-29 144q0 88 31 158t82 118t117 73.5t136 25.5q73 0 138.5 -25.5t115 -72t78.5 -111.5t29 -143zM157 356
q0 -76 20.5 -136t55 -102t80 -64.5t95.5 -22.5q53 0 97.5 24t77 66t50.5 99.5t18 123.5q0 76 -20.5 136.5t-55 102.5t-80 64t-95.5 22q-53 0 -98 -24t-77 -66t-50 -99t-18 -124z" />
    <glyph glyph-name="Otilde" unicode="&#xd5;" 
d="M767 362q0 -89 -30.5 -158.5t-81.5 -118t-117 -74t-136 -25.5q-73 0 -139 25.5t-115.5 72t-78.5 111.5t-29 144q0 88 31 158t82 118t117 73.5t136 25.5q73 0 138.5 -25.5t115 -72t78.5 -111.5t29 -143zM157 356q0 -76 20.5 -136t55 -102t80 -64.5t95.5 -22.5
q53 0 97.5 24t77 66t50.5 99.5t18 123.5q0 76 -20.5 136.5t-55 102.5t-80 64t-95.5 22q-53 0 -98 -24t-77 -66t-50 -99t-18 -124zM427 861q27 -17 39 -22t22 -5q14 0 28.5 11.5t35.5 42.5l10 -3q-25 -119 -84 -119q-20 0 -38.5 9t-49.5 29q-27 17 -39 22.5t-23 5.5
q-14 0 -28.5 -12t-35.5 -43l-10 3q13 61 34.5 90t49.5 29q20 0 38.5 -9t50.5 -29z" />
    <glyph glyph-name="Odieresis" unicode="&#xd6;" 
d="M250 825q0 24 17 40.5t40 16.5t39.5 -16.5t16.5 -40.5q0 -23 -16.5 -40t-39.5 -17t-40 17t-17 40zM449 825q0 24 16.5 40.5t40.5 16.5q23 0 39.5 -16.5t16.5 -40.5q0 -23 -16.5 -40t-39.5 -17q-24 0 -40.5 17t-16.5 40zM767 362q0 -89 -30.5 -158.5t-81.5 -118t-117 -74
t-136 -25.5q-73 0 -139 25.5t-115.5 72t-78.5 111.5t-29 144q0 88 31 158t82 118t117 73.5t136 25.5q73 0 138.5 -25.5t115 -72t78.5 -111.5t29 -143zM157 356q0 -76 20.5 -136t55 -102t80 -64.5t95.5 -22.5q53 0 97.5 24t77 66t50.5 99.5t18 123.5q0 76 -20.5 136.5
t-55 102.5t-80 64t-95.5 22q-53 0 -98 -24t-77 -66t-50 -99t-18 -124z" />
    <glyph glyph-name="multiply" unicode="&#xd7;" horiz-adv-x="556" 
d="M73 192l172 172l-172 171l34 34l170 -173l170 173l34 -34l-171 -171l171 -172l-34 -34l-170 173l-170 -173z" />
    <glyph glyph-name="Oslash" unicode="&#xd8;" 
d="M144 87q-48 47 -76 110.5t-28 141.5q0 88 31 158t82 118t117 73.5t136 25.5q65 0 123 -20t106 -57l69 77h50l-90 -101q48 -47 75.5 -110.5t27.5 -140.5q0 -89 -30.5 -158.5t-81.5 -118t-117 -74t-136 -25.5q-65 0 -123 20t-106 57l-69 -77h-50zM157 356q0 -60 13 -110.5
t36 -89.5l375 420q-35 45 -82 69t-99 24q-53 0 -98 -24t-77 -66t-50 -99t-18 -124zM651 344q0 60 -13 110.5t-36 89.5l-375 -420q35 -45 82 -69t99 -24q53 0 97.5 24t77 66t50.5 99.5t18 123.5z" />
    <glyph glyph-name="Ugrave" unicode="&#xd9;" horiz-adv-x="779" 
d="M613 603q0 29 -9.5 41.5t-34.5 16.5l-52 8v31h245v-31l-52 -8q-25 -4 -34.5 -16.5t-9.5 -41.5l-1 -367q0 -59 -19 -105.5t-54.5 -78t-85 -48t-109.5 -16.5q-65 0 -117.5 17.5t-90 50t-58 78.5t-20.5 103v402q0 17 -17 20l-79 10v31h303v-31l-78 -10q-17 -3 -17 -20v-393
q0 -97 51.5 -148t140.5 -51q91 0 145 49.5t54 143.5zM299 907q15 17 33.5 17.5t35.5 -13.5q8 -8 17.5 -18.5t22.5 -28.5t31.5 -44t45.5 -65l-4 -6q-43 20 -72.5 34t-49 24t-31.5 17t-21 15q-17 14 -19.5 32.5t11.5 35.5z" />
    <glyph glyph-name="Uacute" unicode="&#xda;" horiz-adv-x="779" 
d="M528 907q14 -17 11.5 -35.5t-19.5 -32.5q-9 -8 -21 -15t-31.5 -17t-49 -24t-72.5 -34l-5 6q27 39 45.5 65t32 44t22.5 28.5t18 18.5q17 14 36 13.5t33 -17.5zM613 603q0 29 -9.5 41.5t-34.5 16.5l-52 8v31h245v-31l-52 -8q-25 -4 -34.5 -16.5t-9.5 -41.5l-1 -367
q0 -59 -19 -105.5t-54.5 -78t-85 -48t-109.5 -16.5q-65 0 -117.5 17.5t-90 50t-58 78.5t-20.5 103v402q0 17 -17 20l-79 10v31h303v-31l-78 -10q-17 -3 -17 -20v-393q0 -97 51.5 -148t140.5 -51q91 0 145 49.5t54 143.5z" />
    <glyph glyph-name="Ucircumflex" unicode="&#xdb;" horiz-adv-x="779" 
d="M249 752l-6 8l139 154h63l138 -154l-6 -8l-164 82zM613 603q0 29 -9.5 41.5t-34.5 16.5l-52 8v31h245v-31l-52 -8q-25 -4 -34.5 -16.5t-9.5 -41.5l-1 -367q0 -59 -19 -105.5t-54.5 -78t-85 -48t-109.5 -16.5q-65 0 -117.5 17.5t-90 50t-58 78.5t-20.5 103v402
q0 17 -17 20l-79 10v31h303v-31l-78 -10q-17 -3 -17 -20v-393q0 -97 51.5 -148t140.5 -51q91 0 145 49.5t54 143.5z" />
    <glyph glyph-name="Udieresis" unicode="&#xdc;" horiz-adv-x="779" 
d="M257 825q0 24 17 40.5t40 16.5t39.5 -16.5t16.5 -40.5q0 -23 -16.5 -40t-39.5 -17t-40 17t-17 40zM456 825q0 24 16.5 40.5t40.5 16.5q23 0 39.5 -16.5t16.5 -40.5q0 -23 -16.5 -40t-39.5 -17q-24 0 -40.5 17t-16.5 40zM613 603q0 29 -9.5 41.5t-34.5 16.5l-52 8v31h245
v-31l-52 -8q-25 -4 -34.5 -16.5t-9.5 -41.5l-1 -367q0 -59 -19 -105.5t-54.5 -78t-85 -48t-109.5 -16.5q-65 0 -117.5 17.5t-90 50t-58 78.5t-20.5 103v402q0 17 -17 20l-79 10v31h303v-31l-78 -10q-17 -3 -17 -20v-393q0 -97 51.5 -148t140.5 -51q91 0 145 49.5t54 143.5z
" />
    <glyph glyph-name="Yacute" unicode="&#xdd;" horiz-adv-x="687" 
d="M538 609q25 44 -29 53l-40 7v31h209v-31l-23 -4q-17 -3 -29 -13.5t-24 -30.5l-203 -344v-215q0 -20 17 -21l89 -9v-32h-323v32l88 9q17 1 17 21v212l-210 358q-10 16 -16.5 22t-20.5 9l-33 6v31h275v-31l-51 -9q-24 -4 -29.5 -12.5t5.5 -27.5l160 -280q6 -11 13 0z
M472 907q14 -17 11.5 -35.5t-19.5 -32.5q-9 -8 -21 -15t-31.5 -17t-49 -24t-72.5 -34l-5 6q27 39 45.5 65t32 44t22.5 28.5t18 18.5q17 14 36 13.5t33 -17.5z" />
    <glyph glyph-name="Thorn" unicode="&#xde;" horiz-adv-x="643" 
d="M28 32l78 9q10 2 13.5 6t3.5 15v577q0 17 -17 20l-78 10v31h302v-31l-78 -10q-17 -3 -17 -20v-75h140q53 0 95.5 -14t72.5 -40.5t46.5 -64.5t16.5 -85q0 -45 -16.5 -82.5t-45.5 -64.5t-67.5 -41.5t-81.5 -14.5q-72 0 -115 41l1 2q32 -8 65 -8q32 0 59 11.5t47 33t31 51.5
t11 68q0 77 -40.5 120.5t-105.5 43.5h-113v-458q0 -11 3.5 -15t13.5 -6l78 -9v-32h-302v32z" />
    <glyph glyph-name="germandbls" unicode="&#xdf;" horiz-adv-x="614" 
d="M413 578q0 60 -36 95t-90 35q-53 0 -86 -34t-33 -84q0 -21 3.5 -41t7 -41t7 -45t3.5 -53v-410h-159v30l49 6q10 2 13 6.5t3 13.5v358l-79 1v16l79 29v41q0 58 15.5 103t43.5 76t66.5 47.5t84.5 16.5q40 0 74 -11t59 -30t39 -44.5t14 -54.5q0 -36 -17.5 -64t-54.5 -65
l-22 -22q-18 -18 -25 -33t-7 -29q0 -19 13.5 -36t48.5 -43l76 -54q45 -32 66 -60.5t21 -70.5q0 -29 -11.5 -54.5t-31.5 -44.5t-47.5 -29.5t-58.5 -10.5q-26 0 -45.5 5t-34 10.5t-23.5 10.5t-14 5t-11.5 -4.5t-26.5 -24.5v161h35q17 -64 46 -94t72 -30q37 0 57.5 19t20.5 49
q0 24 -17 45t-55 47l-75 55q-45 33 -63.5 57t-18.5 53q0 11 2 21t8.5 21t18 25t30.5 33l22 22q25 26 34.5 49t9.5 55z" />
    <glyph glyph-name="agrave" unicode="&#xe0;" horiz-adv-x="497" 
d="M164 -12q-50 0 -80.5 27.5t-30.5 71.5q0 19 5 34t17 28.5t32 26.5t50 27l156 75v41q0 58 -25.5 88t-67.5 30q-38 0 -62.5 -22.5t-29.5 -69.5q-3 -32 -15 -45.5t-32 -13.5q-18 0 -30 12.5t-12 35.5q0 27 15 52.5t40.5 45t60 31.5t73.5 12q88 0 133 -43.5t44 -128.5v-209
q0 -26 12 -40t31 -14q14 0 23.5 6t19.5 20l5 -2q-9 -35 -33.5 -54.5t-58.5 -19.5q-38 0 -63 22.5t-28 63.5q-28 -44 -66 -66t-83 -22zM148 110q0 -30 18 -46.5t48 -16.5q57 0 99 58v142l-98 -51q-38 -20 -52.5 -39.5t-14.5 -46.5zM113 670q15 17 33.5 17.5t35.5 -13.5
q8 -8 17.5 -18.5t22.5 -28.5t31.5 -44t45.5 -65l-4 -6q-43 20 -72.5 34t-49 24t-31.5 17t-21 15q-17 14 -19.5 32.5t11.5 35.5z" />
    <glyph glyph-name="aacute" unicode="&#xe1;" horiz-adv-x="497" 
d="M164 -12q-50 0 -80.5 27.5t-30.5 71.5q0 19 5 34t17 28.5t32 26.5t50 27l156 75v41q0 58 -25.5 88t-67.5 30q-38 0 -62.5 -22.5t-29.5 -69.5q-3 -32 -15 -45.5t-32 -13.5q-18 0 -30 12.5t-12 35.5q0 27 15 52.5t40.5 45t60 31.5t73.5 12q88 0 133 -43.5t44 -128.5v-209
q0 -26 12 -40t31 -14q14 0 23.5 6t19.5 20l5 -2q-9 -35 -33.5 -54.5t-58.5 -19.5q-38 0 -63 22.5t-28 63.5q-28 -44 -66 -66t-83 -22zM148 110q0 -30 18 -46.5t48 -16.5q57 0 99 58v142l-98 -51q-38 -20 -52.5 -39.5t-14.5 -46.5zM342 670q14 -17 11.5 -35.5t-19.5 -32.5
q-9 -8 -21 -15t-31.5 -17t-49 -24t-72.5 -34l-5 6q27 39 45.5 65t32 44t22.5 28.5t18 18.5q17 14 36 13.5t33 -17.5z" />
    <glyph glyph-name="acircumflex" unicode="&#xe2;" horiz-adv-x="497" 
d="M164 -12q-50 0 -80.5 27.5t-30.5 71.5q0 19 5 34t17 28.5t32 26.5t50 27l156 75v41q0 58 -25.5 88t-67.5 30q-38 0 -62.5 -22.5t-29.5 -69.5q-3 -32 -15 -45.5t-32 -13.5q-18 0 -30 12.5t-12 35.5q0 27 15 52.5t40.5 45t60 31.5t73.5 12q88 0 133 -43.5t44 -128.5v-209
q0 -26 12 -40t31 -14q14 0 23.5 6t19.5 20l5 -2q-9 -35 -33.5 -54.5t-58.5 -19.5q-38 0 -63 22.5t-28 63.5q-28 -44 -66 -66t-83 -22zM148 110q0 -30 18 -46.5t48 -16.5q57 0 99 58v142l-98 -51q-38 -20 -52.5 -39.5t-14.5 -46.5zM63 515l-6 8l139 154h63l138 -154l-6 -8
l-164 82z" />
    <glyph glyph-name="atilde" unicode="&#xe3;" horiz-adv-x="497" 
d="M164 -12q-50 0 -80.5 27.5t-30.5 71.5q0 19 5 34t17 28.5t32 26.5t50 27l156 75v41q0 58 -25.5 88t-67.5 30q-38 0 -62.5 -22.5t-29.5 -69.5q-3 -32 -15 -45.5t-32 -13.5q-18 0 -30 12.5t-12 35.5q0 27 15 52.5t40.5 45t60 31.5t73.5 12q88 0 133 -43.5t44 -128.5v-209
q0 -26 12 -40t31 -14q14 0 23.5 6t19.5 20l5 -2q-9 -35 -33.5 -54.5t-58.5 -19.5q-38 0 -63 22.5t-28 63.5q-28 -44 -66 -66t-83 -22zM148 110q0 -30 18 -46.5t48 -16.5q57 0 99 58v142l-98 -51q-38 -20 -52.5 -39.5t-14.5 -46.5zM248 624q27 -17 39 -22t22 -5
q14 0 28.5 11.5t35.5 42.5l10 -3q-25 -119 -84 -119q-20 0 -38.5 9t-49.5 29q-27 17 -39 22.5t-23 5.5q-14 0 -28.5 -12t-35.5 -43l-10 3q13 61 34.5 90t49.5 29q20 0 38.5 -9t50.5 -29z" />
    <glyph glyph-name="adieresis" unicode="&#xe4;" horiz-adv-x="497" 
d="M164 -12q-50 0 -80.5 27.5t-30.5 71.5q0 19 5 34t17 28.5t32 26.5t50 27l156 75v41q0 58 -25.5 88t-67.5 30q-38 0 -62.5 -22.5t-29.5 -69.5q-3 -32 -15 -45.5t-32 -13.5q-18 0 -30 12.5t-12 35.5q0 27 15 52.5t40.5 45t60 31.5t73.5 12q88 0 133 -43.5t44 -128.5v-209
q0 -26 12 -40t31 -14q14 0 23.5 6t19.5 20l5 -2q-9 -35 -33.5 -54.5t-58.5 -19.5q-38 0 -63 22.5t-28 63.5q-28 -44 -66 -66t-83 -22zM148 110q0 -30 18 -46.5t48 -16.5q57 0 99 58v142l-98 -51q-38 -20 -52.5 -39.5t-14.5 -46.5zM71 588q0 24 17 40.5t40 16.5t39.5 -16.5
t16.5 -40.5q0 -23 -16.5 -40t-39.5 -17t-40 17t-17 40zM270 588q0 24 16.5 40.5t40.5 16.5q23 0 39.5 -16.5t16.5 -40.5q0 -23 -16.5 -40t-39.5 -17q-24 0 -40.5 17t-16.5 40z" />
    <glyph glyph-name="aring" unicode="&#xe5;" horiz-adv-x="497" 
d="M164 -12q-50 0 -80.5 27.5t-30.5 71.5q0 19 5 34t17 28.5t32 26.5t50 27l156 75v41q0 58 -25.5 88t-67.5 30q-38 0 -62.5 -22.5t-29.5 -69.5q-3 -32 -15 -45.5t-32 -13.5q-18 0 -30 12.5t-12 35.5q0 27 15 52.5t40.5 45t60 31.5t73.5 12q88 0 133 -43.5t44 -128.5v-209
q0 -26 12 -40t31 -14q14 0 23.5 6t19.5 20l5 -2q-9 -35 -33.5 -54.5t-58.5 -19.5q-38 0 -63 22.5t-28 63.5q-28 -44 -66 -66t-83 -22zM148 110q0 -30 18 -46.5t48 -16.5q57 0 99 58v142l-98 -51q-38 -20 -52.5 -39.5t-14.5 -46.5zM334 633q0 -21 -8.5 -40t-22.5 -32.5
t-34 -21.5t-42 -8t-41.5 7.5t-33.5 21t-22.5 32t-8.5 39.5t8.5 40t22.5 32.5t33.5 21.5t41.5 8t42 -7.5t34 -21t22.5 -32t8.5 -39.5zM160 632q0 -28 19 -46t48 -18t48 18t19 46t-19 46t-48 18t-48 -18t-19 -46z" />
    <glyph glyph-name="ae" unicode="&#xe6;" horiz-adv-x="746" 
d="M171 -12q-54 0 -86 27.5t-32 71.5q0 19 5 34t17 28.5t32 26.5t50 27l161 77v39q0 58 -26 88t-70 30q-38 0 -63.5 -22.5t-30.5 -69.5q-3 -32 -15 -45.5t-32 -13.5q-18 0 -30 12.5t-12 35.5q0 27 15 52.5t40.5 45t60.5 31.5t75 12q111 0 149 -75q29 36 69 56.5t87 20.5
q76 0 126.5 -50.5t56.5 -144.5h-310q-1 -7 -1 -14v-14q0 -45 12.5 -81t34.5 -61.5t50.5 -39t60.5 -13.5q86 0 140 71l5 -2q-17 -66 -67 -103t-115 -37q-58 0 -105 28t-75 79q-29 -54 -74.5 -80.5t-102.5 -26.5zM534 437q-40 0 -72.5 -30t-46.5 -85h198q14 0 14 14
q0 22 -7.5 40.5t-20 32t-29.5 21t-36 7.5zM148 110q0 -30 17.5 -46.5t46.5 -16.5q35 0 68.5 17t57.5 54q-20 46 -20 104v28l-103 -54q-38 -20 -52.5 -39.5t-14.5 -46.5z" />
    <glyph glyph-name="ccedilla" unicode="&#xe7;" horiz-adv-x="460" 
d="M260 432q-30 0 -55 -12.5t-43.5 -35.5t-29 -57.5t-10.5 -77.5q0 -41 12.5 -75.5t35 -59t54 -38t68.5 -13.5q43 0 74.5 15.5t62.5 51.5l5 -2q-18 -58 -58 -93.5t-94 -44.5l-40 -47q13 3 28 3q42 0 68 -20t26 -54q0 -39 -34 -66t-88 -27q-36 0 -64.5 14.5t-44.5 38.5l7 7
q19 -10 40 -16.5t43 -6.5q31 0 48.5 14t17.5 37q0 21 -14.5 34.5t-41.5 13.5q-14 0 -29.5 -2.5t-30.5 -10.5l-7 9l63 78q-40 4 -75.5 23t-62 50.5t-42 73t-15.5 90.5q0 55 19 101.5t50.5 79.5t73 51.5t86.5 18.5q38 0 70 -11t55.5 -29.5t37 -42t13.5 -48.5q0 -24 -12 -37
t-32 -13q-21 0 -33 13t-17 48q-5 38 -27 56.5t-58 18.5z" />
    <glyph glyph-name="egrave" unicode="&#xe8;" horiz-adv-x="461" 
d="M244 -12q-44 0 -82.5 17t-67 47.5t-44.5 73.5t-16 96q0 55 16.5 102t46 81t69 53t85.5 19q76 0 126 -50.5t56 -144.5h-309q-1 -7 -1 -14v-14q0 -45 12.5 -81t34 -61.5t50 -39t60.5 -13.5q86 0 140 71l5 -2q-16 -66 -66 -103t-115 -37zM249 437q-39 0 -71.5 -30t-46.5 -85
h198q14 0 14 14q0 45 -27.5 73t-66.5 28zM131 670q15 17 33.5 17.5t35.5 -13.5q8 -8 17.5 -18.5t22.5 -28.5t31.5 -44t45.5 -65l-4 -6q-43 20 -72.5 34t-49 24t-31.5 17t-21 15q-17 14 -19.5 32.5t11.5 35.5z" />
    <glyph glyph-name="eacute" unicode="&#xe9;" horiz-adv-x="461" 
d="M360 670q14 -17 11.5 -35.5t-19.5 -32.5q-9 -8 -21 -15t-31.5 -17t-49 -24t-72.5 -34l-5 6q27 39 45.5 65t32 44t22.5 28.5t18 18.5q17 14 36 13.5t33 -17.5zM244 -12q-44 0 -82.5 17t-67 47.5t-44.5 73.5t-16 96q0 55 16.5 102t46 81t69 53t85.5 19q76 0 126 -50.5
t56 -144.5h-309q-1 -7 -1 -14v-14q0 -45 12.5 -81t34 -61.5t50 -39t60.5 -13.5q86 0 140 71l5 -2q-16 -66 -66 -103t-115 -37zM249 437q-39 0 -71.5 -30t-46.5 -85h198q14 0 14 14q0 45 -27.5 73t-66.5 28z" />
    <glyph glyph-name="ecircumflex" unicode="&#xea;" horiz-adv-x="461" 
d="M81 515l-6 8l139 154h63l138 -154l-6 -8l-164 82zM244 -12q-44 0 -82.5 17t-67 47.5t-44.5 73.5t-16 96q0 55 16.5 102t46 81t69 53t85.5 19q76 0 126 -50.5t56 -144.5h-309q-1 -7 -1 -14v-14q0 -45 12.5 -81t34 -61.5t50 -39t60.5 -13.5q86 0 140 71l5 -2
q-16 -66 -66 -103t-115 -37zM249 437q-39 0 -71.5 -30t-46.5 -85h198q14 0 14 14q0 45 -27.5 73t-66.5 28z" />
    <glyph glyph-name="edieresis" unicode="&#xeb;" horiz-adv-x="461" 
d="M89 588q0 24 17 40.5t40 16.5t39.5 -16.5t16.5 -40.5q0 -23 -16.5 -40t-39.5 -17t-40 17t-17 40zM288 588q0 24 16.5 40.5t40.5 16.5q23 0 39.5 -16.5t16.5 -40.5q0 -23 -16.5 -40t-39.5 -17q-24 0 -40.5 17t-16.5 40zM244 -12q-44 0 -82.5 17t-67 47.5t-44.5 73.5
t-16 96q0 55 16.5 102t46 81t69 53t85.5 19q76 0 126 -50.5t56 -144.5h-309q-1 -7 -1 -14v-14q0 -45 12.5 -81t34 -61.5t50 -39t60.5 -13.5q86 0 140 71l5 -2q-16 -66 -66 -103t-115 -37zM249 437q-39 0 -71.5 -30t-46.5 -85h198q14 0 14 14q0 45 -27.5 73t-66.5 28z" />
    <glyph glyph-name="igrave" unicode="&#xec;" horiz-adv-x="282" 
d="M30 30l49 6q10 2 13 6.5t3 13.5v320q0 11 -2.5 15.5t-12.5 9.5l-50 21v14l159 41v-421q0 -9 3 -13.5t13 -6.5l50 -6v-30h-225v30zM28 670q15 17 33.5 17.5t35.5 -13.5q8 -8 17.5 -18.5t22.5 -28.5t31.5 -44t45.5 -65l-4 -6q-43 20 -72.5 34t-49 24t-31.5 17t-21 15
q-17 14 -19.5 32.5t11.5 35.5z" />
    <glyph glyph-name="iacute" unicode="&#xed;" horiz-adv-x="282" 
d="M257 670q14 -17 11.5 -35.5t-19.5 -32.5q-9 -8 -21 -15t-31.5 -17t-49 -24t-72.5 -34l-5 6q27 39 45.5 65t32 44t22.5 28.5t18 18.5q17 14 36 13.5t33 -17.5zM30 30l49 6q10 2 13 6.5t3 13.5v320q0 11 -2.5 15.5t-12.5 9.5l-50 21v14l159 41v-421q0 -9 3 -13.5t13 -6.5
l50 -6v-30h-225v30z" />
    <glyph glyph-name="icircumflex" unicode="&#xee;" horiz-adv-x="282" 
d="M-22 515l-6 8l139 154h63l138 -154l-6 -8l-164 82zM30 30l49 6q10 2 13 6.5t3 13.5v320q0 11 -2.5 15.5t-12.5 9.5l-50 21v14l159 41v-421q0 -9 3 -13.5t13 -6.5l50 -6v-30h-225v30z" />
    <glyph glyph-name="idieresis" unicode="&#xef;" horiz-adv-x="282" 
d="M-14 588q0 24 17 40.5t40 16.5t39.5 -16.5t16.5 -40.5q0 -23 -16.5 -40t-39.5 -17t-40 17t-17 40zM185 588q0 24 16.5 40.5t40.5 16.5q23 0 39.5 -16.5t16.5 -40.5q0 -23 -16.5 -40t-39.5 -17q-24 0 -40.5 17t-16.5 40zM30 30l49 6q10 2 13 6.5t3 13.5v320
q0 11 -2.5 15.5t-12.5 9.5l-50 21v14l159 41v-421q0 -9 3 -13.5t13 -6.5l50 -6v-30h-225v30z" />
    <glyph glyph-name="eth" unicode="&#xf0;" horiz-adv-x="538" 
d="M247 469q39 0 74 -14t64 -38q-30 121 -113 199l-80 -51h-56v2l111 71q-69 55 -163 86l1 6q57 -5 107.5 -22t95.5 -44l93 60h55v-2l-120 -77q88 -63 137.5 -160t49.5 -215q0 -68 -18 -121t-50 -89t-75 -55t-93 -19q-46 0 -88 16t-74.5 47t-51.5 75.5t-19 101.5
q0 60 18 105t48 76t68.5 46.5t78.5 15.5zM133 236q0 -100 38.5 -155t96.5 -55q61 0 98.5 61t37.5 173q0 31 -2.5 60t-7.5 56q-32 28 -66 42t-67 14q-54 0 -91 -48.5t-37 -147.5z" />
    <glyph glyph-name="ntilde" unicode="&#xf1;" horiz-adv-x="566" 
d="M187 56q0 -9 3 -13.5t13 -6.5l48 -6v-30h-223v30l49 6q10 2 13 6.5t3 13.5v320q0 11 -2.5 15.5t-12.5 9.5l-50 21v14l159 41v-82q24 39 61.5 59.5t83.5 20.5q66 0 107 -40t41 -113v-266q0 -9 3 -13.5t13 -6.5l50 -6v-30h-224v30l48 6q10 2 13 6.5t3 13.5v259
q0 54 -25 80.5t-66 26.5q-68 0 -108 -60v-306zM311 624q27 -17 39 -22t22 -5q14 0 28.5 11.5t35.5 42.5l10 -3q-25 -119 -84 -119q-20 0 -38.5 9t-49.5 29q-27 17 -39 22.5t-23 5.5q-14 0 -28.5 -12t-35.5 -43l-10 3q13 61 34.5 90t49.5 29q20 0 38.5 -9t50.5 -29z" />
    <glyph glyph-name="ograve" unicode="&#xf2;" horiz-adv-x="538" 
d="M503 238q0 -57 -18 -103.5t-49.5 -79.5t-74.5 -51t-94 -18q-47 0 -89.5 17.5t-74.5 49t-50.5 75.5t-18.5 98q0 56 17.5 102.5t49 79.5t75 51t94.5 18q47 0 89 -17.5t74 -49t51 -75.5t19 -97zM404 230q0 48 -10.5 86t-29.5 65t-44 41.5t-54 14.5q-28 0 -52.5 -13.5
t-42.5 -40t-28 -64t-10 -85.5t10.5 -86.5t29.5 -65.5t44 -41.5t54 -14.5q28 0 52.5 14t42.5 40t28 64t10 86zM155 670q15 17 33.5 17.5t35.5 -13.5q8 -8 17.5 -18.5t22.5 -28.5t31.5 -44t45.5 -65l-4 -6q-43 20 -72.5 34t-49 24t-31.5 17t-21 15q-17 14 -19.5 32.5
t11.5 35.5z" />
    <glyph glyph-name="oacute" unicode="&#xf3;" horiz-adv-x="538" 
d="M384 670q14 -17 11.5 -35.5t-19.5 -32.5q-9 -8 -21 -15t-31.5 -17t-49 -24t-72.5 -34l-5 6q27 39 45.5 65t32 44t22.5 28.5t18 18.5q17 14 36 13.5t33 -17.5zM503 238q0 -57 -18 -103.5t-49.5 -79.5t-74.5 -51t-94 -18q-47 0 -89.5 17.5t-74.5 49t-50.5 75.5t-18.5 98
q0 56 17.5 102.5t49 79.5t75 51t94.5 18q47 0 89 -17.5t74 -49t51 -75.5t19 -97zM404 230q0 48 -10.5 86t-29.5 65t-44 41.5t-54 14.5q-28 0 -52.5 -13.5t-42.5 -40t-28 -64t-10 -85.5t10.5 -86.5t29.5 -65.5t44 -41.5t54 -14.5q28 0 52.5 14t42.5 40t28 64t10 86z" />
    <glyph glyph-name="ocircumflex" unicode="&#xf4;" horiz-adv-x="538" 
d="M105 515l-6 8l139 154h63l138 -154l-6 -8l-164 82zM503 238q0 -57 -18 -103.5t-49.5 -79.5t-74.5 -51t-94 -18q-47 0 -89.5 17.5t-74.5 49t-50.5 75.5t-18.5 98q0 56 17.5 102.5t49 79.5t75 51t94.5 18q47 0 89 -17.5t74 -49t51 -75.5t19 -97zM404 230q0 48 -10.5 86
t-29.5 65t-44 41.5t-54 14.5q-28 0 -52.5 -13.5t-42.5 -40t-28 -64t-10 -85.5t10.5 -86.5t29.5 -65.5t44 -41.5t54 -14.5q28 0 52.5 14t42.5 40t28 64t10 86z" />
    <glyph glyph-name="otilde" unicode="&#xf5;" horiz-adv-x="538" 
d="M503 238q0 -57 -18 -103.5t-49.5 -79.5t-74.5 -51t-94 -18q-47 0 -89.5 17.5t-74.5 49t-50.5 75.5t-18.5 98q0 56 17.5 102.5t49 79.5t75 51t94.5 18q47 0 89 -17.5t74 -49t51 -75.5t19 -97zM404 230q0 48 -10.5 86t-29.5 65t-44 41.5t-54 14.5q-28 0 -52.5 -13.5
t-42.5 -40t-28 -64t-10 -85.5t10.5 -86.5t29.5 -65.5t44 -41.5t54 -14.5q28 0 52.5 14t42.5 40t28 64t10 86zM290 624q27 -17 39 -22t22 -5q14 0 28.5 11.5t35.5 42.5l10 -3q-25 -119 -84 -119q-20 0 -38.5 9t-49.5 29q-27 17 -39 22.5t-23 5.5q-14 0 -28.5 -12t-35.5 -43
l-10 3q13 61 34.5 90t49.5 29q20 0 38.5 -9t50.5 -29z" />
    <glyph glyph-name="odieresis" unicode="&#xf6;" horiz-adv-x="538" 
d="M113 588q0 24 17 40.5t40 16.5t39.5 -16.5t16.5 -40.5q0 -23 -16.5 -40t-39.5 -17t-40 17t-17 40zM312 588q0 24 16.5 40.5t40.5 16.5q23 0 39.5 -16.5t16.5 -40.5q0 -23 -16.5 -40t-39.5 -17q-24 0 -40.5 17t-16.5 40zM503 238q0 -57 -18 -103.5t-49.5 -79.5t-74.5 -51
t-94 -18q-47 0 -89.5 17.5t-74.5 49t-50.5 75.5t-18.5 98q0 56 17.5 102.5t49 79.5t75 51t94.5 18q47 0 89 -17.5t74 -49t51 -75.5t19 -97zM404 230q0 48 -10.5 86t-29.5 65t-44 41.5t-54 14.5q-28 0 -52.5 -13.5t-42.5 -40t-28 -64t-10 -85.5t10.5 -86.5t29.5 -65.5
t44 -41.5t54 -14.5q28 0 52.5 14t42.5 40t28 64t10 86z" />
    <glyph glyph-name="divide" unicode="&#xf7;" horiz-adv-x="556" 
d="M217 552q0 25 17.5 42.5t42.5 17.5t42.5 -17.5t17.5 -42.5t-17.5 -42.5t-42.5 -17.5t-42.5 17.5t-17.5 42.5zM45 386h465v-46h-465v46zM217 174q0 26 17.5 43t42.5 17t42.5 -17t17.5 -43q0 -25 -17.5 -42.5t-42.5 -17.5t-42.5 17.5t-17.5 42.5z" />
    <glyph glyph-name="oslash" unicode="&#xf8;" horiz-adv-x="538" 
d="M99 57q-30 32 -47.5 74.5t-17.5 94.5q0 56 17.5 102.5t49 79.5t75 51t94.5 18q39 0 75 -12t66 -35l39 47h47l-59 -71q30 -31 47.5 -73.5t17.5 -94.5q0 -57 -18 -103.5t-49.5 -79.5t-74.5 -51t-94 -18q-40 0 -76 12t-66 35l-39 -47h-47zM133 234q0 -63 19 -112l214 255
q-38 60 -100 60q-28 0 -52.5 -13.5t-42.5 -40t-28 -64t-10 -85.5zM404 230q0 64 -20 112l-214 -255q19 -29 45 -45t56 -16q28 0 52.5 14t42.5 40t28 64t10 86z" />
    <glyph glyph-name="ugrave" unicode="&#xf9;" horiz-adv-x="562" 
d="M85 376q0 11 -2.5 15.5t-12.5 9.5l-51 21v14l160 41v-329q0 -54 25 -80.5t66 -26.5q68 0 108 61v274q0 11 -2.5 15.5t-12.5 9.5l-51 21v14l160 41v-391q0 -10 3 -14.5t11 -9.5l52 -30v-14l-160 -22v72q-24 -39 -61.5 -59.5t-83.5 -20.5q-66 0 -107 40t-41 114v234z
M164 670q15 17 33.5 17.5t35.5 -13.5q8 -8 17.5 -18.5t22.5 -28.5t31.5 -44t45.5 -65l-4 -6q-43 20 -72.5 34t-49 24t-31.5 17t-21 15q-17 14 -19.5 32.5t11.5 35.5z" />
    <glyph glyph-name="uacute" unicode="&#xfa;" horiz-adv-x="562" 
d="M393 670q14 -17 11.5 -35.5t-19.5 -32.5q-9 -8 -21 -15t-31.5 -17t-49 -24t-72.5 -34l-5 6q27 39 45.5 65t32 44t22.5 28.5t18 18.5q17 14 36 13.5t33 -17.5zM85 376q0 11 -2.5 15.5t-12.5 9.5l-51 21v14l160 41v-329q0 -54 25 -80.5t66 -26.5q68 0 108 61v274
q0 11 -2.5 15.5t-12.5 9.5l-51 21v14l160 41v-391q0 -10 3 -14.5t11 -9.5l52 -30v-14l-160 -22v72q-24 -39 -61.5 -59.5t-83.5 -20.5q-66 0 -107 40t-41 114v234z" />
    <glyph glyph-name="ucircumflex" unicode="&#xfb;" horiz-adv-x="562" 
d="M114 515l-6 8l139 154h63l138 -154l-6 -8l-164 82zM85 376q0 11 -2.5 15.5t-12.5 9.5l-51 21v14l160 41v-329q0 -54 25 -80.5t66 -26.5q68 0 108 61v274q0 11 -2.5 15.5t-12.5 9.5l-51 21v14l160 41v-391q0 -10 3 -14.5t11 -9.5l52 -30v-14l-160 -22v72
q-24 -39 -61.5 -59.5t-83.5 -20.5q-66 0 -107 40t-41 114v234z" />
    <glyph glyph-name="udieresis" unicode="&#xfc;" horiz-adv-x="562" 
d="M122 588q0 24 17 40.5t40 16.5t39.5 -16.5t16.5 -40.5q0 -23 -16.5 -40t-39.5 -17t-40 17t-17 40zM321 588q0 24 16.5 40.5t40.5 16.5q23 0 39.5 -16.5t16.5 -40.5q0 -23 -16.5 -40t-39.5 -17q-24 0 -40.5 17t-16.5 40zM85 376q0 11 -2.5 15.5t-12.5 9.5l-51 21v14
l160 41v-329q0 -54 25 -80.5t66 -26.5q68 0 108 61v274q0 11 -2.5 15.5t-12.5 9.5l-51 21v14l160 41v-391q0 -10 3 -14.5t11 -9.5l52 -30v-14l-160 -22v72q-24 -39 -61.5 -59.5t-83.5 -20.5q-66 0 -107 40t-41 114v234z" />
    <glyph glyph-name="yacute" unicode="&#xfd;" horiz-adv-x="517" 
d="M241 -114q-25 -60 -54 -84t-64 -24q-31 0 -48.5 14t-17.5 36q0 18 12.5 30t30.5 12q14 0 26.5 -5.5t27.5 -5.5t27.5 11t26.5 44l28 66l-176 423q-6 14 -11 18.5t-16 6.5l-28 5v30h219v-30l-35 -5q-20 -3 -25.5 -12t2.5 -28l112 -280q2 -6 6 -6t6 6l111 275q16 40 -27 46
l-29 4v30h165v-30l-16 -3q-18 -4 -26.5 -11.5t-16.5 -25.5zM382 670q14 -17 11.5 -35.5t-19.5 -32.5q-9 -8 -21 -15t-31.5 -17t-49 -24t-72.5 -34l-5 6q27 39 45.5 65t32 44t22.5 28.5t18 18.5q17 14 36 13.5t33 -17.5z" />
    <glyph glyph-name="thorn" unicode="&#xfe;" horiz-adv-x="562" 
d="M11 -181l50 7q10 2 13 6.5t3 12.5v800q0 11 -2.5 15.5t-12.5 9.5l-51 21v14l160 41v-357q25 40 66 63t88 23q42 0 79 -16.5t64.5 -47t43 -74t15.5 -98.5q0 -56 -17 -102.5t-46 -79.5t-69 -51t-85 -18q-43 0 -79 15.5t-60 45.5v-204q0 -8 3 -12.5t13 -6.5l49 -7v-29h-225
v29zM434 230q0 43 -11.5 78t-31 59t-45.5 37t-55 13q-74 0 -120 -62v-258q40 -62 118 -62q31 0 58 13.5t46 39t30 61.5t11 81z" />
    <glyph glyph-name="ydieresis" unicode="&#xff;" horiz-adv-x="517" 
d="M241 -114q-25 -60 -54 -84t-64 -24q-31 0 -48.5 14t-17.5 36q0 18 12.5 30t30.5 12q14 0 26.5 -5.5t27.5 -5.5t27.5 11t26.5 44l28 66l-176 423q-6 14 -11 18.5t-16 6.5l-28 5v30h219v-30l-35 -5q-20 -3 -25.5 -12t2.5 -28l112 -280q2 -6 6 -6t6 6l111 275q16 40 -27 46
l-29 4v30h165v-30l-16 -3q-18 -4 -26.5 -11.5t-16.5 -25.5zM111 588q0 24 17 40.5t40 16.5t39.5 -16.5t16.5 -40.5q0 -23 -16.5 -40t-39.5 -17t-40 17t-17 40zM310 588q0 24 16.5 40.5t40.5 16.5q23 0 39.5 -16.5t16.5 -40.5q0 -23 -16.5 -40t-39.5 -17q-24 0 -40.5 17
t-16.5 40z" />
    <glyph glyph-name="Amacron" unicode="&#x100;" horiz-adv-x="757" 
d="M7 32l22 4q37 7 56 48l268 624h49l275 -639q7 -15 13.5 -21t20.5 -9l37 -7v-32h-270v32l45 7q27 5 32.5 15.5t-4.5 34.5l-71 170h-267l-68 -160q-11 -27 -4.5 -42t40.5 -20l33 -5v-32h-207v32zM231 302h231l-109 263q-2 6 -5.5 6t-5.5 -6zM233 824h290v-44h-290v44z" />
    <glyph glyph-name="amacron" unicode="&#x101;" horiz-adv-x="497" 
d="M164 -12q-50 0 -80.5 27.5t-30.5 71.5q0 19 5 34t17 28.5t32 26.5t50 27l156 75v41q0 58 -25.5 88t-67.5 30q-38 0 -62.5 -22.5t-29.5 -69.5q-3 -32 -15 -45.5t-32 -13.5q-18 0 -30 12.5t-12 35.5q0 27 15 52.5t40.5 45t60 31.5t73.5 12q88 0 133 -43.5t44 -128.5v-209
q0 -26 12 -40t31 -14q14 0 23.5 6t19.5 20l5 -2q-9 -35 -33.5 -54.5t-58.5 -19.5q-38 0 -63 22.5t-28 63.5q-28 -44 -66 -66t-83 -22zM148 110q0 -30 18 -46.5t48 -16.5q57 0 99 58v142l-98 -51q-38 -20 -52.5 -39.5t-14.5 -46.5zM82 587h290v-44h-290v44z" />
    <glyph glyph-name="Abreve" unicode="&#x102;" horiz-adv-x="757" 
d="M7 32l22 4q37 7 56 48l268 624h49l275 -639q7 -15 13.5 -21t20.5 -9l37 -7v-32h-270v32l45 7q27 5 32.5 15.5t-4.5 34.5l-71 170h-267l-68 -160q-11 -27 -4.5 -42t40.5 -20l33 -5v-32h-207v32zM231 302h231l-109 263q-2 6 -5.5 6t-5.5 -6zM378 841q53 0 87 19.5t57 64.5
l9 -1q-1 -36 -13 -65t-32 -49t-47.5 -31t-60.5 -11q-32 0 -59.5 11t-48 31t-32.5 49t-13 65l9 1q23 -45 57.5 -64.5t86.5 -19.5z" />
    <glyph glyph-name="abreve" unicode="&#x103;" horiz-adv-x="497" 
d="M164 -12q-50 0 -80.5 27.5t-30.5 71.5q0 19 5 34t17 28.5t32 26.5t50 27l156 75v41q0 58 -25.5 88t-67.5 30q-38 0 -62.5 -22.5t-29.5 -69.5q-3 -32 -15 -45.5t-32 -13.5q-18 0 -30 12.5t-12 35.5q0 27 15 52.5t40.5 45t60 31.5t73.5 12q88 0 133 -43.5t44 -128.5v-209
q0 -26 12 -40t31 -14q14 0 23.5 6t19.5 20l5 -2q-9 -35 -33.5 -54.5t-58.5 -19.5q-38 0 -63 22.5t-28 63.5q-28 -44 -66 -66t-83 -22zM148 110q0 -30 18 -46.5t48 -16.5q57 0 99 58v142l-98 -51q-38 -20 -52.5 -39.5t-14.5 -46.5zM227 604q53 0 87 19.5t57 64.5l9 -1
q-1 -36 -13 -65t-32 -49t-47.5 -31t-60.5 -11q-32 0 -59.5 11t-48 31t-32.5 49t-13 65l9 1q23 -45 57.5 -64.5t86.5 -19.5z" />
    <glyph glyph-name="Aogonek" unicode="&#x104;" horiz-adv-x="757" 
d="M7 32l22 4q37 7 56 48l268 624h49l275 -639q7 -15 13.5 -21t20.5 -9l37 -7v-32h-106q-13 -26 -21.5 -43.5t-13 -30.5t-6.5 -22t-2 -17q0 -22 13.5 -34.5t35.5 -12.5q20 0 38 9t38 26l5 -4q-20 -44 -48.5 -67.5t-71.5 -23.5q-37 0 -61.5 21t-24.5 53q0 30 23 64t68 82
h-136v32l45 7q27 5 32.5 15.5t-4.5 34.5l-71 170h-267l-68 -160q-11 -27 -4.5 -42t40.5 -20l33 -5v-32h-207v32zM231 302h231l-109 263q-2 6 -5.5 6t-5.5 -6z" />
    <glyph glyph-name="aogonek" unicode="&#x105;" horiz-adv-x="497" 
d="M164 -12q-50 0 -80.5 27.5t-30.5 71.5q0 19 5 34t17 28.5t32 26.5t50 27l156 75v41q0 58 -25.5 88t-67.5 30q-38 0 -62.5 -22.5t-29.5 -69.5q-3 -32 -15 -45.5t-32 -13.5q-18 0 -30 12.5t-12 35.5q0 27 15 52.5t40.5 45t60 31.5t73.5 12q88 0 133 -43.5t44 -128.5v-209
q0 -26 12 -40t31 -14q14 0 23.5 6t19.5 20l5 -2q-8 -32 -29 -50.5t-50 -22.5q-23 -46 -30.5 -67.5t-7.5 -36.5q0 -22 13.5 -34.5t35.5 -12.5q20 0 38 9t38 26l5 -4q-20 -44 -48.5 -67.5t-71.5 -23.5q-37 0 -61.5 21t-24.5 53q0 29 21 60.5t62 76.5q-31 5 -50.5 27.5
t-22.5 57.5q-28 -44 -66 -66t-83 -22zM148 110q0 -30 18 -46.5t48 -16.5q57 0 99 58v142l-98 -51q-38 -20 -52.5 -39.5t-14.5 -46.5z" />
    <glyph glyph-name="Cacute" unicode="&#x106;" horiz-adv-x="744" 
d="M507 907q14 -17 11.5 -35.5t-19.5 -32.5q-9 -8 -21 -15t-31.5 -17t-49 -24t-72.5 -34l-5 6q27 39 45.5 65t32 44t22.5 28.5t18 18.5q17 14 36 13.5t33 -17.5zM397 -12q-77 0 -142.5 26.5t-113 74t-74.5 112.5t-27 142q0 80 27 147.5t74.5 117t113 77t142.5 27.5
q60 0 102 -13.5t69 -29t42.5 -29t23.5 -13.5q3 0 6.5 2t9.5 7t15 15t24 27v-214h-42q-9 46 -31 83.5t-53.5 63.5t-70.5 40t-82 14q-56 0 -102 -22t-79.5 -63t-52 -98.5t-18.5 -127.5q0 -74 19 -133t52.5 -100t80 -63.5t100.5 -22.5q43 0 82 14t70.5 40.5t53.5 63.5t31 83h42
v-214q-15 16 -24 26.5t-15 15.5t-9.5 7t-6.5 2q-8 0 -23.5 -13.5t-42.5 -29t-69 -29t-102 -13.5z" />
    <glyph glyph-name="cacute" unicode="&#x107;" horiz-adv-x="460" 
d="M368 670q14 -17 11.5 -35.5t-19.5 -32.5q-9 -8 -21 -15t-31.5 -17t-49 -24t-72.5 -34l-5 6q27 39 45.5 65t32 44t22.5 28.5t18 18.5q17 14 36 13.5t33 -17.5zM260 432q-30 0 -55 -12.5t-43.5 -35.5t-29 -57.5t-10.5 -77.5q0 -41 12.5 -75.5t35 -59t54 -38t68.5 -13.5
q43 0 74.5 15.5t62.5 51.5l5 -2q-21 -66 -70 -103t-113 -37q-44 0 -83.5 17.5t-69 49t-47 75t-17.5 96.5q0 55 19 101.5t50.5 79.5t73 51.5t86.5 18.5q38 0 70 -11t55.5 -29.5t37 -42t13.5 -48.5q0 -24 -12 -37t-32 -13q-21 0 -33 13t-17 48q-5 38 -27 56.5t-58 18.5z" />
    <glyph glyph-name="Ccircumflex" unicode="&#x108;" horiz-adv-x="744" 
d="M228 752l-6 8l139 154h63l138 -154l-6 -8l-164 82zM397 -12q-77 0 -142.5 26.5t-113 74t-74.5 112.5t-27 142q0 80 27 147.5t74.5 117t113 77t142.5 27.5q60 0 102 -13.5t69 -29t42.5 -29t23.5 -13.5q3 0 6.5 2t9.5 7t15 15t24 27v-214h-42q-9 46 -31 83.5t-53.5 63.5
t-70.5 40t-82 14q-56 0 -102 -22t-79.5 -63t-52 -98.5t-18.5 -127.5q0 -74 19 -133t52.5 -100t80 -63.5t100.5 -22.5q43 0 82 14t70.5 40.5t53.5 63.5t31 83h42v-214q-15 16 -24 26.5t-15 15.5t-9.5 7t-6.5 2q-8 0 -23.5 -13.5t-42.5 -29t-69 -29t-102 -13.5z" />
    <glyph glyph-name="ccircumflex" unicode="&#x109;" horiz-adv-x="460" 
d="M89 515l-6 8l139 154h63l138 -154l-6 -8l-164 82zM260 432q-30 0 -55 -12.5t-43.5 -35.5t-29 -57.5t-10.5 -77.5q0 -41 12.5 -75.5t35 -59t54 -38t68.5 -13.5q43 0 74.5 15.5t62.5 51.5l5 -2q-21 -66 -70 -103t-113 -37q-44 0 -83.5 17.5t-69 49t-47 75t-17.5 96.5
q0 55 19 101.5t50.5 79.5t73 51.5t86.5 18.5q38 0 70 -11t55.5 -29.5t37 -42t13.5 -48.5q0 -24 -12 -37t-32 -13q-21 0 -33 13t-17 48q-5 38 -27 56.5t-58 18.5z" />
    <glyph glyph-name="Cdotaccent" unicode="&#x10a;" horiz-adv-x="744" 
d="M397 -12q-77 0 -142.5 26.5t-113 74t-74.5 112.5t-27 142q0 80 27 147.5t74.5 117t113 77t142.5 27.5q60 0 102 -13.5t69 -29t42.5 -29t23.5 -13.5q3 0 6.5 2t9.5 7t15 15t24 27v-214h-42q-9 46 -31 83.5t-53.5 63.5t-70.5 40t-82 14q-56 0 -102 -22t-79.5 -63t-52 -98.5
t-18.5 -127.5q0 -74 19 -133t52.5 -100t80 -63.5t100.5 -22.5q43 0 82 14t70.5 40.5t53.5 63.5t31 83h42v-214q-15 16 -24 26.5t-15 15.5t-9.5 7t-6.5 2q-8 0 -23.5 -13.5t-42.5 -29t-69 -29t-102 -13.5zM336 823q0 24 16.5 40.5t39.5 16.5t40 -16.5t17 -40.5q0 -23 -17 -40
t-40 -17t-39.5 17t-16.5 40z" />
    <glyph glyph-name="cdotaccent" unicode="&#x10b;" horiz-adv-x="460" 
d="M260 432q-30 0 -55 -12.5t-43.5 -35.5t-29 -57.5t-10.5 -77.5q0 -41 12.5 -75.5t35 -59t54 -38t68.5 -13.5q43 0 74.5 15.5t62.5 51.5l5 -2q-21 -66 -70 -103t-113 -37q-44 0 -83.5 17.5t-69 49t-47 75t-17.5 96.5q0 55 19 101.5t50.5 79.5t73 51.5t86.5 18.5
q38 0 70 -11t55.5 -29.5t37 -42t13.5 -48.5q0 -24 -12 -37t-32 -13q-21 0 -33 13t-17 48q-5 38 -27 56.5t-58 18.5zM197 586q0 24 16.5 40.5t39.5 16.5t40 -16.5t17 -40.5q0 -23 -17 -40t-40 -17t-39.5 17t-16.5 40z" />
    <glyph glyph-name="Ccaron" unicode="&#x10c;" horiz-adv-x="744" 
d="M556 938l6 -7l-138 -155h-63l-139 155l6 7l164 -82zM397 -12q-77 0 -142.5 26.5t-113 74t-74.5 112.5t-27 142q0 80 27 147.5t74.5 117t113 77t142.5 27.5q60 0 102 -13.5t69 -29t42.5 -29t23.5 -13.5q3 0 6.5 2t9.5 7t15 15t24 27v-214h-42q-9 46 -31 83.5t-53.5 63.5
t-70.5 40t-82 14q-56 0 -102 -22t-79.5 -63t-52 -98.5t-18.5 -127.5q0 -74 19 -133t52.5 -100t80 -63.5t100.5 -22.5q43 0 82 14t70.5 40.5t53.5 63.5t31 83h42v-214q-15 16 -24 26.5t-15 15.5t-9.5 7t-6.5 2q-8 0 -23.5 -13.5t-42.5 -29t-69 -29t-102 -13.5z" />
    <glyph glyph-name="ccaron" unicode="&#x10d;" horiz-adv-x="460" 
d="M417 701l6 -7l-138 -155h-63l-139 155l6 7l164 -82zM260 432q-30 0 -55 -12.5t-43.5 -35.5t-29 -57.5t-10.5 -77.5q0 -41 12.5 -75.5t35 -59t54 -38t68.5 -13.5q43 0 74.5 15.5t62.5 51.5l5 -2q-21 -66 -70 -103t-113 -37q-44 0 -83.5 17.5t-69 49t-47 75t-17.5 96.5
q0 55 19 101.5t50.5 79.5t73 51.5t86.5 18.5q38 0 70 -11t55.5 -29.5t37 -42t13.5 -48.5q0 -24 -12 -37t-32 -13q-21 0 -33 13t-17 48q-5 38 -27 56.5t-58 18.5z" />
    <glyph glyph-name="Dcaron" unicode="&#x10e;" horiz-adv-x="772" 
d="M542 938l6 -7l-138 -155h-63l-139 155l6 7l164 -82zM28 32l78 9q10 2 13.5 6t3.5 15v577q0 17 -17 20l-78 10v31h330q82 0 150.5 -25t118 -70t77.5 -108.5t28 -140.5q0 -80 -27.5 -146t-78 -112.5t-120.5 -72t-154 -25.5h-324v32zM235 65q0 -21 21 -21h93q60 0 109 21
t84 60.5t54 95t19 124.5t-18.5 126.5t-53 99t-83 64t-107.5 22.5h-118v-592z" />
    <glyph glyph-name="dcaron" unicode="&#x10f;" horiz-adv-x="574" 
d="M622 738q20 -5 28.5 -20t3.5 -36q-2 -10 -7 -22.5t-14 -32t-23 -47.5t-35 -68l-8 2q-2 46 -2.5 77t-0.5 52t1 34.5t4 24.5q5 20 19 30.5t34 5.5zM33 224q0 56 17 102.5t46.5 79.5t69 51t84.5 18q43 0 79 -15.5t60 -44.5v230q0 11 -2.5 15.5t-12.5 9.5l-50 21v14l160 41
v-660q0 -10 3 -14.5t11 -9.5l51 -30v-14l-160 -22v77q-26 -39 -66.5 -62t-86.5 -23q-42 0 -79 16.5t-64.5 47t-43.5 74t-16 98.5zM127 233q0 -43 11.5 -77.5t31 -59t45 -37.5t54.5 -13q38 0 67.5 16t52.5 46v260q-20 29 -50 44.5t-68 15.5q-32 0 -58 -13.5t-45.5 -38.5
t-30 -61.5t-10.5 -81.5z" />
    <glyph glyph-name="Dcroat" unicode="&#x110;" horiz-adv-x="772" 
d="M28 32l78 9q10 2 13.5 6t3.5 15v282h-95v38h95v257q0 17 -17 20l-78 10v31h330q82 0 150.5 -25t118 -70t77.5 -108.5t28 -140.5q0 -80 -27.5 -146t-78 -112.5t-120.5 -72t-154 -25.5h-324v32zM235 65q0 -21 21 -21h93q60 0 109 21t84 60.5t54 95t19 124.5t-18.5 126.5
t-53 99t-83 64t-107.5 22.5h-118v-275h161v-38h-161v-279z" />
    <glyph glyph-name="dcroat" unicode="&#x111;" horiz-adv-x="574" 
d="M33 224q0 56 17 102.5t46.5 79.5t69 51t84.5 18q43 0 79 -15.5t60 -44.5v141h-140v36h140v53q0 11 -2.5 15.5t-12.5 9.5l-50 21v14l160 41v-154h65v-36h-65v-470q0 -10 3 -14.5t11 -9.5l51 -30v-14l-160 -22v77q-26 -39 -66.5 -62t-86.5 -23q-42 0 -79 16.5t-64.5 47
t-43.5 74t-16 98.5zM127 233q0 -43 11.5 -77.5t31 -59t45 -37.5t54.5 -13q38 0 67.5 16t52.5 46v260q-20 29 -50 44.5t-68 15.5q-32 0 -58 -13.5t-45.5 -38.5t-30 -61.5t-10.5 -81.5z" />
    <glyph glyph-name="Emacron" unicode="&#x112;" horiz-adv-x="656" 
d="M106 41q10 2 13.5 6t3.5 15v577q0 17 -17 20l-78 10v31h558v-184h-37q-12 49 -20.5 77t-19 42.5t-26.5 18t-42 3.5h-206v-274l136 3q14 0 18.5 5t8.5 22l14 63h39v-225h-39l-14 63q-4 16 -8.5 21t-18.5 5l-136 3v-278q0 -21 21 -21h185q34 0 54 4t33.5 18.5t23.5 43
t22 78.5h39l-8 -188h-577v32zM207 824h290v-44h-290v44z" />
    <glyph glyph-name="emacron" unicode="&#x113;" horiz-adv-x="461" 
d="M244 -12q-44 0 -82.5 17t-67 47.5t-44.5 73.5t-16 96q0 55 16.5 102t46 81t69 53t85.5 19q76 0 126 -50.5t56 -144.5h-309q-1 -7 -1 -14v-14q0 -45 12.5 -81t34 -61.5t50 -39t60.5 -13.5q86 0 140 71l5 -2q-16 -66 -66 -103t-115 -37zM249 437q-39 0 -71.5 -30t-46.5 -85
h198q14 0 14 14q0 45 -27.5 73t-66.5 28zM100 587h290v-44h-290v44z" />
    <glyph glyph-name="Ebreve" unicode="&#x114;" horiz-adv-x="656" 
d="M106 41q10 2 13.5 6t3.5 15v577q0 17 -17 20l-78 10v31h558v-184h-37q-12 49 -20.5 77t-19 42.5t-26.5 18t-42 3.5h-206v-274l136 3q14 0 18.5 5t8.5 22l14 63h39v-225h-39l-14 63q-4 16 -8.5 21t-18.5 5l-136 3v-278q0 -21 21 -21h185q34 0 54 4t33.5 18.5t23.5 43
t22 78.5h39l-8 -188h-577v32zM352 841q53 0 87 19.5t57 64.5l9 -1q-1 -36 -13 -65t-32 -49t-47.5 -31t-60.5 -11q-32 0 -59.5 11t-48 31t-32.5 49t-13 65l9 1q23 -45 57.5 -64.5t86.5 -19.5z" />
    <glyph glyph-name="ebreve" unicode="&#x115;" horiz-adv-x="461" 
d="M244 -12q-44 0 -82.5 17t-67 47.5t-44.5 73.5t-16 96q0 55 16.5 102t46 81t69 53t85.5 19q76 0 126 -50.5t56 -144.5h-309q-1 -7 -1 -14v-14q0 -45 12.5 -81t34 -61.5t50 -39t60.5 -13.5q86 0 140 71l5 -2q-16 -66 -66 -103t-115 -37zM249 437q-39 0 -71.5 -30t-46.5 -85
h198q14 0 14 14q0 45 -27.5 73t-66.5 28zM245 604q53 0 87 19.5t57 64.5l9 -1q-1 -36 -13 -65t-32 -49t-47.5 -31t-60.5 -11q-32 0 -59.5 11t-48 31t-32.5 49t-13 65l9 1q23 -45 57.5 -64.5t86.5 -19.5z" />
    <glyph glyph-name="Edotaccent" unicode="&#x116;" horiz-adv-x="656" 
d="M106 41q10 2 13.5 6t3.5 15v577q0 17 -17 20l-78 10v31h558v-184h-37q-12 49 -20.5 77t-19 42.5t-26.5 18t-42 3.5h-206v-274l136 3q14 0 18.5 5t8.5 22l14 63h39v-225h-39l-14 63q-4 16 -8.5 21t-18.5 5l-136 3v-278q0 -21 21 -21h185q34 0 54 4t33.5 18.5t23.5 43
t22 78.5h39l-8 -188h-577v32zM296 823q0 24 16.5 40.5t39.5 16.5t40 -16.5t17 -40.5q0 -23 -17 -40t-40 -17t-39.5 17t-16.5 40z" />
    <glyph glyph-name="edotaccent" unicode="&#x117;" horiz-adv-x="461" 
d="M244 -12q-44 0 -82.5 17t-67 47.5t-44.5 73.5t-16 96q0 55 16.5 102t46 81t69 53t85.5 19q76 0 126 -50.5t56 -144.5h-309q-1 -7 -1 -14v-14q0 -45 12.5 -81t34 -61.5t50 -39t60.5 -13.5q86 0 140 71l5 -2q-16 -66 -66 -103t-115 -37zM249 437q-39 0 -71.5 -30t-46.5 -85
h198q14 0 14 14q0 45 -27.5 73t-66.5 28zM189 586q0 24 16.5 40.5t39.5 16.5t40 -16.5t17 -40.5q0 -23 -17 -40t-40 -17t-39.5 17t-16.5 40z" />
    <glyph glyph-name="Eogonek" unicode="&#x118;" horiz-adv-x="656" 
d="M106 41q10 2 13.5 6t3.5 15v577q0 17 -17 20l-78 10v31h558v-184h-37q-12 49 -20.5 77t-19 42.5t-26.5 18t-42 3.5h-206v-274l136 3q14 0 18.5 5t8.5 22l14 63h39v-225h-39l-14 63q-4 16 -8.5 21t-18.5 5l-136 3v-278q0 -21 21 -21h185q34 0 54 4t33.5 18.5t23.5 43
t22 78.5h39l-8 -188h-64q-13 -26 -21.5 -43.5t-13 -30.5t-6.5 -22t-2 -17q0 -22 13.5 -34.5t35.5 -12.5q20 0 38 9t38 26l5 -4q-20 -44 -48.5 -67.5t-71.5 -23.5q-37 0 -61.5 21t-24.5 53q0 30 23 64t68 82h-485v32z" />
    <glyph glyph-name="eogonek" unicode="&#x119;" horiz-adv-x="461" 
d="M398 -129q-20 -43 -49 -67t-71 -24q-37 0 -61.5 21t-24.5 53q0 30 24.5 64.5t76.5 75.5q-23 -6 -49 -6q-44 0 -82.5 17t-67 47.5t-44.5 73.5t-16 96q0 55 16.5 102t46 81t69 53t85.5 19q76 0 126 -50.5t56 -144.5h-309q-1 -7 -1 -14v-14q0 -45 12.5 -81t34 -61.5t50 -39
t60.5 -13.5q86 0 140 71l5 -2q-8 -29 -22.5 -55t-45.5 -54q-46 -42 -67.5 -73.5t-21.5 -58.5q0 -22 13.5 -34.5t35.5 -12.5q20 0 38 9t38 26zM249 437q-39 0 -71.5 -30t-46.5 -85h198q14 0 14 14q0 45 -27.5 73t-66.5 28z" />
    <glyph glyph-name="Ecaron" unicode="&#x11a;" horiz-adv-x="656" 
d="M516 938l6 -7l-138 -155h-63l-139 155l6 7l164 -82zM106 41q10 2 13.5 6t3.5 15v577q0 17 -17 20l-78 10v31h558v-184h-37q-12 49 -20.5 77t-19 42.5t-26.5 18t-42 3.5h-206v-274l136 3q14 0 18.5 5t8.5 22l14 63h39v-225h-39l-14 63q-4 16 -8.5 21t-18.5 5l-136 3v-278
q0 -21 21 -21h185q34 0 54 4t33.5 18.5t23.5 43t22 78.5h39l-8 -188h-577v32z" />
    <glyph glyph-name="ecaron" unicode="&#x11b;" horiz-adv-x="461" 
d="M409 701l6 -7l-138 -155h-63l-139 155l6 7l164 -82zM244 -12q-44 0 -82.5 17t-67 47.5t-44.5 73.5t-16 96q0 55 16.5 102t46 81t69 53t85.5 19q76 0 126 -50.5t56 -144.5h-309q-1 -7 -1 -14v-14q0 -45 12.5 -81t34 -61.5t50 -39t60.5 -13.5q86 0 140 71l5 -2
q-16 -66 -66 -103t-115 -37zM249 437q-39 0 -71.5 -30t-46.5 -85h198q14 0 14 14q0 45 -27.5 73t-66.5 28z" />
    <glyph glyph-name="Gcircumflex" unicode="&#x11c;" horiz-adv-x="798" 
d="M234 752l-6 8l139 154h63l138 -154l-6 -8l-164 82zM629 52q-9 0 -26 -10t-44 -22t-65.5 -22t-92.5 -10q-78 0 -144 26t-114.5 73t-75.5 112.5t-27 143.5q0 79 27 146.5t75.5 117t115 77.5t145.5 28q61 0 103.5 -13.5t70.5 -29t43.5 -29t23.5 -13.5q3 0 6.5 2t9.5 7t15 15
t24 27v-214h-42q-9 46 -31.5 83.5t-54 63.5t-71.5 40t-84 14q-58 0 -105.5 -22.5t-81.5 -63t-53 -98t-19 -127.5q0 -74 19 -133.5t53 -101t80.5 -64t101.5 -22.5q54 0 101.5 19.5t82.5 55.5v161q0 20 -17 21l-88 9v31h293v-31l-63 -9q-9 -2 -12.5 -6t-3.5 -15v-273
q-21 19 -34 30t-20.5 17t-12 7.5t-8.5 1.5z" />
    <glyph glyph-name="gcircumflex" unicode="&#x11d;" horiz-adv-x="487" 
d="M75 515l-6 8l118 154h63l119 -154l-6 -8l-144 82zM239 -220q-89 0 -137 33t-48 81q0 23 12 36.5t32 13.5q17 0 27.5 -11.5t10.5 -28.5q0 -7 -1.5 -15t-1.5 -16q0 -60 106 -60q36 0 67 10t53.5 26.5t35 38.5t12.5 46q0 69 -78 60l-176 -17q-67 -7 -101.5 16.5t-34.5 67.5
q0 40 36 68.5t101 38.5q-47 19 -75 56t-28 86q0 34 14 64.5t39 52.5t59.5 35t75.5 13q71 0 122 -39v4q0 24 8.5 44.5t23 35.5t33.5 23.5t40 8.5q51 0 51 -40q0 -16 -10.5 -26.5t-29.5 -10.5q-12 0 -23 3.5t-22 3.5q-20 0 -31 -13t-11 -36q0 -8 0.5 -14.5t1.5 -14.5
q30 -38 30 -88q0 -36 -14 -65.5t-39 -51.5t-58 -34.5t-72 -13.5q-83 -2 -121.5 -19t-38.5 -39q0 -17 15 -24.5t52 -3.5l191 20q68 8 106 -22t38 -85q0 -42 -18.5 -78t-51 -62.5t-76.5 -42t-96 -15.5zM239 182q19 0 36 9.5t29.5 26.5t20 40.5t7.5 52.5q0 31 -8 56t-21.5 42
t-31 26t-36.5 9q-39 0 -66.5 -35.5t-27.5 -93.5q0 -63 29.5 -98t68.5 -35z" />
    <glyph glyph-name="Gbreve" unicode="&#x11e;" horiz-adv-x="798" 
d="M629 52q-9 0 -26 -10t-44 -22t-65.5 -22t-92.5 -10q-78 0 -144 26t-114.5 73t-75.5 112.5t-27 143.5q0 79 27 146.5t75.5 117t115 77.5t145.5 28q61 0 103.5 -13.5t70.5 -29t43.5 -29t23.5 -13.5q3 0 6.5 2t9.5 7t15 15t24 27v-214h-42q-9 46 -31.5 83.5t-54 63.5
t-71.5 40t-84 14q-58 0 -105.5 -22.5t-81.5 -63t-53 -98t-19 -127.5q0 -74 19 -133.5t53 -101t80.5 -64t101.5 -22.5q54 0 101.5 19.5t82.5 55.5v161q0 20 -17 21l-88 9v31h293v-31l-63 -9q-9 -2 -12.5 -6t-3.5 -15v-273q-21 19 -34 30t-20.5 17t-12 7.5t-8.5 1.5zM398 841
q53 0 87 19.5t57 64.5l9 -1q-1 -36 -13 -65t-32 -49t-47.5 -31t-60.5 -11q-32 0 -59.5 11t-48 31t-32.5 49t-13 65l9 1q23 -45 57.5 -64.5t86.5 -19.5z" />
    <glyph glyph-name="gbreve" unicode="&#x11f;" horiz-adv-x="487" 
d="M239 -220q-89 0 -137 33t-48 81q0 23 12 36.5t32 13.5q17 0 27.5 -11.5t10.5 -28.5q0 -7 -1.5 -15t-1.5 -16q0 -60 106 -60q36 0 67 10t53.5 26.5t35 38.5t12.5 46q0 69 -78 60l-176 -17q-67 -7 -101.5 16.5t-34.5 67.5q0 40 36 68.5t101 38.5q-47 19 -75 56t-28 86
q0 34 14 64.5t39 52.5t59.5 35t75.5 13q71 0 122 -39v4q0 24 8.5 44.5t23 35.5t33.5 23.5t40 8.5q51 0 51 -40q0 -16 -10.5 -26.5t-29.5 -10.5q-12 0 -23 3.5t-22 3.5q-20 0 -31 -13t-11 -36q0 -8 0.5 -14.5t1.5 -14.5q30 -38 30 -88q0 -36 -14 -65.5t-39 -51.5t-58 -34.5
t-72 -13.5q-83 -2 -121.5 -19t-38.5 -39q0 -17 15 -24.5t52 -3.5l191 20q68 8 106 -22t38 -85q0 -42 -18.5 -78t-51 -62.5t-76.5 -42t-96 -15.5zM239 182q19 0 36 9.5t29.5 26.5t20 40.5t7.5 52.5q0 31 -8 56t-21.5 42t-31 26t-36.5 9q-39 0 -66.5 -35.5t-27.5 -93.5
q0 -63 29.5 -98t68.5 -35zM238 604q53 0 87 19.5t57 64.5l9 -1q-1 -36 -13 -65t-32 -49t-47.5 -31t-60.5 -11q-32 0 -59.5 11t-48 31t-32.5 49t-13 65l9 1q23 -45 57.5 -64.5t86.5 -19.5z" />
    <glyph glyph-name="Gdotaccent" unicode="&#x120;" horiz-adv-x="798" 
d="M629 52q-9 0 -26 -10t-44 -22t-65.5 -22t-92.5 -10q-78 0 -144 26t-114.5 73t-75.5 112.5t-27 143.5q0 79 27 146.5t75.5 117t115 77.5t145.5 28q61 0 103.5 -13.5t70.5 -29t43.5 -29t23.5 -13.5q3 0 6.5 2t9.5 7t15 15t24 27v-214h-42q-9 46 -31.5 83.5t-54 63.5
t-71.5 40t-84 14q-58 0 -105.5 -22.5t-81.5 -63t-53 -98t-19 -127.5q0 -74 19 -133.5t53 -101t80.5 -64t101.5 -22.5q54 0 101.5 19.5t82.5 55.5v161q0 20 -17 21l-88 9v31h293v-31l-63 -9q-9 -2 -12.5 -6t-3.5 -15v-273q-21 19 -34 30t-20.5 17t-12 7.5t-8.5 1.5zM342 823
q0 24 16.5 40.5t39.5 16.5t40 -16.5t17 -40.5q0 -23 -17 -40t-40 -17t-39.5 17t-16.5 40z" />
    <glyph glyph-name="gdotaccent" unicode="&#x121;" horiz-adv-x="487" 
d="M239 -220q-89 0 -137 33t-48 81q0 23 12 36.5t32 13.5q17 0 27.5 -11.5t10.5 -28.5q0 -7 -1.5 -15t-1.5 -16q0 -60 106 -60q36 0 67 10t53.5 26.5t35 38.5t12.5 46q0 69 -78 60l-176 -17q-67 -7 -101.5 16.5t-34.5 67.5q0 40 36 68.5t101 38.5q-47 19 -75 56t-28 86
q0 34 14 64.5t39 52.5t59.5 35t75.5 13q71 0 122 -39v4q0 24 8.5 44.5t23 35.5t33.5 23.5t40 8.5q51 0 51 -40q0 -16 -10.5 -26.5t-29.5 -10.5q-12 0 -23 3.5t-22 3.5q-20 0 -31 -13t-11 -36q0 -8 0.5 -14.5t1.5 -14.5q30 -38 30 -88q0 -36 -14 -65.5t-39 -51.5t-58 -34.5
t-72 -13.5q-83 -2 -121.5 -19t-38.5 -39q0 -17 15 -24.5t52 -3.5l191 20q68 8 106 -22t38 -85q0 -42 -18.5 -78t-51 -62.5t-76.5 -42t-96 -15.5zM239 182q19 0 36 9.5t29.5 26.5t20 40.5t7.5 52.5q0 31 -8 56t-21.5 42t-31 26t-36.5 9q-39 0 -66.5 -35.5t-27.5 -93.5
q0 -63 29.5 -98t68.5 -35zM182 586q0 24 16.5 40.5t39.5 16.5t40 -16.5t17 -40.5q0 -23 -17 -40t-40 -17t-39.5 17t-16.5 40z" />
    <glyph glyph-name="uni0122" unicode="&#x122;" horiz-adv-x="798" 
d="M359 -256q23 17 33 30t10 25q0 9 -5.5 17.5t-21.5 19.5t-22.5 23t-6.5 26q0 22 13.5 35t35.5 13q24 0 43 -19.5t19 -53.5q0 -42 -24 -75t-68 -52zM629 52q-9 0 -26 -10t-44 -22t-65.5 -22t-92.5 -10q-78 0 -144 26t-114.5 73t-75.5 112.5t-27 143.5q0 79 27 146.5
t75.5 117t115 77.5t145.5 28q61 0 103.5 -13.5t70.5 -29t43.5 -29t23.5 -13.5q3 0 6.5 2t9.5 7t15 15t24 27v-214h-42q-9 46 -31.5 83.5t-54 63.5t-71.5 40t-84 14q-58 0 -105.5 -22.5t-81.5 -63t-53 -98t-19 -127.5q0 -74 19 -133.5t53 -101t80.5 -64t101.5 -22.5
q54 0 101.5 19.5t82.5 55.5v161q0 20 -17 21l-88 9v31h293v-31l-63 -9q-9 -2 -12.5 -6t-3.5 -15v-273q-21 19 -34 30t-20.5 17t-12 7.5t-8.5 1.5z" />
    <glyph glyph-name="uni0123" unicode="&#x123;" horiz-adv-x="487" 
d="M281 719q-23 -17 -33 -30t-10 -25q0 -9 5.5 -17.5t21.5 -19.5t22.5 -23t6.5 -26q0 -22 -13.5 -35t-35.5 -13q-24 0 -43 19.5t-19 53.5q0 42 24 75t68 52zM239 -220q-89 0 -137 33t-48 81q0 23 12 36.5t32 13.5q17 0 27.5 -11.5t10.5 -28.5q0 -7 -1.5 -15t-1.5 -16
q0 -60 106 -60q36 0 67 10t53.5 26.5t35 38.5t12.5 46q0 69 -78 60l-176 -17q-67 -7 -101.5 16.5t-34.5 67.5q0 40 36 68.5t101 38.5q-47 19 -75 56t-28 86q0 34 14 64.5t39 52.5t59.5 35t75.5 13q71 0 122 -39v4q0 24 8.5 44.5t23 35.5t33.5 23.5t40 8.5q51 0 51 -40
q0 -16 -10.5 -26.5t-29.5 -10.5q-12 0 -23 3.5t-22 3.5q-20 0 -31 -13t-11 -36q0 -8 0.5 -14.5t1.5 -14.5q30 -38 30 -88q0 -36 -14 -65.5t-39 -51.5t-58 -34.5t-72 -13.5q-83 -2 -121.5 -19t-38.5 -39q0 -17 15 -24.5t52 -3.5l191 20q68 8 106 -22t38 -85q0 -42 -18.5 -78
t-51 -62.5t-76.5 -42t-96 -15.5zM239 182q19 0 36 9.5t29.5 26.5t20 40.5t7.5 52.5q0 31 -8 56t-21.5 42t-31 26t-36.5 9q-39 0 -66.5 -35.5t-27.5 -93.5q0 -63 29.5 -98t68.5 -35z" />
    <glyph glyph-name="Hcircumflex" unicode="&#x124;" horiz-adv-x="820" 
d="M245 752l-6 8l139 154h63l138 -154l-6 -8l-164 82zM235 62q0 -11 3.5 -15t13.5 -6l78 -9v-32h-302v32l78 9q10 2 13.5 6t3.5 15v577q0 17 -17 20l-78 10v31h302v-31l-78 -10q-17 -3 -17 -20v-253h348v253q0 17 -17 20l-79 10v31h303v-31l-78 -10q-17 -3 -17 -20v-577
q0 -11 3.5 -15t13.5 -6l78 -9v-32h-303v32l79 9q10 2 13.5 6t3.5 15v278h-348v-278z" />
    <glyph glyph-name="hcircumflex" unicode="&#x125;" horiz-adv-x="562" 
d="M-28 784l-6 8l139 154h63l138 -154l-6 -8l-164 82zM183 56q0 -9 3 -13.5t13 -6.5l48 -6v-30h-223v30l49 6q10 2 13 6.5t3 13.5v589q0 11 -2.5 15.5t-12.5 9.5l-50 21v14l159 41v-351q24 39 61.5 59.5t83.5 20.5q66 0 107 -40t41 -113v-266q0 -9 3 -13.5t13 -6.5l50 -6
v-30h-224v30l48 6q10 2 13 6.5t3 13.5v259q0 54 -25 80.5t-66 26.5q-68 0 -108 -60v-306z" />
    <glyph glyph-name="Hbar" unicode="&#x126;" horiz-adv-x="820" 
d="M28 32l78 9q10 2 13.5 6t3.5 15v438h-95v37h95v102q0 17 -17 20l-78 10v31h302v-31l-78 -10q-17 -3 -17 -20v-102h348v102q0 17 -17 20l-79 10v31h303v-31l-78 -10q-17 -3 -17 -20v-102h95v-37h-95v-438q0 -11 3.5 -15t13.5 -6l78 -9v-32h-303v32l79 9q10 2 13.5 6
t3.5 15v259h-348v-259q0 -11 3.5 -15t13.5 -6l78 -9v-32h-302v32zM583 366v134h-348v-134h348z" />
    <glyph glyph-name="hbar" unicode="&#x127;" horiz-adv-x="563" 
d="M183 56q0 -9 3 -13.5t13 -6.5l48 -6v-30h-223v30l49 6q10 2 13 6.5t3 13.5v500h-65v36h65v53q0 11 -2.5 15.5t-12.5 9.5l-50 21v14l159 41v-154h141v-36h-141v-161q24 39 61.5 59.5t83.5 20.5q66 0 107 -40t41 -113v-266q0 -9 3 -13.5t13 -6.5l50 -6v-30h-224v30l48 6
q10 2 13 6.5t3 13.5v259q0 54 -25 80.5t-66 26.5q-68 0 -108 -60v-306z" />
    <glyph glyph-name="Itilde" unicode="&#x128;" horiz-adv-x="364" 
d="M237 62q0 -11 3.5 -15t13.5 -6l78 -9v-32h-302v32l78 9q10 2 13.5 6t3.5 15v577q0 17 -17 20l-78 10v31h302v-31l-78 -10q-17 -3 -17 -20v-577zM202 861q27 -17 39 -22t22 -5q14 0 28.5 11.5t35.5 42.5l10 -3q-25 -119 -84 -119q-20 0 -38.5 9t-49.5 29q-27 17 -39 22.5
t-23 5.5q-14 0 -28.5 -12t-35.5 -43l-10 3q13 61 34.5 90t49.5 29q20 0 38.5 -9t50.5 -29z" />
    <glyph glyph-name="itilde" unicode="&#x129;" horiz-adv-x="282" 
d="M30 30l49 6q10 2 13 6.5t3 13.5v320q0 11 -2.5 15.5t-12.5 9.5l-50 21v14l159 41v-421q0 -9 3 -13.5t13 -6.5l50 -6v-30h-225v30zM163 624q27 -17 39 -22t22 -5q14 0 28.5 11.5t35.5 42.5l10 -3q-25 -119 -84 -119q-20 0 -38.5 9t-49.5 29q-27 17 -39 22.5t-23 5.5
q-14 0 -28.5 -12t-35.5 -43l-10 3q13 61 34.5 90t49.5 29q20 0 38.5 -9t50.5 -29z" />
    <glyph glyph-name="Imacron" unicode="&#x12a;" horiz-adv-x="364" 
d="M237 62q0 -11 3.5 -15t13.5 -6l78 -9v-32h-302v32l78 9q10 2 13.5 6t3.5 15v577q0 17 -17 20l-78 10v31h302v-31l-78 -10q-17 -3 -17 -20v-577zM36 824h290v-44h-290v44z" />
    <glyph glyph-name="imacron" unicode="&#x12b;" horiz-adv-x="282" 
d="M30 30l49 6q10 2 13 6.5t3 13.5v320q0 11 -2.5 15.5t-12.5 9.5l-50 21v14l159 41v-421q0 -9 3 -13.5t13 -6.5l50 -6v-30h-225v30zM-3 587h290v-44h-290v44z" />
    <glyph glyph-name="Ibreve" unicode="&#x12c;" horiz-adv-x="364" 
d="M237 62q0 -11 3.5 -15t13.5 -6l78 -9v-32h-302v32l78 9q10 2 13.5 6t3.5 15v577q0 17 -17 20l-78 10v31h302v-31l-78 -10q-17 -3 -17 -20v-577zM181 841q53 0 87 19.5t57 64.5l9 -1q-1 -36 -13 -65t-32 -49t-47.5 -31t-60.5 -11q-32 0 -59.5 11t-48 31t-32.5 49t-13 65
l9 1q23 -45 57.5 -64.5t86.5 -19.5z" />
    <glyph glyph-name="ibreve" unicode="&#x12d;" horiz-adv-x="282" 
d="M30 30l49 6q10 2 13 6.5t3 13.5v320q0 11 -2.5 15.5t-12.5 9.5l-50 21v14l159 41v-421q0 -9 3 -13.5t13 -6.5l50 -6v-30h-225v30zM142 604q53 0 87 19.5t57 64.5l9 -1q-1 -36 -13 -65t-32 -49t-47.5 -31t-60.5 -11q-32 0 -59.5 11t-48 31t-32.5 49t-13 65l9 1
q23 -45 57.5 -64.5t86.5 -19.5z" />
    <glyph glyph-name="Iogonek" unicode="&#x12e;" horiz-adv-x="364" 
d="M237 62q0 -11 3.5 -15t13.5 -6l78 -9v-32h-122q-13 -26 -21.5 -43.5t-13 -30.5t-6.5 -22t-2 -17q0 -22 13.5 -34.5t35.5 -12.5q20 0 38 9t38 26l5 -4q-20 -44 -48.5 -67.5t-71.5 -23.5q-37 0 -61.5 21t-24.5 53q0 30 23 64t68 82h-152v32l78 9q10 2 13.5 6t3.5 15v577
q0 17 -17 20l-78 10v31h302v-31l-78 -10q-17 -3 -17 -20v-577z" />
    <glyph glyph-name="iogonek" unicode="&#x12f;" horiz-adv-x="282" 
d="M85 630q0 23 16.5 39.5t39.5 16.5t39.5 -16.5t16.5 -39.5t-16.5 -40t-39.5 -17t-39.5 17t-16.5 40zM189 56q0 -9 3 -13.5t13 -6.5l50 -6v-30h-84q-13 -26 -21.5 -43.5t-13 -30.5t-6.5 -22t-2 -17q0 -22 13.5 -34.5t35.5 -12.5q20 0 38 9t38 26l5 -4q-20 -44 -48.5 -67.5
t-71.5 -23.5q-37 0 -61.5 21t-24.5 53q0 30 23 64t68 82h-113v30l49 6q10 2 13 6.5t3 13.5v320q0 11 -2.5 15.5t-12.5 9.5l-50 21v14l159 41v-421z" />
    <glyph glyph-name="Idotaccent" unicode="&#x130;" horiz-adv-x="364" 
d="M237 62q0 -11 3.5 -15t13.5 -6l78 -9v-32h-302v32l78 9q10 2 13.5 6t3.5 15v577q0 17 -17 20l-78 10v31h302v-31l-78 -10q-17 -3 -17 -20v-577zM125 823q0 24 16.5 40.5t39.5 16.5t40 -16.5t17 -40.5q0 -23 -17 -40t-40 -17t-39.5 17t-16.5 40z" />
    <glyph glyph-name="dotlessi" unicode="&#x131;" horiz-adv-x="282" 
d="M30 30l49 6q10 2 13 6.5t3 13.5v320q0 11 -2.5 15.5t-12.5 9.5l-50 21v14l159 41v-421q0 -9 3 -13.5t13 -6.5l50 -6v-30h-225v30z" />
    <glyph glyph-name="IJ" unicode="&#x132;" horiz-adv-x="939" 
d="M237 62q0 -11 3.5 -15t13.5 -6l78 -9v-32h-302v32l78 9q10 2 13.5 6t3.5 15v577q0 17 -17 20l-78 10v31h302v-31l-78 -10q-17 -3 -17 -20v-577zM588 -12q-47 0 -85.5 11.5t-65.5 31.5t-42 47.5t-15 59.5q0 29 14.5 45.5t37.5 16.5q21 0 34.5 -15t16.5 -47q5 -51 31.5 -76
t73.5 -25q58 0 92.5 41t34.5 114v447q0 20 -17 20l-89 10v31h313v-31l-78 -10q-17 -3 -17 -20v-412q0 -56 -17 -100.5t-48 -75t-75 -47t-99 -16.5z" />
    <glyph glyph-name="ij" unicode="&#x133;" horiz-adv-x="548" 
d="M85 630q0 23 16.5 39.5t39.5 16.5t39.5 -16.5t16.5 -39.5t-16.5 -40t-39.5 -17t-39.5 17t-16.5 40zM189 56q0 -9 3 -13.5t13 -6.5l50 -6v-30h-225v30l49 6q10 2 13 6.5t3 13.5v320q0 11 -2.5 15.5t-12.5 9.5l-50 21v14l159 41v-421zM363 630q0 23 16.5 39.5t39.5 16.5
t39.5 -16.5t16.5 -39.5t-16.5 -40t-39.5 -17t-39.5 17t-16.5 40zM467 -65q0 -38 -10 -67t-27 -49t-40 -30.5t-49 -10.5q-39 0 -66 21t-27 49q0 17 11 29t29 12q17 0 27.5 -10t19.5 -28q17 -35 39 -35q25 0 25 31q0 18 -4 40.5t-9 48t-9 54.5t-4 62v324q0 11 -2.5 15.5
t-12.5 9.5l-50 21v14l159 41v-542z" />
    <glyph glyph-name="Jcircumflex" unicode="&#x134;" horiz-adv-x="575" 
d="M238 752l-6 8l139 154h63l138 -154l-6 -8l-164 82zM224 -12q-47 0 -85.5 11.5t-65.5 31.5t-42 47.5t-15 59.5q0 29 14.5 45.5t37.5 16.5q21 0 34.5 -15t16.5 -47q5 -51 31.5 -76t73.5 -25q58 0 92.5 41t34.5 114v447q0 20 -17 20l-89 10v31h313v-31l-78 -10
q-17 -3 -17 -20v-412q0 -56 -17 -100.5t-48 -75t-75 -47t-99 -16.5z" />
    <glyph glyph-name="jcircumflex" unicode="&#x135;" horiz-adv-x="266" 
d="M185 -65q0 -38 -10 -67t-27 -49t-40 -30.5t-49 -10.5q-39 0 -66 21t-27 49q0 17 11 29t29 12q17 0 27.5 -10t19.5 -28q17 -35 39 -35q25 0 25 31q0 18 -4 40.5t-9 48t-9 54.5t-4 62v324q0 11 -2.5 15.5t-12.5 9.5l-50 21v14l159 41v-542zM-26 515l-6 8l139 154h63
l138 -154l-6 -8l-164 82z" />
    <glyph glyph-name="uni0136" unicode="&#x136;" horiz-adv-x="735" 
d="M370 -256q23 17 33 30t10 25q0 9 -5.5 17.5t-21.5 19.5t-22.5 23t-6.5 26q0 22 13.5 35t35.5 13q24 0 43 -19.5t19 -53.5q0 -42 -24 -75t-68 -52zM235 62q0 -11 3.5 -15t13.5 -6l78 -9v-32h-302v32l78 9q10 2 13.5 6t3.5 15v577q0 17 -17 20l-78 10v31h302v-31l-78 -10
q-17 -3 -17 -20v-262l282 243q23 20 21 32t-28 14l-39 3v31h233v-31l-28 -5q-26 -4 -43.5 -12t-43.5 -31l-276 -236l324 -310q22 -20 34 -27t30 -11l27 -5v-32h-170l-323 329v-267z" />
    <glyph glyph-name="uni0137" unicode="&#x137;" horiz-adv-x="530" 
d="M251 -256q23 17 33 30t10 25q0 9 -5.5 17.5t-21.5 19.5t-22.5 23t-6.5 26q0 22 13.5 35t35.5 13q24 0 43 -19.5t19 -53.5q0 -42 -24 -75t-68 -52zM24 30l49 6q10 2 13 6.5t3 13.5v589q0 11 -2.5 15.5t-12.5 9.5l-50 21v14l159 41v-489l175 145q25 21 -6 27l-25 4v30h183
v-30l-24 -4q-24 -5 -41 -13.5t-40 -27.5l-149 -123l192 -198q17 -17 30.5 -24.5t32.5 -10.5l14 -2v-30h-141l-201 226v-170q0 -9 3 -13.5t13 -6.5l50 -6v-30h-225v30z" />
    <glyph glyph-name="kgreenlandic" unicode="&#x138;" horiz-adv-x="534" 
d="M28 30l49 6q10 2 13 6.5t3 13.5v320q0 11 -2.5 15.5t-12.5 9.5l-50 21v14l159 41v-220l176 145q11 11 10.5 17.5t-17.5 9.5l-25 4v30h183v-30l-24 -4q-24 -5 -41 -13.5t-40 -27.5l-149 -123l192 -198q17 -17 30.5 -24.5t32.5 -10.5l14 -2v-30h-141l-201 226v-170
q0 -9 3 -13.5t13 -6.5l50 -6v-30h-225v30z" />
    <glyph glyph-name="Lacute" unicode="&#x139;" horiz-adv-x="621" 
d="M299 907q14 -17 11.5 -35.5t-19.5 -32.5q-9 -8 -21 -15t-31.5 -17t-49 -24t-72.5 -34l-5 6q27 39 45.5 65t32 44t22.5 28.5t18 18.5q17 14 36 13.5t33 -17.5zM123 639q0 17 -17 20l-78 10v31h313v-31l-89 -10q-9 -1 -13 -5t-4 -15v-574q0 -21 21 -21h169q34 0 55 4.5
t34.5 21t23.5 49.5t23 90h39l-9 -209h-563v32l78 9q10 2 13.5 6t3.5 15v577z" />
    <glyph glyph-name="lacute" unicode="&#x13a;" horiz-adv-x="278" 
d="M253 939q14 -17 11.5 -35.5t-19.5 -32.5q-9 -8 -21 -15t-31.5 -17t-49 -24t-72.5 -34l-5 6q27 39 45.5 65t32 44t22.5 28.5t18 18.5q17 14 36 13.5t33 -17.5zM185 56q0 -9 3 -13.5t13 -6.5l50 -6v-30h-225v30l49 6q10 2 13 6.5t3 13.5v589q0 11 -2.5 15.5t-12.5 9.5
l-50 21v14l159 41v-690z" />
    <glyph glyph-name="uni013B" unicode="&#x13b;" horiz-adv-x="621" 
d="M312 -256q23 17 33 30t10 25q0 9 -5.5 17.5t-21.5 19.5t-22.5 23t-6.5 26q0 22 13.5 35t35.5 13q24 0 43 -19.5t19 -53.5q0 -42 -24 -75t-68 -52zM123 639q0 17 -17 20l-78 10v31h313v-31l-89 -10q-9 -1 -13 -5t-4 -15v-574q0 -21 21 -21h169q34 0 55 4.5t34.5 21
t23.5 49.5t23 90h39l-9 -209h-563v32l78 9q10 2 13.5 6t3.5 15v577z" />
    <glyph glyph-name="uni013C" unicode="&#x13c;" horiz-adv-x="278" 
d="M96 -256q23 17 33 30t10 25q0 9 -5.5 17.5t-21.5 19.5t-22.5 23t-6.5 26q0 22 13.5 35t35.5 13q24 0 43 -19.5t19 -53.5q0 -42 -24 -75t-68 -52zM185 56q0 -9 3 -13.5t13 -6.5l50 -6v-30h-225v30l49 6q10 2 13 6.5t3 13.5v589q0 11 -2.5 15.5t-12.5 9.5l-50 21v14l159 41
v-690z" />
    <glyph glyph-name="Lcaron" unicode="&#x13d;" horiz-adv-x="621" 
d="M490 707q20 -5 28.5 -20t3.5 -36q-2 -10 -7 -22.5t-14 -32t-23 -47.5t-35 -68l-8 2q-2 46 -2.5 77t-0.5 52t1 34.5t4 24.5q5 20 19 30.5t34 5.5zM123 639q0 17 -17 20l-78 10v31h313v-31l-89 -10q-9 -1 -13 -5t-4 -15v-574q0 -21 21 -21h169q34 0 55 4.5t34.5 21
t23.5 49.5t23 90h39l-9 -209h-563v32l78 9q10 2 13.5 6t3.5 15v577z" />
    <glyph glyph-name="lcaron" unicode="&#x13e;" horiz-adv-x="278" 
d="M324 738q20 -5 28.5 -20t3.5 -36q-2 -10 -7 -22.5t-14 -32t-23 -47.5t-35 -68l-8 2q-2 46 -2.5 77t-0.5 52t1 34.5t4 24.5q5 20 19 30.5t34 5.5zM185 56q0 -9 3 -13.5t13 -6.5l50 -6v-30h-225v30l49 6q10 2 13 6.5t3 13.5v589q0 11 -2.5 15.5t-12.5 9.5l-50 21v14l159 41
v-690z" />
    <glyph glyph-name="Ldot" unicode="&#x13f;" horiz-adv-x="642" 
d="M442 390q0 24 17 41t41 17t41 -17t17 -41t-17 -41t-41 -17t-41 17t-17 41zM123 639q0 17 -17 20l-78 10v31h313v-31l-89 -10q-9 -1 -13 -5t-4 -15v-574q0 -21 21 -21h169q34 0 55 4.5t34.5 21t23.5 49.5t23 90h39l-9 -209h-563v32l78 9q10 2 13.5 6t3.5 15v577z" />
    <glyph glyph-name="ldot" unicode="&#x140;" horiz-adv-x="382" 
d="M272 281q0 24 17 41t40 17t40 -17t17 -41t-17 -40.5t-40 -16.5t-40 16.5t-17 40.5zM185 56q0 -9 3 -13.5t13 -6.5l50 -6v-30h-225v30l49 6q10 2 13 6.5t3 13.5v589q0 11 -2.5 15.5t-12.5 9.5l-50 21v14l159 41v-690z" />
    <glyph glyph-name="Lslash" unicode="&#x141;" horiz-adv-x="621" 
d="M123 260l-95 -61v43l95 62v335q0 17 -17 20l-78 10v31h313v-31l-89 -10q-9 -1 -13 -5t-4 -15v-263l161 105v-44l-161 -104v-268q0 -21 21 -21h169q34 0 55 4.5t34.5 21t23.5 49.5t23 90h39l-9 -209h-563v32l78 9q10 2 13.5 6t3.5 15v198z" />
    <glyph glyph-name="lslash" unicode="&#x142;" horiz-adv-x="278" 
d="M15 281l76 49v315q0 11 -2.5 15.5t-12.5 9.5l-50 21v14l159 41v-356l76 49v-42l-76 -49v-292q0 -9 3 -13.5t13 -6.5l50 -6v-30h-225v30l49 6q10 2 13 6.5t3 13.5v232l-76 -49v42z" />
    <glyph glyph-name="Nacute" unicode="&#x143;" horiz-adv-x="775" 
d="M516 907q14 -17 11.5 -35.5t-19.5 -32.5q-9 -8 -21 -15t-31.5 -17t-49 -24t-72.5 -34l-5 6q27 39 45.5 65t32 44t22.5 28.5t18 18.5q17 14 36 13.5t33 -17.5zM219 700l377 -461q5 -5 8.5 -4t3.5 8l-2 360q0 29 -9.5 41.5t-34.5 16.5l-51 8v31h244v-31l-51 -8
q-25 -4 -34.5 -16.5t-9.5 -41.5v-614h-2l-472 578q-5 5 -8.5 4t-3.5 -8l3 -465q0 -29 9.5 -41.5t34.5 -16.5l51 -8v-32h-244v32l51 8q25 4 34.5 16.5t9.5 41.5v515q0 20 -4.5 26t-21.5 11l-69 19v31h191z" />
    <glyph glyph-name="nacute" unicode="&#x144;" horiz-adv-x="566" 
d="M405 670q14 -17 11.5 -35.5t-19.5 -32.5q-9 -8 -21 -15t-31.5 -17t-49 -24t-72.5 -34l-5 6q27 39 45.5 65t32 44t22.5 28.5t18 18.5q17 14 36 13.5t33 -17.5zM187 56q0 -9 3 -13.5t13 -6.5l48 -6v-30h-223v30l49 6q10 2 13 6.5t3 13.5v320q0 11 -2.5 15.5t-12.5 9.5
l-50 21v14l159 41v-82q24 39 61.5 59.5t83.5 20.5q66 0 107 -40t41 -113v-266q0 -9 3 -13.5t13 -6.5l50 -6v-30h-224v30l48 6q10 2 13 6.5t3 13.5v259q0 54 -25 80.5t-66 26.5q-68 0 -108 -60v-306z" />
    <glyph glyph-name="uni0145" unicode="&#x145;" horiz-adv-x="775" 
d="M360 -256q23 17 33 30t10 25q0 9 -5.5 17.5t-21.5 19.5t-22.5 23t-6.5 26q0 22 13.5 35t35.5 13q24 0 43 -19.5t19 -53.5q0 -42 -24 -75t-68 -52zM219 700l377 -461q5 -5 8.5 -4t3.5 8l-2 360q0 29 -9.5 41.5t-34.5 16.5l-51 8v31h244v-31l-51 -8q-25 -4 -34.5 -16.5
t-9.5 -41.5v-614h-2l-472 578q-5 5 -8.5 4t-3.5 -8l3 -465q0 -29 9.5 -41.5t34.5 -16.5l51 -8v-32h-244v32l51 8q25 4 34.5 16.5t9.5 41.5v515q0 20 -4.5 26t-21.5 11l-69 19v31h191z" />
    <glyph glyph-name="uni0146" unicode="&#x146;" horiz-adv-x="566" 
d="M244 -256q23 17 33 30t10 25q0 9 -5.5 17.5t-21.5 19.5t-22.5 23t-6.5 26q0 22 13.5 35t35.5 13q24 0 43 -19.5t19 -53.5q0 -42 -24 -75t-68 -52zM187 56q0 -9 3 -13.5t13 -6.5l48 -6v-30h-223v30l49 6q10 2 13 6.5t3 13.5v320q0 11 -2.5 15.5t-12.5 9.5l-50 21v14
l159 41v-82q24 39 61.5 59.5t83.5 20.5q66 0 107 -40t41 -113v-266q0 -9 3 -13.5t13 -6.5l50 -6v-30h-224v30l48 6q10 2 13 6.5t3 13.5v259q0 54 -25 80.5t-66 26.5q-68 0 -108 -60v-306z" />
    <glyph glyph-name="Ncaron" unicode="&#x147;" horiz-adv-x="775" 
d="M565 938l6 -7l-138 -155h-63l-139 155l6 7l164 -82zM219 700l377 -461q5 -5 8.5 -4t3.5 8l-2 360q0 29 -9.5 41.5t-34.5 16.5l-51 8v31h244v-31l-51 -8q-25 -4 -34.5 -16.5t-9.5 -41.5v-614h-2l-472 578q-5 5 -8.5 4t-3.5 -8l3 -465q0 -29 9.5 -41.5t34.5 -16.5l51 -8
v-32h-244v32l51 8q25 4 34.5 16.5t9.5 41.5v515q0 20 -4.5 26t-21.5 11l-69 19v31h191z" />
    <glyph glyph-name="ncaron" unicode="&#x148;" horiz-adv-x="566" 
d="M454 701l6 -7l-138 -155h-63l-139 155l6 7l164 -82zM187 56q0 -9 3 -13.5t13 -6.5l48 -6v-30h-223v30l49 6q10 2 13 6.5t3 13.5v320q0 11 -2.5 15.5t-12.5 9.5l-50 21v14l159 41v-82q24 39 61.5 59.5t83.5 20.5q66 0 107 -40t41 -113v-266q0 -9 3 -13.5t13 -6.5l50 -6
v-30h-224v30l48 6q10 2 13 6.5t3 13.5v259q0 54 -25 80.5t-66 26.5q-68 0 -108 -60v-306z" />
    <glyph glyph-name="Eng" unicode="&#x14a;" horiz-adv-x="775" 
d="M28 32l51 8q25 4 34.5 16.5t9.5 41.5v515q0 20 -4.5 26t-21.5 11l-69 19v31h191l377 -508q4 -5 8 -4t4 8l-2 407q0 29 -9.5 41.5t-34.5 16.5l-51 8v31h244v-31l-51 -8q-25 -4 -34.5 -16.5t-9.5 -41.5v-636q0 -90 -41 -139.5t-112 -49.5q-30 0 -55 8t-43 22t-28 32.5
t-10 38.5q0 24 13 37t33 13t31.5 -13.5t14.5 -44.5q7 -55 50 -55q42 0 68.5 37.5t26.5 109.5v26l-422 571q-4 5 -8 4t-4 -8l3 -458q0 -29 9.5 -41.5t34.5 -16.5l51 -8v-32h-244v32z" />
    <glyph glyph-name="eng" unicode="&#x14b;" horiz-adv-x="555" 
d="M28 30l49 6q10 2 13 6.5t3 13.5v320q0 11 -2.5 15.5t-12.5 9.5l-50 21v14l159 41v-82q24 39 61.5 59.5t83.5 20.5q66 0 107 -40t41 -113v-364q0 -85 -42 -132.5t-111 -47.5q-24 0 -44 6t-34.5 16.5t-23 23.5t-8.5 28q0 17 11.5 29t29.5 12q16 0 26.5 -10t19.5 -28
q10 -20 22.5 -31.5t29.5 -11.5q20 0 31 14.5t11 40.5q0 31 -6 76t-6 99v273q0 54 -25 80.5t-66 26.5q-68 0 -108 -60v-306q0 -9 3 -13.5t13 -6.5l48 -6v-30h-223v30z" />
    <glyph glyph-name="Omacron" unicode="&#x14c;" 
d="M261 824h290v-44h-290v44zM767 362q0 -89 -30.5 -158.5t-81.5 -118t-117 -74t-136 -25.5q-73 0 -139 25.5t-115.5 72t-78.5 111.5t-29 144q0 88 31 158t82 118t117 73.5t136 25.5q73 0 138.5 -25.5t115 -72t78.5 -111.5t29 -143zM157 356q0 -76 20.5 -136t55 -102
t80 -64.5t95.5 -22.5q53 0 97.5 24t77 66t50.5 99.5t18 123.5q0 76 -20.5 136.5t-55 102.5t-80 64t-95.5 22q-53 0 -98 -24t-77 -66t-50 -99t-18 -124z" />
    <glyph glyph-name="omacron" unicode="&#x14d;" horiz-adv-x="538" 
d="M124 587h290v-44h-290v44zM503 238q0 -57 -18 -103.5t-49.5 -79.5t-74.5 -51t-94 -18q-47 0 -89.5 17.5t-74.5 49t-50.5 75.5t-18.5 98q0 56 17.5 102.5t49 79.5t75 51t94.5 18q47 0 89 -17.5t74 -49t51 -75.5t19 -97zM404 230q0 48 -10.5 86t-29.5 65t-44 41.5t-54 14.5
q-28 0 -52.5 -13.5t-42.5 -40t-28 -64t-10 -85.5t10.5 -86.5t29.5 -65.5t44 -41.5t54 -14.5q28 0 52.5 14t42.5 40t28 64t10 86z" />
    <glyph glyph-name="Obreve" unicode="&#x14e;" 
d="M767 362q0 -89 -30.5 -158.5t-81.5 -118t-117 -74t-136 -25.5q-73 0 -139 25.5t-115.5 72t-78.5 111.5t-29 144q0 88 31 158t82 118t117 73.5t136 25.5q73 0 138.5 -25.5t115 -72t78.5 -111.5t29 -143zM157 356q0 -76 20.5 -136t55 -102t80 -64.5t95.5 -22.5
q53 0 97.5 24t77 66t50.5 99.5t18 123.5q0 76 -20.5 136.5t-55 102.5t-80 64t-95.5 22q-53 0 -98 -24t-77 -66t-50 -99t-18 -124zM406 841q53 0 87 19.5t57 64.5l9 -1q-1 -36 -13 -65t-32 -49t-47.5 -31t-60.5 -11q-32 0 -59.5 11t-48 31t-32.5 49t-13 65l9 1
q23 -45 57.5 -64.5t86.5 -19.5z" />
    <glyph glyph-name="obreve" unicode="&#x14f;" horiz-adv-x="538" 
d="M503 238q0 -57 -18 -103.5t-49.5 -79.5t-74.5 -51t-94 -18q-47 0 -89.5 17.5t-74.5 49t-50.5 75.5t-18.5 98q0 56 17.5 102.5t49 79.5t75 51t94.5 18q47 0 89 -17.5t74 -49t51 -75.5t19 -97zM404 230q0 48 -10.5 86t-29.5 65t-44 41.5t-54 14.5q-28 0 -52.5 -13.5
t-42.5 -40t-28 -64t-10 -85.5t10.5 -86.5t29.5 -65.5t44 -41.5t54 -14.5q28 0 52.5 14t42.5 40t28 64t10 86zM269 604q53 0 87 19.5t57 64.5l9 -1q-1 -36 -13 -65t-32 -49t-47.5 -31t-60.5 -11q-32 0 -59.5 11t-48 31t-32.5 49t-13 65l9 1q23 -45 57.5 -64.5t86.5 -19.5z
" />
    <glyph glyph-name="Ohungarumlaut" unicode="&#x150;" 
d="M411 916q16 -14 15.5 -32t-15.5 -34q-8 -8 -18 -16t-27 -19l-40 -27q-24 -16 -60 -39l-6 5q19 39 32 65t22.5 44t16.5 29.5t14 19.5q15 16 32.5 17t33.5 -13zM576 916q16 -14 15.5 -32t-15.5 -34q-8 -8 -18 -16t-27 -19l-40 -27q-24 -16 -60 -39l-6 5q18 39 31 65
t22.5 44t16.5 29.5t15 19.5q15 16 32.5 17t33.5 -13zM767 362q0 -89 -30.5 -158.5t-81.5 -118t-117 -74t-136 -25.5q-73 0 -139 25.5t-115.5 72t-78.5 111.5t-29 144q0 88 31 158t82 118t117 73.5t136 25.5q73 0 138.5 -25.5t115 -72t78.5 -111.5t29 -143zM157 356
q0 -76 20.5 -136t55 -102t80 -64.5t95.5 -22.5q53 0 97.5 24t77 66t50.5 99.5t18 123.5q0 76 -20.5 136.5t-55 102.5t-80 64t-95.5 22q-53 0 -98 -24t-77 -66t-50 -99t-18 -124z" />
    <glyph glyph-name="ohungarumlaut" unicode="&#x151;" horiz-adv-x="538" 
d="M274 679q16 -14 15.5 -32t-15.5 -34q-8 -8 -18 -16t-27 -19l-40 -27q-24 -16 -60 -39l-6 5q19 39 32 65t22.5 44t16.5 29.5t14 19.5q15 16 32.5 17t33.5 -13zM439 679q16 -14 15.5 -32t-15.5 -34q-8 -8 -18 -16t-27 -19l-40 -27q-24 -16 -60 -39l-6 5q18 39 31 65
t22.5 44t16.5 29.5t15 19.5q15 16 32.5 17t33.5 -13zM503 238q0 -57 -18 -103.5t-49.5 -79.5t-74.5 -51t-94 -18q-47 0 -89.5 17.5t-74.5 49t-50.5 75.5t-18.5 98q0 56 17.5 102.5t49 79.5t75 51t94.5 18q47 0 89 -17.5t74 -49t51 -75.5t19 -97zM404 230q0 48 -10.5 86
t-29.5 65t-44 41.5t-54 14.5q-28 0 -52.5 -13.5t-42.5 -40t-28 -64t-10 -85.5t10.5 -86.5t29.5 -65.5t44 -41.5t54 -14.5q28 0 52.5 14t42.5 40t28 64t10 86z" />
    <glyph glyph-name="OE" unicode="&#x152;" horiz-adv-x="1050" 
d="M792 314q-4 16 -8.5 21t-18.5 5l-136 3v-278q0 -21 21 -21h185q33 0 53.5 4t34 18.5t23 43t22.5 78.5h39l-8 -188h-587q-82 0 -150.5 25t-118 70t-77.5 108.5t-28 140.5q0 80 27.5 146t78 112.5t120.5 72t154 25.5h561v-184h-36q-12 49 -20.5 77t-19.5 42.5t-26.5 18
t-41.5 3.5h-206v-274l136 3q14 0 18.5 5t8.5 22l13 63h40v-225h-40zM517 636q0 21 -21 21h-74q-60 0 -109.5 -21.5t-84.5 -60.5t-54 -95t-19 -125t18.5 -126t53 -98.5t83 -64t108.5 -22.5h78q21 0 21 21v571z" />
    <glyph glyph-name="oe" unicode="&#x153;" horiz-adv-x="825" 
d="M615 -12q-54 0 -98 25.5t-72 72.5q-30 -48 -78 -74t-108 -26q-45 0 -86 17.5t-72 49t-49 75.5t-18 98q0 56 17.5 102.5t47.5 79.5t70.5 51t87.5 18q57 0 104.5 -26.5t76.5 -74.5q29 47 75 74t102 27q76 0 126 -50.5t56 -144.5h-309q-1 -7 -1 -14v-14q0 -45 12.5 -81
t34 -61.5t50 -39t60.5 -13.5q86 0 140 71l5 -2q-16 -66 -64.5 -103t-109.5 -37zM613 437q-39 0 -71.5 -30t-46.5 -85h198q13 0 13 14q0 45 -27 73t-66 28zM263 26q53 0 89 53.5t36 150.5q0 48 -10 86t-27.5 65t-41.5 41.5t-51 14.5q-53 0 -89 -53.5t-36 -150.5
q0 -47 10 -85.5t27.5 -65.5t41.5 -41.5t51 -14.5z" />
    <glyph glyph-name="Racute" unicode="&#x154;" horiz-adv-x="754" 
d="M449 909q14 -17 11.5 -35.5t-19.5 -32.5q-9 -8 -21 -15t-31.5 -17t-49 -24t-72.5 -34l-5 6q27 39 45.5 65t32 44t22.5 28.5t18 18.5q17 14 36 13.5t33 -17.5zM28 32l78 9q10 2 13.5 6t3.5 15v577q0 17 -17 20l-78 10v31h323q118 0 179.5 -48.5t61.5 -130.5
q0 -70 -46.5 -118t-129.5 -65l233 -252q13 -14 22 -22.5t16.5 -14t15 -8t18.5 -4.5l27 -5v-32h-166l-281 331h-66v-269q0 -11 3.5 -15t13.5 -6l78 -9v-32h-302v32zM235 373h95q67 0 108.5 39t41.5 105q0 67 -39.5 103.5t-116.5 36.5h-89v-284z" />
    <glyph glyph-name="racute" unicode="&#x155;" horiz-adv-x="419" 
d="M364 670q14 -17 11.5 -35.5t-19.5 -32.5q-9 -8 -21 -15t-31.5 -17t-49 -24t-72.5 -34l-5 6q27 39 45.5 65t32 44t22.5 28.5t18 18.5q17 14 36 13.5t33 -17.5zM187 56q0 -19 16 -20l60 -6v-30h-235v30l49 6q10 2 13 6.5t3 13.5v320q0 11 -2.5 15.5t-12.5 9.5l-50 21v14
l159 41v-88q19 41 51.5 63.5t73.5 22.5q21 0 39.5 -6t32.5 -17t22 -25.5t8 -31.5q0 -21 -11.5 -33t-28.5 -12q-14 0 -25 8t-19 28q-16 37 -50 37q-29 0 -54 -21.5t-39 -72.5v-273z" />
    <glyph glyph-name="uni0156" unicode="&#x156;" horiz-adv-x="754" 
d="M371 -256q23 17 33 30t10 25q0 9 -5.5 17.5t-21.5 19.5t-22.5 23t-6.5 26q0 22 13.5 35t35.5 13q24 0 43 -19.5t19 -53.5q0 -42 -24 -75t-68 -52zM28 32l78 9q10 2 13.5 6t3.5 15v577q0 17 -17 20l-78 10v31h323q118 0 179.5 -48.5t61.5 -130.5q0 -70 -46.5 -118
t-129.5 -65l233 -252q13 -14 22 -22.5t16.5 -14t15 -8t18.5 -4.5l27 -5v-32h-166l-281 331h-66v-269q0 -11 3.5 -15t13.5 -6l78 -9v-32h-302v32zM235 373h95q67 0 108.5 39t41.5 105q0 67 -39.5 103.5t-116.5 36.5h-89v-284z" />
    <glyph glyph-name="uni0157" unicode="&#x157;" horiz-adv-x="419" 
d="M103 -256q23 17 33 30t10 25q0 9 -5.5 17.5t-21.5 19.5t-22.5 23t-6.5 26q0 22 13.5 35t35.5 13q24 0 43 -19.5t19 -53.5q0 -42 -24 -75t-68 -52zM187 56q0 -19 16 -20l60 -6v-30h-235v30l49 6q10 2 13 6.5t3 13.5v320q0 11 -2.5 15.5t-12.5 9.5l-50 21v14l159 41v-88
q19 41 51.5 63.5t73.5 22.5q21 0 39.5 -6t32.5 -17t22 -25.5t8 -31.5q0 -21 -11.5 -33t-28.5 -12q-14 0 -25 8t-19 28q-16 37 -50 37q-29 0 -54 -21.5t-39 -72.5v-273z" />
    <glyph glyph-name="Rcaron" unicode="&#x158;" horiz-adv-x="754" 
d="M498 940l6 -7l-138 -155h-63l-139 155l6 7l164 -82zM28 32l78 9q10 2 13.5 6t3.5 15v577q0 17 -17 20l-78 10v31h323q118 0 179.5 -48.5t61.5 -130.5q0 -70 -46.5 -118t-129.5 -65l233 -252q13 -14 22 -22.5t16.5 -14t15 -8t18.5 -4.5l27 -5v-32h-166l-281 331h-66v-269
q0 -11 3.5 -15t13.5 -6l78 -9v-32h-302v32zM235 373h95q67 0 108.5 39t41.5 105q0 67 -39.5 103.5t-116.5 36.5h-89v-284z" />
    <glyph glyph-name="rcaron" unicode="&#x159;" horiz-adv-x="419" 
d="M413 701l6 -7l-138 -155h-63l-139 155l6 7l164 -82zM187 56q0 -19 16 -20l60 -6v-30h-235v30l49 6q10 2 13 6.5t3 13.5v320q0 11 -2.5 15.5t-12.5 9.5l-50 21v14l159 41v-88q19 41 51.5 63.5t73.5 22.5q21 0 39.5 -6t32.5 -17t22 -25.5t8 -31.5q0 -21 -11.5 -33
t-28.5 -12q-14 0 -25 8t-19 28q-16 37 -50 37q-29 0 -54 -21.5t-39 -72.5v-273z" />
    <glyph glyph-name="Sacute" unicode="&#x15a;" horiz-adv-x="558" 
d="M379 907q14 -17 11.5 -35.5t-19.5 -32.5q-9 -8 -21 -15t-31.5 -17t-49 -24t-72.5 -34l-5 6q27 39 45.5 65t32 44t22.5 28.5t18 18.5q17 14 36 13.5t33 -17.5zM285 -12q-39 0 -68.5 8.5t-50.5 18.5t-35 18.5t-21 8.5q-3 0 -5.5 -1t-8 -5.5t-14.5 -13.5l-25 -25v222h39
q31 -101 81 -144t112 -43q57 0 93 33.5t36 92.5q0 47 -22.5 76.5t-78.5 55.5l-117 55q-68 33 -100.5 75t-32.5 108q0 34 14 67.5t39.5 59t61 41.5t78.5 16q36 0 62.5 -7.5t45 -16t30.5 -16t19 -7.5q3 0 5.5 1t7.5 5.5t14 13.5l25 25v-204h-39q-27 89 -69 126t-97 37
q-24 0 -44 -8.5t-35 -23t-23.5 -35t-8.5 -44.5q0 -42 23.5 -70t78.5 -54l118 -55q69 -32 101 -75t32 -113q0 -44 -17 -81t-46.5 -64t-70 -42.5t-87.5 -15.5z" />
    <glyph glyph-name="sacute" unicode="&#x15b;" horiz-adv-x="412" 
d="M316 670q14 -17 11.5 -35.5t-19.5 -32.5q-9 -8 -21 -15t-31.5 -17t-49 -24t-72.5 -34l-5 6q27 39 45.5 65t32 44t22.5 28.5t18 18.5q17 14 36 13.5t33 -17.5zM45 160h35q19 -69 50 -101t75 -32q39 0 64.5 22t25.5 57q0 26 -14.5 41.5t-52.5 33.5l-87 41q-44 20 -64.5 48
t-20.5 73q0 29 10.5 53t29 41.5t44.5 27.5t57 10q27 0 46.5 -5t33 -10.5t22.5 -10.5t14 -5t11.5 4.5t27.5 24.5v-152h-35q-17 60 -45.5 87.5t-70.5 27.5q-32 0 -52.5 -19t-20.5 -47q0 -25 14.5 -40.5t53.5 -34.5l88 -39q45 -20 65 -49t20 -74q0 -32 -12.5 -58.5t-34 -46
t-50.5 -30t-63 -10.5q-31 0 -52.5 6t-36 13.5t-23 13.5t-13.5 6t-11.5 -4.5t-27.5 -24.5v162z" />
    <glyph glyph-name="Scircumflex" unicode="&#x15c;" horiz-adv-x="558" 
d="M100 752l-6 8l139 154h63l138 -154l-6 -8l-164 82zM285 -12q-39 0 -68.5 8.5t-50.5 18.5t-35 18.5t-21 8.5q-3 0 -5.5 -1t-8 -5.5t-14.5 -13.5l-25 -25v222h39q31 -101 81 -144t112 -43q57 0 93 33.5t36 92.5q0 47 -22.5 76.5t-78.5 55.5l-117 55q-68 33 -100.5 75
t-32.5 108q0 34 14 67.5t39.5 59t61 41.5t78.5 16q36 0 62.5 -7.5t45 -16t30.5 -16t19 -7.5q3 0 5.5 1t7.5 5.5t14 13.5l25 25v-204h-39q-27 89 -69 126t-97 37q-24 0 -44 -8.5t-35 -23t-23.5 -35t-8.5 -44.5q0 -42 23.5 -70t78.5 -54l118 -55q69 -32 101 -75t32 -113
q0 -44 -17 -81t-46.5 -64t-70 -42.5t-87.5 -15.5z" />
    <glyph glyph-name="scircumflex" unicode="&#x15d;" horiz-adv-x="412" 
d="M37 515l-6 8l139 154h63l138 -154l-6 -8l-164 82zM45 160h35q19 -69 50 -101t75 -32q39 0 64.5 22t25.5 57q0 26 -14.5 41.5t-52.5 33.5l-87 41q-44 20 -64.5 48t-20.5 73q0 29 10.5 53t29 41.5t44.5 27.5t57 10q27 0 46.5 -5t33 -10.5t22.5 -10.5t14 -5t11.5 4.5
t27.5 24.5v-152h-35q-17 60 -45.5 87.5t-70.5 27.5q-32 0 -52.5 -19t-20.5 -47q0 -25 14.5 -40.5t53.5 -34.5l88 -39q45 -20 65 -49t20 -74q0 -32 -12.5 -58.5t-34 -46t-50.5 -30t-63 -10.5q-31 0 -52.5 6t-36 13.5t-23 13.5t-13.5 6t-11.5 -4.5t-27.5 -24.5v162z" />
    <glyph glyph-name="uni015E" unicode="&#x15e;" horiz-adv-x="558" 
d="M398 -128q0 -39 -34 -66t-88 -27q-36 0 -64.5 14.5t-44.5 38.5l7 7q19 -10 40 -16.5t43 -6.5q31 0 48.5 14t17.5 37q0 21 -14.5 34.5t-41.5 13.5q-14 0 -29.5 -2.5t-30.5 -10.5l-7 9l63 78q-33 3 -58.5 11.5t-44.5 17.5t-31 16.5t-19 7.5q-3 0 -5.5 -1t-8 -5.5
t-14.5 -13.5l-25 -25v222h39q31 -101 81 -144t112 -43q57 0 93 33.5t36 92.5q0 47 -22.5 76.5t-78.5 55.5l-117 55q-68 33 -100.5 75t-32.5 108q0 34 14 67.5t39.5 59t61 41.5t78.5 16q36 0 62.5 -7.5t45 -16t30.5 -16t19 -7.5q3 0 5.5 1t7.5 5.5t14 13.5l25 25v-204h-39
q-27 89 -69 126t-97 37q-24 0 -44 -8.5t-35 -23t-23.5 -35t-8.5 -44.5q0 -42 23.5 -70t78.5 -54l118 -55q69 -32 101 -75t32 -113q0 -40 -14 -74.5t-39.5 -61t-60.5 -43.5t-76 -22l-40 -47q13 3 28 3q42 0 68 -20t26 -54z" />
    <glyph glyph-name="uni015F" unicode="&#x15f;" horiz-adv-x="412" 
d="M45 160h35q19 -69 50 -101t75 -32q39 0 64.5 22t25.5 57q0 26 -14.5 41.5t-52.5 33.5l-87 41q-44 20 -64.5 48t-20.5 73q0 29 10.5 53t29 41.5t44.5 27.5t57 10q27 0 46.5 -5t33 -10.5t22.5 -10.5t14 -5t11.5 4.5t27.5 24.5v-152h-35q-17 60 -45.5 87.5t-70.5 27.5
q-32 0 -52.5 -19t-20.5 -47q0 -25 14.5 -40.5t53.5 -34.5l88 -39q45 -20 65 -49t20 -74q0 -57 -36.5 -95.5t-93.5 -47.5l-40 -47q13 3 28 3q42 0 68 -20t26 -54q0 -39 -34 -66t-88 -27q-36 0 -64.5 14.5t-44.5 38.5l7 7q19 -10 40 -16.5t43 -6.5q31 0 48.5 14t17.5 37
q0 21 -14.5 34.5t-41.5 13.5q-14 0 -29.5 -2.5t-30.5 -10.5l-7 9l63 78q-24 2 -41.5 8.5t-29 13t-19 11.5t-12.5 5t-11.5 -4.5t-27.5 -24.5v162z" />
    <glyph glyph-name="Scaron" unicode="&#x160;" horiz-adv-x="558" 
d="M428 938l6 -7l-138 -155h-63l-139 155l6 7l164 -82zM285 -12q-39 0 -68.5 8.5t-50.5 18.5t-35 18.5t-21 8.5q-3 0 -5.5 -1t-8 -5.5t-14.5 -13.5l-25 -25v222h39q31 -101 81 -144t112 -43q57 0 93 33.5t36 92.5q0 47 -22.5 76.5t-78.5 55.5l-117 55q-68 33 -100.5 75
t-32.5 108q0 34 14 67.5t39.5 59t61 41.5t78.5 16q36 0 62.5 -7.5t45 -16t30.5 -16t19 -7.5q3 0 5.5 1t7.5 5.5t14 13.5l25 25v-204h-39q-27 89 -69 126t-97 37q-24 0 -44 -8.5t-35 -23t-23.5 -35t-8.5 -44.5q0 -42 23.5 -70t78.5 -54l118 -55q69 -32 101 -75t32 -113
q0 -44 -17 -81t-46.5 -64t-70 -42.5t-87.5 -15.5z" />
    <glyph glyph-name="scaron" unicode="&#x161;" horiz-adv-x="412" 
d="M365 701l6 -7l-138 -155h-63l-139 155l6 7l164 -82zM45 160h35q19 -69 50 -101t75 -32q39 0 64.5 22t25.5 57q0 26 -14.5 41.5t-52.5 33.5l-87 41q-44 20 -64.5 48t-20.5 73q0 29 10.5 53t29 41.5t44.5 27.5t57 10q27 0 46.5 -5t33 -10.5t22.5 -10.5t14 -5t11.5 4.5
t27.5 24.5v-152h-35q-17 60 -45.5 87.5t-70.5 27.5q-32 0 -52.5 -19t-20.5 -47q0 -25 14.5 -40.5t53.5 -34.5l88 -39q45 -20 65 -49t20 -74q0 -32 -12.5 -58.5t-34 -46t-50.5 -30t-63 -10.5q-31 0 -52.5 6t-36 13.5t-23 13.5t-13.5 6t-11.5 -4.5t-27.5 -24.5v162z" />
    <glyph glyph-name="uni0162" unicode="&#x162;" horiz-adv-x="675" 
d="M175 32l89 9q17 1 17 21v595h-111q-27 0 -43 -4t-27 -20t-19.5 -48t-20.5 -89h-36v204h626v-204h-37q-11 57 -19.5 89t-19.5 48t-27.5 20t-43.5 4h-110v-595q0 -20 17 -21l88 -9v-32h-122l-48 -57q13 3 28 3q42 0 68 -20t26 -54q0 -39 -34 -66t-88 -27q-36 0 -64.5 14.5
t-44.5 38.5l7 7q19 -10 40 -16.5t43 -6.5q31 0 48.5 14t17.5 37q0 21 -14.5 34.5t-41.5 13.5q-14 0 -29.5 -2.5t-30.5 -10.5l-7 9l72 89h-149v32z" />
    <glyph glyph-name="uni0163" unicode="&#x163;" horiz-adv-x="339" 
d="M308 -128q0 -39 -34 -66t-88 -27q-36 0 -64.5 14.5t-44.5 38.5l7 7q19 -10 40 -16.5t43 -6.5q31 0 48.5 14t17.5 37q0 21 -14.5 34.5t-41.5 13.5q-14 0 -29.5 -2.5t-30.5 -10.5l-7 9l65 80q-40 10 -64 42.5t-24 84.5v297h-74v14q46 32 89 76t76 95h3v-136l139 1v-52
l-139 1v-287q0 -41 20 -61t52 -20q40 0 75 35l4 -3q-15 -37 -42 -60.5t-65 -28.5l-39 -46q13 3 28 3q42 0 68 -20t26 -54z" />
    <glyph glyph-name="Tcaron" unicode="&#x164;" horiz-adv-x="675" 
d="M501 938l6 -7l-138 -155h-63l-139 155l6 7l164 -82zM175 32l89 9q17 1 17 21v595h-111q-27 0 -43 -4t-27 -20t-19.5 -48t-20.5 -89h-36v204h626v-204h-37q-11 57 -19.5 89t-19.5 48t-27.5 20t-43.5 4h-110v-595q0 -20 17 -21l88 -9v-32h-323v32z" />
    <glyph glyph-name="tcaron" unicode="&#x165;" horiz-adv-x="339" 
d="M305 738q20 -5 28.5 -20t3.5 -36q-2 -10 -7 -22.5t-14 -32t-23 -47.5t-35 -68l-8 2q-2 46 -2.5 77t-0.5 52t1 34.5t4 24.5q5 20 19 30.5t34 5.5zM205 -12q-53 0 -85.5 34.5t-32.5 95.5v297h-74v14q46 32 89 76t76 95h3v-136l139 1v-52l-139 1v-287q0 -41 20 -61t52 -20
q40 0 75 35l4 -3q-17 -42 -49.5 -66t-77.5 -24z" />
    <glyph glyph-name="Tbar" unicode="&#x166;" horiz-adv-x="675" 
d="M175 32l89 9q17 1 17 21v282h-120v38h120v275h-111q-27 0 -43 -4t-27 -20t-19.5 -48t-20.5 -89h-36v204h626v-204h-37q-11 57 -19.5 89t-19.5 48t-27.5 20t-43.5 4h-110v-275h120v-38h-120v-282q0 -20 17 -21l88 -9v-32h-323v32z" />
    <glyph glyph-name="tbar" unicode="&#x167;" horiz-adv-x="339" 
d="M205 -12q-53 0 -85.5 34.5t-32.5 95.5v112h-74v36h74v149h-74v14q46 32 89 76t76 95h3v-136l139 1v-52l-139 1v-148h115v-36h-115v-103q0 -41 20 -61t52 -20q40 0 75 35l4 -3q-17 -42 -49.5 -66t-77.5 -24z" />
    <glyph glyph-name="Utilde" unicode="&#x168;" horiz-adv-x="779" 
d="M613 603q0 29 -9.5 41.5t-34.5 16.5l-52 8v31h245v-31l-52 -8q-25 -4 -34.5 -16.5t-9.5 -41.5l-1 -367q0 -59 -19 -105.5t-54.5 -78t-85 -48t-109.5 -16.5q-65 0 -117.5 17.5t-90 50t-58 78.5t-20.5 103v402q0 17 -17 20l-79 10v31h303v-31l-78 -10q-17 -3 -17 -20v-393
q0 -97 51.5 -148t140.5 -51q91 0 145 49.5t54 143.5zM434 861q27 -17 39 -22t22 -5q14 0 28.5 11.5t35.5 42.5l10 -3q-25 -119 -84 -119q-20 0 -38.5 9t-49.5 29q-27 17 -39 22.5t-23 5.5q-14 0 -28.5 -12t-35.5 -43l-10 3q13 61 34.5 90t49.5 29q20 0 38.5 -9t50.5 -29z
" />
    <glyph glyph-name="utilde" unicode="&#x169;" horiz-adv-x="562" 
d="M85 376q0 11 -2.5 15.5t-12.5 9.5l-51 21v14l160 41v-329q0 -54 25 -80.5t66 -26.5q68 0 108 61v274q0 11 -2.5 15.5t-12.5 9.5l-51 21v14l160 41v-391q0 -10 3 -14.5t11 -9.5l52 -30v-14l-160 -22v72q-24 -39 -61.5 -59.5t-83.5 -20.5q-66 0 -107 40t-41 114v234z
M299 624q27 -17 39 -22t22 -5q14 0 28.5 11.5t35.5 42.5l10 -3q-25 -119 -84 -119q-20 0 -38.5 9t-49.5 29q-27 17 -39 22.5t-23 5.5q-14 0 -28.5 -12t-35.5 -43l-10 3q13 61 34.5 90t49.5 29q20 0 38.5 -9t50.5 -29z" />
    <glyph glyph-name="Umacron" unicode="&#x16a;" horiz-adv-x="779" 
d="M613 603q0 29 -9.5 41.5t-34.5 16.5l-52 8v31h245v-31l-52 -8q-25 -4 -34.5 -16.5t-9.5 -41.5l-1 -367q0 -59 -19 -105.5t-54.5 -78t-85 -48t-109.5 -16.5q-65 0 -117.5 17.5t-90 50t-58 78.5t-20.5 103v402q0 17 -17 20l-79 10v31h303v-31l-78 -10q-17 -3 -17 -20v-393
q0 -97 51.5 -148t140.5 -51q91 0 145 49.5t54 143.5zM268 824h290v-44h-290v44z" />
    <glyph glyph-name="umacron" unicode="&#x16b;" horiz-adv-x="562" 
d="M85 376q0 11 -2.5 15.5t-12.5 9.5l-51 21v14l160 41v-329q0 -54 25 -80.5t66 -26.5q68 0 108 61v274q0 11 -2.5 15.5t-12.5 9.5l-51 21v14l160 41v-391q0 -10 3 -14.5t11 -9.5l52 -30v-14l-160 -22v72q-24 -39 -61.5 -59.5t-83.5 -20.5q-66 0 -107 40t-41 114v234z
M133 587h290v-44h-290v44z" />
    <glyph glyph-name="Ubreve" unicode="&#x16c;" horiz-adv-x="779" 
d="M613 603q0 29 -9.5 41.5t-34.5 16.5l-52 8v31h245v-31l-52 -8q-25 -4 -34.5 -16.5t-9.5 -41.5l-1 -367q0 -59 -19 -105.5t-54.5 -78t-85 -48t-109.5 -16.5q-65 0 -117.5 17.5t-90 50t-58 78.5t-20.5 103v402q0 17 -17 20l-79 10v31h303v-31l-78 -10q-17 -3 -17 -20v-393
q0 -97 51.5 -148t140.5 -51q91 0 145 49.5t54 143.5zM413 841q53 0 87 19.5t57 64.5l9 -1q-1 -36 -13 -65t-32 -49t-47.5 -31t-60.5 -11q-32 0 -59.5 11t-48 31t-32.5 49t-13 65l9 1q23 -45 57.5 -64.5t86.5 -19.5z" />
    <glyph glyph-name="ubreve" unicode="&#x16d;" horiz-adv-x="562" 
d="M85 376q0 11 -2.5 15.5t-12.5 9.5l-51 21v14l160 41v-329q0 -54 25 -80.5t66 -26.5q68 0 108 61v274q0 11 -2.5 15.5t-12.5 9.5l-51 21v14l160 41v-391q0 -10 3 -14.5t11 -9.5l52 -30v-14l-160 -22v72q-24 -39 -61.5 -59.5t-83.5 -20.5q-66 0 -107 40t-41 114v234z
M278 604q53 0 87 19.5t57 64.5l9 -1q-1 -36 -13 -65t-32 -49t-47.5 -31t-60.5 -11q-32 0 -59.5 11t-48 31t-32.5 49t-13 65l9 1q23 -45 57.5 -64.5t86.5 -19.5z" />
    <glyph glyph-name="Uring" unicode="&#x16e;" horiz-adv-x="779" 
d="M520 870q0 -21 -8.5 -40t-22.5 -32.5t-34 -21.5t-42 -8t-41.5 7.5t-33.5 21t-22.5 32t-8.5 39.5t8.5 40t22.5 32.5t33.5 21.5t41.5 8t42 -7.5t34 -21t22.5 -32t8.5 -39.5zM346 869q0 -28 19 -46t48 -18t48 18t19 46t-19 46t-48 18t-48 -18t-19 -46zM613 603
q0 29 -9.5 41.5t-34.5 16.5l-52 8v31h245v-31l-52 -8q-25 -4 -34.5 -16.5t-9.5 -41.5l-1 -367q0 -59 -19 -105.5t-54.5 -78t-85 -48t-109.5 -16.5q-65 0 -117.5 17.5t-90 50t-58 78.5t-20.5 103v402q0 17 -17 20l-79 10v31h303v-31l-78 -10q-17 -3 -17 -20v-393
q0 -97 51.5 -148t140.5 -51q91 0 145 49.5t54 143.5z" />
    <glyph glyph-name="uring" unicode="&#x16f;" horiz-adv-x="562" 
d="M385 633q0 -21 -8.5 -40t-22.5 -32.5t-34 -21.5t-42 -8t-41.5 7.5t-33.5 21t-22.5 32t-8.5 39.5t8.5 40t22.5 32.5t33.5 21.5t41.5 8t42 -7.5t34 -21t22.5 -32t8.5 -39.5zM211 632q0 -28 19 -46t48 -18t48 18t19 46t-19 46t-48 18t-48 -18t-19 -46zM85 376
q0 11 -2.5 15.5t-12.5 9.5l-51 21v14l160 41v-329q0 -54 25 -80.5t66 -26.5q68 0 108 61v274q0 11 -2.5 15.5t-12.5 9.5l-51 21v14l160 41v-391q0 -10 3 -14.5t11 -9.5l52 -30v-14l-160 -22v72q-24 -39 -61.5 -59.5t-83.5 -20.5q-66 0 -107 40t-41 114v234z" />
    <glyph glyph-name="Uhungarumlaut" unicode="&#x170;" horiz-adv-x="779" 
d="M613 603q0 29 -9.5 41.5t-34.5 16.5l-52 8v31h245v-31l-52 -8q-25 -4 -34.5 -16.5t-9.5 -41.5l-1 -367q0 -59 -19 -105.5t-54.5 -78t-85 -48t-109.5 -16.5q-65 0 -117.5 17.5t-90 50t-58 78.5t-20.5 103v402q0 17 -17 20l-79 10v31h303v-31l-78 -10q-17 -3 -17 -20v-393
q0 -97 51.5 -148t140.5 -51q91 0 145 49.5t54 143.5zM418 916q16 -14 15.5 -32t-15.5 -34q-8 -8 -18 -16t-27 -19l-40 -27q-24 -16 -60 -39l-6 5q19 39 32 65t22.5 44t16.5 29.5t14 19.5q15 16 32.5 17t33.5 -13zM583 916q16 -14 15.5 -32t-15.5 -34q-8 -8 -18 -16t-27 -19
l-40 -27q-24 -16 -60 -39l-6 5q18 39 31 65t22.5 44t16.5 29.5t15 19.5q15 16 32.5 17t33.5 -13z" />
    <glyph glyph-name="uhungarumlaut" unicode="&#x171;" horiz-adv-x="562" 
d="M85 376q0 11 -2.5 15.5t-12.5 9.5l-51 21v14l160 41v-329q0 -54 25 -80.5t66 -26.5q68 0 108 61v274q0 11 -2.5 15.5t-12.5 9.5l-51 21v14l160 41v-391q0 -10 3 -14.5t11 -9.5l52 -30v-14l-160 -22v72q-24 -39 -61.5 -59.5t-83.5 -20.5q-66 0 -107 40t-41 114v234z
M283 679q16 -14 15.5 -32t-15.5 -34q-8 -8 -18 -16t-27 -19l-40 -27q-24 -16 -60 -39l-6 5q19 39 32 65t22.5 44t16.5 29.5t14 19.5q15 16 32.5 17t33.5 -13zM448 679q16 -14 15.5 -32t-15.5 -34q-8 -8 -18 -16t-27 -19l-40 -27q-24 -16 -60 -39l-6 5q18 39 31 65t22.5 44
t16.5 29.5t15 19.5q15 16 32.5 17t33.5 -13z" />
    <glyph glyph-name="Uogonek" unicode="&#x172;" horiz-adv-x="779" 
d="M613 603q0 29 -9.5 41.5t-34.5 16.5l-52 8v31h245v-31l-52 -8q-25 -4 -34.5 -16.5t-9.5 -41.5l-1 -367q0 -56 -17.5 -100.5t-49.5 -76t-77.5 -49.5t-100.5 -21q-11 -23 -18.5 -38.5t-11.5 -27.5t-5.5 -20.5t-1.5 -15.5q0 -22 13.5 -34.5t35.5 -12.5q20 0 38 9t38 26l5 -4
q-20 -44 -48.5 -67.5t-71.5 -23.5q-37 0 -61.5 21t-24.5 53q0 28 20.5 59t59.5 75q-63 1 -114 19.5t-87 50.5t-55.5 77.5t-19.5 101.5v402q0 17 -17 20l-79 10v31h303v-31l-78 -10q-17 -3 -17 -20v-393q0 -97 51.5 -148t140.5 -51q91 0 145 49.5t54 143.5z" />
    <glyph glyph-name="uogonek" unicode="&#x173;" horiz-adv-x="562" 
d="M85 376q0 11 -2.5 15.5t-12.5 9.5l-51 21v14l160 41v-329q0 -54 25 -80.5t66 -26.5q68 0 108 61v274q0 11 -2.5 15.5t-12.5 9.5l-51 21v14l160 41v-391q0 -10 3 -14.5t11 -9.5l52 -30v-14l-142 -20q-13 -25 -21 -42.5t-12.5 -30t-6.5 -21.5t-2 -17q0 -22 13.5 -34.5
t35.5 -12.5q20 0 38 9t38 26l5 -4q-20 -44 -48.5 -67.5t-71.5 -23.5q-37 0 -61.5 21t-24.5 53t25.5 67.5t74.5 88.5v58q-24 -39 -61.5 -59.5t-83.5 -20.5q-66 0 -107 40t-41 114v234z" />
    <glyph glyph-name="Wcircumflex" unicode="&#x174;" horiz-adv-x="1101" 
d="M411 752l-6 8l139 154h63l138 -154l-6 -8l-164 82zM749 -8l-194 500q-2 6 -6 6t-6 -6l-193 -500h-56l-216 638q-6 17 -13 22.5t-22 8.5l-36 8v31h265v-31l-45 -8q-26 -5 -31.5 -14t3.5 -37l150 -459q2 -6 6 -6t6 6l215 559h5l216 -559q2 -6 6 -6t6 6l149 448
q10 29 1.5 44t-38.5 20l-32 6v31h203v-31l-21 -4q-22 -5 -34.5 -16.5t-20.5 -35.5l-211 -621h-56z" />
    <glyph glyph-name="wcircumflex" unicode="&#x175;" horiz-adv-x="777" 
d="M245 515l-6 8l139 154h63l138 -154l-6 -8l-164 82zM394 290q-2 6 -6 6t-6 -6l-118 -298h-54l-148 410q-5 14 -10.5 19t-16.5 7l-28 5v30h216v-30l-35 -5q-20 -3 -24.5 -11.5t2.5 -28.5l93 -272q2 -6 6 -6t6 6l139 357h6l140 -357q2 -6 6 -6t6 6l92 260q9 25 2 37.5
t-33 16.5l-23 3v30h163v-30l-18 -3q-15 -3 -24.5 -12.5t-17.5 -29.5l-143 -396h-55z" />
    <glyph glyph-name="Ycircumflex" unicode="&#x176;" horiz-adv-x="687" 
d="M538 609q25 44 -29 53l-40 7v31h209v-31l-23 -4q-17 -3 -29 -13.5t-24 -30.5l-203 -344v-215q0 -20 17 -21l89 -9v-32h-323v32l88 9q17 1 17 21v212l-210 358q-10 16 -16.5 22t-20.5 9l-33 6v31h275v-31l-51 -9q-24 -4 -29.5 -12.5t5.5 -27.5l160 -280q6 -11 13 0z
M193 752l-6 8l139 154h63l138 -154l-6 -8l-164 82z" />
    <glyph glyph-name="ycircumflex" unicode="&#x177;" horiz-adv-x="517" 
d="M241 -114q-25 -60 -54 -84t-64 -24q-31 0 -48.5 14t-17.5 36q0 18 12.5 30t30.5 12q14 0 26.5 -5.5t27.5 -5.5t27.5 11t26.5 44l28 66l-176 423q-6 14 -11 18.5t-16 6.5l-28 5v30h219v-30l-35 -5q-20 -3 -25.5 -12t2.5 -28l112 -280q2 -6 6 -6t6 6l111 275q16 40 -27 46
l-29 4v30h165v-30l-16 -3q-18 -4 -26.5 -11.5t-16.5 -25.5zM103 515l-6 8l139 154h63l138 -154l-6 -8l-164 82z" />
    <glyph glyph-name="Ydieresis" unicode="&#x178;" horiz-adv-x="687" 
d="M538 609q25 44 -29 53l-40 7v31h209v-31l-23 -4q-17 -3 -29 -13.5t-24 -30.5l-203 -344v-215q0 -20 17 -21l89 -9v-32h-323v32l88 9q17 1 17 21v212l-210 358q-10 16 -16.5 22t-20.5 9l-33 6v31h275v-31l-51 -9q-24 -4 -29.5 -12.5t5.5 -27.5l160 -280q6 -11 13 0z
M201 825q0 24 17 40.5t40 16.5t39.5 -16.5t16.5 -40.5q0 -23 -16.5 -40t-39.5 -17t-40 17t-17 40zM400 825q0 24 16.5 40.5t40.5 16.5q23 0 39.5 -16.5t16.5 -40.5q0 -23 -16.5 -40t-39.5 -17q-24 0 -40.5 17t-16.5 40z" />
    <glyph glyph-name="Zacute" unicode="&#x179;" horiz-adv-x="622" 
d="M420 907q14 -17 11.5 -35.5t-19.5 -32.5q-9 -8 -21 -15t-31.5 -17t-49 -24t-72.5 -34l-5 6q27 39 45.5 65t32 44t22.5 28.5t18 18.5q17 14 36 13.5t33 -17.5zM415 645q7 12 -5 12h-209q-26 0 -41.5 -3.5t-26.5 -18t-19.5 -42.5t-20.5 -77h-37v184h517l-390 -644
q-8 -12 5 -12h231q33 0 53.5 4t34 18.5t23 43t22.5 78.5h39l-8 -188h-558z" />
    <glyph glyph-name="zacute" unicode="&#x17a;" horiz-adv-x="469" 
d="M348 670q14 -17 11.5 -35.5t-19.5 -32.5q-9 -8 -21 -15t-31.5 -17t-49 -24t-72.5 -34l-5 6q27 39 45.5 65t32 44t22.5 28.5t18 18.5q17 14 36 13.5t33 -17.5zM287 410q8 13 -4 13h-103q-25 0 -40 -3t-24.5 -14t-16.5 -31.5t-16 -56.5h-33v145h379l-264 -410q-8 -13 5 -13
h109q32 0 51.5 3.5t32 14.5t20.5 33t17 58h35l-6 -149h-406z" />
    <glyph glyph-name="Zdotaccent" unicode="&#x17b;" horiz-adv-x="622" 
d="M415 645q7 12 -5 12h-209q-26 0 -41.5 -3.5t-26.5 -18t-19.5 -42.5t-20.5 -77h-37v184h517l-390 -644q-8 -12 5 -12h231q33 0 53.5 4t34 18.5t23 43t22.5 78.5h39l-8 -188h-558zM249 823q0 24 16.5 40.5t39.5 16.5t40 -16.5t17 -40.5q0 -23 -17 -40t-40 -17t-39.5 17
t-16.5 40z" />
    <glyph glyph-name="zdotaccent" unicode="&#x17c;" horiz-adv-x="469" 
d="M287 410q8 13 -4 13h-103q-25 0 -40 -3t-24.5 -14t-16.5 -31.5t-16 -56.5h-33v145h379l-264 -410q-8 -13 5 -13h109q32 0 51.5 3.5t32 14.5t20.5 33t17 58h35l-6 -149h-406zM177 586q0 24 16.5 40.5t39.5 16.5t40 -16.5t17 -40.5q0 -23 -17 -40t-40 -17t-39.5 17
t-16.5 40z" />
    <glyph glyph-name="Zcaron" unicode="&#x17d;" horiz-adv-x="622" 
d="M469 938l6 -7l-138 -155h-63l-139 155l6 7l164 -82zM415 645q7 12 -5 12h-209q-26 0 -41.5 -3.5t-26.5 -18t-19.5 -42.5t-20.5 -77h-37v184h517l-390 -644q-8 -12 5 -12h231q33 0 53.5 4t34 18.5t23 43t22.5 78.5h39l-8 -188h-558z" />
    <glyph glyph-name="zcaron" unicode="&#x17e;" horiz-adv-x="469" 
d="M397 701l6 -7l-138 -155h-63l-139 155l6 7l164 -82zM287 410q8 13 -4 13h-103q-25 0 -40 -3t-24.5 -14t-16.5 -31.5t-16 -56.5h-33v145h379l-264 -410q-8 -13 5 -13h109q32 0 51.5 3.5t32 14.5t20.5 33t17 58h35l-6 -149h-406z" />
    <glyph glyph-name="uni0218" unicode="&#x218;" horiz-adv-x="558" 
d="M248 -256q23 17 33 30t10 25q0 9 -5.5 17.5t-21.5 19.5t-22.5 23t-6.5 26q0 22 13.5 35t35.5 13q24 0 43 -19.5t19 -53.5q0 -42 -24 -75t-68 -52zM285 -12q-39 0 -68.5 8.5t-50.5 18.5t-35 18.5t-21 8.5q-3 0 -5.5 -1t-8 -5.5t-14.5 -13.5l-25 -25v222h39
q31 -101 81 -144t112 -43q57 0 93 33.5t36 92.5q0 47 -22.5 76.5t-78.5 55.5l-117 55q-68 33 -100.5 75t-32.5 108q0 34 14 67.5t39.5 59t61 41.5t78.5 16q36 0 62.5 -7.5t45 -16t30.5 -16t19 -7.5q3 0 5.5 1t7.5 5.5t14 13.5l25 25v-204h-39q-27 89 -69 126t-97 37
q-24 0 -44 -8.5t-35 -23t-23.5 -35t-8.5 -44.5q0 -42 23.5 -70t78.5 -54l118 -55q69 -32 101 -75t32 -113q0 -44 -17 -81t-46.5 -64t-70 -42.5t-87.5 -15.5z" />
    <glyph glyph-name="uni0219" unicode="&#x219;" horiz-adv-x="412" 
d="M171 -256q23 17 33 30t10 25q0 9 -5.5 17.5t-21.5 19.5t-22.5 23t-6.5 26q0 22 13.5 35t35.5 13q24 0 43 -19.5t19 -53.5q0 -42 -24 -75t-68 -52zM45 160h35q19 -69 50 -101t75 -32q39 0 64.5 22t25.5 57q0 26 -14.5 41.5t-52.5 33.5l-87 41q-44 20 -64.5 48t-20.5 73
q0 29 10.5 53t29 41.5t44.5 27.5t57 10q27 0 46.5 -5t33 -10.5t22.5 -10.5t14 -5t11.5 4.5t27.5 24.5v-152h-35q-17 60 -45.5 87.5t-70.5 27.5q-32 0 -52.5 -19t-20.5 -47q0 -25 14.5 -40.5t53.5 -34.5l88 -39q45 -20 65 -49t20 -74q0 -32 -12.5 -58.5t-34 -46t-50.5 -30
t-63 -10.5q-31 0 -52.5 6t-36 13.5t-23 13.5t-13.5 6t-11.5 -4.5t-27.5 -24.5v162z" />
    <glyph glyph-name="uni021A" unicode="&#x21a;" horiz-adv-x="675" 
d="M295 -256q23 17 33 30t10 25q0 9 -5.5 17.5t-21.5 19.5t-22.5 23t-6.5 26q0 22 13.5 35t35.5 13q24 0 43 -19.5t19 -53.5q0 -42 -24 -75t-68 -52zM175 32l89 9q17 1 17 21v595h-111q-27 0 -43 -4t-27 -20t-19.5 -48t-20.5 -89h-36v204h626v-204h-37q-11 57 -19.5 89
t-19.5 48t-27.5 20t-43.5 4h-110v-595q0 -20 17 -21l88 -9v-32h-323v32z" />
    <glyph glyph-name="uni021B" unicode="&#x21b;" horiz-adv-x="339" 
d="M153 -256q23 17 33 30t10 25q0 9 -5.5 17.5t-21.5 19.5t-22.5 23t-6.5 26q0 22 13.5 35t35.5 13q24 0 43 -19.5t19 -53.5q0 -42 -24 -75t-68 -52zM205 -12q-53 0 -85.5 34.5t-32.5 95.5v297h-74v14q46 32 89 76t76 95h3v-136l139 1v-52l-139 1v-287q0 -41 20 -61t52 -20
q40 0 75 35l4 -3q-17 -42 -49.5 -66t-77.5 -24z" />
    <glyph glyph-name="uni0237" unicode="&#x237;" horiz-adv-x="266" 
d="M185 -65q0 -38 -10 -67t-27 -49t-40 -30.5t-49 -10.5q-39 0 -66 21t-27 49q0 17 11 29t29 12q17 0 27.5 -10t19.5 -28q17 -35 39 -35q25 0 25 31q0 18 -4 40.5t-9 48t-9 54.5t-4 62v324q0 11 -2.5 15.5t-12.5 9.5l-50 21v14l159 41v-542z" />
    <glyph glyph-name="circumflex" unicode="&#x2c6;" horiz-adv-x="500" 
d="M85 515l-6 8l139 154h63l138 -154l-6 -8l-164 82z" />
    <glyph glyph-name="caron" unicode="&#x2c7;" horiz-adv-x="500" 
d="M413 701l6 -7l-138 -155h-63l-139 155l6 7l164 -82z" />
    <glyph glyph-name="breve" unicode="&#x2d8;" horiz-adv-x="500" 
d="M249 604q53 0 87 19.5t57 64.5l9 -1q-1 -36 -13 -65t-32 -49t-47.5 -31t-60.5 -11q-32 0 -59.5 11t-48 31t-32.5 49t-13 65l9 1q23 -45 57.5 -64.5t86.5 -19.5z" />
    <glyph glyph-name="dotaccent" unicode="&#x2d9;" horiz-adv-x="500" 
d="M193 586q0 24 16.5 40.5t39.5 16.5t40 -16.5t17 -40.5q0 -23 -17 -40t-40 -17t-39.5 17t-16.5 40z" />
    <glyph glyph-name="ring" unicode="&#x2da;" horiz-adv-x="500" 
d="M356 633q0 -21 -8.5 -40t-22.5 -32.5t-34 -21.5t-42 -8t-41.5 7.5t-33.5 21t-22.5 32t-8.5 39.5t8.5 40t22.5 32.5t33.5 21.5t41.5 8t42 -7.5t34 -21t22.5 -32t8.5 -39.5zM182 632q0 -28 19 -46t48 -18t48 18t19 46t-19 46t-48 18t-48 -18t-19 -46z" />
    <glyph glyph-name="ogonek" unicode="&#x2db;" horiz-adv-x="500" 
d="M283 10q-15 -29 -24 -48.5t-14.5 -33.5t-7.5 -23.5t-2 -17.5q0 -22 13.5 -34.5t35.5 -12.5q20 0 38 9t38 26l5 -4q-20 -44 -48.5 -67.5t-71.5 -23.5q-37 0 -61.5 21t-24.5 53t25.5 67.5t74.5 88.5h24z" />
    <glyph glyph-name="tilde" unicode="&#x2dc;" horiz-adv-x="500" 
d="M270 624q27 -17 39 -22t22 -5q14 0 28.5 11.5t35.5 42.5l10 -3q-25 -119 -84 -119q-20 0 -38.5 9t-49.5 29q-27 17 -39 22.5t-23 5.5q-14 0 -28.5 -12t-35.5 -43l-10 3q13 61 34.5 90t49.5 29q20 0 38.5 -9t50.5 -29z" />
    <glyph glyph-name="hungarumlaut" unicode="&#x2dd;" horiz-adv-x="500" 
d="M254 679q16 -14 15.5 -32t-15.5 -34q-8 -8 -18 -16t-27 -19l-40 -27q-24 -16 -60 -39l-6 5q19 39 32 65t22.5 44t16.5 29.5t14 19.5q15 16 32.5 17t33.5 -13zM419 679q16 -14 15.5 -32t-15.5 -34q-8 -8 -18 -16t-27 -19l-40 -27q-24 -16 -60 -39l-6 5q18 39 31 65
t22.5 44t16.5 29.5t15 19.5q15 16 32.5 17t33.5 -13z" />
    <glyph glyph-name="Wgrave" unicode="&#x1e80;" horiz-adv-x="1101" 
d="M749 -8l-194 500q-2 6 -6 6t-6 -6l-193 -500h-56l-216 638q-6 17 -13 22.5t-22 8.5l-36 8v31h265v-31l-45 -8q-26 -5 -31.5 -14t3.5 -37l150 -459q2 -6 6 -6t6 6l215 559h5l216 -559q2 -6 6 -6t6 6l149 448q10 29 1.5 44t-38.5 20l-32 6v31h203v-31l-21 -4
q-22 -5 -34.5 -16.5t-20.5 -35.5l-211 -621h-56zM461 907q15 17 33.5 17.5t35.5 -13.5q8 -8 17.5 -18.5t22.5 -28.5t31.5 -44t45.5 -65l-4 -6q-43 20 -72.5 34t-49 24t-31.5 17t-21 15q-17 14 -19.5 32.5t11.5 35.5z" />
    <glyph glyph-name="wgrave" unicode="&#x1e81;" horiz-adv-x="777" 
d="M394 290q-2 6 -6 6t-6 -6l-118 -298h-54l-148 410q-5 14 -10.5 19t-16.5 7l-28 5v30h216v-30l-35 -5q-20 -3 -24.5 -11.5t2.5 -28.5l93 -272q2 -6 6 -6t6 6l139 357h6l140 -357q2 -6 6 -6t6 6l92 260q9 25 2 37.5t-33 16.5l-23 3v30h163v-30l-18 -3q-15 -3 -24.5 -12.5
t-17.5 -29.5l-143 -396h-55zM295 670q15 17 33.5 17.5t35.5 -13.5q8 -8 17.5 -18.5t22.5 -28.5t31.5 -44t45.5 -65l-4 -6q-43 20 -72.5 34t-49 24t-31.5 17t-21 15q-17 14 -19.5 32.5t11.5 35.5z" />
    <glyph glyph-name="Wacute" unicode="&#x1e82;" horiz-adv-x="1101" 
d="M690 907q14 -17 11.5 -35.5t-19.5 -32.5q-9 -8 -21 -15t-31.5 -17t-49 -24t-72.5 -34l-5 6q27 39 45.5 65t32 44t22.5 28.5t18 18.5q17 14 36 13.5t33 -17.5zM749 -8l-194 500q-2 6 -6 6t-6 -6l-193 -500h-56l-216 638q-6 17 -13 22.5t-22 8.5l-36 8v31h265v-31l-45 -8
q-26 -5 -31.5 -14t3.5 -37l150 -459q2 -6 6 -6t6 6l215 559h5l216 -559q2 -6 6 -6t6 6l149 448q10 29 1.5 44t-38.5 20l-32 6v31h203v-31l-21 -4q-22 -5 -34.5 -16.5t-20.5 -35.5l-211 -621h-56z" />
    <glyph glyph-name="wacute" unicode="&#x1e83;" horiz-adv-x="777" 
d="M524 670q14 -17 11.5 -35.5t-19.5 -32.5q-9 -8 -21 -15t-31.5 -17t-49 -24t-72.5 -34l-5 6q27 39 45.5 65t32 44t22.5 28.5t18 18.5q17 14 36 13.5t33 -17.5zM394 290q-2 6 -6 6t-6 -6l-118 -298h-54l-148 410q-5 14 -10.5 19t-16.5 7l-28 5v30h216v-30l-35 -5
q-20 -3 -24.5 -11.5t2.5 -28.5l93 -272q2 -6 6 -6t6 6l139 357h6l140 -357q2 -6 6 -6t6 6l92 260q9 25 2 37.5t-33 16.5l-23 3v30h163v-30l-18 -3q-15 -3 -24.5 -12.5t-17.5 -29.5l-143 -396h-55z" />
    <glyph glyph-name="Wdieresis" unicode="&#x1e84;" horiz-adv-x="1101" 
d="M419 825q0 24 17 40.5t40 16.5t39.5 -16.5t16.5 -40.5q0 -23 -16.5 -40t-39.5 -17t-40 17t-17 40zM618 825q0 24 16.5 40.5t40.5 16.5q23 0 39.5 -16.5t16.5 -40.5q0 -23 -16.5 -40t-39.5 -17q-24 0 -40.5 17t-16.5 40zM749 -8l-194 500q-2 6 -6 6t-6 -6l-193 -500h-56
l-216 638q-6 17 -13 22.5t-22 8.5l-36 8v31h265v-31l-45 -8q-26 -5 -31.5 -14t3.5 -37l150 -459q2 -6 6 -6t6 6l215 559h5l216 -559q2 -6 6 -6t6 6l149 448q10 29 1.5 44t-38.5 20l-32 6v31h203v-31l-21 -4q-22 -5 -34.5 -16.5t-20.5 -35.5l-211 -621h-56z" />
    <glyph glyph-name="wdieresis" unicode="&#x1e85;" horiz-adv-x="777" 
d="M253 588q0 24 17 40.5t40 16.5t39.5 -16.5t16.5 -40.5q0 -23 -16.5 -40t-39.5 -17t-40 17t-17 40zM452 588q0 24 16.5 40.5t40.5 16.5q23 0 39.5 -16.5t16.5 -40.5q0 -23 -16.5 -40t-39.5 -17q-24 0 -40.5 17t-16.5 40zM394 290q-2 6 -6 6t-6 -6l-118 -298h-54l-148 410
q-5 14 -10.5 19t-16.5 7l-28 5v30h216v-30l-35 -5q-20 -3 -24.5 -11.5t2.5 -28.5l93 -272q2 -6 6 -6t6 6l139 357h6l140 -357q2 -6 6 -6t6 6l92 260q9 25 2 37.5t-33 16.5l-23 3v30h163v-30l-18 -3q-15 -3 -24.5 -12.5t-17.5 -29.5l-143 -396h-55z" />
    <glyph glyph-name="Ygrave" unicode="&#x1ef2;" horiz-adv-x="687" 
d="M538 609q25 44 -29 53l-40 7v31h209v-31l-23 -4q-17 -3 -29 -13.5t-24 -30.5l-203 -344v-215q0 -20 17 -21l89 -9v-32h-323v32l88 9q17 1 17 21v212l-210 358q-10 16 -16.5 22t-20.5 9l-33 6v31h275v-31l-51 -9q-24 -4 -29.5 -12.5t5.5 -27.5l160 -280q6 -11 13 0z
M243 907q15 17 33.5 17.5t35.5 -13.5q8 -8 17.5 -18.5t22.5 -28.5t31.5 -44t45.5 -65l-4 -6q-43 20 -72.5 34t-49 24t-31.5 17t-21 15q-17 14 -19.5 32.5t11.5 35.5z" />
    <glyph glyph-name="ygrave" unicode="&#x1ef3;" horiz-adv-x="517" 
d="M241 -114q-25 -60 -54 -84t-64 -24q-31 0 -48.5 14t-17.5 36q0 18 12.5 30t30.5 12q14 0 26.5 -5.5t27.5 -5.5t27.5 11t26.5 44l28 66l-176 423q-6 14 -11 18.5t-16 6.5l-28 5v30h219v-30l-35 -5q-20 -3 -25.5 -12t2.5 -28l112 -280q2 -6 6 -6t6 6l111 275q16 40 -27 46
l-29 4v30h165v-30l-16 -3q-18 -4 -26.5 -11.5t-16.5 -25.5zM153 670q15 17 33.5 17.5t35.5 -13.5q8 -8 17.5 -18.5t22.5 -28.5t31.5 -44t45.5 -65l-4 -6q-43 20 -72.5 34t-49 24t-31.5 17t-21 15q-17 14 -19.5 32.5t11.5 35.5z" />
    <glyph glyph-name="uni2002" unicode="&#x2002;" horiz-adv-x="500" 
 />
    <glyph glyph-name="uni2003" unicode="&#x2003;" horiz-adv-x="1000" 
 />
    <glyph glyph-name="uni2009" unicode="&#x2009;" horiz-adv-x="175" 
 />
    <glyph glyph-name="uni200A" unicode="&#x200a;" horiz-adv-x="100" 
 />
    <glyph glyph-name="uni200B" unicode="&#x200b;" horiz-adv-x="0" 
 />
    <glyph glyph-name="endash" unicode="&#x2013;" horiz-adv-x="549" 
d="M45 306h457v-46h-457v46z" />
    <glyph glyph-name="emdash" unicode="&#x2014;" horiz-adv-x="749" 
d="M45 306h657v-46h-657v46z" />
    <glyph glyph-name="uni2015" unicode="&#x2015;" horiz-adv-x="947" 
d="M45 306h855v-46h-855v46z" />
    <glyph glyph-name="quoteleft" unicode="&#x2018;" horiz-adv-x="220" 
d="M161 724q-32 -28 -47 -52.5t-15 -44.5q0 -14 6.5 -26.5t23.5 -24.5q18 -13 28 -27t10 -32q0 -26 -15 -40.5t-38 -14.5q-29 0 -49.5 25t-20.5 68q0 59 31 104t77 75z" />
    <glyph glyph-name="quoteright" unicode="&#x2019;" horiz-adv-x="220" 
d="M58 478q32 28 47 52.5t15 44.5q0 14 -6.5 26.5t-23.5 24.5q-18 13 -28 27t-10 32q0 26 15 40.5t38 14.5q29 0 49.5 -25t20.5 -68q0 -59 -31 -104t-77 -75z" />
    <glyph glyph-name="quotesinglbase" unicode="&#x201a;" horiz-adv-x="220" 
d="M55 -152q32 28 47 52.5t15 44.5q0 14 -6.5 26.5t-23.5 24.5q-18 13 -28 27t-10 32q0 26 15 40.5t38 14.5q29 0 49.5 -25t20.5 -68q0 -59 -31 -104t-77 -75z" />
    <glyph glyph-name="quotedblleft" unicode="&#x201c;" horiz-adv-x="391" 
d="M161 724q-32 -28 -47 -52.5t-15 -44.5q0 -14 6.5 -26.5t23.5 -24.5q18 -13 28 -27t10 -32q0 -26 -15 -40.5t-38 -14.5q-29 0 -49.5 25t-20.5 68q0 59 31 104t77 75zM332 724q-32 -28 -47 -52.5t-15 -44.5q0 -14 6.5 -26.5t23.5 -24.5q18 -13 28 -27t10 -32
q0 -26 -15 -40.5t-38 -14.5q-29 0 -49.5 25t-20.5 68q0 59 31 104t77 75z" />
    <glyph glyph-name="quotedblright" unicode="&#x201d;" horiz-adv-x="391" 
d="M58 478q32 28 47 52.5t15 44.5q0 14 -6.5 26.5t-23.5 24.5q-18 13 -28 27t-10 32q0 26 15 40.5t38 14.5q29 0 49.5 -25t20.5 -68q0 -59 -31 -104t-77 -75zM229 478q32 28 47 52.5t15 44.5q0 14 -6.5 26.5t-23.5 24.5q-18 13 -28 27t-10 32q0 26 15 40.5t38 14.5
q29 0 49.5 -25t20.5 -68q0 -59 -31 -104t-77 -75z" />
    <glyph glyph-name="quotedblbase" unicode="&#x201e;" horiz-adv-x="391" 
d="M55 -152q32 28 47 52.5t15 44.5q0 14 -6.5 26.5t-23.5 24.5q-18 13 -28 27t-10 32q0 26 15 40.5t38 14.5q29 0 49.5 -25t20.5 -68q0 -59 -31 -104t-77 -75zM226 -152q32 28 47 52.5t15 44.5q0 14 -6.5 26.5t-23.5 24.5q-18 13 -28 27t-10 32q0 26 15 40.5t38 14.5
q29 0 49.5 -25t20.5 -68q0 -59 -31 -104t-77 -75z" />
    <glyph glyph-name="dagger" unicode="&#x2020;" horiz-adv-x="510" 
d="M245 -12q0 66 -3.5 122t-9.5 105.5t-15.5 94t-21.5 86.5l42 88q-35 -9 -60.5 -15t-44.5 -9.5t-32 -5.5t-23 -2q-22 0 -35.5 12t-13.5 34q0 21 13.5 33t35.5 12q10 0 23.5 -1.5t32 -5.5t44.5 -10t61 -15q-18 67 -25.5 100t-7.5 53q0 23 13 36.5t36 13.5t36 -13.5t13 -36.5
q0 -21 -8 -54.5t-25 -98.5q36 9 61.5 15t44 10t31.5 5.5t24 1.5q22 0 36 -12t14 -33q0 -22 -14 -34t-36 -12q-11 0 -24 2t-31.5 5.5t-44 9.5t-60.5 15l42 -88q-12 -42 -21.5 -86.5t-15.5 -94t-9.5 -105.5t-3.5 -122h-18z" />
    <glyph glyph-name="daggerdbl" unicode="&#x2021;" horiz-adv-x="510" 
d="M307 245q-3 -20 -6 -43t-7.5 -50.5t-10 -63t-12.5 -81.5q71 17 105.5 24t54.5 7q22 0 36 -12t14 -34q0 -21 -14 -33t-36 -12q-11 0 -24 1.5t-32 5.5t-44.5 10t-60.5 15q9 -34 15.5 -58t10 -42t5.5 -30.5t2 -22.5q0 -23 -13 -36.5t-36 -13.5t-36 13.5t-13 36.5
q0 21 8 54.5t25 98.5q-36 -9 -61.5 -15t-44 -10t-32 -5.5t-23.5 -1.5q-22 0 -35.5 12t-13.5 33q0 22 13.5 34t35.5 12q10 0 23.5 -1.5t32 -5.5t44 -9.5t60.5 -14.5q-8 46 -13 81.5t-9 63t-7 50t-6 43.5q3 21 6 43.5t7 50.5l9 63q5 35 13 82q-35 -9 -60.5 -15t-44.5 -9.5
t-32 -5.5t-23 -2q-22 0 -35.5 12t-13.5 34q0 21 13.5 33t35.5 12q10 0 23.5 -1.5t32 -5.5t44.5 -10t61 -15q-18 67 -25.5 100t-7.5 53q0 23 13 36.5t36 13.5t36 -13.5t13 -36.5q0 -21 -8 -54.5t-25 -98.5q36 9 61.5 15t44 10t31.5 5.5t24 1.5q22 0 36 -12t14 -33
q0 -22 -14 -34t-36 -12q-11 0 -24 2t-31.5 5.5t-44 9.5t-60.5 15q7 -47 12.5 -82t10 -63t7.5 -50.5t6 -43.5z" />
    <glyph glyph-name="bullet" unicode="&#x2022;" horiz-adv-x="404" 
d="M201 218q-31 0 -57.5 11.5t-46 31t-31 46.5t-11.5 57q0 31 11.5 57.5t31 46t46 31t57.5 11.5q30 0 57 -11.5t46.5 -31t31 -46t11.5 -57.5q0 -30 -11.5 -57t-31 -46.5t-46.5 -31t-57 -11.5z" />
    <glyph glyph-name="ellipsis" unicode="&#x2026;" horiz-adv-x="661" 
d="M50 51q0 25 17 42t42 17t42 -17t17 -42t-17 -42t-42 -17t-42 17t-17 42zM270 51q0 25 17 42t42 17t42 -17t17 -42t-17 -42t-42 -17t-42 17t-17 42zM491 51q0 25 17 42t42 17t42 -17t17 -42t-17 -42t-42 -17t-42 17t-17 42z" />
    <glyph glyph-name="perthousand" unicode="&#x2030;" horiz-adv-x="1152" 
d="M179 321q-32 0 -60 13t-49 37.5t-33 59.5t-12 78q0 46 12.5 83t33.5 63t49.5 39.5t61.5 13.5q32 0 60 -13t49 -37.5t33 -59.5t12 -78q0 -47 -12.5 -83.5t-33.5 -62.5t-49.5 -39.5t-61.5 -13.5zM182 348q33 0 52 43.5t19 120.5q0 85 -21 127t-53 42t-51.5 -43t-19.5 -120
q0 -85 21 -127.5t53 -42.5zM565 706h53l-410 -712h-52zM591 -8q-32 0 -60 13t-49 37.5t-33 59.5t-12 78q0 46 12.5 83t33.5 63t49.5 39.5t61.5 13.5q32 0 60 -13t49 -37.5t33 -59.5t12 -78q0 -47 -12.5 -83.5t-33.5 -62.5t-49.5 -39.5t-61.5 -13.5zM594 19q33 0 52 43.5
t19 120.5q0 85 -21 127t-53 42t-51.5 -43t-19.5 -120q0 -85 21 -127.5t53 -42.5zM961 -8q-32 0 -60 13t-49 37.5t-33 59.5t-12 78q0 46 12.5 83t33.5 63t49.5 39.5t61.5 13.5q32 0 60 -13t49 -37.5t33 -59.5t12 -78q0 -47 -12.5 -83.5t-33.5 -62.5t-49.5 -39.5t-61.5 -13.5z
M964 19q33 0 52 43.5t19 120.5q0 85 -21 127t-53 42t-51.5 -43t-19.5 -120q0 -85 21 -127.5t53 -42.5z" />
    <glyph glyph-name="guilsinglleft" unicode="&#x2039;" horiz-adv-x="358" 
d="M315 -9l-6 -5l-277 246l277 245l6 -5l-147 -240z" />
    <glyph glyph-name="guilsinglright" unicode="&#x203a;" horiz-adv-x="358" 
d="M42 472l6 5l277 -246l-277 -245l-6 5l147 240z" />
    <glyph glyph-name="fraction" unicode="&#x2044;" horiz-adv-x="42" 
d="M195 706h53l-410 -712h-52z" />
    <glyph glyph-name="uni2070" unicode="&#x2070;" horiz-adv-x="363" 
d="M179 321q-32 0 -60 13t-49 37.5t-33 59.5t-12 78q0 46 12.5 83t33.5 63t49.5 39.5t61.5 13.5q32 0 60 -13t49 -37.5t33 -59.5t12 -78q0 -47 -12.5 -83.5t-33.5 -62.5t-49.5 -39.5t-61.5 -13.5zM182 348q33 0 52 43.5t19 120.5q0 85 -21 127t-53 42t-51.5 -43t-19.5 -120
q0 -85 21 -127.5t53 -42.5z" />
    <glyph glyph-name="uni2074" unicode="&#x2074;" horiz-adv-x="360" 
d="M97 548q27 39 35.5 74.5t5.5 77.5h82q-2 -12 -7 -24.5t-13.5 -27.5t-22.5 -34.5t-34 -47.5l-58 -80q-4 -7 3 -7h106v70l75 50v-120q13 0 21 2t13 7t8.5 15t8.5 26h20l-3 -103h-68v-61q0 -10 9 -11l27 -4v-21h-148v21l27 4q10 1 10 11v61h-182z" />
    <glyph glyph-name="uni2075" unicode="&#x2075;" horiz-adv-x="300" 
d="M133 322q-56 0 -86.5 22.5t-30.5 57.5q0 18 9.5 29t25.5 11q15 0 24.5 -9t9.5 -26q0 -6 -1 -12t-1 -13q0 -33 49 -33q32 0 53 22.5t21 60.5t-23 58.5t-62 20.5q-24 0 -47.5 -4.5t-44.5 -11.5l22 205h141q14 0 22 1t13.5 4t8.5 9t7 16h20l-6 -88h-185l-8 -80
q18 4 36.5 6.5t36.5 2.5q68 0 104.5 -31t36.5 -86q0 -29 -10.5 -53t-30 -41.5t-46 -27.5t-58.5 -10z" />
    <glyph glyph-name="uni2076" unicode="&#x2076;" horiz-adv-x="333" 
d="M176 321q-69 0 -109.5 49.5t-40.5 131.5q0 44 12 81.5t33 65t50.5 43t65.5 15.5q22 0 42 -6t34 -16.5t22.5 -24t8.5 -29.5q0 -15 -8 -24t-22 -9t-23 9.5t-14 32.5q-5 22 -15.5 31t-26.5 9q-35 0 -57 -44t-22 -125q0 -73 17.5 -118.5t52.5 -45.5q27 0 43 23.5t16 63.5
q0 41 -19.5 66.5t-51.5 25.5q-14 0 -25.5 -5.5t-19.5 -12.5l-1 1q9 20 29.5 36t54.5 16q48 0 76.5 -30.5t28.5 -80.5q0 -30 -10 -53.5t-28 -40.5t-42 -26t-51 -9z" />
    <glyph glyph-name="uni2077" unicode="&#x2077;" horiz-adv-x="304" 
d="M84 329q-1 28 4.5 53.5t16.5 52t28.5 56t41.5 64.5l51 76q6 8 -3 8h-129q-14 0 -22 -2t-13 -7.5t-8.5 -16t-7.5 -28.5h-21l4 115h271l-80 -132q-35 -58 -45 -115t-5 -124h-83z" />
    <glyph glyph-name="uni2078" unicode="&#x2078;" horiz-adv-x="327" 
d="M25 415q0 33 23.5 55t66.5 27l1 -2q-29 -27 -29 -71q0 -34 19.5 -55.5t55.5 -21.5q31 0 51.5 17t20.5 46q0 24 -13.5 39.5t-47.5 32.5l-55 25q-45 20 -64 42.5t-19 56.5q0 45 33.5 73.5t89.5 28.5q53 0 85 -22.5t32 -57.5q0 -28 -19.5 -45t-55.5 -21l-1 2q21 22 21 54
q-1 30 -19 47.5t-46 17.5q-25 0 -40 -13.5t-15 -35.5q0 -23 15 -37t47 -29l55 -25q47 -21 66 -44.5t19 -61.5q0 -56 -41 -86t-102 -30q-67 0 -100.5 27t-33.5 67z" />
    <glyph glyph-name="uni2079" unicode="&#x2079;" horiz-adv-x="336" 
d="M158 708q69 0 109.5 -49.5t40.5 -131.5q0 -44 -11.5 -81.5t-33 -65t-51 -43t-65.5 -15.5q-23 0 -42.5 6t-33.5 16.5t-22.5 24t-8.5 29.5q0 15 8 24t22 9t23 -9.5t14 -32.5t15.5 -32t26.5 -9q35 0 57 44.5t22 125.5q0 73 -17.5 118.5t-52.5 45.5q-27 0 -43 -23.5
t-16 -63.5q0 -41 19.5 -66.5t51.5 -25.5q14 0 25.5 5.5t19.5 12.5l1 -1q-9 -20 -29.5 -36t-54.5 -16q-48 0 -76.5 30.5t-28.5 80.5q0 30 10 53.5t28 40.5t42 26t51 9z" />
    <glyph glyph-name="uni2080" unicode="&#x2080;" horiz-adv-x="363" 
d="M179 -8q-32 0 -60 13t-49 37.5t-33 59.5t-12 78q0 46 12.5 83t33.5 63t49.5 39.5t61.5 13.5q32 0 60 -13t49 -37.5t33 -59.5t12 -78q0 -47 -12.5 -83.5t-33.5 -62.5t-49.5 -39.5t-61.5 -13.5zM182 19q33 0 52 43.5t19 120.5q0 85 -21 127t-53 42t-51.5 -43t-19.5 -120
q0 -85 21 -127.5t53 -42.5z" />
    <glyph glyph-name="uni2081" unicode="&#x2081;" horiz-adv-x="201" 
d="M17 21l36 5q9 1 9 11v276q0 13 -9 16l-36 12v11l123 27v-342q0 -10 10 -11l36 -5v-21h-169v21z" />
    <glyph glyph-name="uni2082" unicode="&#x2082;" horiz-adv-x="301" 
d="M119 118q21 24 35 43.5t22.5 37t11.5 33t3 32.5q0 40 -18 62.5t-47 22.5q-22 0 -36.5 -12.5t-14.5 -31.5q0 -8 3 -14.5t6 -12t6 -11.5t3 -13q0 -16 -9.5 -24.5t-24.5 -8.5q-18 0 -30 13.5t-12 37.5q0 46 32.5 76t92.5 30q59 0 93 -28t34 -72q0 -34 -22.5 -71t-75.5 -84
l-63 -56q-3 -3 -2.5 -5.5t5.5 -2.5h101q13 0 21.5 1.5t14 7t9 15t7.5 24.5h20l-4 -107h-267z" />
    <glyph glyph-name="uni2083" unicode="&#x2083;" horiz-adv-x="302" 
d="M141 -7q-55 0 -88.5 23.5t-33.5 60.5q0 17 10.5 29t27.5 12q16 0 25 -9.5t9 -26.5q0 -6 -1 -12.5t-1 -12.5q0 -16 12.5 -26.5t36.5 -10.5q31 0 50 22.5t19 59.5q0 41 -25.5 62t-73.5 21h-28l101 118q3 4 3 7t-5 3h-81q-26 0 -35 -8.5t-16 -37.5h-21l4 104h248l-115 -131
q-7 -7 2 -8q57 -7 87.5 -36.5t30.5 -75.5q0 -27 -11 -50.5t-30 -40.5t-45 -26.5t-56 -9.5z" />
    <glyph glyph-name="uni2084" unicode="&#x2084;" horiz-adv-x="360" 
d="M97 219q27 39 35.5 74.5t5.5 77.5h82q-2 -12 -7 -24.5t-13.5 -27.5t-22.5 -34.5t-34 -47.5l-58 -80q-4 -7 3 -7h106v70l75 50v-120q13 0 21 2t13 7t8.5 15t8.5 26h20l-3 -103h-68v-61q0 -10 9 -11l27 -4v-21h-148v21l27 4q10 1 10 11v61h-182z" />
    <glyph glyph-name="uni2085" unicode="&#x2085;" horiz-adv-x="300" 
d="M133 -7q-56 0 -86.5 22.5t-30.5 57.5q0 18 9.5 29t25.5 11q15 0 24.5 -9t9.5 -26q0 -6 -1 -12t-1 -13q0 -33 49 -33q32 0 53 22.5t21 60.5t-23 58.5t-62 20.5q-24 0 -47.5 -4.5t-44.5 -11.5l22 205h141q14 0 22 1t13.5 4t8.5 9t7 16h20l-6 -88h-185l-8 -80q18 4 36.5 6.5
t36.5 2.5q68 0 104.5 -31t36.5 -86q0 -29 -10.5 -53t-30 -41.5t-46 -27.5t-58.5 -10z" />
    <glyph glyph-name="uni2086" unicode="&#x2086;" horiz-adv-x="333" 
d="M176 -8q-69 0 -109.5 49.5t-40.5 131.5q0 44 12 81.5t33 65t50.5 43t65.5 15.5q22 0 42 -6t34 -16.5t22.5 -24t8.5 -29.5q0 -15 -8 -24t-22 -9t-23 9.5t-14 32.5q-5 22 -15.5 31t-26.5 9q-35 0 -57 -44t-22 -125q0 -73 17.5 -118.5t52.5 -45.5q27 0 43 23.5t16 63.5
q0 41 -19.5 66.5t-51.5 25.5q-14 0 -25.5 -5.5t-19.5 -12.5l-1 1q9 20 29.5 36t54.5 16q48 0 76.5 -30.5t28.5 -80.5q0 -30 -10 -53.5t-28 -40.5t-42 -26t-51 -9z" />
    <glyph glyph-name="uni2087" unicode="&#x2087;" horiz-adv-x="304" 
d="M84 0q-1 28 4.5 53.5t16.5 52t28.5 56t41.5 64.5l51 76q6 8 -3 8h-129q-14 0 -22 -2t-13 -7.5t-8.5 -16t-7.5 -28.5h-21l4 115h271l-80 -132q-35 -58 -45 -115t-5 -124h-83z" />
    <glyph glyph-name="uni2088" unicode="&#x2088;" horiz-adv-x="327" 
d="M25 86q0 33 23.5 55t66.5 27l1 -2q-29 -27 -29 -71q0 -34 19.5 -55.5t55.5 -21.5q31 0 51.5 17t20.5 46q0 24 -13.5 39.5t-47.5 32.5l-55 25q-45 20 -64 42.5t-19 56.5q0 45 33.5 73.5t89.5 28.5q53 0 85 -22.5t32 -57.5q0 -28 -19.5 -45t-55.5 -21l-1 2q21 22 21 54
q-1 30 -19 47.5t-46 17.5q-25 0 -40 -13.5t-15 -35.5q0 -23 15 -37t47 -29l55 -25q47 -21 66 -44.5t19 -61.5q0 -56 -41 -86t-102 -30q-67 0 -100.5 27t-33.5 67z" />
    <glyph glyph-name="uni2089" unicode="&#x2089;" horiz-adv-x="336" 
d="M158 379q69 0 109.5 -49.5t40.5 -131.5q0 -44 -11.5 -81.5t-33 -65t-51 -43t-65.5 -15.5q-23 0 -42.5 6t-33.5 16.5t-22.5 24t-8.5 29.5q0 15 8 24t22 9t23 -9.5t14 -32.5t15.5 -32t26.5 -9q35 0 57 44.5t22 125.5q0 73 -17.5 118.5t-52.5 45.5q-27 0 -43 -23.5
t-16 -63.5q0 -41 19.5 -66.5t51.5 -25.5q14 0 25.5 5.5t19.5 12.5l1 -1q-9 -20 -29.5 -36t-54.5 -16q-48 0 -76.5 30.5t-28.5 80.5q0 30 10 53.5t28 40.5t42 26t51 9z" />
    <glyph glyph-name="Euro" unicode="&#x20ac;" horiz-adv-x="655" 
d="M9 313h85q-2 22 -1 43.5t3 41.5h-87v38h92q13 66 42 117t69.5 86.5t91 54t105.5 18.5q45 0 83.5 -13.5t67 -35t45 -48.5t16.5 -54q0 -25 -12 -39t-34 -14q-45 0 -52 64q-2 21 -13 38t-27 29.5t-36.5 19.5t-42.5 7q-37 0 -71 -15.5t-61 -44.5t-45.5 -72t-25.5 -98h232
l-16 -38h-219q0 -22 0.5 -43.5t3.5 -41.5h188l-17 -38h-165q23 -106 85.5 -161t145.5 -55q57 0 102 26t77 83l9 -4q-23 -88 -82.5 -132t-145.5 -44q-56 0 -106.5 20t-90.5 57t-67 90.5t-37 119.5h-89v38z" />
    <glyph glyph-name="trademark" unicode="&#x2122;" horiz-adv-x="882" 
d="M96 351v22l41 5q10 1 10 13v283h-38q-15 0 -24 -2.5t-16 -11t-12.5 -25.5t-13.5 -47h-26v112h340v-112h-26q-8 30 -14 47t-12.5 25.5t-15.5 11t-24 2.5h-38v-283q0 -12 10 -13l41 -5v-22h-182zM597 349h-2l-125 265q-2 5 -5.5 4.5t-3.5 -5.5v-198q0 -20 7 -28.5t27 -11.5
l14 -2v-22h-124v22l14 2q19 3 26 11.5t7 28.5v238q0 10 -2.5 14t-13.5 6l-31 5v22h127l104 -224q2 -4 4.5 -4t4.5 4l105 224h127v-22l-37 -5q-10 -1 -10 -12v-270q0 -12 10 -13l37 -5v-22h-173v22l37 5q10 1 10 13v222q0 5 -3.5 5.5t-5.5 -4.5z" />
    <glyph glyph-name="uni2153" unicode="&#x2153;" horiz-adv-x="648" 
d="M17 350l36 5q9 1 9 11v276q0 13 -9 16l-36 12v11l123 27v-342q0 -10 10 -11l36 -5v-21h-169v21zM454 706h53l-410 -712h-52zM481 -7q-55 0 -88.5 23.5t-33.5 60.5q0 17 10.5 29t27.5 12q16 0 25 -9.5t9 -26.5q0 -6 -1 -12.5t-1 -12.5q0 -16 12.5 -26.5t36.5 -10.5
q31 0 50 22.5t19 59.5q0 41 -25.5 62t-73.5 21h-28l101 118q3 4 3 7t-5 3h-81q-26 0 -35 -8.5t-16 -37.5h-21l4 104h248l-115 -131q-7 -7 2 -8q57 -7 87.5 -36.5t30.5 -75.5q0 -27 -11 -50.5t-30 -40.5t-45 -26.5t-56 -9.5z" />
    <glyph glyph-name="uni2154" unicode="&#x2154;" horiz-adv-x="752" 
d="M119 447q21 24 35 43.5t22.5 37t11.5 33t3 32.5q0 40 -18 62.5t-47 22.5q-22 0 -36.5 -12.5t-14.5 -31.5q0 -8 3 -14.5t6 -12t6 -11.5t3 -13q0 -16 -9.5 -24.5t-24.5 -8.5q-18 0 -30 13.5t-12 37.5q0 46 32.5 76t92.5 30q59 0 93 -28t34 -72q0 -34 -22.5 -71t-75.5 -84
l-63 -56q-3 -3 -2.5 -5.5t5.5 -2.5h101q13 0 21.5 1.5t14 7t9 15t7.5 24.5h20l-4 -107h-267zM557 706h53l-410 -712h-52zM585 -7q-55 0 -88.5 23.5t-33.5 60.5q0 17 10.5 29t27.5 12q16 0 25 -9.5t9 -26.5q0 -6 -1 -12.5t-1 -12.5q0 -16 12.5 -26.5t36.5 -10.5q31 0 50 22.5
t19 59.5q0 41 -25.5 62t-73.5 21h-28l101 118q3 4 3 7t-5 3h-81q-26 0 -35 -8.5t-16 -37.5h-21l4 104h248l-115 -131q-7 -7 2 -8q57 -7 87.5 -36.5t30.5 -75.5q0 -27 -11 -50.5t-30 -40.5t-45 -26.5t-56 -9.5z" />
    <glyph glyph-name="uni2155" unicode="&#x2155;" horiz-adv-x="625" 
d="M17 350l36 5q9 1 9 11v276q0 13 -9 16l-36 12v11l123 27v-342q0 -10 10 -11l36 -5v-21h-169v21zM454 706h53l-410 -712h-52zM453 -7q-56 0 -86.5 22.5t-30.5 57.5q0 18 9.5 29t25.5 11q15 0 24.5 -9t9.5 -26q0 -6 -1 -12t-1 -13q0 -33 49 -33q32 0 53 22.5t21 60.5
t-23 58.5t-62 20.5q-24 0 -47.5 -4.5t-44.5 -11.5l22 205h141q14 0 22 1t13.5 4t8.5 9t7 16h20l-6 -88h-185l-8 -80q18 4 36.5 6.5t36.5 2.5q68 0 104.5 -31t36.5 -86q0 -29 -10.5 -53t-30 -41.5t-46 -27.5t-58.5 -10z" />
    <glyph glyph-name="uni2156" unicode="&#x2156;" horiz-adv-x="729" 
d="M119 447q21 24 35 43.5t22.5 37t11.5 33t3 32.5q0 40 -18 62.5t-47 22.5q-22 0 -36.5 -12.5t-14.5 -31.5q0 -8 3 -14.5t6 -12t6 -11.5t3 -13q0 -16 -9.5 -24.5t-24.5 -8.5q-18 0 -30 13.5t-12 37.5q0 46 32.5 76t92.5 30q59 0 93 -28t34 -72q0 -34 -22.5 -71t-75.5 -84
l-63 -56q-3 -3 -2.5 -5.5t5.5 -2.5h101q13 0 21.5 1.5t14 7t9 15t7.5 24.5h20l-4 -107h-267zM557 706h53l-410 -712h-52zM557 -7q-56 0 -86.5 22.5t-30.5 57.5q0 18 9.5 29t25.5 11q15 0 24.5 -9t9.5 -26q0 -6 -1 -12t-1 -13q0 -33 49 -33q32 0 53 22.5t21 60.5t-23 58.5
t-62 20.5q-24 0 -47.5 -4.5t-44.5 -11.5l22 205h141q14 0 22 1t13.5 4t8.5 9t7 16h20l-6 -88h-185l-8 -80q18 4 36.5 6.5t36.5 2.5q68 0 104.5 -31t36.5 -86q0 -29 -10.5 -53t-30 -41.5t-46 -27.5t-58.5 -10z" />
    <glyph glyph-name="uni2157" unicode="&#x2157;" horiz-adv-x="700" 
d="M141 322q-55 0 -88.5 23.5t-33.5 60.5q0 17 10.5 29t27.5 12q16 0 25 -9.5t9 -26.5q0 -6 -1 -12.5t-1 -12.5q0 -16 12.5 -26.5t36.5 -10.5q31 0 50 22.5t19 59.5q0 41 -25.5 62t-73.5 21h-28l101 118q3 4 3 7t-5 3h-81q-26 0 -35 -8.5t-16 -37.5h-21l4 104h248l-115 -131
q-7 -7 2 -8q57 -7 87.5 -36.5t30.5 -75.5q0 -27 -11 -50.5t-30 -40.5t-45 -26.5t-56 -9.5zM528 706h53l-410 -712h-52zM528 -7q-56 0 -86.5 22.5t-30.5 57.5q0 18 9.5 29t25.5 11q15 0 24.5 -9t9.5 -26q0 -6 -1 -12t-1 -13q0 -33 49 -33q32 0 53 22.5t21 60.5t-23 58.5
t-62 20.5q-24 0 -47.5 -4.5t-44.5 -11.5l22 205h141q14 0 22 1t13.5 4t8.5 9t7 16h20l-6 -88h-185l-8 -80q18 4 36.5 6.5t36.5 2.5q68 0 104.5 -31t36.5 -86q0 -29 -10.5 -53t-30 -41.5t-46 -27.5t-58.5 -10z" />
    <glyph glyph-name="uni2158" unicode="&#x2158;" horiz-adv-x="756" 
d="M97 548q27 39 35.5 74.5t5.5 77.5h82q-2 -12 -7 -24.5t-13.5 -27.5t-22.5 -34.5t-34 -47.5l-58 -80q-4 -7 3 -7h106v70l75 50v-120q13 0 21 2t13 7t8.5 15t8.5 26h20l-3 -103h-68v-61q0 -10 9 -11l27 -4v-21h-148v21l27 4q10 1 10 11v61h-182zM584 706h53l-410 -712h-52z
M583 -7q-56 0 -86.5 22.5t-30.5 57.5q0 18 9.5 29t25.5 11q15 0 24.5 -9t9.5 -26q0 -6 -1 -12t-1 -13q0 -33 49 -33q32 0 53 22.5t21 60.5t-23 58.5t-62 20.5q-24 0 -47.5 -4.5t-44.5 -11.5l22 205h141q14 0 22 1t13.5 4t8.5 9t7 16h20l-6 -88h-185l-8 -80q18 4 36.5 6.5
t36.5 2.5q68 0 104.5 -31t36.5 -86q0 -29 -10.5 -53t-30 -41.5t-46 -27.5t-58.5 -10z" />
    <glyph glyph-name="uni2159" unicode="&#x2159;" horiz-adv-x="640" 
d="M17 350l36 5q9 1 9 11v276q0 13 -9 16l-36 12v11l123 27v-342q0 -10 10 -11l36 -5v-21h-169v21zM454 706h53l-410 -712h-52zM477 -8q-69 0 -109.5 49.5t-40.5 131.5q0 44 12 81.5t33 65t50.5 43t65.5 15.5q22 0 42 -6t34 -16.5t22.5 -24t8.5 -29.5q0 -15 -8 -24t-22 -9
t-23 9.5t-14 32.5q-5 22 -15.5 31t-26.5 9q-35 0 -57 -44t-22 -125q0 -73 17.5 -118.5t52.5 -45.5q27 0 43 23.5t16 63.5q0 41 -19.5 66.5t-51.5 25.5q-14 0 -25.5 -5.5t-19.5 -12.5l-1 1q9 20 29.5 36t54.5 16q48 0 76.5 -30.5t28.5 -80.5q0 -30 -10 -53.5t-28 -40.5
t-42 -26t-51 -9z" />
    <glyph glyph-name="uni215A" unicode="&#x215a;" horiz-adv-x="712" 
d="M133 322q-56 0 -86.5 22.5t-30.5 57.5q0 18 9.5 29t25.5 11q15 0 24.5 -9t9.5 -26q0 -6 -1 -12t-1 -13q0 -33 49 -33q32 0 53 22.5t21 60.5t-23 58.5t-62 20.5q-24 0 -47.5 -4.5t-44.5 -11.5l22 205h141q14 0 22 1t13.5 4t8.5 9t7 16h20l-6 -88h-185l-8 -80
q18 4 36.5 6.5t36.5 2.5q68 0 104.5 -31t36.5 -86q0 -29 -10.5 -53t-30 -41.5t-46 -27.5t-58.5 -10zM526 706h53l-410 -712h-52zM549 -8q-69 0 -109.5 49.5t-40.5 131.5q0 44 12 81.5t33 65t50.5 43t65.5 15.5q22 0 42 -6t34 -16.5t22.5 -24t8.5 -29.5q0 -15 -8 -24t-22 -9
t-23 9.5t-14 32.5q-5 22 -15.5 31t-26.5 9q-35 0 -57 -44t-22 -125q0 -73 17.5 -118.5t52.5 -45.5q27 0 43 23.5t16 63.5q0 41 -19.5 66.5t-51.5 25.5q-14 0 -25.5 -5.5t-19.5 -12.5l-1 1q9 20 29.5 36t54.5 16q48 0 76.5 -30.5t28.5 -80.5q0 -30 -10 -53.5t-28 -40.5
t-42 -26t-51 -9z" />
    <glyph glyph-name="uni215B" unicode="&#x215b;" horiz-adv-x="652" 
d="M17 350l36 5q9 1 9 11v276q0 13 -9 16l-36 12v11l123 27v-342q0 -10 10 -11l36 -5v-21h-169v21zM454 706h53l-410 -712h-52zM345 86q0 33 23.5 55t66.5 27l1 -2q-29 -27 -29 -71q0 -34 19.5 -55.5t55.5 -21.5q31 0 51.5 17t20.5 46q0 24 -13.5 39.5t-47.5 32.5l-55 25
q-45 20 -64 42.5t-19 56.5q0 45 33.5 73.5t89.5 28.5q53 0 85 -22.5t32 -57.5q0 -28 -19.5 -45t-55.5 -21l-1 2q21 22 21 54q-1 30 -19 47.5t-46 17.5q-25 0 -40 -13.5t-15 -35.5q0 -23 15 -37t47 -29l55 -25q47 -21 66 -44.5t19 -61.5q0 -56 -41 -86t-102 -30
q-67 0 -100.5 27t-33.5 67z" />
    <glyph glyph-name="uni215C" unicode="&#x215c;" horiz-adv-x="727" 
d="M141 322q-55 0 -88.5 23.5t-33.5 60.5q0 17 10.5 29t27.5 12q16 0 25 -9.5t9 -26.5q0 -6 -1 -12.5t-1 -12.5q0 -16 12.5 -26.5t36.5 -10.5q31 0 50 22.5t19 59.5q0 41 -25.5 62t-73.5 21h-28l101 118q3 4 3 7t-5 3h-81q-26 0 -35 -8.5t-16 -37.5h-21l4 104h248l-115 -131
q-7 -7 2 -8q57 -7 87.5 -36.5t30.5 -75.5q0 -27 -11 -50.5t-30 -40.5t-45 -26.5t-56 -9.5zM528 706h53l-410 -712h-52zM419 86q0 33 23.5 55t66.5 27l1 -2q-29 -27 -29 -71q0 -34 19.5 -55.5t55.5 -21.5q31 0 51.5 17t20.5 46q0 24 -13.5 39.5t-47.5 32.5l-55 25
q-45 20 -64 42.5t-19 56.5q0 45 33.5 73.5t89.5 28.5q53 0 85 -22.5t32 -57.5q0 -28 -19.5 -45t-55.5 -21l-1 2q21 22 21 54q-1 30 -19 47.5t-46 17.5q-25 0 -40 -13.5t-15 -35.5q0 -23 15 -37t47 -29l55 -25q47 -21 66 -44.5t19 -61.5q0 -56 -41 -86t-102 -30
q-67 0 -100.5 27t-33.5 67z" />
    <glyph glyph-name="uni215D" unicode="&#x215d;" horiz-adv-x="724" 
d="M133 322q-56 0 -86.5 22.5t-30.5 57.5q0 18 9.5 29t25.5 11q15 0 24.5 -9t9.5 -26q0 -6 -1 -12t-1 -13q0 -33 49 -33q32 0 53 22.5t21 60.5t-23 58.5t-62 20.5q-24 0 -47.5 -4.5t-44.5 -11.5l22 205h141q14 0 22 1t13.5 4t8.5 9t7 16h20l-6 -88h-185l-8 -80
q18 4 36.5 6.5t36.5 2.5q68 0 104.5 -31t36.5 -86q0 -29 -10.5 -53t-30 -41.5t-46 -27.5t-58.5 -10zM526 706h53l-410 -712h-52zM417 86q0 33 23.5 55t66.5 27l1 -2q-29 -27 -29 -71q0 -34 19.5 -55.5t55.5 -21.5q31 0 51.5 17t20.5 46q0 24 -13.5 39.5t-47.5 32.5l-55 25
q-45 20 -64 42.5t-19 56.5q0 45 33.5 73.5t89.5 28.5q53 0 85 -22.5t32 -57.5q0 -28 -19.5 -45t-55.5 -21l-1 2q21 22 21 54q-1 30 -19 47.5t-46 17.5q-25 0 -40 -13.5t-15 -35.5q0 -23 15 -37t47 -29l55 -25q47 -21 66 -44.5t19 -61.5q0 -56 -41 -86t-102 -30
q-67 0 -100.5 27t-33.5 67z" />
    <glyph glyph-name="uni215E" unicode="&#x215e;" horiz-adv-x="663" 
d="M84 329q-1 28 4.5 53.5t16.5 52t28.5 56t41.5 64.5l51 76q6 8 -3 8h-129q-14 0 -22 -2t-13 -7.5t-8.5 -16t-7.5 -28.5h-21l4 115h271l-80 -132q-35 -58 -45 -115t-5 -124h-83zM465 706h53l-410 -712h-52zM356 86q0 33 23.5 55t66.5 27l1 -2q-29 -27 -29 -71
q0 -34 19.5 -55.5t55.5 -21.5q31 0 51.5 17t20.5 46q0 24 -13.5 39.5t-47.5 32.5l-55 25q-45 20 -64 42.5t-19 56.5q0 45 33.5 73.5t89.5 28.5q53 0 85 -22.5t32 -57.5q0 -28 -19.5 -45t-55.5 -21l-1 2q21 22 21 54q-1 30 -19 47.5t-46 17.5q-25 0 -40 -13.5t-15 -35.5
q0 -23 15 -37t47 -29l55 -25q47 -21 66 -44.5t19 -61.5q0 -56 -41 -86t-102 -30q-67 0 -100.5 27t-33.5 67z" />
    <glyph glyph-name="uni215F" unicode="&#x215f;" horiz-adv-x="300" 
d="M17 350l36 5q9 1 9 11v276q0 13 -9 16l-36 12v11l123 27v-342q0 -10 10 -11l36 -5v-21h-169v21zM454 706h53l-410 -712h-52z" />
    <glyph glyph-name="uni2190" unicode="&#x2190;" horiz-adv-x="804" 
d="M742 301l-566 27l161 -250l-9 -7l-296 279l296 279l9 -7l-161 -250l566 27v-98z" />
    <glyph glyph-name="uni2191" unicode="&#x2191;" 
d="M355 0l27 574l-250 -161l-7 9l279 296l279 -296l-7 -9l-250 161l27 -574h-98z" />
    <glyph glyph-name="uni2192" unicode="&#x2192;" horiz-adv-x="804" 
d="M60 399l566 -27l-161 250l9 7l296 -279l-296 -279l-9 7l161 250l-566 -27v98z" />
    <glyph glyph-name="uni2193" unicode="&#x2193;" 
d="M453 700l-27 -574l250 161l7 -9l-279 -296l-279 296l7 9l250 -161l-27 574h98z" />
    <glyph glyph-name="uni2196" unicode="&#x2196;" 
d="M234 583l-62 -289l-12 2l-12 406l406 -12l2 -12l-289 -63l418 -380l-70 -70z" />
    <glyph glyph-name="uni2197" unicode="&#x2197;" 
d="M123 235l418 380l-289 63l2 12l406 12l-12 -406l-12 -2l-62 289l-381 -418z" />
    <glyph glyph-name="uni2198" unicode="&#x2198;" 
d="M685 465l-418 -380l289 -63l-2 -12l-406 -12l12 406l12 2l62 -289l381 418z" />
    <glyph glyph-name="uni2199" unicode="&#x2199;" 
d="M574 117l62 289l12 -2l12 -406l-406 12l-2 12l289 63l-418 380l70 70z" />
    <glyph glyph-name="minus" unicode="&#x2212;" horiz-adv-x="556" 
d="M45 386h465v-46h-465v46z" />
    <glyph glyph-name="approxequal" unicode="&#x2248;" horiz-adv-x="556" 
d="M44 420q31 72 60.5 102t64.5 30q16 0 29 -4t27 -12t30.5 -20t37.5 -28q21 -17 35.5 -27.5t24.5 -16.5t18.5 -8.5t17.5 -2.5t18 4.5t19 16t22.5 31t28.5 48.5l34 -16q-32 -72 -61.5 -102t-64.5 -30q-16 0 -29 4t-27 12t-30.5 20t-37.5 28t-35.5 27t-24.5 17t-18.5 8.5
t-17.5 2.5t-18 -4.5t-19 -16t-22.5 -31t-28.5 -48.5zM44 210q31 72 60.5 102t64.5 30q16 0 29 -4t27 -12t30.5 -20t37.5 -28q21 -17 35.5 -27.5t24.5 -16.5t18.5 -8.5t17.5 -2.5t18 4.5t19 16t22.5 31t28.5 48.5l34 -16q-32 -72 -61.5 -102t-64.5 -30q-16 0 -29 4t-27 12
t-30.5 20t-37.5 28t-35.5 27t-24.5 17t-18.5 8.5t-17.5 2.5t-18 -4.5t-19 -16t-22.5 -30.5t-28.5 -48z" />
    <glyph glyph-name="notequal" unicode="&#x2260;" horiz-adv-x="556" 
d="M168 235h-116v46h146l103 164h-249v46h279l73 116h56l-74 -116h117v-46h-146l-104 -164h250v-46h-279l-74 -116h-55z" />
    <glyph glyph-name="lessequal" unicode="&#x2264;" horiz-adv-x="556" 
d="M503 142l-471 222l471 223v-53l-364 -170l364 -170v-52zM52 46h451v-46h-451v46z" />
    <glyph glyph-name="greaterequal" unicode="&#x2265;" horiz-adv-x="556" 
d="M415 364l-364 170v53l471 -223l-471 -222v52zM51 0v46h451v-46h-451z" />
    <glyph glyph-name="uni25A0" unicode="&#x25a0;" horiz-adv-x="884" 
d="M791 0h-700v700h700v-700z" />
    <glyph glyph-name="uni25A1" unicode="&#x25a1;" horiz-adv-x="884" 
d="M791 0h-700v700h700v-700zM146 644v-588h589v588h-589z" />
    <glyph glyph-name="uni25AA" unicode="&#x25aa;" horiz-adv-x="708" 
d="M86 534h534v-534h-534v534z" />
    <glyph glyph-name="uni25AB" unicode="&#x25ab;" horiz-adv-x="708" 
d="M86 534h534v-534h-534v534zM137 51h432v432h-432v-432z" />
    <glyph glyph-name="triagup" unicode="&#x25b2;" horiz-adv-x="750" 
d="M24 0l350 606l349 -606h-699z" />
    <glyph glyph-name="triagrt" unicode="&#x25ba;" horiz-adv-x="750" 
d="M88 699l605 -349l-605 -350v699z" />
    <glyph glyph-name="triagdn" unicode="&#x25bc;" horiz-adv-x="750" 
d="M723 700l-349 -606l-350 606h699z" />
    <glyph glyph-name="triaglf" unicode="&#x25c4;" horiz-adv-x="750" 
d="M660 0l-605 350l605 349v-699z" />
    <glyph glyph-name="uni25CB" unicode="&#x25cb;" horiz-adv-x="833" 
d="M775 351q0 -74 -28.5 -139.5t-77 -114.5t-114 -77.5t-139.5 -28.5t-139.5 28.5t-114.5 77.5t-77.5 114.5t-28.5 139.5t28.5 139.5t77.5 114t114.5 77t139.5 28.5t139.5 -28.5t114 -77t77 -114t28.5 -139.5zM111 351q0 -63 24 -118t65.5 -96.5t97 -65.5t118.5 -24
q62 0 116.5 24t95.5 65t65 96t24 117q0 63 -24 118.5t-65 97t-95.5 65.5t-116.5 24q-63 0 -118.5 -24t-97 -65.5t-65.5 -96.5t-24 -117z" />
    <glyph glyph-name="uni25CF" unicode="&#x25cf;" horiz-adv-x="833" 
d="M775 351q0 -74 -28.5 -139.5t-77 -114.5t-114 -77.5t-139.5 -28.5t-139.5 28.5t-114.5 77.5t-77.5 114.5t-28.5 139.5t28.5 139.5t77.5 114t114.5 77t139.5 28.5t139.5 -28.5t114 -77t77 -114t28.5 -139.5z" />
    <glyph glyph-name="uni25E2" unicode="&#x25e2;" horiz-adv-x="700" 
d="M506 676l181 -676l-676 181z" />
    <glyph glyph-name="uni25E3" unicode="&#x25e3;" horiz-adv-x="700" 
d="M687 181l-676 -181l181 676z" />
    <glyph glyph-name="uni25E4" unicode="&#x25e4;" horiz-adv-x="700" 
d="M192 25l-181 676l676 -181z" />
    <glyph glyph-name="uni25E5" unicode="&#x25e5;" horiz-adv-x="700" 
d="M11 520l676 181l-181 -676z" />
    <glyph glyph-name="s_t" unicode="&#xfb06;" horiz-adv-x="749" 
d="M45 160h35q19 -69 50 -101t75 -32q39 0 64.5 22t25.5 57q0 26 -14.5 41.5t-52.5 33.5l-87 41q-44 20 -64.5 48t-20.5 73q0 29 10.5 53t29 41.5t44.5 27.5t57 10q14 0 25 -1.5t21 -3.5q-28 42 -28 88q0 36 13.5 67.5t37 55t56.5 37.5t72 14q43 0 79.5 -12.5t62.5 -38.5
t40.5 -65.5t14.5 -92.5v-59l139 1v-52l-139 1v-287q0 -41 20 -61t52 -20q40 0 75 35l4 -3q-17 -42 -49.5 -66t-77.5 -24q-53 0 -85.5 34.5t-32.5 95.5v297h-74v14q36 25 71 59q19 19 25 35.5t6 36.5q0 66 -36.5 97t-94.5 31q-26 0 -48.5 -10t-39 -27.5t-25.5 -41t-9 -50.5
q0 -34 12.5 -62.5t38.5 -48.5q6 4 29 25v-152h-35q-17 60 -45.5 87.5t-70.5 27.5q-32 0 -52.5 -19t-20.5 -47q0 -25 14.5 -40.5t53.5 -34.5l88 -39q45 -20 65 -49t20 -74q0 -32 -12.5 -58.5t-34 -46t-50.5 -30t-63 -10.5q-31 0 -52.5 6t-36 13.5t-23 13.5t-13.5 6
t-11.5 -4.5t-27.5 -24.5v162z" />
    <glyph glyph-name="idotaccent" horiz-adv-x="282" 
d="M30 30l49 6q10 2 13 6.5t3 13.5v320q0 11 -2.5 15.5t-12.5 9.5l-50 21v14l159 41v-421q0 -9 3 -13.5t13 -6.5l50 -6v-30h-225v30zM86 586q0 24 16.5 40.5t39.5 16.5t40 -16.5t17 -40.5q0 -23 -17 -40t-40 -17t-39.5 17t-16.5 40z" />
    <glyph glyph-name="cordinal" horiz-adv-x="345" 
d="M192 678q-38 0 -65.5 -34.5t-27.5 -99.5q0 -61 34.5 -97t85.5 -36q58 0 102 47l4 -3q-13 -44 -49.5 -71.5t-89.5 -27.5q-35 0 -64.5 13t-51 36t-33.5 54.5t-12 69.5q0 42 13 75.5t36.5 57t54.5 36t67 12.5q56 0 93 -27t37 -68q0 -19 -9.5 -30t-26.5 -11t-27 11t-13 37
q-4 30 -18 43t-40 13z" />
    <glyph glyph-name="T_h" horiz-adv-x="1140" 
d="M175 32l89 9q17 1 17 21v595h-111q-27 0 -43 -4t-27 -20t-19.5 -48t-20.5 -89h-36v204h647l89 27v-332q24 39 61.5 59.5t83.5 20.5q66 0 107 -40t41 -113v-266q0 -9 3 -13.5t13 -6.5l50 -6v-30h-224v30l48 6q10 2 13 6.5t3 13.5v259q0 54 -25 80.5t-66 26.5
q-68 0 -108 -60v-306q0 -9 3 -13.5t13 -6.5l48 -6v-30h-223v30l49 6q10 2 13 6.5t3 13.5v491q0 35 -7 56.5t-21 33.5t-34 16t-47 4h-164v-595q0 -20 17 -21l88 -9v-32h-323v32z" />
    <glyph glyph-name="W_h" horiz-adv-x="1606" 
d="M749 -8l-194 500q-2 6 -6 6t-6 -6l-193 -500h-56l-216 638q-6 17 -13 23t-22 8l-36 8v31h265v-31l-45 -8q-26 -4 -31.5 -13.5t3.5 -37.5l150 -459q2 -6 6 -6t6 6l215 559h5l216 -559q2 -6 6 -6t6 6l149 448q10 29 1.5 44t-38.5 20l-32 6v31h216l121 35v-340
q24 39 61.5 59.5t83.5 20.5q66 0 107 -40t41 -113v-266q0 -9 3 -13.5t13 -6.5l50 -6v-30h-224v30l48 6q10 2 13 6.5t3 13.5v259q0 54 -25 80.5t-66 26.5q-68 0 -108 -60v-306q0 -9 3 -13.5t13 -6.5l48 -6v-30h-223v30l49 6q10 2 13 6.5t3 13.5v580q0 29 -27 29h-34
q-22 0 -34.5 -14t-20.5 -38l-211 -621h-56z" />
    <glyph glyph-name="c_h" horiz-adv-x="1023" 
d="M260 432q-30 0 -55 -12.5t-43.5 -35.5t-29 -57.5t-10.5 -77.5q0 -41 12.5 -75.5t35 -59t54 -38t68.5 -13.5q43 0 74.5 15.5t62.5 51.5l5 -2q-21 -66 -70 -103t-113 -37q-44 0 -83.5 17.5t-69 49t-47 75t-17.5 96.5q0 55 19 101.5t50.5 79.5t73 51.5t86.5 18.5h10
q4 0 9 -1q-21 33 -21 77q-1 37 13 69.5t39 57t60 38.5t76 14q47 0 80 -15l114 29v-351q24 39 61.5 59.5t83.5 20.5q66 0 107 -40t41 -113v-266q0 -9 3 -13.5t13 -6.5l50 -6v-30h-224v30l48 6q10 2 13 6.5t3 13.5v259q0 54 -25 80.5t-66 26.5q-68 0 -108 -60v-306
q0 -9 3 -13.5t13 -6.5l48 -6v-30h-223v30l49 6q10 2 13 6.5t3 13.5v557q0 38 -25.5 56.5t-66.5 18.5q-30 0 -55.5 -10.5t-44 -29.5t-29 -44t-9.5 -54q2 -54 31 -90q41 -18 65 -48.5t24 -65.5q0 -24 -12 -37t-32 -13q-21 0 -33 13t-17 48q-5 38 -27 56.5t-58 18.5z" />
    <glyph glyph-name="c_k" horiz-adv-x="988" 
d="M482 30l49 6q10 2 13 6.5t3 13.5v557q0 38 -25 56.5t-65 18.5q-30 0 -55.5 -10t-43.5 -28t-28.5 -42t-10.5 -52q0 -29 8.5 -53.5t25.5 -44.5q40 -18 63 -48t23 -64q0 -24 -12 -37t-32 -13q-21 0 -33 13t-17 48q-5 38 -27 56.5t-58 18.5q-30 0 -55 -12.5t-43.5 -35.5
t-29 -57.5t-10.5 -77.5q0 -41 12.5 -75.5t35 -59t54 -38t68.5 -13.5q43 0 74.5 15.5t62.5 51.5l5 -2q-21 -66 -70 -103t-113 -37q-44 0 -83.5 17.5t-69 49t-47 75t-17.5 96.5q0 55 19 101.5t50.5 79.5t73 51.5t86.5 18.5h11q5 0 10 -1q-22 37 -22 79q0 36 14 68t38.5 56.5
t59 38.5t75.5 14q46 0 79 -15l113 29v-489l175 145q25 21 -6 27l-25 4v30h183v-30l-24 -4q-24 -5 -41 -13.5t-40 -27.5l-149 -123l192 -198q17 -17 30.5 -24.5t32.5 -10.5l14 -2v-30h-141l-201 226v-170q0 -9 3 -13.5t13 -6.5l50 -6v-30h-225v30z" />
    <glyph glyph-name="c_l" horiz-adv-x="736" 
d="M260 432q-30 0 -55 -12.5t-43.5 -35.5t-29 -57.5t-10.5 -77.5q0 -41 12.5 -75.5t35 -59t54 -38t68.5 -13.5q43 0 74.5 15.5t62.5 51.5l5 -2q-21 -66 -70 -103t-113 -37q-44 0 -83.5 17.5t-69 49t-47 75t-17.5 96.5q0 55 19 101.5t50.5 79.5t73 51.5t86.5 18.5h11
q5 0 10 -1q-22 37 -22 79q0 36 14 68t39 56.5t59.5 38.5t75.5 14q47 0 79 -15l114 29v-690q0 -9 3 -13.5t13 -6.5l50 -6v-30h-225v30l49 6q10 2 13 6.5t3 13.5v557q0 38 -25 56.5t-66 18.5q-30 0 -55.5 -10t-44 -28t-29 -42t-10.5 -52q0 -29 8.5 -53.5t25.5 -44.5
q40 -18 63 -48t23 -64q0 -24 -12 -37t-32 -13q-21 0 -33 13t-17 48q-5 38 -27 56.5t-58 18.5z" />
    <glyph glyph-name="c_t" horiz-adv-x="797" 
d="M260 432q-30 0 -55 -12.5t-43.5 -35.5t-29 -57.5t-10.5 -77.5q0 -41 12.5 -75.5t35 -59t54 -38t68.5 -13.5q43 0 74.5 15.5t62.5 51.5l5 -2q-21 -66 -70 -103t-113 -37q-44 0 -83.5 17.5t-69 49t-47 75t-17.5 96.5q0 55 19 101.5t50.5 79.5t73 51.5t86.5 18.5h15
q-27 37 -27 82q0 35 14 66.5t38.5 55t59 37.5t75.5 14q44 0 81 -12.5t63.5 -38.5t41.5 -65.5t15 -92.5v-59l139 1v-52l-139 1v-287q0 -41 20 -61t52 -20q40 0 75 35l4 -3q-17 -42 -49.5 -66t-77.5 -24q-53 0 -85.5 34.5t-32.5 95.5v297h-74v14q36 25 71 59q19 19 25 35.5
t6 36.5q0 66 -38.5 97t-99.5 31q-28 0 -51.5 -10.5t-40.5 -28t-26.5 -40.5t-9.5 -48q0 -35 14 -60t34 -44q38 -18 61 -48t23 -63q0 -24 -12 -37t-32 -13q-21 0 -33 13t-17 48q-5 38 -27 56.5t-58 18.5z" />
    <glyph glyph-name="i_p" horiz-adv-x="854" 
d="M463 389q25 40 66 63t88 23q42 0 79 -16.5t64.5 -47t43 -74t15.5 -98.5q0 -56 -17 -102.5t-46 -79.5t-69 -51t-85 -18q-89 0 -139 62v-205q0 -8 3 -12.5t13 -6.5l50 -7v-29h-225v29l49 7q10 2 13 6.5t3 12.5v531q0 11 -2.5 15.5t-12.5 9.5l-50 21v14l18 4q45 13 66 40
t21 65q0 31 -12.5 60.5t-34 52t-51.5 36.5t-64 14q-30 0 -48.5 -10t-18.5 -28q0 -12 6.5 -24.5t6.5 -26.5q0 -23 -15 -37.5t-41 -14.5q-25 0 -38.5 17.5t-13.5 41.5t12 46t33.5 38.5t51 26.5t64.5 10q48 0 87.5 -15t68.5 -43t45 -69.5t16 -93.5v-137zM30 30l49 6
q10 2 13 6.5t3 13.5v320q0 11 -2.5 15.5t-12.5 9.5l-50 21v14l159 41v-421q0 -9 3 -13.5t13 -6.5l50 -6v-30h-225v30zM583 417q-38 0 -68 -16.5t-52 -46.5v-257q40 -62 118 -62q31 0 58 13.5t46 39t30 61.5t11 81q0 43 -11.5 78t-31 59t-45.5 37t-55 13z" />
    <glyph glyph-name="i_t" horiz-adv-x="619" 
d="M364 488q19 19 25 35.5t6 36.5q0 73 -41.5 109t-106.5 36q-30 0 -48.5 -9t-18.5 -26q0 -12 6.5 -24.5t6.5 -26.5q0 -23 -15 -37.5t-41 -14.5q-25 0 -38.5 17.5t-13.5 41.5t12 46t33.5 38.5t51 26.5t64.5 10q47 0 86.5 -13.5t68 -41.5t44.5 -70t16 -99v-59l139 1v-52
l-139 1v-287q0 -41 20 -61t52 -20q40 0 75 35l4 -3q-17 -42 -49.5 -66t-77.5 -24q-53 0 -85.5 34.5t-32.5 95.5v297h-74v14q36 25 71 59zM30 30l49 6q10 2 13 6.5t3 13.5v320q0 11 -2.5 15.5t-12.5 9.5l-50 21v14l159 41v-421q0 -9 3 -13.5t13 -6.5l50 -6v-30h-225v30z" />
    <glyph glyph-name="s_h" horiz-adv-x="971" 
d="M45 160h35q19 -69 50 -101t75 -32q39 0 64.5 22t25.5 57q0 26 -14.5 41.5t-52.5 33.5l-87 41q-44 20 -64.5 48t-20.5 73q0 29 10.5 53t29 41.5t44.5 27.5t57 10q12 0 22.5 -1t19.5 -3q-12 19 -18 40t-6 42q0 36 13.5 68.5t38 57t58.5 39t74 14.5q46 0 79 -15l113 29v-351
q24 39 61.5 59.5t83.5 20.5q66 0 107 -40t41 -113v-266q0 -9 3 -13.5t13 -6.5l50 -6v-30h-224v30l48 6q10 2 13 6.5t3 13.5v259q0 54 -25 80.5t-66 26.5q-68 0 -108 -60v-306q0 -9 3 -13.5t13 -6.5l48 -6v-30h-223v30l49 6q10 2 13 6.5t3 13.5v557q0 38 -26.5 56.5
t-68.5 18.5q-28 0 -52 -10.5t-41 -28.5t-27 -42.5t-10 -52.5q0 -32 11 -60.5t36 -48.5q5 2 12 8t21 20v-152h-35q-17 60 -45.5 87.5t-70.5 27.5q-32 0 -52.5 -19t-20.5 -47q0 -25 14.5 -40.5t53.5 -34.5l88 -39q45 -20 65 -49t20 -74q0 -32 -12.5 -58.5t-34 -46t-50.5 -30
t-63 -10.5q-31 0 -52.5 6t-36 13.5t-23 13.5t-13.5 6t-11.5 -4.5t-27.5 -24.5v162z" />
    <glyph glyph-name="s_k" horiz-adv-x="938" 
d="M45 160h35q19 -69 50 -101t75 -32q39 0 64.5 22t25.5 57q0 26 -14.5 41.5t-52.5 33.5l-87 41q-44 20 -64.5 48t-20.5 73q0 29 10.5 53t29 41.5t44.5 27.5t57 10q12 0 22.5 -1t19.5 -3q-12 19 -18 40t-6 42q0 36 13.5 68.5t38 57t58.5 39t74 14.5q46 0 79 -15l113 29v-489
l175 145q25 21 -6 27l-25 4v30h183v-30l-24 -4q-24 -5 -41 -13.5t-40 -27.5l-149 -123l192 -198q17 -17 30.5 -24.5t32.5 -10.5l14 -2v-30h-141l-201 226v-170q0 -9 3 -13.5t13 -6.5l50 -6v-30h-225v30l49 6q10 2 13 6.5t3 13.5v557q0 38 -26.5 56.5t-68.5 18.5
q-28 0 -52 -10.5t-41 -28.5t-27 -42.5t-10 -52.5q0 -32 11 -60.5t36 -48.5q5 2 12 8t21 20v-152h-35q-17 60 -45.5 87.5t-70.5 27.5q-32 0 -52.5 -19t-20.5 -47q0 -25 14.5 -40.5t53.5 -34.5l88 -39q45 -20 65 -49t20 -74q0 -32 -12.5 -58.5t-34 -46t-50.5 -30t-63 -10.5
q-31 0 -52.5 6t-36 13.5t-23 13.5t-13.5 6t-11.5 -4.5t-27.5 -24.5v162z" />
    <glyph glyph-name="s_l" horiz-adv-x="686" 
d="M45 160h35q19 -69 50 -101t75 -32q39 0 64.5 22t25.5 57q0 26 -14.5 41.5t-52.5 33.5l-87 41q-44 20 -64.5 48t-20.5 73q0 29 10.5 53t29 41.5t44.5 27.5t57 10q12 0 22.5 -1t19.5 -3q-12 19 -18 40t-6 42q0 36 13.5 68.5t38.5 57t58.5 39t74.5 14.5q47 0 79 -15l114 29
v-690q0 -9 3 -13.5t13 -6.5l50 -6v-30h-225v30l49 6q10 2 13 6.5t3 13.5v557q0 38 -26.5 56.5t-69.5 18.5q-29 0 -53 -10.5t-41 -28.5t-27 -42.5t-10 -52.5q0 -32 11 -60.5t36 -48.5q5 2 12 8t21 20v-152h-35q-17 60 -45.5 87.5t-70.5 27.5q-32 0 -52.5 -19t-20.5 -47
q0 -25 14.5 -40.5t53.5 -34.5l88 -39q45 -20 65 -49t20 -74q0 -32 -12.5 -58.5t-34 -46t-50.5 -30t-63 -10.5q-31 0 -52.5 6t-36 13.5t-23 13.5t-13.5 6t-11.5 -4.5t-27.5 -24.5v162z" />
    <glyph glyph-name="s_p" horiz-adv-x="982" 
d="M45 160h35q19 -69 50 -101t75 -32q39 0 64.5 22t25.5 57q0 26 -14.5 41.5t-52.5 33.5l-87 41q-44 20 -64.5 48t-20.5 73q0 29 10.5 53t29 41.5t44.5 27.5t57 10q14 0 25 -1.5t21 -3.5q-28 42 -28 88q0 36 13.5 67.5t37.5 55t57.5 37.5t72.5 14q90 0 142.5 -54t52.5 -152
v-137q25 40 66 63t88 23q42 0 79 -16.5t64.5 -47t43 -74t15.5 -98.5q0 -56 -17 -102.5t-46 -79.5t-69 -51t-85 -18q-89 0 -139 62v-205q0 -8 3 -12.5t13 -6.5l50 -7v-29h-225v29l49 7q10 2 13 6.5t3 12.5v531q0 11 -2.5 15.5t-12.5 9.5l-50 21v14l18 4q45 13 66 40t21 65
q0 28 -9.5 54t-27.5 45.5t-43.5 31.5t-57.5 12q-27 0 -50.5 -10t-40.5 -27.5t-26.5 -41t-9.5 -50.5q0 -34 12.5 -62.5t38.5 -48.5q6 4 29 25v-152h-35q-17 60 -45.5 87.5t-70.5 27.5q-32 0 -52.5 -19t-20.5 -47q0 -25 14.5 -40.5t53.5 -34.5l88 -39q45 -20 65 -49t20 -74
q0 -32 -12.5 -58.5t-34 -46t-50.5 -30t-63 -10.5q-31 0 -52.5 6t-36 13.5t-23 13.5t-13.5 6t-11.5 -4.5t-27.5 -24.5v162zM711 417q-38 0 -68 -16.5t-52 -46.5v-257q40 -62 118 -62q31 0 58 13.5t46 39t30 61.5t11 81q0 43 -11.5 78t-31 59t-45.5 37t-55 13z" />
    <glyph glyph-name="t_t" horiz-adv-x="658" 
d="M205 -12q-53 0 -85.5 34.5t-32.5 95.5v297h-74v14q46 32 89 76t76 95h3v-136h157q25 2 47.5 16t43 33.5t37.5 42.5t31 44h3v-136l139 1v-52l-139 1v-287q0 -41 20 -61t52 -20q40 0 75 35l4 -3q-17 -42 -49.5 -66t-77.5 -24q-53 0 -85.5 34.5t-32.5 95.5v295l-225 1v-287
q0 -41 20 -61t52 -20q40 0 75 35l4 -3q-17 -42 -49.5 -66t-77.5 -24z" />
    <glyph glyph-name="t_w" horiz-adv-x="1082" 
d="M205 -12q-53 0 -85.5 34.5t-32.5 95.5v297h-74v14q46 32 89 76t76 95h3v-137h346v-30l-35 -5q-20 -3 -24.5 -11.5t2.5 -28.5l93 -272q2 -6 6 -6t6 6l139 357h6l140 -357q2 -6 6 -6t6 6l92 260q9 25 2 37.5t-33 16.5l-23 3v30h163v-30l-18 -3q-15 -3 -24.5 -12.5
t-17.5 -29.5l-143 -396h-55l-117 298q-2 6 -6 6t-6 -6l-118 -298h-54l-148 410q-2 4 -2.5 6.5t-2.5 4.5l-180 1v-287q0 -41 20 -61t52 -20q40 0 75 35l4 -3q-17 -42 -49.5 -66t-77.5 -24z" />
    <glyph glyph-name="t_y" horiz-adv-x="826" 
d="M205 -12q-53 0 -85.5 34.5t-32.5 95.5v297h-74v14q46 32 89 76t76 95h3v-137h352v-30l-35 -5q-20 -3 -25.5 -12t2.5 -28l112 -280q2 -6 6 -6t6 6l111 275q16 40 -27 46l-29 4v30h165v-30l-16 -3q-18 -4 -26.5 -11.5t-16.5 -25.5l-210 -507q-25 -60 -54 -84t-64 -24
q-31 0 -48.5 14t-17.5 36q0 18 12.5 30t30.5 12q14 0 26.5 -5.5t27.5 -5.5t27.5 11t26.5 44l28 66l-176 423q-2 3 -2.5 5.5t-2.5 4.5l-183 1v-287q0 -41 20 -61t52 -20q40 0 75 35l4 -3q-17 -42 -49.5 -66t-77.5 -24z" />
    <glyph glyph-name="ampersand.alt" horiz-adv-x="751" 
d="M609 399q34 11 56 20.5t34.5 19t17.5 19.5t5 23q0 15 -5.5 27t-15 19.5t-21 11t-22.5 2.5q-23 -1 -23 -10q0 -6 6.5 -15.5t5.5 -24.5q-1 -10 -8.5 -18.5t-23.5 -10.5q-15 -2 -29 8.5t-16 27.5q-4 26 18 49.5t64 25.5q49 3 79.5 -25.5t30.5 -73.5q0 -19 -3.5 -37
t-13.5 -34t-28.5 -28.5t-48.5 -21.5q-42 -11 -95.5 -17t-119.5 -16q69 -3 114 -35.5t45 -95.5q0 -42 -24 -78.5t-64.5 -64.5t-94 -44t-111.5 -16q-57 0 -110 14.5t-94 43.5t-65.5 71.5t-24.5 98.5q0 57 20 98t52.5 68.5t72.5 43t79 22.5q-23 20 -38 48.5t-15 60.5
q0 33 12 62t34 50t52.5 33t67.5 12q73 0 113 -36t40 -89q0 -27 -13 -44t-33 -24q3 10 4 18.5t-1 26.5q-2 11 -8.5 25t-19.5 26.5t-33.5 21t-49.5 8.5q-46 0 -73.5 -29.5t-27.5 -74.5q0 -25 10.5 -49t28.5 -40q6 1 12 1h12q38 0 52 -8t14 -17q0 -8 -8.5 -15.5t-30.5 -7.5
q-32 0 -60 15q-33 -3 -62 -19t-50.5 -41.5t-34 -59t-12.5 -71.5q0 -36 12.5 -71t38 -62.5t63.5 -44.5t89 -17q55 0 93 15.5t61 38.5t33.5 49.5t10.5 49.5q0 15 -4.5 33.5t-16.5 35t-32.5 27.5t-51.5 11q-42 0 -61 -20t-19 -43q0 -14 8 -14q6 0 16.5 5.5t23.5 5.5
q17 0 25.5 -11.5t8.5 -22.5q0 -14 -12 -26.5t-36 -12.5q-28 0 -49 17t-21 50q0 43 32.5 72t98.5 50z" />
    <glyph glyph-name="ampersand.alt2" horiz-adv-x="826" 
d="M648 408q43 11 69.5 22.5t41.5 23.5t20.5 25.5t5.5 28.5q0 21 -8 37t-21 27t-29 16t-32 4q-23 -1 -23 -10q0 -6 6.5 -15.5t5.5 -24.5q-1 -11 -9.5 -21t-26.5 -12q-15 -2 -29 8.5t-16 27.5q-2 13 3 27t16.5 25t28 18.5t38.5 8.5q31 2 57 -6.5t45 -25t29 -40.5t10 -52
q0 -49 -27.5 -87.5t-93.5 -58.5q-51 -14 -118 -15.5t-148 -12.5q37 -2 69 -11t55.5 -26.5t36.5 -43t13 -59.5q0 -41 -23.5 -77.5t-62.5 -64t-91 -43.5t-109 -16q-60 0 -115 14.5t-98 43.5t-68.5 72t-25.5 99q0 57 20 98t52 69t72 44t80 24q-25 20 -41 47t-16 59
q0 33 12.5 62t35 50t53.5 33t69 12q39 0 70 -10.5t52 -28.5t32 -42.5t11 -52.5q0 -33 -13.5 -54.5t-36.5 -29.5q5 14 7.5 25t-0.5 36q-2 12 -9 28t-22 29.5t-37.5 23t-54.5 9.5q-46 0 -73.5 -28.5t-27.5 -70.5q0 -26 11.5 -50t31.5 -40q8 1 16 1h14q38 0 52 -8t14 -17
q0 -8 -8.5 -15.5t-30.5 -7.5q-33 0 -66 14q-34 -3 -63.5 -19.5t-51.5 -43t-34.5 -60t-12.5 -71.5q0 -36 13.5 -71.5t40.5 -63t67 -44.5t94 -17q53 0 89 15.5t58.5 38t32.5 49t10 48.5q0 16 -5.5 36t-19 38t-37 30t-59.5 12q-51 0 -76 -25.5t-25 -57.5q0 -15 3 -20t8 -5
q7 0 18 5t25 5q19 0 29 -13t10 -27t-12 -26.5t-36 -12.5q-33 0 -57.5 21.5t-24.5 63.5q0 102 153 142z" />
    <glyph glyph-name="caronSlovak" horiz-adv-x="500" 
d="M269 738q20 -5 28.5 -20t3.5 -36q-2 -10 -7 -22.5t-14 -32t-23 -47.5t-35 -68l-8 2q-2 46 -2.5 77t-0.5 52t1 34.5t4 24.5q5 20 19 30.5t34 5.5z" />
    <glyph glyph-name="uni00200326" horiz-adv-x="500" 
d="M207 -256q23 17 33 30t10 25q0 9 -5.5 17.5t-21.5 19.5t-22.5 23t-6.5 26q0 22 13.5 35t35.5 13q24 0 43 -19.5t19 -53.5q0 -42 -24 -75t-68 -52z" />
    <glyph glyph-name="reversequoteleft" horiz-adv-x="220" 
d="M152 468q-46 30 -77 75t-31 104q0 43 20.5 68t49.5 25q23 0 38 -14.5t15 -40.5q0 -18 -10 -32t-28 -27q-17 -12 -23.5 -24.5t-6.5 -26.5q0 -20 15 -44.5t47 -52.5z" />
    <glyph glyph-name="reversequotedblleft" horiz-adv-x="391" 
d="M152 468q-46 30 -77 75t-31 104q0 43 20.5 68t49.5 25q23 0 38 -14.5t15 -40.5q0 -18 -10 -32t-28 -27q-17 -12 -23.5 -24.5t-6.5 -26.5q0 -20 15 -44.5t47 -52.5zM323 468q-46 30 -77 75t-31 104q0 43 20.5 68t49.5 25q23 0 38 -14.5t15 -40.5q0 -18 -10 -32t-28 -27
q-17 -12 -23.5 -24.5t-6.5 -26.5q0 -20 15 -44.5t47 -52.5z" />
    <glyph glyph-name="periodcentered.cap" horiz-adv-x="218" 
d="M50 358q0 25 17 42t42 17t42 -17t17 -42t-17 -42t-42 -17t-42 17t-17 42z" />
    <glyph glyph-name="hyphen.cap" horiz-adv-x="397" 
d="M45 381h308v-46h-308v46z" />
    <glyph glyph-name="endash.cap" horiz-adv-x="547" 
d="M45 381h457v-46h-457v46z" />
    <glyph glyph-name="emdash.cap" horiz-adv-x="747" 
d="M45 381h657v-46h-657v46z" />
    <glyph glyph-name="uni2015.cap" horiz-adv-x="947" 
d="M45 381h855v-46h-855v46z" />
    <glyph glyph-name="dagger.alt" horiz-adv-x="580" 
d="M280 -12l-30 365q-3 42 -8 69t-11.5 43t-15 22.5t-18.5 6.5q-12 0 -24 -7t-25 -16t-28 -16t-33 -7q-27 0 -43 16.5t-16 41.5q0 19 11.5 31.5t28.5 12.5q12 0 20.5 -5t15.5 -11t14 -11t16 -5q14 0 29.5 8.5t35.5 8.5q15 0 28.5 -10t22.5 -30l24 26l-39 49l40 50
q-20 15 -28.5 27.5t-8.5 25.5q0 18 14 29.5t37 11.5t37 -11.5t14 -29.5q0 -13 -8.5 -25.5t-28.5 -27.5l40 -50l-39 -49l24 -26q9 20 22.5 30t28.5 10q20 0 35.5 -8.5t29.5 -8.5q9 0 16 5t14 11t15.5 11t20.5 5q17 0 29 -12.5t12 -31.5q0 -25 -16.5 -41.5t-43.5 -16.5
q-18 0 -33 7t-28 16t-24.5 16t-23.5 7q-11 0 -19.5 -6.5t-15 -22.5t-11.5 -43t-8 -69l-30 -365h-18z" />
    </font>
</defs>
</svg>
